<?xml version="1.0" encoding="utf-8" standalone="no"?>
<!DOCTYPE svg PUBLIC "-//W3C//DTD SVG 1.1//EN"
  "http://www.w3.org/Graphics/SVG/1.1/DTD/svg11.dtd">
<svg xmlns:xlink="http://www.w3.org/1999/xlink" width="193.720625pt" height="141.668868pt" viewBox="0 0 193.720625 141.668868" xmlns="http://www.w3.org/2000/svg" version="1.1">
 <metadata>
  <rdf:RDF xmlns:dc="http://purl.org/dc/elements/1.1/" xmlns:cc="http://creativecommons.org/ns#" xmlns:rdf="http://www.w3.org/1999/02/22-rdf-syntax-ns#">
   <cc:Work>
    <dc:type rdf:resource="http://purl.org/dc/dcmitype/StillImage"/>
    <dc:date>2024-10-15T15:35:18.495800</dc:date>
    <dc:format>image/svg+xml</dc:format>
    <dc:creator>
     <cc:Agent>
      <dc:title>Matplotlib v3.8.0, https://matplotlib.org/</dc:title>
     </cc:Agent>
    </dc:creator>
   </cc:Work>
  </rdf:RDF>
 </metadata>
 <defs>
  <style type="text/css">*{stroke-linejoin: round; stroke-linecap: butt}</style>
 </defs>
 <g id="figure_1">
  <g id="patch_1">
   <path d="M 0 141.668868 
L 193.720625 141.668868 
L 193.720625 0 
L 0 0 
z
" style="fill: #ffffff"/>
  </g>
  <g id="axes_1">
   <g id="patch_2">
    <path d="M 30.130625 107.506181 
L 186.520625 107.506181 
L 186.520625 8.989453 
L 30.130625 8.989453 
z
" style="fill: #ffffff"/>
   </g>
   <g id="matplotlib.axis_1">
    <g id="xtick_1">
     <g id="line2d_1">
      <defs>
       <path id="m732969b4b1" d="M 0 0 
L 0 2.5 
" style="stroke: #262626; stroke-width: 0.5"/>
      </defs>
      <g>
       <use xlink:href="#m732969b4b1" x="43.163125" y="107.506181" style="fill: #262626; stroke: #262626; stroke-width: 0.5"/>
      </g>
     </g>
     <g id="text_1">
      <!-- $\text{PerM}^\text{n1}$ -->
      <g style="fill: #262626" transform="translate(33.621603 125.647711) rotate(-45) scale(0.05 -0.05)">
       <defs>
        <path id="DejaVuSans-50" d="M 1259 4147 
L 1259 2394 
L 2053 2394 
Q 2494 2394 2734 2622 
Q 2975 2850 2975 3272 
Q 2975 3691 2734 3919 
Q 2494 4147 2053 4147 
L 1259 4147 
z
M 628 4666 
L 2053 4666 
Q 2838 4666 3239 4311 
Q 3641 3956 3641 3272 
Q 3641 2581 3239 2228 
Q 2838 1875 2053 1875 
L 1259 1875 
L 1259 0 
L 628 0 
L 628 4666 
z
" transform="scale(0.015625)"/>
        <path id="DejaVuSans-65" d="M 3597 1894 
L 3597 1613 
L 953 1613 
Q 991 1019 1311 708 
Q 1631 397 2203 397 
Q 2534 397 2845 478 
Q 3156 559 3463 722 
L 3463 178 
Q 3153 47 2828 -22 
Q 2503 -91 2169 -91 
Q 1331 -91 842 396 
Q 353 884 353 1716 
Q 353 2575 817 3079 
Q 1281 3584 2069 3584 
Q 2775 3584 3186 3129 
Q 3597 2675 3597 1894 
z
M 3022 2063 
Q 3016 2534 2758 2815 
Q 2500 3097 2075 3097 
Q 1594 3097 1305 2825 
Q 1016 2553 972 2059 
L 3022 2063 
z
" transform="scale(0.015625)"/>
        <path id="DejaVuSans-72" d="M 2631 2963 
Q 2534 3019 2420 3045 
Q 2306 3072 2169 3072 
Q 1681 3072 1420 2755 
Q 1159 2438 1159 1844 
L 1159 0 
L 581 0 
L 581 3500 
L 1159 3500 
L 1159 2956 
Q 1341 3275 1631 3429 
Q 1922 3584 2338 3584 
Q 2397 3584 2469 3576 
Q 2541 3569 2628 3553 
L 2631 2963 
z
" transform="scale(0.015625)"/>
        <path id="DejaVuSans-4d" d="M 628 4666 
L 1569 4666 
L 2759 1491 
L 3956 4666 
L 4897 4666 
L 4897 0 
L 4281 0 
L 4281 4097 
L 3078 897 
L 2444 897 
L 1241 4097 
L 1241 0 
L 628 0 
L 628 4666 
z
" transform="scale(0.015625)"/>
        <path id="DejaVuSans-6e" d="M 3513 2113 
L 3513 0 
L 2938 0 
L 2938 2094 
Q 2938 2591 2744 2837 
Q 2550 3084 2163 3084 
Q 1697 3084 1428 2787 
Q 1159 2491 1159 1978 
L 1159 0 
L 581 0 
L 581 3500 
L 1159 3500 
L 1159 2956 
Q 1366 3272 1645 3428 
Q 1925 3584 2291 3584 
Q 2894 3584 3203 3211 
Q 3513 2838 3513 2113 
z
" transform="scale(0.015625)"/>
        <path id="DejaVuSans-31" d="M 794 531 
L 1825 531 
L 1825 4091 
L 703 3866 
L 703 4441 
L 1819 4666 
L 2450 4666 
L 2450 531 
L 3481 531 
L 3481 0 
L 794 0 
L 794 531 
z
" transform="scale(0.015625)"/>
       </defs>
       <use xlink:href="#DejaVuSans-50" transform="translate(0 0.684375)"/>
       <use xlink:href="#DejaVuSans-65" transform="translate(60.302734 0.684375)"/>
       <use xlink:href="#DejaVuSans-72" transform="translate(121.826172 0.684375)"/>
       <use xlink:href="#DejaVuSans-4d" transform="translate(162.939453 0.684375)"/>
       <use xlink:href="#DejaVuSans-6e" transform="translate(250.175781 38.965625) scale(0.7)"/>
       <use xlink:href="#DejaVuSans-31" transform="translate(294.541016 38.965625) scale(0.7)"/>
      </g>
      <!-- $\text{FtsB}^\text{ΔLQ}$ -->
      <g style="fill: #262626" transform="translate(36.648904 130.230647) rotate(-45) scale(0.05 -0.05)">
       <defs>
        <path id="DejaVuSans-46" d="M 628 4666 
L 3309 4666 
L 3309 4134 
L 1259 4134 
L 1259 2759 
L 3109 2759 
L 3109 2228 
L 1259 2228 
L 1259 0 
L 628 0 
L 628 4666 
z
" transform="scale(0.015625)"/>
        <path id="DejaVuSans-74" d="M 1172 4494 
L 1172 3500 
L 2356 3500 
L 2356 3053 
L 1172 3053 
L 1172 1153 
Q 1172 725 1289 603 
Q 1406 481 1766 481 
L 2356 481 
L 2356 0 
L 1766 0 
Q 1100 0 847 248 
Q 594 497 594 1153 
L 594 3053 
L 172 3053 
L 172 3500 
L 594 3500 
L 594 4494 
L 1172 4494 
z
" transform="scale(0.015625)"/>
        <path id="DejaVuSans-73" d="M 2834 3397 
L 2834 2853 
Q 2591 2978 2328 3040 
Q 2066 3103 1784 3103 
Q 1356 3103 1142 2972 
Q 928 2841 928 2578 
Q 928 2378 1081 2264 
Q 1234 2150 1697 2047 
L 1894 2003 
Q 2506 1872 2764 1633 
Q 3022 1394 3022 966 
Q 3022 478 2636 193 
Q 2250 -91 1575 -91 
Q 1294 -91 989 -36 
Q 684 19 347 128 
L 347 722 
Q 666 556 975 473 
Q 1284 391 1588 391 
Q 1994 391 2212 530 
Q 2431 669 2431 922 
Q 2431 1156 2273 1281 
Q 2116 1406 1581 1522 
L 1381 1569 
Q 847 1681 609 1914 
Q 372 2147 372 2553 
Q 372 3047 722 3315 
Q 1072 3584 1716 3584 
Q 2034 3584 2315 3537 
Q 2597 3491 2834 3397 
z
" transform="scale(0.015625)"/>
        <path id="DejaVuSans-42" d="M 1259 2228 
L 1259 519 
L 2272 519 
Q 2781 519 3026 730 
Q 3272 941 3272 1375 
Q 3272 1813 3026 2020 
Q 2781 2228 2272 2228 
L 1259 2228 
z
M 1259 4147 
L 1259 2741 
L 2194 2741 
Q 2656 2741 2882 2914 
Q 3109 3088 3109 3444 
Q 3109 3797 2882 3972 
Q 2656 4147 2194 4147 
L 1259 4147 
z
M 628 4666 
L 2241 4666 
Q 2963 4666 3353 4366 
Q 3744 4066 3744 3513 
Q 3744 3084 3544 2831 
Q 3344 2578 2956 2516 
Q 3422 2416 3680 2098 
Q 3938 1781 3938 1306 
Q 3938 681 3513 340 
Q 3088 0 2303 0 
L 628 0 
L 628 4666 
z
" transform="scale(0.015625)"/>
        <path id="DejaVuSans-394" d="M 2188 4044 
L 906 525 
L 3472 525 
L 2188 4044 
z
M 50 0 
L 1831 4666 
L 2547 4666 
L 4325 0 
L 50 0 
z
" transform="scale(0.015625)"/>
        <path id="DejaVuSans-4c" d="M 628 4666 
L 1259 4666 
L 1259 531 
L 3531 531 
L 3531 0 
L 628 0 
L 628 4666 
z
" transform="scale(0.015625)"/>
        <path id="DejaVuSans-51" d="M 2522 4238 
Q 1834 4238 1429 3725 
Q 1025 3213 1025 2328 
Q 1025 1447 1429 934 
Q 1834 422 2522 422 
Q 3209 422 3611 934 
Q 4013 1447 4013 2328 
Q 4013 3213 3611 3725 
Q 3209 4238 2522 4238 
z
M 3406 84 
L 4238 -825 
L 3475 -825 
L 2784 -78 
Q 2681 -84 2626 -87 
Q 2572 -91 2522 -91 
Q 1538 -91 948 567 
Q 359 1225 359 2328 
Q 359 3434 948 4092 
Q 1538 4750 2522 4750 
Q 3503 4750 4090 4092 
Q 4678 3434 4678 2328 
Q 4678 1516 4351 937 
Q 4025 359 3406 84 
z
" transform="scale(0.015625)"/>
       </defs>
       <use xlink:href="#DejaVuSans-46" transform="translate(0 0.765625)"/>
       <use xlink:href="#DejaVuSans-74" transform="translate(57.519531 0.765625)"/>
       <use xlink:href="#DejaVuSans-73" transform="translate(96.728516 0.765625)"/>
       <use xlink:href="#DejaVuSans-42" transform="translate(148.828125 0.765625)"/>
       <use xlink:href="#DejaVuSans-394" transform="translate(218.388672 39.046875) scale(0.7)"/>
       <use xlink:href="#DejaVuSans-4c" transform="translate(266.274414 39.046875) scale(0.7)"/>
       <use xlink:href="#DejaVuSans-51" transform="translate(305.273438 39.046875) scale(0.7)"/>
      </g>
     </g>
    </g>
    <g id="xtick_2">
     <g id="line2d_2">
      <g>
       <use xlink:href="#m732969b4b1" x="69.228125" y="107.506181" style="fill: #262626; stroke: #262626; stroke-width: 0.5"/>
      </g>
     </g>
     <g id="text_2">
      <!-- $\text{Pf3}$ -->
      <g style="fill: #262626" transform="translate(66.10194 119.193705) rotate(-45) scale(0.05 -0.05)">
       <defs>
        <path id="DejaVuSans-66" d="M 2375 4863 
L 2375 4384 
L 1825 4384 
Q 1516 4384 1395 4259 
Q 1275 4134 1275 3809 
L 1275 3500 
L 2222 3500 
L 2222 3053 
L 1275 3053 
L 1275 0 
L 697 0 
L 697 3053 
L 147 3053 
L 147 3500 
L 697 3500 
L 697 3744 
Q 697 4328 969 4595 
Q 1241 4863 1831 4863 
L 2375 4863 
z
" transform="scale(0.015625)"/>
        <path id="DejaVuSans-33" d="M 2597 2516 
Q 3050 2419 3304 2112 
Q 3559 1806 3559 1356 
Q 3559 666 3084 287 
Q 2609 -91 1734 -91 
Q 1441 -91 1130 -33 
Q 819 25 488 141 
L 488 750 
Q 750 597 1062 519 
Q 1375 441 1716 441 
Q 2309 441 2620 675 
Q 2931 909 2931 1356 
Q 2931 1769 2642 2001 
Q 2353 2234 1838 2234 
L 1294 2234 
L 1294 2753 
L 1863 2753 
Q 2328 2753 2575 2939 
Q 2822 3125 2822 3475 
Q 2822 3834 2567 4026 
Q 2313 4219 1838 4219 
Q 1578 4219 1281 4162 
Q 984 4106 628 3988 
L 628 4550 
Q 988 4650 1302 4700 
Q 1616 4750 1894 4750 
Q 2613 4750 3031 4423 
Q 3450 4097 3450 3541 
Q 3450 3153 3228 2886 
Q 3006 2619 2597 2516 
z
" transform="scale(0.015625)"/>
       </defs>
       <use xlink:href="#DejaVuSans-50" transform="translate(0 0.015625)"/>
       <use xlink:href="#DejaVuSans-66" transform="translate(60.302734 0.015625)"/>
       <use xlink:href="#DejaVuSans-33" transform="translate(95.507812 0.015625)"/>
      </g>
      <!-- $\text{FtsB}^\text{ΔLQ}$ -->
      <g style="fill: #262626" transform="translate(62.694569 130.211312) rotate(-45) scale(0.05 -0.05)">
       <use xlink:href="#DejaVuSans-46" transform="translate(0 0.765625)"/>
       <use xlink:href="#DejaVuSans-74" transform="translate(57.519531 0.765625)"/>
       <use xlink:href="#DejaVuSans-73" transform="translate(96.728516 0.765625)"/>
       <use xlink:href="#DejaVuSans-42" transform="translate(148.828125 0.765625)"/>
       <use xlink:href="#DejaVuSans-394" transform="translate(218.388672 39.046875) scale(0.7)"/>
       <use xlink:href="#DejaVuSans-4c" transform="translate(266.274414 39.046875) scale(0.7)"/>
       <use xlink:href="#DejaVuSans-51" transform="translate(305.273438 39.046875) scale(0.7)"/>
      </g>
     </g>
    </g>
    <g id="xtick_3">
     <g id="line2d_3">
      <g>
       <use xlink:href="#m732969b4b1" x="95.293125" y="107.506181" style="fill: #262626; stroke: #262626; stroke-width: 0.5"/>
      </g>
     </g>
     <g id="text_3">
      <!-- $\text{PerM}^\text{n1}$ -->
      <g style="fill: #262626" transform="translate(85.751603 125.647711) rotate(-45) scale(0.05 -0.05)">
       <use xlink:href="#DejaVuSans-50" transform="translate(0 0.684375)"/>
       <use xlink:href="#DejaVuSans-65" transform="translate(60.302734 0.684375)"/>
       <use xlink:href="#DejaVuSans-72" transform="translate(121.826172 0.684375)"/>
       <use xlink:href="#DejaVuSans-4d" transform="translate(162.939453 0.684375)"/>
       <use xlink:href="#DejaVuSans-6e" transform="translate(250.175781 38.965625) scale(0.7)"/>
       <use xlink:href="#DejaVuSans-31" transform="translate(294.541016 38.965625) scale(0.7)"/>
      </g>
      <!-- $\text{FtsB}$ -->
      <g style="fill: #262626" transform="translate(93.875155 125.003139) rotate(-45) scale(0.05 -0.05)">
       <use xlink:href="#DejaVuSans-46" transform="translate(0 0.09375)"/>
       <use xlink:href="#DejaVuSans-74" transform="translate(57.519531 0.09375)"/>
       <use xlink:href="#DejaVuSans-73" transform="translate(96.728516 0.09375)"/>
       <use xlink:href="#DejaVuSans-42" transform="translate(148.828125 0.09375)"/>
      </g>
     </g>
    </g>
    <g id="xtick_4">
     <g id="line2d_4">
      <g>
       <use xlink:href="#m732969b4b1" x="121.358125" y="107.506181" style="fill: #262626; stroke: #262626; stroke-width: 0.5"/>
      </g>
     </g>
     <g id="text_4">
      <!-- $\text{PerM}^\text{n1}$ -->
      <g style="fill: #262626" transform="translate(111.816603 125.647711) rotate(-45) scale(0.05 -0.05)">
       <use xlink:href="#DejaVuSans-50" transform="translate(0 0.684375)"/>
       <use xlink:href="#DejaVuSans-65" transform="translate(60.302734 0.684375)"/>
       <use xlink:href="#DejaVuSans-72" transform="translate(121.826172 0.684375)"/>
       <use xlink:href="#DejaVuSans-4d" transform="translate(162.939453 0.684375)"/>
       <use xlink:href="#DejaVuSans-6e" transform="translate(250.175781 38.965625) scale(0.7)"/>
       <use xlink:href="#DejaVuSans-31" transform="translate(294.541016 38.965625) scale(0.7)"/>
      </g>
      <!-- $\mathbf{↓}\text{FtsB}^\text{ΔLQ}$ -->
      <g style="fill: #262626" transform="translate(111.909411 133.16514) rotate(-45) scale(0.05 -0.05)">
       <defs>
        <path id="DejaVuSans-Bold-2193" d="M 2903 -22 
L 2466 -22 
L 1238 1206 
L 1691 1659 
L 2309 1041 
L 2309 4666 
L 3059 4666 
L 3059 1041 
L 3678 1659 
L 4131 1206 
L 2903 -22 
z
" transform="scale(0.015625)"/>
       </defs>
       <use xlink:href="#DejaVuSans-Bold-2193" transform="translate(0 0.765625)"/>
       <use xlink:href="#DejaVuSans-46" transform="translate(83.789062 0.765625)"/>
       <use xlink:href="#DejaVuSans-74" transform="translate(141.308594 0.765625)"/>
       <use xlink:href="#DejaVuSans-73" transform="translate(180.517578 0.765625)"/>
       <use xlink:href="#DejaVuSans-42" transform="translate(232.617188 0.765625)"/>
       <use xlink:href="#DejaVuSans-394" transform="translate(302.177734 39.046875) scale(0.7)"/>
       <use xlink:href="#DejaVuSans-4c" transform="translate(350.063477 39.046875) scale(0.7)"/>
       <use xlink:href="#DejaVuSans-51" transform="translate(389.0625 39.046875) scale(0.7)"/>
      </g>
     </g>
    </g>
    <g id="xtick_5">
     <g id="line2d_5">
      <g>
       <use xlink:href="#m732969b4b1" x="147.423125" y="107.506181" style="fill: #262626; stroke: #262626; stroke-width: 0.5"/>
      </g>
     </g>
     <g id="text_5">
      <!-- $\text{PerM}^\text{n1}$ -->
      <g style="fill: #262626" transform="translate(137.881603 125.647711) rotate(-45) scale(0.05 -0.05)">
       <use xlink:href="#DejaVuSans-50" transform="translate(0 0.684375)"/>
       <use xlink:href="#DejaVuSans-65" transform="translate(60.302734 0.684375)"/>
       <use xlink:href="#DejaVuSans-72" transform="translate(121.826172 0.684375)"/>
       <use xlink:href="#DejaVuSans-4d" transform="translate(162.939453 0.684375)"/>
       <use xlink:href="#DejaVuSans-6e" transform="translate(250.175781 38.965625) scale(0.7)"/>
       <use xlink:href="#DejaVuSans-31" transform="translate(294.541016 38.965625) scale(0.7)"/>
      </g>
      <!-- $\text{FtsB}^\text{ΔLQΔH}$ -->
      <g style="fill: #262626" transform="translate(137.37337 133.766181) rotate(-45) scale(0.05 -0.05)">
       <defs>
        <path id="DejaVuSans-48" d="M 628 4666 
L 1259 4666 
L 1259 2753 
L 3553 2753 
L 3553 4666 
L 4184 4666 
L 4184 0 
L 3553 0 
L 3553 2222 
L 1259 2222 
L 1259 0 
L 628 0 
L 628 4666 
z
" transform="scale(0.015625)"/>
       </defs>
       <use xlink:href="#DejaVuSans-46" transform="translate(0 0.765625)"/>
       <use xlink:href="#DejaVuSans-74" transform="translate(57.519531 0.765625)"/>
       <use xlink:href="#DejaVuSans-73" transform="translate(96.728516 0.765625)"/>
       <use xlink:href="#DejaVuSans-42" transform="translate(148.828125 0.765625)"/>
       <use xlink:href="#DejaVuSans-394" transform="translate(218.388672 39.046875) scale(0.7)"/>
       <use xlink:href="#DejaVuSans-4c" transform="translate(266.274414 39.046875) scale(0.7)"/>
       <use xlink:href="#DejaVuSans-51" transform="translate(305.273438 39.046875) scale(0.7)"/>
       <use xlink:href="#DejaVuSans-394" transform="translate(360.371094 39.046875) scale(0.7)"/>
       <use xlink:href="#DejaVuSans-48" transform="translate(408.256836 39.046875) scale(0.7)"/>
      </g>
     </g>
    </g>
    <g id="xtick_6">
     <g id="line2d_6">
      <g>
       <use xlink:href="#m732969b4b1" x="173.488125" y="107.506181" style="fill: #262626; stroke: #262626; stroke-width: 0.5"/>
      </g>
     </g>
     <g id="text_6">
      <!-- $\text{mNG}$ -->
      <g style="fill: #262626" transform="translate(167.179959 122.375685) rotate(-45) scale(0.05 -0.05)">
       <defs>
        <path id="DejaVuSans-6d" d="M 3328 2828 
Q 3544 3216 3844 3400 
Q 4144 3584 4550 3584 
Q 5097 3584 5394 3201 
Q 5691 2819 5691 2113 
L 5691 0 
L 5113 0 
L 5113 2094 
Q 5113 2597 4934 2840 
Q 4756 3084 4391 3084 
Q 3944 3084 3684 2787 
Q 3425 2491 3425 1978 
L 3425 0 
L 2847 0 
L 2847 2094 
Q 2847 2600 2669 2842 
Q 2491 3084 2119 3084 
Q 1678 3084 1418 2786 
Q 1159 2488 1159 1978 
L 1159 0 
L 581 0 
L 581 3500 
L 1159 3500 
L 1159 2956 
Q 1356 3278 1631 3431 
Q 1906 3584 2284 3584 
Q 2666 3584 2933 3390 
Q 3200 3197 3328 2828 
z
" transform="scale(0.015625)"/>
        <path id="DejaVuSans-4e" d="M 628 4666 
L 1478 4666 
L 3547 763 
L 3547 4666 
L 4159 4666 
L 4159 0 
L 3309 0 
L 1241 3903 
L 1241 0 
L 628 0 
L 628 4666 
z
" transform="scale(0.015625)"/>
        <path id="DejaVuSans-47" d="M 3809 666 
L 3809 1919 
L 2778 1919 
L 2778 2438 
L 4434 2438 
L 4434 434 
Q 4069 175 3628 42 
Q 3188 -91 2688 -91 
Q 1594 -91 976 548 
Q 359 1188 359 2328 
Q 359 3472 976 4111 
Q 1594 4750 2688 4750 
Q 3144 4750 3555 4637 
Q 3966 4525 4313 4306 
L 4313 3634 
Q 3963 3931 3569 4081 
Q 3175 4231 2741 4231 
Q 1884 4231 1454 3753 
Q 1025 3275 1025 2328 
Q 1025 1384 1454 906 
Q 1884 428 2741 428 
Q 3075 428 3337 486 
Q 3600 544 3809 666 
z
" transform="scale(0.015625)"/>
       </defs>
       <use xlink:href="#DejaVuSans-6d" transform="translate(0 0.78125)"/>
       <use xlink:href="#DejaVuSans-4e" transform="translate(97.412109 0.78125)"/>
       <use xlink:href="#DejaVuSans-47" transform="translate(172.216797 0.78125)"/>
      </g>
      <!-- $\text{FtsB}^\text{ΔLQ}$ -->
      <g style="fill: #262626" transform="translate(166.954569 130.211312) rotate(-45) scale(0.05 -0.05)">
       <use xlink:href="#DejaVuSans-46" transform="translate(0 0.765625)"/>
       <use xlink:href="#DejaVuSans-74" transform="translate(57.519531 0.765625)"/>
       <use xlink:href="#DejaVuSans-73" transform="translate(96.728516 0.765625)"/>
       <use xlink:href="#DejaVuSans-42" transform="translate(148.828125 0.765625)"/>
       <use xlink:href="#DejaVuSans-394" transform="translate(218.388672 39.046875) scale(0.7)"/>
       <use xlink:href="#DejaVuSans-4c" transform="translate(266.274414 39.046875) scale(0.7)"/>
       <use xlink:href="#DejaVuSans-51" transform="translate(305.273438 39.046875) scale(0.7)"/>
      </g>
     </g>
    </g>
   </g>
   <g id="matplotlib.axis_2">
    <g id="ytick_1">
     <g id="line2d_7">
      <defs>
       <path id="m9759fa2314" d="M 0 0 
L -2.5 0 
" style="stroke: #262626; stroke-width: 0.5"/>
      </defs>
      <g>
       <use xlink:href="#m9759fa2314" x="30.130625" y="100.9384" style="fill: #262626; stroke: #262626; stroke-width: 0.5"/>
      </g>
     </g>
     <g id="text_7">
      <!-- −0.4 -->
      <g style="fill: #262626" transform="translate(16.760313 102.727853) scale(0.05 -0.05)">
       <defs>
        <path id="ArialMT-2212" d="M 3381 1997 
L 356 1997 
L 356 2522 
L 3381 2522 
L 3381 1997 
z
" transform="scale(0.015625)"/>
        <path id="ArialMT-30" d="M 266 2259 
Q 266 3072 433 3567 
Q 600 4063 929 4331 
Q 1259 4600 1759 4600 
Q 2128 4600 2406 4451 
Q 2684 4303 2865 4023 
Q 3047 3744 3150 3342 
Q 3253 2941 3253 2259 
Q 3253 1453 3087 958 
Q 2922 463 2592 192 
Q 2263 -78 1759 -78 
Q 1097 -78 719 397 
Q 266 969 266 2259 
z
M 844 2259 
Q 844 1131 1108 757 
Q 1372 384 1759 384 
Q 2147 384 2411 759 
Q 2675 1134 2675 2259 
Q 2675 3391 2411 3762 
Q 2147 4134 1753 4134 
Q 1366 4134 1134 3806 
Q 844 3388 844 2259 
z
" transform="scale(0.015625)"/>
        <path id="ArialMT-2e" d="M 581 0 
L 581 641 
L 1222 641 
L 1222 0 
L 581 0 
z
" transform="scale(0.015625)"/>
        <path id="ArialMT-34" d="M 2069 0 
L 2069 1097 
L 81 1097 
L 81 1613 
L 2172 4581 
L 2631 4581 
L 2631 1613 
L 3250 1613 
L 3250 1097 
L 2631 1097 
L 2631 0 
L 2069 0 
z
M 2069 1613 
L 2069 3678 
L 634 1613 
L 2069 1613 
z
" transform="scale(0.015625)"/>
       </defs>
       <use xlink:href="#ArialMT-2212"/>
       <use xlink:href="#ArialMT-30" x="58.398438"/>
       <use xlink:href="#ArialMT-2e" x="114.013672"/>
       <use xlink:href="#ArialMT-34" x="141.796875"/>
      </g>
     </g>
    </g>
    <g id="ytick_2">
     <g id="line2d_8">
      <g>
       <use xlink:href="#m9759fa2314" x="30.130625" y="87.802836" style="fill: #262626; stroke: #262626; stroke-width: 0.5"/>
      </g>
     </g>
     <g id="text_8">
      <!-- −0.2 -->
      <g style="fill: #262626" transform="translate(16.760313 89.592289) scale(0.05 -0.05)">
       <defs>
        <path id="ArialMT-32" d="M 3222 541 
L 3222 0 
L 194 0 
Q 188 203 259 391 
Q 375 700 629 1000 
Q 884 1300 1366 1694 
Q 2113 2306 2375 2664 
Q 2638 3022 2638 3341 
Q 2638 3675 2398 3904 
Q 2159 4134 1775 4134 
Q 1369 4134 1125 3890 
Q 881 3647 878 3216 
L 300 3275 
Q 359 3922 746 4261 
Q 1134 4600 1788 4600 
Q 2447 4600 2831 4234 
Q 3216 3869 3216 3328 
Q 3216 3053 3103 2787 
Q 2991 2522 2730 2228 
Q 2469 1934 1863 1422 
Q 1356 997 1212 845 
Q 1069 694 975 541 
L 3222 541 
z
" transform="scale(0.015625)"/>
       </defs>
       <use xlink:href="#ArialMT-2212"/>
       <use xlink:href="#ArialMT-30" x="58.398438"/>
       <use xlink:href="#ArialMT-2e" x="114.013672"/>
       <use xlink:href="#ArialMT-32" x="141.796875"/>
      </g>
     </g>
    </g>
    <g id="ytick_3">
     <g id="line2d_9">
      <g>
       <use xlink:href="#m9759fa2314" x="30.130625" y="74.667272" style="fill: #262626; stroke: #262626; stroke-width: 0.5"/>
      </g>
     </g>
     <g id="text_9">
      <!-- 0.0 -->
      <g style="fill: #262626" transform="translate(19.680625 76.456725) scale(0.05 -0.05)">
       <use xlink:href="#ArialMT-30"/>
       <use xlink:href="#ArialMT-2e" x="55.615234"/>
       <use xlink:href="#ArialMT-30" x="83.398438"/>
      </g>
     </g>
    </g>
    <g id="ytick_4">
     <g id="line2d_10">
      <g>
       <use xlink:href="#m9759fa2314" x="30.130625" y="61.531708" style="fill: #262626; stroke: #262626; stroke-width: 0.5"/>
      </g>
     </g>
     <g id="text_10">
      <!-- 0.2 -->
      <g style="fill: #262626" transform="translate(19.680625 63.321161) scale(0.05 -0.05)">
       <use xlink:href="#ArialMT-30"/>
       <use xlink:href="#ArialMT-2e" x="55.615234"/>
       <use xlink:href="#ArialMT-32" x="83.398438"/>
      </g>
     </g>
    </g>
    <g id="ytick_5">
     <g id="line2d_11">
      <g>
       <use xlink:href="#m9759fa2314" x="30.130625" y="48.396144" style="fill: #262626; stroke: #262626; stroke-width: 0.5"/>
      </g>
     </g>
     <g id="text_11">
      <!-- 0.4 -->
      <g style="fill: #262626" transform="translate(19.680625 50.185598) scale(0.05 -0.05)">
       <use xlink:href="#ArialMT-30"/>
       <use xlink:href="#ArialMT-2e" x="55.615234"/>
       <use xlink:href="#ArialMT-34" x="83.398438"/>
      </g>
     </g>
    </g>
    <g id="ytick_6">
     <g id="line2d_12">
      <g>
       <use xlink:href="#m9759fa2314" x="30.130625" y="35.260581" style="fill: #262626; stroke: #262626; stroke-width: 0.5"/>
      </g>
     </g>
     <g id="text_12">
      <!-- 0.6 -->
      <g style="fill: #262626" transform="translate(19.680625 37.050034) scale(0.05 -0.05)">
       <defs>
        <path id="ArialMT-36" d="M 3184 3459 
L 2625 3416 
Q 2550 3747 2413 3897 
Q 2184 4138 1850 4138 
Q 1581 4138 1378 3988 
Q 1113 3794 959 3422 
Q 806 3050 800 2363 
Q 1003 2672 1297 2822 
Q 1591 2972 1913 2972 
Q 2475 2972 2870 2558 
Q 3266 2144 3266 1488 
Q 3266 1056 3080 686 
Q 2894 316 2569 119 
Q 2244 -78 1831 -78 
Q 1128 -78 684 439 
Q 241 956 241 2144 
Q 241 3472 731 4075 
Q 1159 4600 1884 4600 
Q 2425 4600 2770 4297 
Q 3116 3994 3184 3459 
z
M 888 1484 
Q 888 1194 1011 928 
Q 1134 663 1356 523 
Q 1578 384 1822 384 
Q 2178 384 2434 671 
Q 2691 959 2691 1453 
Q 2691 1928 2437 2201 
Q 2184 2475 1800 2475 
Q 1419 2475 1153 2201 
Q 888 1928 888 1484 
z
" transform="scale(0.015625)"/>
       </defs>
       <use xlink:href="#ArialMT-30"/>
       <use xlink:href="#ArialMT-2e" x="55.615234"/>
       <use xlink:href="#ArialMT-36" x="83.398438"/>
      </g>
     </g>
    </g>
    <g id="ytick_7">
     <g id="line2d_13">
      <g>
       <use xlink:href="#m9759fa2314" x="30.130625" y="22.125017" style="fill: #262626; stroke: #262626; stroke-width: 0.5"/>
      </g>
     </g>
     <g id="text_13">
      <!-- 0.8 -->
      <g style="fill: #262626" transform="translate(19.680625 23.91447) scale(0.05 -0.05)">
       <defs>
        <path id="ArialMT-38" d="M 1131 2484 
Q 781 2613 612 2850 
Q 444 3088 444 3419 
Q 444 3919 803 4259 
Q 1163 4600 1759 4600 
Q 2359 4600 2725 4251 
Q 3091 3903 3091 3403 
Q 3091 3084 2923 2848 
Q 2756 2613 2416 2484 
Q 2838 2347 3058 2040 
Q 3278 1734 3278 1309 
Q 3278 722 2862 322 
Q 2447 -78 1769 -78 
Q 1091 -78 675 323 
Q 259 725 259 1325 
Q 259 1772 486 2073 
Q 713 2375 1131 2484 
z
M 1019 3438 
Q 1019 3113 1228 2906 
Q 1438 2700 1772 2700 
Q 2097 2700 2305 2904 
Q 2513 3109 2513 3406 
Q 2513 3716 2298 3927 
Q 2084 4138 1766 4138 
Q 1444 4138 1231 3931 
Q 1019 3725 1019 3438 
z
M 838 1322 
Q 838 1081 952 856 
Q 1066 631 1291 507 
Q 1516 384 1775 384 
Q 2178 384 2440 643 
Q 2703 903 2703 1303 
Q 2703 1709 2433 1975 
Q 2163 2241 1756 2241 
Q 1359 2241 1098 1978 
Q 838 1716 838 1322 
z
" transform="scale(0.015625)"/>
       </defs>
       <use xlink:href="#ArialMT-30"/>
       <use xlink:href="#ArialMT-2e" x="55.615234"/>
       <use xlink:href="#ArialMT-38" x="83.398438"/>
      </g>
     </g>
    </g>
    <g id="ytick_8">
     <g id="line2d_14">
      <g>
       <use xlink:href="#m9759fa2314" x="30.130625" y="8.989453" style="fill: #262626; stroke: #262626; stroke-width: 0.5"/>
      </g>
     </g>
     <g id="text_14">
      <!-- 1.0 -->
      <g style="fill: #262626" transform="translate(19.680625 10.778906) scale(0.05 -0.05)">
       <defs>
        <path id="ArialMT-31" d="M 2384 0 
L 1822 0 
L 1822 3584 
Q 1619 3391 1289 3197 
Q 959 3003 697 2906 
L 697 3450 
Q 1169 3672 1522 3987 
Q 1875 4303 2022 4600 
L 2384 4600 
L 2384 0 
z
" transform="scale(0.015625)"/>
       </defs>
       <use xlink:href="#ArialMT-31"/>
       <use xlink:href="#ArialMT-2e" x="55.615234"/>
       <use xlink:href="#ArialMT-30" x="83.398438"/>
      </g>
     </g>
    </g>
    <g id="text_15">
     <!-- mTurquoise2-mNeonGreen correlation -->
     <g style="fill: #262626" transform="translate(11.567813 109.487349) rotate(-90) scale(0.06 -0.06)">
      <defs>
       <path id="ArialMT-6d" d="M 422 0 
L 422 3319 
L 925 3319 
L 925 2853 
Q 1081 3097 1340 3245 
Q 1600 3394 1931 3394 
Q 2300 3394 2536 3241 
Q 2772 3088 2869 2813 
Q 3263 3394 3894 3394 
Q 4388 3394 4653 3120 
Q 4919 2847 4919 2278 
L 4919 0 
L 4359 0 
L 4359 2091 
Q 4359 2428 4304 2576 
Q 4250 2725 4106 2815 
Q 3963 2906 3769 2906 
Q 3419 2906 3187 2673 
Q 2956 2441 2956 1928 
L 2956 0 
L 2394 0 
L 2394 2156 
Q 2394 2531 2256 2718 
Q 2119 2906 1806 2906 
Q 1569 2906 1367 2781 
Q 1166 2656 1075 2415 
Q 984 2175 984 1722 
L 984 0 
L 422 0 
z
" transform="scale(0.015625)"/>
       <path id="ArialMT-54" d="M 1659 0 
L 1659 4041 
L 150 4041 
L 150 4581 
L 3781 4581 
L 3781 4041 
L 2266 4041 
L 2266 0 
L 1659 0 
z
" transform="scale(0.015625)"/>
       <path id="ArialMT-75" d="M 2597 0 
L 2597 488 
Q 2209 -75 1544 -75 
Q 1250 -75 995 37 
Q 741 150 617 320 
Q 494 491 444 738 
Q 409 903 409 1263 
L 409 3319 
L 972 3319 
L 972 1478 
Q 972 1038 1006 884 
Q 1059 663 1231 536 
Q 1403 409 1656 409 
Q 1909 409 2131 539 
Q 2353 669 2445 892 
Q 2538 1116 2538 1541 
L 2538 3319 
L 3100 3319 
L 3100 0 
L 2597 0 
z
" transform="scale(0.015625)"/>
       <path id="ArialMT-72" d="M 416 0 
L 416 3319 
L 922 3319 
L 922 2816 
Q 1116 3169 1280 3281 
Q 1444 3394 1641 3394 
Q 1925 3394 2219 3213 
L 2025 2691 
Q 1819 2813 1613 2813 
Q 1428 2813 1281 2702 
Q 1134 2591 1072 2394 
Q 978 2094 978 1738 
L 978 0 
L 416 0 
z
" transform="scale(0.015625)"/>
       <path id="ArialMT-71" d="M 2538 -1272 
L 2538 353 
Q 2406 169 2170 47 
Q 1934 -75 1669 -75 
Q 1078 -75 651 397 
Q 225 869 225 1691 
Q 225 2191 398 2587 
Q 572 2984 901 3189 
Q 1231 3394 1625 3394 
Q 2241 3394 2594 2875 
L 2594 3319 
L 3100 3319 
L 3100 -1272 
L 2538 -1272 
z
M 803 1669 
Q 803 1028 1072 708 
Q 1341 388 1716 388 
Q 2075 388 2334 692 
Q 2594 997 2594 1619 
Q 2594 2281 2320 2615 
Q 2047 2950 1678 2950 
Q 1313 2950 1058 2639 
Q 803 2328 803 1669 
z
" transform="scale(0.015625)"/>
       <path id="ArialMT-6f" d="M 213 1659 
Q 213 2581 725 3025 
Q 1153 3394 1769 3394 
Q 2453 3394 2887 2945 
Q 3322 2497 3322 1706 
Q 3322 1066 3130 698 
Q 2938 331 2570 128 
Q 2203 -75 1769 -75 
Q 1072 -75 642 372 
Q 213 819 213 1659 
z
M 791 1659 
Q 791 1022 1069 705 
Q 1347 388 1769 388 
Q 2188 388 2466 706 
Q 2744 1025 2744 1678 
Q 2744 2294 2464 2611 
Q 2184 2928 1769 2928 
Q 1347 2928 1069 2612 
Q 791 2297 791 1659 
z
" transform="scale(0.015625)"/>
       <path id="ArialMT-69" d="M 425 3934 
L 425 4581 
L 988 4581 
L 988 3934 
L 425 3934 
z
M 425 0 
L 425 3319 
L 988 3319 
L 988 0 
L 425 0 
z
" transform="scale(0.015625)"/>
       <path id="ArialMT-73" d="M 197 991 
L 753 1078 
Q 800 744 1014 566 
Q 1228 388 1613 388 
Q 2000 388 2187 545 
Q 2375 703 2375 916 
Q 2375 1106 2209 1216 
Q 2094 1291 1634 1406 
Q 1016 1563 777 1677 
Q 538 1791 414 1992 
Q 291 2194 291 2438 
Q 291 2659 392 2848 
Q 494 3038 669 3163 
Q 800 3259 1026 3326 
Q 1253 3394 1513 3394 
Q 1903 3394 2198 3281 
Q 2494 3169 2634 2976 
Q 2775 2784 2828 2463 
L 2278 2388 
Q 2241 2644 2061 2787 
Q 1881 2931 1553 2931 
Q 1166 2931 1000 2803 
Q 834 2675 834 2503 
Q 834 2394 903 2306 
Q 972 2216 1119 2156 
Q 1203 2125 1616 2013 
Q 2213 1853 2448 1751 
Q 2684 1650 2818 1456 
Q 2953 1263 2953 975 
Q 2953 694 2789 445 
Q 2625 197 2315 61 
Q 2006 -75 1616 -75 
Q 969 -75 630 194 
Q 291 463 197 991 
z
" transform="scale(0.015625)"/>
       <path id="ArialMT-65" d="M 2694 1069 
L 3275 997 
Q 3138 488 2766 206 
Q 2394 -75 1816 -75 
Q 1088 -75 661 373 
Q 234 822 234 1631 
Q 234 2469 665 2931 
Q 1097 3394 1784 3394 
Q 2450 3394 2872 2941 
Q 3294 2488 3294 1666 
Q 3294 1616 3291 1516 
L 816 1516 
Q 847 969 1125 678 
Q 1403 388 1819 388 
Q 2128 388 2347 550 
Q 2566 713 2694 1069 
z
M 847 1978 
L 2700 1978 
Q 2663 2397 2488 2606 
Q 2219 2931 1791 2931 
Q 1403 2931 1139 2672 
Q 875 2413 847 1978 
z
" transform="scale(0.015625)"/>
       <path id="ArialMT-2d" d="M 203 1375 
L 203 1941 
L 1931 1941 
L 1931 1375 
L 203 1375 
z
" transform="scale(0.015625)"/>
       <path id="ArialMT-4e" d="M 488 0 
L 488 4581 
L 1109 4581 
L 3516 984 
L 3516 4581 
L 4097 4581 
L 4097 0 
L 3475 0 
L 1069 3600 
L 1069 0 
L 488 0 
z
" transform="scale(0.015625)"/>
       <path id="ArialMT-6e" d="M 422 0 
L 422 3319 
L 928 3319 
L 928 2847 
Q 1294 3394 1984 3394 
Q 2284 3394 2536 3286 
Q 2788 3178 2913 3003 
Q 3038 2828 3088 2588 
Q 3119 2431 3119 2041 
L 3119 0 
L 2556 0 
L 2556 2019 
Q 2556 2363 2490 2533 
Q 2425 2703 2258 2804 
Q 2091 2906 1866 2906 
Q 1506 2906 1245 2678 
Q 984 2450 984 1813 
L 984 0 
L 422 0 
z
" transform="scale(0.015625)"/>
       <path id="ArialMT-47" d="M 2638 1797 
L 2638 2334 
L 4578 2338 
L 4578 638 
Q 4131 281 3656 101 
Q 3181 -78 2681 -78 
Q 2006 -78 1454 211 
Q 903 500 622 1047 
Q 341 1594 341 2269 
Q 341 2938 620 3517 
Q 900 4097 1425 4378 
Q 1950 4659 2634 4659 
Q 3131 4659 3532 4498 
Q 3934 4338 4162 4050 
Q 4391 3763 4509 3300 
L 3963 3150 
Q 3859 3500 3706 3700 
Q 3553 3900 3268 4020 
Q 2984 4141 2638 4141 
Q 2222 4141 1919 4014 
Q 1616 3888 1430 3681 
Q 1244 3475 1141 3228 
Q 966 2803 966 2306 
Q 966 1694 1177 1281 
Q 1388 869 1791 669 
Q 2194 469 2647 469 
Q 3041 469 3416 620 
Q 3791 772 3984 944 
L 3984 1797 
L 2638 1797 
z
" transform="scale(0.015625)"/>
       <path id="ArialMT-20" transform="scale(0.015625)"/>
       <path id="ArialMT-63" d="M 2588 1216 
L 3141 1144 
Q 3050 572 2676 248 
Q 2303 -75 1759 -75 
Q 1078 -75 664 370 
Q 250 816 250 1647 
Q 250 2184 428 2587 
Q 606 2991 970 3192 
Q 1334 3394 1763 3394 
Q 2303 3394 2647 3120 
Q 2991 2847 3088 2344 
L 2541 2259 
Q 2463 2594 2264 2762 
Q 2066 2931 1784 2931 
Q 1359 2931 1093 2626 
Q 828 2322 828 1663 
Q 828 994 1084 691 
Q 1341 388 1753 388 
Q 2084 388 2306 591 
Q 2528 794 2588 1216 
z
" transform="scale(0.015625)"/>
       <path id="ArialMT-6c" d="M 409 0 
L 409 4581 
L 972 4581 
L 972 0 
L 409 0 
z
" transform="scale(0.015625)"/>
       <path id="ArialMT-61" d="M 2588 409 
Q 2275 144 1986 34 
Q 1697 -75 1366 -75 
Q 819 -75 525 192 
Q 231 459 231 875 
Q 231 1119 342 1320 
Q 453 1522 633 1644 
Q 813 1766 1038 1828 
Q 1203 1872 1538 1913 
Q 2219 1994 2541 2106 
Q 2544 2222 2544 2253 
Q 2544 2597 2384 2738 
Q 2169 2928 1744 2928 
Q 1347 2928 1158 2789 
Q 969 2650 878 2297 
L 328 2372 
Q 403 2725 575 2942 
Q 747 3159 1072 3276 
Q 1397 3394 1825 3394 
Q 2250 3394 2515 3294 
Q 2781 3194 2906 3042 
Q 3031 2891 3081 2659 
Q 3109 2516 3109 2141 
L 3109 1391 
Q 3109 606 3145 398 
Q 3181 191 3288 0 
L 2700 0 
Q 2613 175 2588 409 
z
M 2541 1666 
Q 2234 1541 1622 1453 
Q 1275 1403 1131 1340 
Q 988 1278 909 1158 
Q 831 1038 831 891 
Q 831 666 1001 516 
Q 1172 366 1500 366 
Q 1825 366 2078 508 
Q 2331 650 2450 897 
Q 2541 1088 2541 1459 
L 2541 1666 
z
" transform="scale(0.015625)"/>
       <path id="ArialMT-74" d="M 1650 503 
L 1731 6 
Q 1494 -44 1306 -44 
Q 1000 -44 831 53 
Q 663 150 594 308 
Q 525 466 525 972 
L 525 2881 
L 113 2881 
L 113 3319 
L 525 3319 
L 525 4141 
L 1084 4478 
L 1084 3319 
L 1650 3319 
L 1650 2881 
L 1084 2881 
L 1084 941 
Q 1084 700 1114 631 
Q 1144 563 1211 522 
Q 1278 481 1403 481 
Q 1497 481 1650 503 
z
" transform="scale(0.015625)"/>
      </defs>
      <use xlink:href="#ArialMT-6d"/>
      <use xlink:href="#ArialMT-54" x="83.300781"/>
      <use xlink:href="#ArialMT-75" x="140.634766"/>
      <use xlink:href="#ArialMT-72" x="196.25"/>
      <use xlink:href="#ArialMT-71" x="229.550781"/>
      <use xlink:href="#ArialMT-75" x="285.166016"/>
      <use xlink:href="#ArialMT-6f" x="340.78125"/>
      <use xlink:href="#ArialMT-69" x="396.396484"/>
      <use xlink:href="#ArialMT-73" x="418.613281"/>
      <use xlink:href="#ArialMT-65" x="468.613281"/>
      <use xlink:href="#ArialMT-32" x="524.228516"/>
      <use xlink:href="#ArialMT-2d" x="579.84375"/>
      <use xlink:href="#ArialMT-6d" x="613.144531"/>
      <use xlink:href="#ArialMT-4e" x="696.445312"/>
      <use xlink:href="#ArialMT-65" x="768.662109"/>
      <use xlink:href="#ArialMT-6f" x="824.277344"/>
      <use xlink:href="#ArialMT-6e" x="879.892578"/>
      <use xlink:href="#ArialMT-47" x="935.507812"/>
      <use xlink:href="#ArialMT-72" x="1013.291016"/>
      <use xlink:href="#ArialMT-65" x="1046.591797"/>
      <use xlink:href="#ArialMT-65" x="1102.207031"/>
      <use xlink:href="#ArialMT-6e" x="1157.822266"/>
      <use xlink:href="#ArialMT-20" x="1213.4375"/>
      <use xlink:href="#ArialMT-63" x="1241.220703"/>
      <use xlink:href="#ArialMT-6f" x="1291.220703"/>
      <use xlink:href="#ArialMT-72" x="1346.835938"/>
      <use xlink:href="#ArialMT-72" x="1380.136719"/>
      <use xlink:href="#ArialMT-65" x="1413.4375"/>
      <use xlink:href="#ArialMT-6c" x="1469.052734"/>
      <use xlink:href="#ArialMT-61" x="1491.269531"/>
      <use xlink:href="#ArialMT-74" x="1546.884766"/>
      <use xlink:href="#ArialMT-69" x="1574.667969"/>
      <use xlink:href="#ArialMT-6f" x="1596.884766"/>
      <use xlink:href="#ArialMT-6e" x="1652.5"/>
     </g>
    </g>
   </g>
   <g id="line2d_15">
    <path d="M 30.130625 17.778085 
L 186.520625 17.778085 
" clip-path="url(#p3dc2896b96)" style="fill: none; stroke-dasharray: 1.85,0.8; stroke-dashoffset: 0; stroke: #ff0000; stroke-width: 0.5"/>
   </g>
   <g id="line2d_16">
    <path d="M 35.343625 24.753068 
L 37.950125 24.753068 
M 36.646875 24.753068 
L 36.646875 14.630843 
M 35.343625 14.630843 
L 37.950125 14.630843 
" clip-path="url(#p3dc2896b96)" style="fill: none; stroke: #000000; stroke-width: 0.5; stroke-linecap: round"/>
   </g>
   <g id="line2d_17">
    <path d="M 61.408625 24.114617 
L 64.015125 24.114617 
M 62.711875 24.114617 
L 62.711875 10.649373 
M 61.408625 10.649373 
L 64.015125 10.649373 
" clip-path="url(#p3dc2896b96)" style="fill: none; stroke: #000000; stroke-width: 0.5; stroke-linecap: round"/>
   </g>
   <g id="line2d_18">
    <path d="M 87.473625 29.446688 
L 90.080125 29.446688 
M 88.776875 29.446688 
L 88.776875 14.691456 
M 87.473625 14.691456 
L 90.080125 14.691456 
" clip-path="url(#p3dc2896b96)" style="fill: none; stroke: #000000; stroke-width: 0.5; stroke-linecap: round"/>
   </g>
   <g id="line2d_19">
    <path d="M 113.538625 38.212334 
L 116.145125 38.212334 
M 114.841875 38.212334 
L 114.841875 20.7561 
M 113.538625 20.7561 
L 116.145125 20.7561 
" clip-path="url(#p3dc2896b96)" style="fill: none; stroke: #000000; stroke-width: 0.5; stroke-linecap: round"/>
   </g>
   <g id="line2d_20">
    <path d="M 139.603625 62.353621 
L 142.210125 62.353621 
M 140.906875 62.353621 
L 140.906875 29.446192 
M 139.603625 29.446192 
L 142.210125 29.446192 
" clip-path="url(#p3dc2896b96)" style="fill: none; stroke: #000000; stroke-width: 0.5; stroke-linecap: round"/>
   </g>
   <g id="line2d_21">
    <path d="M 165.668625 104.615713 
L 168.275125 104.615713 
M 166.971875 104.615713 
L 166.971875 54.10046 
M 165.668625 54.10046 
L 168.275125 54.10046 
" clip-path="url(#p3dc2896b96)" style="fill: none; stroke: #000000; stroke-width: 0.5; stroke-linecap: round"/>
   </g>
   <g id="line2d_22">
    <path d="M 41.859875 20.176633 
L 44.466375 20.176633 
M 43.163125 20.176633 
L 43.163125 12.837619 
M 41.859875 12.837619 
L 44.466375 12.837619 
" clip-path="url(#p3dc2896b96)" style="fill: none; stroke: #000000; stroke-width: 0.5; stroke-linecap: round"/>
   </g>
   <g id="line2d_23">
    <path d="M 67.924875 24.121915 
L 70.531375 24.121915 
M 69.228125 24.121915 
L 69.228125 14.036019 
M 67.924875 14.036019 
L 70.531375 14.036019 
" clip-path="url(#p3dc2896b96)" style="fill: none; stroke: #000000; stroke-width: 0.5; stroke-linecap: round"/>
   </g>
   <g id="line2d_24">
    <path d="M 93.989875 27.974876 
L 96.596375 27.974876 
M 95.293125 27.974876 
L 95.293125 15.664084 
M 93.989875 15.664084 
L 96.596375 15.664084 
" clip-path="url(#p3dc2896b96)" style="fill: none; stroke: #000000; stroke-width: 0.5; stroke-linecap: round"/>
   </g>
   <g id="line2d_25">
    <path d="M 120.054875 36.678717 
L 122.661375 36.678717 
M 121.358125 36.678717 
L 121.358125 20.350554 
M 120.054875 20.350554 
L 122.661375 20.350554 
" clip-path="url(#p3dc2896b96)" style="fill: none; stroke: #000000; stroke-width: 0.5; stroke-linecap: round"/>
   </g>
   <g id="line2d_26">
    <path d="M 146.119875 53.448149 
L 148.726375 53.448149 
M 147.423125 53.448149 
L 147.423125 25.702355 
M 146.119875 25.702355 
L 148.726375 25.702355 
" clip-path="url(#p3dc2896b96)" style="fill: none; stroke: #000000; stroke-width: 0.5; stroke-linecap: round"/>
   </g>
   <g id="line2d_27">
    <path d="M 172.184875 100.757528 
L 174.791375 100.757528 
M 173.488125 100.757528 
L 173.488125 57.623457 
M 172.184875 57.623457 
L 174.791375 57.623457 
" clip-path="url(#p3dc2896b96)" style="fill: none; stroke: #000000; stroke-width: 0.5; stroke-linecap: round"/>
   </g>
   <g id="line2d_28">
    <path d="M 48.376125 20.850028 
L 50.982625 20.850028 
M 49.679375 20.850028 
L 49.679375 13.365605 
M 48.376125 13.365605 
L 50.982625 13.365605 
" clip-path="url(#p3dc2896b96)" style="fill: none; stroke: #000000; stroke-width: 0.5; stroke-linecap: round"/>
   </g>
   <g id="line2d_29">
    <path d="M 74.441125 23.861422 
L 77.047625 23.861422 
M 75.744375 23.861422 
L 75.744375 12.767724 
M 74.441125 12.767724 
L 77.047625 12.767724 
" clip-path="url(#p3dc2896b96)" style="fill: none; stroke: #000000; stroke-width: 0.5; stroke-linecap: round"/>
   </g>
   <g id="line2d_30">
    <path d="M 100.506125 31.096114 
L 103.112625 31.096114 
M 101.809375 31.096114 
L 101.809375 14.179221 
M 100.506125 14.179221 
L 103.112625 14.179221 
" clip-path="url(#p3dc2896b96)" style="fill: none; stroke: #000000; stroke-width: 0.5; stroke-linecap: round"/>
   </g>
   <g id="line2d_31">
    <path d="M 126.571125 33.91756 
L 129.177625 33.91756 
M 127.874375 33.91756 
L 127.874375 19.530362 
M 126.571125 19.530362 
L 129.177625 19.530362 
" clip-path="url(#p3dc2896b96)" style="fill: none; stroke: #000000; stroke-width: 0.5; stroke-linecap: round"/>
   </g>
   <g id="line2d_32">
    <path d="M 152.636125 47.548354 
L 155.242625 47.548354 
M 153.939375 47.548354 
L 153.939375 24.537126 
M 152.636125 24.537126 
L 155.242625 24.537126 
" clip-path="url(#p3dc2896b96)" style="fill: none; stroke: #000000; stroke-width: 0.5; stroke-linecap: round"/>
   </g>
   <g id="line2d_33">
    <path d="M 178.701125 104.657752 
L 181.307625 104.657752 
M 180.004375 104.657752 
L 180.004375 52.692089 
M 178.701125 52.692089 
L 181.307625 52.692089 
" clip-path="url(#p3dc2896b96)" style="fill: none; stroke: #000000; stroke-width: 0.5; stroke-linecap: round"/>
   </g>
   <g id="patch_3">
    <path d="M 30.130625 107.506181 
L 30.130625 8.989453 
" style="fill: none; stroke: #262626; stroke-width: 0.5; stroke-linejoin: miter; stroke-linecap: square"/>
   </g>
   <g id="patch_4">
    <path d="M 30.130625 107.506181 
L 186.520625 107.506181 
" style="fill: none; stroke: #262626; stroke-width: 0.5; stroke-linejoin: miter; stroke-linecap: square"/>
   </g>
   <g id="line2d_34">
    <defs>
     <path id="m2d0f7adf0b" d="M 0 1.5 
C 0.397805 1.5 0.77937 1.341951 1.06066 1.06066 
C 1.341951 0.77937 1.5 0.397805 1.5 0 
C 1.5 -0.397805 1.341951 -0.77937 1.06066 -1.06066 
C 0.77937 -1.341951 0.397805 -1.5 0 -1.5 
C -0.397805 -1.5 -0.77937 -1.341951 -1.06066 -1.06066 
C -1.341951 -0.77937 -1.5 -0.397805 -1.5 0 
C -1.5 0.397805 -1.341951 0.77937 -1.06066 1.06066 
C -0.77937 1.341951 -0.397805 1.5 0 1.5 
z
" style="stroke: #000000; stroke-width: 0.375"/>
    </defs>
    <g clip-path="url(#p3dc2896b96)">
     <use xlink:href="#m2d0f7adf0b" x="36.646875" y="19.691956" style="fill: #1b9e77; stroke: #000000; stroke-width: 0.375"/>
     <use xlink:href="#m2d0f7adf0b" x="62.711875" y="17.381995" style="fill: #1b9e77; stroke: #000000; stroke-width: 0.375"/>
     <use xlink:href="#m2d0f7adf0b" x="88.776875" y="22.069072" style="fill: #1b9e77; stroke: #000000; stroke-width: 0.375"/>
     <use xlink:href="#m2d0f7adf0b" x="114.841875" y="29.484217" style="fill: #1b9e77; stroke: #000000; stroke-width: 0.375"/>
     <use xlink:href="#m2d0f7adf0b" x="140.906875" y="45.899906" style="fill: #1b9e77; stroke: #000000; stroke-width: 0.375"/>
     <use xlink:href="#m2d0f7adf0b" x="166.971875" y="79.358086" style="fill: #1b9e77; stroke: #000000; stroke-width: 0.375"/>
    </g>
   </g>
   <g id="line2d_35">
    <defs>
     <path id="m7940f17a21" d="M 0 1.5 
C 0.397805 1.5 0.77937 1.341951 1.06066 1.06066 
C 1.341951 0.77937 1.5 0.397805 1.5 0 
C 1.5 -0.397805 1.341951 -0.77937 1.06066 -1.06066 
C 0.77937 -1.341951 0.397805 -1.5 0 -1.5 
C -0.397805 -1.5 -0.77937 -1.341951 -1.06066 -1.06066 
C -1.341951 -0.77937 -1.5 -0.397805 -1.5 0 
C -1.5 0.397805 -1.341951 0.77937 -1.06066 1.06066 
C -0.77937 1.341951 -0.397805 1.5 0 1.5 
z
" style="stroke: #000000; stroke-width: 0.375"/>
    </defs>
    <g clip-path="url(#p3dc2896b96)">
     <use xlink:href="#m7940f17a21" x="43.163125" y="16.507126" style="fill: #d95f02; stroke: #000000; stroke-width: 0.375"/>
     <use xlink:href="#m7940f17a21" x="69.228125" y="19.078967" style="fill: #d95f02; stroke: #000000; stroke-width: 0.375"/>
     <use xlink:href="#m7940f17a21" x="95.293125" y="21.81948" style="fill: #d95f02; stroke: #000000; stroke-width: 0.375"/>
     <use xlink:href="#m7940f17a21" x="121.358125" y="28.514635" style="fill: #d95f02; stroke: #000000; stroke-width: 0.375"/>
     <use xlink:href="#m7940f17a21" x="147.423125" y="39.575252" style="fill: #d95f02; stroke: #000000; stroke-width: 0.375"/>
     <use xlink:href="#m7940f17a21" x="173.488125" y="79.190493" style="fill: #d95f02; stroke: #000000; stroke-width: 0.375"/>
    </g>
   </g>
   <g id="line2d_36">
    <defs>
     <path id="m552573f0bb" d="M 0 1.5 
C 0.397805 1.5 0.77937 1.341951 1.06066 1.06066 
C 1.341951 0.77937 1.5 0.397805 1.5 0 
C 1.5 -0.397805 1.341951 -0.77937 1.06066 -1.06066 
C 0.77937 -1.341951 0.397805 -1.5 0 -1.5 
C -0.397805 -1.5 -0.77937 -1.341951 -1.06066 -1.06066 
C -1.341951 -0.77937 -1.5 -0.397805 -1.5 0 
C -1.5 0.397805 -1.341951 0.77937 -1.06066 1.06066 
C -0.77937 1.341951 -0.397805 1.5 0 1.5 
z
" style="stroke: #000000; stroke-width: 0.375"/>
    </defs>
    <g clip-path="url(#p3dc2896b96)">
     <use xlink:href="#m552573f0bb" x="49.679375" y="17.107817" style="fill: #7570b3; stroke: #000000; stroke-width: 0.375"/>
     <use xlink:href="#m552573f0bb" x="75.744375" y="18.314573" style="fill: #7570b3; stroke: #000000; stroke-width: 0.375"/>
     <use xlink:href="#m552573f0bb" x="101.809375" y="22.637667" style="fill: #7570b3; stroke: #000000; stroke-width: 0.375"/>
     <use xlink:href="#m552573f0bb" x="127.874375" y="26.723961" style="fill: #7570b3; stroke: #000000; stroke-width: 0.375"/>
     <use xlink:href="#m552573f0bb" x="153.939375" y="36.04274" style="fill: #7570b3; stroke: #000000; stroke-width: 0.375"/>
     <use xlink:href="#m552573f0bb" x="180.004375" y="78.674921" style="fill: #7570b3; stroke: #000000; stroke-width: 0.375"/>
    </g>
   </g>
   <g id="line2d_37"/>
   <g id="line2d_38"/>
   <g id="line2d_39"/>
   <g id="legend_1">
    <g id="line2d_40">
     <g>
      <use xlink:href="#m2d0f7adf0b" x="39.630625" y="86.087431" style="fill: #1b9e77; stroke: #000000; stroke-width: 0.375"/>
     </g>
    </g>
    <g id="text_16">
     <!-- Replicate 1 -->
     <g style="fill: #262626" transform="translate(43.880625 87.837431) scale(0.05 -0.05)">
      <defs>
       <path id="ArialMT-52" d="M 503 0 
L 503 4581 
L 2534 4581 
Q 3147 4581 3465 4457 
Q 3784 4334 3975 4021 
Q 4166 3709 4166 3331 
Q 4166 2844 3850 2509 
Q 3534 2175 2875 2084 
Q 3116 1969 3241 1856 
Q 3506 1613 3744 1247 
L 4541 0 
L 3778 0 
L 3172 953 
Q 2906 1366 2734 1584 
Q 2563 1803 2427 1890 
Q 2291 1978 2150 2013 
Q 2047 2034 1813 2034 
L 1109 2034 
L 1109 0 
L 503 0 
z
M 1109 2559 
L 2413 2559 
Q 2828 2559 3062 2645 
Q 3297 2731 3419 2920 
Q 3541 3109 3541 3331 
Q 3541 3656 3305 3865 
Q 3069 4075 2559 4075 
L 1109 4075 
L 1109 2559 
z
" transform="scale(0.015625)"/>
       <path id="ArialMT-70" d="M 422 -1272 
L 422 3319 
L 934 3319 
L 934 2888 
Q 1116 3141 1344 3267 
Q 1572 3394 1897 3394 
Q 2322 3394 2647 3175 
Q 2972 2956 3137 2557 
Q 3303 2159 3303 1684 
Q 3303 1175 3120 767 
Q 2938 359 2589 142 
Q 2241 -75 1856 -75 
Q 1575 -75 1351 44 
Q 1128 163 984 344 
L 984 -1272 
L 422 -1272 
z
M 931 1641 
Q 931 1000 1190 694 
Q 1450 388 1819 388 
Q 2194 388 2461 705 
Q 2728 1022 2728 1688 
Q 2728 2322 2467 2637 
Q 2206 2953 1844 2953 
Q 1484 2953 1207 2617 
Q 931 2281 931 1641 
z
" transform="scale(0.015625)"/>
      </defs>
      <use xlink:href="#ArialMT-52"/>
      <use xlink:href="#ArialMT-65" x="72.216797"/>
      <use xlink:href="#ArialMT-70" x="127.832031"/>
      <use xlink:href="#ArialMT-6c" x="183.447266"/>
      <use xlink:href="#ArialMT-69" x="205.664062"/>
      <use xlink:href="#ArialMT-63" x="227.880859"/>
      <use xlink:href="#ArialMT-61" x="277.880859"/>
      <use xlink:href="#ArialMT-74" x="333.496094"/>
      <use xlink:href="#ArialMT-65" x="361.279297"/>
      <use xlink:href="#ArialMT-20" x="416.894531"/>
      <use xlink:href="#ArialMT-31" x="444.677734"/>
     </g>
    </g>
    <g id="line2d_41">
     <g>
      <use xlink:href="#m7940f17a21" x="39.630625" y="93.174931" style="fill: #d95f02; stroke: #000000; stroke-width: 0.375"/>
     </g>
    </g>
    <g id="text_17">
     <!-- Replicate 2 -->
     <g style="fill: #262626" transform="translate(43.880625 94.924931) scale(0.05 -0.05)">
      <use xlink:href="#ArialMT-52"/>
      <use xlink:href="#ArialMT-65" x="72.216797"/>
      <use xlink:href="#ArialMT-70" x="127.832031"/>
      <use xlink:href="#ArialMT-6c" x="183.447266"/>
      <use xlink:href="#ArialMT-69" x="205.664062"/>
      <use xlink:href="#ArialMT-63" x="227.880859"/>
      <use xlink:href="#ArialMT-61" x="277.880859"/>
      <use xlink:href="#ArialMT-74" x="333.496094"/>
      <use xlink:href="#ArialMT-65" x="361.279297"/>
      <use xlink:href="#ArialMT-20" x="416.894531"/>
      <use xlink:href="#ArialMT-32" x="444.677734"/>
     </g>
    </g>
    <g id="line2d_42">
     <g>
      <use xlink:href="#m552573f0bb" x="39.630625" y="100.262431" style="fill: #7570b3; stroke: #000000; stroke-width: 0.375"/>
     </g>
    </g>
    <g id="text_18">
     <!-- Replicate 3 -->
     <g style="fill: #262626" transform="translate(43.880625 102.012431) scale(0.05 -0.05)">
      <defs>
       <path id="ArialMT-33" d="M 269 1209 
L 831 1284 
Q 928 806 1161 595 
Q 1394 384 1728 384 
Q 2125 384 2398 659 
Q 2672 934 2672 1341 
Q 2672 1728 2419 1979 
Q 2166 2231 1775 2231 
Q 1616 2231 1378 2169 
L 1441 2663 
Q 1497 2656 1531 2656 
Q 1891 2656 2178 2843 
Q 2466 3031 2466 3422 
Q 2466 3731 2256 3934 
Q 2047 4138 1716 4138 
Q 1388 4138 1169 3931 
Q 950 3725 888 3313 
L 325 3413 
Q 428 3978 793 4289 
Q 1159 4600 1703 4600 
Q 2078 4600 2393 4439 
Q 2709 4278 2876 4000 
Q 3044 3722 3044 3409 
Q 3044 3113 2884 2869 
Q 2725 2625 2413 2481 
Q 2819 2388 3044 2092 
Q 3269 1797 3269 1353 
Q 3269 753 2831 336 
Q 2394 -81 1725 -81 
Q 1122 -81 723 278 
Q 325 638 269 1209 
z
" transform="scale(0.015625)"/>
      </defs>
      <use xlink:href="#ArialMT-52"/>
      <use xlink:href="#ArialMT-65" x="72.216797"/>
      <use xlink:href="#ArialMT-70" x="127.832031"/>
      <use xlink:href="#ArialMT-6c" x="183.447266"/>
      <use xlink:href="#ArialMT-69" x="205.664062"/>
      <use xlink:href="#ArialMT-63" x="227.880859"/>
      <use xlink:href="#ArialMT-61" x="277.880859"/>
      <use xlink:href="#ArialMT-74" x="333.496094"/>
      <use xlink:href="#ArialMT-65" x="361.279297"/>
      <use xlink:href="#ArialMT-20" x="416.894531"/>
      <use xlink:href="#ArialMT-33" x="444.677734"/>
     </g>
    </g>
   </g>
  </g>
 </g>
 <defs>
  <clipPath id="p3dc2896b96">
   <rect x="30.130625" y="8.989453" width="156.39" height="98.516728"/>
  </clipPath>
 </defs>
</svg>
