<?xml version="1.0" encoding="utf-8" standalone="no"?>
<!DOCTYPE svg PUBLIC "-//W3C//DTD SVG 1.1//EN"
  "http://www.w3.org/Graphics/SVG/1.1/DTD/svg11.dtd">
<svg xmlns:xlink="http://www.w3.org/1999/xlink" width="252pt" height="288pt" viewBox="0 0 252 288" xmlns="http://www.w3.org/2000/svg" version="1.1">
 <metadata>
  <rdf:RDF xmlns:dc="http://purl.org/dc/elements/1.1/" xmlns:cc="http://creativecommons.org/ns#" xmlns:rdf="http://www.w3.org/1999/02/22-rdf-syntax-ns#">
   <cc:Work>
    <dc:type rdf:resource="http://purl.org/dc/dcmitype/StillImage"/>
    <dc:date>2024-03-11T15:04:24.624939</dc:date>
    <dc:format>image/svg+xml</dc:format>
    <dc:creator>
     <cc:Agent>
      <dc:title>Matplotlib v3.8.0, https://matplotlib.org/</dc:title>
     </cc:Agent>
    </dc:creator>
   </cc:Work>
  </rdf:RDF>
 </metadata>
 <defs>
  <style type="text/css">*{stroke-linejoin: round; stroke-linecap: butt}</style>
 </defs>
 <g id="figure_1">
  <g id="patch_1">
   <path d="M 0 288 
L 252 288 
L 252 0 
L 0 0 
z
" style="fill: #ffffff"/>
  </g>
  <g id="axes_1">
   <g id="patch_2">
    <path d="M 28.83 119.287312 
L 240.483093 119.287312 
L 240.483093 7.56 
L 28.83 7.56 
z
" style="fill: #ffffff"/>
   </g>
   <g id="matplotlib.axis_1">
    <g id="xtick_1">
     <g id="line2d_1">
      <defs>
       <path id="m8107684722" d="M 0 0 
L 0 3 
" style="stroke: #262626; stroke-width: 0.5"/>
      </defs>
      <g>
       <use xlink:href="#m8107684722" x="115.905795" y="119.287312" style="fill: #262626; stroke: #262626; stroke-width: 0.5"/>
      </g>
     </g>
     <g id="text_1">
      <!-- $\mathdefault{10^{-1}}$ -->
      <g style="fill: #262626" transform="translate(110.955795 128.443562) scale(0.05 -0.05)">
       <defs>
        <path id="ArialMT-31" d="M 2384 0 
L 1822 0 
L 1822 3584 
Q 1619 3391 1289 3197 
Q 959 3003 697 2906 
L 697 3450 
Q 1169 3672 1522 3987 
Q 1875 4303 2022 4600 
L 2384 4600 
L 2384 0 
z
" transform="scale(0.015625)"/>
        <path id="ArialMT-30" d="M 266 2259 
Q 266 3072 433 3567 
Q 600 4063 929 4331 
Q 1259 4600 1759 4600 
Q 2128 4600 2406 4451 
Q 2684 4303 2865 4023 
Q 3047 3744 3150 3342 
Q 3253 2941 3253 2259 
Q 3253 1453 3087 958 
Q 2922 463 2592 192 
Q 2263 -78 1759 -78 
Q 1097 -78 719 397 
Q 266 969 266 2259 
z
M 844 2259 
Q 844 1131 1108 757 
Q 1372 384 1759 384 
Q 2147 384 2411 759 
Q 2675 1134 2675 2259 
Q 2675 3391 2411 3762 
Q 2147 4134 1753 4134 
Q 1366 4134 1134 3806 
Q 844 3388 844 2259 
z
" transform="scale(0.015625)"/>
        <path id="ArialMT-2212" d="M 3381 1997 
L 356 1997 
L 356 2522 
L 3381 2522 
L 3381 1997 
z
" transform="scale(0.015625)"/>
       </defs>
       <use xlink:href="#ArialMT-31" transform="translate(0 0.99375)"/>
       <use xlink:href="#ArialMT-30" transform="translate(55.615234 0.99375)"/>
       <use xlink:href="#ArialMT-2212" transform="translate(112.972813 70.6875) scale(0.7)"/>
       <use xlink:href="#ArialMT-31" transform="translate(153.851719 70.6875) scale(0.7)"/>
      </g>
     </g>
    </g>
    <g id="xtick_2">
     <g id="line2d_2">
      <g>
       <use xlink:href="#m8107684722" x="240.483093" y="119.287312" style="fill: #262626; stroke: #262626; stroke-width: 0.5"/>
      </g>
     </g>
     <g id="text_2">
      <!-- $\mathdefault{10^{0}}$ -->
      <g style="fill: #262626" transform="translate(236.558093 128.443562) scale(0.05 -0.05)">
       <use xlink:href="#ArialMT-31" transform="translate(0 0.99375)"/>
       <use xlink:href="#ArialMT-30" transform="translate(55.615234 0.99375)"/>
       <use xlink:href="#ArialMT-30" transform="translate(112.972813 70.6875) scale(0.7)"/>
      </g>
     </g>
    </g>
    <g id="xtick_3">
     <g id="line2d_3">
      <defs>
       <path id="m098473c879" d="M 0 0 
L 0 2 
" style="stroke: #262626; stroke-width: 0.5"/>
      </defs>
      <g>
       <use xlink:href="#m098473c879" x="28.83" y="119.287312" style="fill: #262626; stroke: #262626; stroke-width: 0.5"/>
      </g>
     </g>
    </g>
    <g id="xtick_4">
     <g id="line2d_4">
      <g>
       <use xlink:href="#m098473c879" x="50.766973" y="119.287312" style="fill: #262626; stroke: #262626; stroke-width: 0.5"/>
      </g>
     </g>
    </g>
    <g id="xtick_5">
     <g id="line2d_5">
      <g>
       <use xlink:href="#m098473c879" x="66.331504" y="119.287312" style="fill: #262626; stroke: #262626; stroke-width: 0.5"/>
      </g>
     </g>
    </g>
    <g id="xtick_6">
     <g id="line2d_6">
      <g>
       <use xlink:href="#m098473c879" x="78.404291" y="119.287312" style="fill: #262626; stroke: #262626; stroke-width: 0.5"/>
      </g>
     </g>
    </g>
    <g id="xtick_7">
     <g id="line2d_7">
      <g>
       <use xlink:href="#m098473c879" x="88.268477" y="119.287312" style="fill: #262626; stroke: #262626; stroke-width: 0.5"/>
      </g>
     </g>
    </g>
    <g id="xtick_8">
     <g id="line2d_8">
      <g>
       <use xlink:href="#m098473c879" x="96.608527" y="119.287312" style="fill: #262626; stroke: #262626; stroke-width: 0.5"/>
      </g>
     </g>
    </g>
    <g id="xtick_9">
     <g id="line2d_9">
      <g>
       <use xlink:href="#m098473c879" x="103.833007" y="119.287312" style="fill: #262626; stroke: #262626; stroke-width: 0.5"/>
      </g>
     </g>
    </g>
    <g id="xtick_10">
     <g id="line2d_10">
      <g>
       <use xlink:href="#m098473c879" x="110.20545" y="119.287312" style="fill: #262626; stroke: #262626; stroke-width: 0.5"/>
      </g>
     </g>
    </g>
    <g id="xtick_11">
     <g id="line2d_11">
      <g>
       <use xlink:href="#m098473c879" x="153.407298" y="119.287312" style="fill: #262626; stroke: #262626; stroke-width: 0.5"/>
      </g>
     </g>
    </g>
    <g id="xtick_12">
     <g id="line2d_12">
      <g>
       <use xlink:href="#m098473c879" x="175.344272" y="119.287312" style="fill: #262626; stroke: #262626; stroke-width: 0.5"/>
      </g>
     </g>
    </g>
    <g id="xtick_13">
     <g id="line2d_13">
      <g>
       <use xlink:href="#m098473c879" x="190.908802" y="119.287312" style="fill: #262626; stroke: #262626; stroke-width: 0.5"/>
      </g>
     </g>
    </g>
    <g id="xtick_14">
     <g id="line2d_14">
      <g>
       <use xlink:href="#m098473c879" x="202.981589" y="119.287312" style="fill: #262626; stroke: #262626; stroke-width: 0.5"/>
      </g>
     </g>
    </g>
    <g id="xtick_15">
     <g id="line2d_15">
      <g>
       <use xlink:href="#m098473c879" x="212.845775" y="119.287312" style="fill: #262626; stroke: #262626; stroke-width: 0.5"/>
      </g>
     </g>
    </g>
    <g id="xtick_16">
     <g id="line2d_16">
      <g>
       <use xlink:href="#m098473c879" x="221.185825" y="119.287312" style="fill: #262626; stroke: #262626; stroke-width: 0.5"/>
      </g>
     </g>
    </g>
    <g id="xtick_17">
     <g id="line2d_17">
      <g>
       <use xlink:href="#m098473c879" x="228.410305" y="119.287312" style="fill: #262626; stroke: #262626; stroke-width: 0.5"/>
      </g>
     </g>
    </g>
    <g id="xtick_18">
     <g id="line2d_18">
      <g>
       <use xlink:href="#m098473c879" x="234.782748" y="119.287312" style="fill: #262626; stroke: #262626; stroke-width: 0.5"/>
      </g>
     </g>
    </g>
    <g id="text_3">
     <!-- Apparent diffusion coefficient ($\mu$m$^{2}$ s$^{-1}$) -->
     <g style="fill: #262626" transform="translate(81.886547 136.897312) scale(0.06 -0.06)">
      <defs>
       <path id="ArialMT-41" d="M -9 0 
L 1750 4581 
L 2403 4581 
L 4278 0 
L 3588 0 
L 3053 1388 
L 1138 1388 
L 634 0 
L -9 0 
z
M 1313 1881 
L 2866 1881 
L 2388 3150 
Q 2169 3728 2063 4100 
Q 1975 3659 1816 3225 
L 1313 1881 
z
" transform="scale(0.015625)"/>
       <path id="ArialMT-70" d="M 422 -1272 
L 422 3319 
L 934 3319 
L 934 2888 
Q 1116 3141 1344 3267 
Q 1572 3394 1897 3394 
Q 2322 3394 2647 3175 
Q 2972 2956 3137 2557 
Q 3303 2159 3303 1684 
Q 3303 1175 3120 767 
Q 2938 359 2589 142 
Q 2241 -75 1856 -75 
Q 1575 -75 1351 44 
Q 1128 163 984 344 
L 984 -1272 
L 422 -1272 
z
M 931 1641 
Q 931 1000 1190 694 
Q 1450 388 1819 388 
Q 2194 388 2461 705 
Q 2728 1022 2728 1688 
Q 2728 2322 2467 2637 
Q 2206 2953 1844 2953 
Q 1484 2953 1207 2617 
Q 931 2281 931 1641 
z
" transform="scale(0.015625)"/>
       <path id="ArialMT-61" d="M 2588 409 
Q 2275 144 1986 34 
Q 1697 -75 1366 -75 
Q 819 -75 525 192 
Q 231 459 231 875 
Q 231 1119 342 1320 
Q 453 1522 633 1644 
Q 813 1766 1038 1828 
Q 1203 1872 1538 1913 
Q 2219 1994 2541 2106 
Q 2544 2222 2544 2253 
Q 2544 2597 2384 2738 
Q 2169 2928 1744 2928 
Q 1347 2928 1158 2789 
Q 969 2650 878 2297 
L 328 2372 
Q 403 2725 575 2942 
Q 747 3159 1072 3276 
Q 1397 3394 1825 3394 
Q 2250 3394 2515 3294 
Q 2781 3194 2906 3042 
Q 3031 2891 3081 2659 
Q 3109 2516 3109 2141 
L 3109 1391 
Q 3109 606 3145 398 
Q 3181 191 3288 0 
L 2700 0 
Q 2613 175 2588 409 
z
M 2541 1666 
Q 2234 1541 1622 1453 
Q 1275 1403 1131 1340 
Q 988 1278 909 1158 
Q 831 1038 831 891 
Q 831 666 1001 516 
Q 1172 366 1500 366 
Q 1825 366 2078 508 
Q 2331 650 2450 897 
Q 2541 1088 2541 1459 
L 2541 1666 
z
" transform="scale(0.015625)"/>
       <path id="ArialMT-72" d="M 416 0 
L 416 3319 
L 922 3319 
L 922 2816 
Q 1116 3169 1280 3281 
Q 1444 3394 1641 3394 
Q 1925 3394 2219 3213 
L 2025 2691 
Q 1819 2813 1613 2813 
Q 1428 2813 1281 2702 
Q 1134 2591 1072 2394 
Q 978 2094 978 1738 
L 978 0 
L 416 0 
z
" transform="scale(0.015625)"/>
       <path id="ArialMT-65" d="M 2694 1069 
L 3275 997 
Q 3138 488 2766 206 
Q 2394 -75 1816 -75 
Q 1088 -75 661 373 
Q 234 822 234 1631 
Q 234 2469 665 2931 
Q 1097 3394 1784 3394 
Q 2450 3394 2872 2941 
Q 3294 2488 3294 1666 
Q 3294 1616 3291 1516 
L 816 1516 
Q 847 969 1125 678 
Q 1403 388 1819 388 
Q 2128 388 2347 550 
Q 2566 713 2694 1069 
z
M 847 1978 
L 2700 1978 
Q 2663 2397 2488 2606 
Q 2219 2931 1791 2931 
Q 1403 2931 1139 2672 
Q 875 2413 847 1978 
z
" transform="scale(0.015625)"/>
       <path id="ArialMT-6e" d="M 422 0 
L 422 3319 
L 928 3319 
L 928 2847 
Q 1294 3394 1984 3394 
Q 2284 3394 2536 3286 
Q 2788 3178 2913 3003 
Q 3038 2828 3088 2588 
Q 3119 2431 3119 2041 
L 3119 0 
L 2556 0 
L 2556 2019 
Q 2556 2363 2490 2533 
Q 2425 2703 2258 2804 
Q 2091 2906 1866 2906 
Q 1506 2906 1245 2678 
Q 984 2450 984 1813 
L 984 0 
L 422 0 
z
" transform="scale(0.015625)"/>
       <path id="ArialMT-74" d="M 1650 503 
L 1731 6 
Q 1494 -44 1306 -44 
Q 1000 -44 831 53 
Q 663 150 594 308 
Q 525 466 525 972 
L 525 2881 
L 113 2881 
L 113 3319 
L 525 3319 
L 525 4141 
L 1084 4478 
L 1084 3319 
L 1650 3319 
L 1650 2881 
L 1084 2881 
L 1084 941 
Q 1084 700 1114 631 
Q 1144 563 1211 522 
Q 1278 481 1403 481 
Q 1497 481 1650 503 
z
" transform="scale(0.015625)"/>
       <path id="ArialMT-20" transform="scale(0.015625)"/>
       <path id="ArialMT-64" d="M 2575 0 
L 2575 419 
Q 2259 -75 1647 -75 
Q 1250 -75 917 144 
Q 584 363 401 755 
Q 219 1147 219 1656 
Q 219 2153 384 2558 
Q 550 2963 881 3178 
Q 1213 3394 1622 3394 
Q 1922 3394 2156 3267 
Q 2391 3141 2538 2938 
L 2538 4581 
L 3097 4581 
L 3097 0 
L 2575 0 
z
M 797 1656 
Q 797 1019 1065 703 
Q 1334 388 1700 388 
Q 2069 388 2326 689 
Q 2584 991 2584 1609 
Q 2584 2291 2321 2609 
Q 2059 2928 1675 2928 
Q 1300 2928 1048 2622 
Q 797 2316 797 1656 
z
" transform="scale(0.015625)"/>
       <path id="ArialMT-69" d="M 425 3934 
L 425 4581 
L 988 4581 
L 988 3934 
L 425 3934 
z
M 425 0 
L 425 3319 
L 988 3319 
L 988 0 
L 425 0 
z
" transform="scale(0.015625)"/>
       <path id="ArialMT-66" d="M 556 0 
L 556 2881 
L 59 2881 
L 59 3319 
L 556 3319 
L 556 3672 
Q 556 4006 616 4169 
Q 697 4388 901 4523 
Q 1106 4659 1475 4659 
Q 1713 4659 2000 4603 
L 1916 4113 
Q 1741 4144 1584 4144 
Q 1328 4144 1222 4034 
Q 1116 3925 1116 3625 
L 1116 3319 
L 1763 3319 
L 1763 2881 
L 1116 2881 
L 1116 0 
L 556 0 
z
" transform="scale(0.015625)"/>
       <path id="ArialMT-75" d="M 2597 0 
L 2597 488 
Q 2209 -75 1544 -75 
Q 1250 -75 995 37 
Q 741 150 617 320 
Q 494 491 444 738 
Q 409 903 409 1263 
L 409 3319 
L 972 3319 
L 972 1478 
Q 972 1038 1006 884 
Q 1059 663 1231 536 
Q 1403 409 1656 409 
Q 1909 409 2131 539 
Q 2353 669 2445 892 
Q 2538 1116 2538 1541 
L 2538 3319 
L 3100 3319 
L 3100 0 
L 2597 0 
z
" transform="scale(0.015625)"/>
       <path id="ArialMT-73" d="M 197 991 
L 753 1078 
Q 800 744 1014 566 
Q 1228 388 1613 388 
Q 2000 388 2187 545 
Q 2375 703 2375 916 
Q 2375 1106 2209 1216 
Q 2094 1291 1634 1406 
Q 1016 1563 777 1677 
Q 538 1791 414 1992 
Q 291 2194 291 2438 
Q 291 2659 392 2848 
Q 494 3038 669 3163 
Q 800 3259 1026 3326 
Q 1253 3394 1513 3394 
Q 1903 3394 2198 3281 
Q 2494 3169 2634 2976 
Q 2775 2784 2828 2463 
L 2278 2388 
Q 2241 2644 2061 2787 
Q 1881 2931 1553 2931 
Q 1166 2931 1000 2803 
Q 834 2675 834 2503 
Q 834 2394 903 2306 
Q 972 2216 1119 2156 
Q 1203 2125 1616 2013 
Q 2213 1853 2448 1751 
Q 2684 1650 2818 1456 
Q 2953 1263 2953 975 
Q 2953 694 2789 445 
Q 2625 197 2315 61 
Q 2006 -75 1616 -75 
Q 969 -75 630 194 
Q 291 463 197 991 
z
" transform="scale(0.015625)"/>
       <path id="ArialMT-6f" d="M 213 1659 
Q 213 2581 725 3025 
Q 1153 3394 1769 3394 
Q 2453 3394 2887 2945 
Q 3322 2497 3322 1706 
Q 3322 1066 3130 698 
Q 2938 331 2570 128 
Q 2203 -75 1769 -75 
Q 1072 -75 642 372 
Q 213 819 213 1659 
z
M 791 1659 
Q 791 1022 1069 705 
Q 1347 388 1769 388 
Q 2188 388 2466 706 
Q 2744 1025 2744 1678 
Q 2744 2294 2464 2611 
Q 2184 2928 1769 2928 
Q 1347 2928 1069 2612 
Q 791 2297 791 1659 
z
" transform="scale(0.015625)"/>
       <path id="ArialMT-63" d="M 2588 1216 
L 3141 1144 
Q 3050 572 2676 248 
Q 2303 -75 1759 -75 
Q 1078 -75 664 370 
Q 250 816 250 1647 
Q 250 2184 428 2587 
Q 606 2991 970 3192 
Q 1334 3394 1763 3394 
Q 2303 3394 2647 3120 
Q 2991 2847 3088 2344 
L 2541 2259 
Q 2463 2594 2264 2762 
Q 2066 2931 1784 2931 
Q 1359 2931 1093 2626 
Q 828 2322 828 1663 
Q 828 994 1084 691 
Q 1341 388 1753 388 
Q 2084 388 2306 591 
Q 2528 794 2588 1216 
z
" transform="scale(0.015625)"/>
       <path id="ArialMT-28" d="M 1497 -1347 
Q 1031 -759 709 28 
Q 388 816 388 1659 
Q 388 2403 628 3084 
Q 909 3875 1497 4659 
L 1900 4659 
Q 1522 4009 1400 3731 
Q 1209 3300 1100 2831 
Q 966 2247 966 1656 
Q 966 153 1900 -1347 
L 1497 -1347 
z
" transform="scale(0.015625)"/>
       <path id="DejaVuSans-Oblique-3bc" d="M -84 -1331 
L 856 3500 
L 1434 3500 
L 1009 1322 
Q 997 1256 987 1175 
Q 978 1094 978 1013 
Q 978 722 1161 565 
Q 1344 409 1684 409 
Q 2147 409 2431 671 
Q 2716 934 2816 1459 
L 3213 3500 
L 3788 3500 
L 3266 809 
Q 3253 750 3248 706 
Q 3244 663 3244 628 
Q 3244 531 3283 486 
Q 3322 441 3406 441 
Q 3438 441 3492 456 
Q 3547 472 3647 513 
L 3559 50 
Q 3422 -19 3297 -55 
Q 3172 -91 3053 -91 
Q 2847 -91 2730 40 
Q 2613 172 2613 403 
Q 2438 153 2195 31 
Q 1953 -91 1625 -91 
Q 1334 -91 1117 43 
Q 900 178 831 397 
L 494 -1331 
L -84 -1331 
z
" transform="scale(0.015625)"/>
       <path id="ArialMT-6d" d="M 422 0 
L 422 3319 
L 925 3319 
L 925 2853 
Q 1081 3097 1340 3245 
Q 1600 3394 1931 3394 
Q 2300 3394 2536 3241 
Q 2772 3088 2869 2813 
Q 3263 3394 3894 3394 
Q 4388 3394 4653 3120 
Q 4919 2847 4919 2278 
L 4919 0 
L 4359 0 
L 4359 2091 
Q 4359 2428 4304 2576 
Q 4250 2725 4106 2815 
Q 3963 2906 3769 2906 
Q 3419 2906 3187 2673 
Q 2956 2441 2956 1928 
L 2956 0 
L 2394 0 
L 2394 2156 
Q 2394 2531 2256 2718 
Q 2119 2906 1806 2906 
Q 1569 2906 1367 2781 
Q 1166 2656 1075 2415 
Q 984 2175 984 1722 
L 984 0 
L 422 0 
z
" transform="scale(0.015625)"/>
       <path id="DejaVuSans-32" d="M 1228 531 
L 3431 531 
L 3431 0 
L 469 0 
L 469 531 
Q 828 903 1448 1529 
Q 2069 2156 2228 2338 
Q 2531 2678 2651 2914 
Q 2772 3150 2772 3378 
Q 2772 3750 2511 3984 
Q 2250 4219 1831 4219 
Q 1534 4219 1204 4116 
Q 875 4013 500 3803 
L 500 4441 
Q 881 4594 1212 4672 
Q 1544 4750 1819 4750 
Q 2544 4750 2975 4387 
Q 3406 4025 3406 3419 
Q 3406 3131 3298 2873 
Q 3191 2616 2906 2266 
Q 2828 2175 2409 1742 
Q 1991 1309 1228 531 
z
" transform="scale(0.015625)"/>
       <path id="DejaVuSans-2212" d="M 678 2272 
L 4684 2272 
L 4684 1741 
L 678 1741 
L 678 2272 
z
" transform="scale(0.015625)"/>
       <path id="DejaVuSans-31" d="M 794 531 
L 1825 531 
L 1825 4091 
L 703 3866 
L 703 4441 
L 1819 4666 
L 2450 4666 
L 2450 531 
L 3481 531 
L 3481 0 
L 794 0 
L 794 531 
z
" transform="scale(0.015625)"/>
       <path id="ArialMT-29" d="M 791 -1347 
L 388 -1347 
Q 1322 153 1322 1656 
Q 1322 2244 1188 2822 
Q 1081 3291 891 3722 
Q 769 4003 388 4659 
L 791 4659 
Q 1378 3875 1659 3084 
Q 1900 2403 1900 1659 
Q 1900 816 1576 28 
Q 1253 -759 791 -1347 
z
" transform="scale(0.015625)"/>
      </defs>
      <use xlink:href="#ArialMT-41" transform="translate(0 0.765625)"/>
      <use xlink:href="#ArialMT-70" transform="translate(66.699219 0.765625)"/>
      <use xlink:href="#ArialMT-70" transform="translate(122.314453 0.765625)"/>
      <use xlink:href="#ArialMT-61" transform="translate(177.929688 0.765625)"/>
      <use xlink:href="#ArialMT-72" transform="translate(233.544922 0.765625)"/>
      <use xlink:href="#ArialMT-65" transform="translate(266.845703 0.765625)"/>
      <use xlink:href="#ArialMT-6e" transform="translate(322.460938 0.765625)"/>
      <use xlink:href="#ArialMT-74" transform="translate(378.076172 0.765625)"/>
      <use xlink:href="#ArialMT-20" transform="translate(405.859375 0.765625)"/>
      <use xlink:href="#ArialMT-64" transform="translate(433.642578 0.765625)"/>
      <use xlink:href="#ArialMT-69" transform="translate(489.257812 0.765625)"/>
      <use xlink:href="#ArialMT-66" transform="translate(511.474609 0.765625)"/>
      <use xlink:href="#ArialMT-66" transform="translate(539.257812 0.765625)"/>
      <use xlink:href="#ArialMT-75" transform="translate(567.041016 0.765625)"/>
      <use xlink:href="#ArialMT-73" transform="translate(622.65625 0.765625)"/>
      <use xlink:href="#ArialMT-69" transform="translate(672.65625 0.765625)"/>
      <use xlink:href="#ArialMT-6f" transform="translate(694.873047 0.765625)"/>
      <use xlink:href="#ArialMT-6e" transform="translate(750.488281 0.765625)"/>
      <use xlink:href="#ArialMT-20" transform="translate(806.103516 0.765625)"/>
      <use xlink:href="#ArialMT-63" transform="translate(833.886719 0.765625)"/>
      <use xlink:href="#ArialMT-6f" transform="translate(883.886719 0.765625)"/>
      <use xlink:href="#ArialMT-65" transform="translate(939.501953 0.765625)"/>
      <use xlink:href="#ArialMT-66" transform="translate(995.117188 0.765625)"/>
      <use xlink:href="#ArialMT-66" transform="translate(1022.900391 0.765625)"/>
      <use xlink:href="#ArialMT-69" transform="translate(1050.683594 0.765625)"/>
      <use xlink:href="#ArialMT-63" transform="translate(1072.900391 0.765625)"/>
      <use xlink:href="#ArialMT-69" transform="translate(1122.900391 0.765625)"/>
      <use xlink:href="#ArialMT-65" transform="translate(1145.117188 0.765625)"/>
      <use xlink:href="#ArialMT-6e" transform="translate(1200.732422 0.765625)"/>
      <use xlink:href="#ArialMT-74" transform="translate(1256.347656 0.765625)"/>
      <use xlink:href="#ArialMT-20" transform="translate(1284.130859 0.765625)"/>
      <use xlink:href="#ArialMT-28" transform="translate(1311.914062 0.765625)"/>
      <use xlink:href="#DejaVuSans-Oblique-3bc" transform="translate(1345.214844 0.765625)"/>
      <use xlink:href="#ArialMT-6d" transform="translate(1408.837891 0.765625)"/>
      <use xlink:href="#DejaVuSans-32" transform="translate(1493.095703 39.046875) scale(0.7)"/>
      <use xlink:href="#ArialMT-20" transform="translate(1540.366211 0.765625)"/>
      <use xlink:href="#ArialMT-73" transform="translate(1568.149414 0.765625)"/>
      <use xlink:href="#DejaVuSans-2212" transform="translate(1619.106445 39.046875) scale(0.7)"/>
      <use xlink:href="#DejaVuSans-31" transform="translate(1677.758789 39.046875) scale(0.7)"/>
      <use xlink:href="#ArialMT-29" transform="translate(1725.029297 0.765625)"/>
     </g>
    </g>
   </g>
   <g id="matplotlib.axis_2">
    <g id="ytick_1">
     <g id="line2d_19">
      <defs>
       <path id="m415577b0e1" d="M 0 0 
L -3 0 
" style="stroke: #262626; stroke-width: 0.5"/>
      </defs>
      <g>
       <use xlink:href="#m415577b0e1" x="28.83" y="116.04496" style="fill: #262626; stroke: #262626; stroke-width: 0.5"/>
      </g>
     </g>
     <g id="text_4">
      <!-- 0.00 -->
      <g style="fill: #262626" transform="translate(15.099531 117.834413) scale(0.05 -0.05)">
       <defs>
        <path id="ArialMT-2e" d="M 581 0 
L 581 641 
L 1222 641 
L 1222 0 
L 581 0 
z
" transform="scale(0.015625)"/>
       </defs>
       <use xlink:href="#ArialMT-30"/>
       <use xlink:href="#ArialMT-2e" x="55.615234"/>
       <use xlink:href="#ArialMT-30" x="83.398438"/>
       <use xlink:href="#ArialMT-30" x="139.013672"/>
      </g>
     </g>
    </g>
    <g id="ytick_2">
     <g id="line2d_20">
      <g>
       <use xlink:href="#m415577b0e1" x="28.83" y="100.190299" style="fill: #262626; stroke: #262626; stroke-width: 0.5"/>
      </g>
     </g>
     <g id="text_5">
      <!-- 0.01 -->
      <g style="fill: #262626" transform="translate(15.099531 101.979752) scale(0.05 -0.05)">
       <use xlink:href="#ArialMT-30"/>
       <use xlink:href="#ArialMT-2e" x="55.615234"/>
       <use xlink:href="#ArialMT-30" x="83.398438"/>
       <use xlink:href="#ArialMT-31" x="139.013672"/>
      </g>
     </g>
    </g>
    <g id="ytick_3">
     <g id="line2d_21">
      <g>
       <use xlink:href="#m415577b0e1" x="28.83" y="84.335637" style="fill: #262626; stroke: #262626; stroke-width: 0.5"/>
      </g>
     </g>
     <g id="text_6">
      <!-- 0.02 -->
      <g style="fill: #262626" transform="translate(15.099531 86.12509) scale(0.05 -0.05)">
       <defs>
        <path id="ArialMT-32" d="M 3222 541 
L 3222 0 
L 194 0 
Q 188 203 259 391 
Q 375 700 629 1000 
Q 884 1300 1366 1694 
Q 2113 2306 2375 2664 
Q 2638 3022 2638 3341 
Q 2638 3675 2398 3904 
Q 2159 4134 1775 4134 
Q 1369 4134 1125 3890 
Q 881 3647 878 3216 
L 300 3275 
Q 359 3922 746 4261 
Q 1134 4600 1788 4600 
Q 2447 4600 2831 4234 
Q 3216 3869 3216 3328 
Q 3216 3053 3103 2787 
Q 2991 2522 2730 2228 
Q 2469 1934 1863 1422 
Q 1356 997 1212 845 
Q 1069 694 975 541 
L 3222 541 
z
" transform="scale(0.015625)"/>
       </defs>
       <use xlink:href="#ArialMT-30"/>
       <use xlink:href="#ArialMT-2e" x="55.615234"/>
       <use xlink:href="#ArialMT-30" x="83.398438"/>
       <use xlink:href="#ArialMT-32" x="139.013672"/>
      </g>
     </g>
    </g>
    <g id="ytick_4">
     <g id="line2d_22">
      <g>
       <use xlink:href="#m415577b0e1" x="28.83" y="68.480975" style="fill: #262626; stroke: #262626; stroke-width: 0.5"/>
      </g>
     </g>
     <g id="text_7">
      <!-- 0.03 -->
      <g style="fill: #262626" transform="translate(15.099531 70.270429) scale(0.05 -0.05)">
       <defs>
        <path id="ArialMT-33" d="M 269 1209 
L 831 1284 
Q 928 806 1161 595 
Q 1394 384 1728 384 
Q 2125 384 2398 659 
Q 2672 934 2672 1341 
Q 2672 1728 2419 1979 
Q 2166 2231 1775 2231 
Q 1616 2231 1378 2169 
L 1441 2663 
Q 1497 2656 1531 2656 
Q 1891 2656 2178 2843 
Q 2466 3031 2466 3422 
Q 2466 3731 2256 3934 
Q 2047 4138 1716 4138 
Q 1388 4138 1169 3931 
Q 950 3725 888 3313 
L 325 3413 
Q 428 3978 793 4289 
Q 1159 4600 1703 4600 
Q 2078 4600 2393 4439 
Q 2709 4278 2876 4000 
Q 3044 3722 3044 3409 
Q 3044 3113 2884 2869 
Q 2725 2625 2413 2481 
Q 2819 2388 3044 2092 
Q 3269 1797 3269 1353 
Q 3269 753 2831 336 
Q 2394 -81 1725 -81 
Q 1122 -81 723 278 
Q 325 638 269 1209 
z
" transform="scale(0.015625)"/>
       </defs>
       <use xlink:href="#ArialMT-30"/>
       <use xlink:href="#ArialMT-2e" x="55.615234"/>
       <use xlink:href="#ArialMT-30" x="83.398438"/>
       <use xlink:href="#ArialMT-33" x="139.013672"/>
      </g>
     </g>
    </g>
    <g id="ytick_5">
     <g id="line2d_23">
      <g>
       <use xlink:href="#m415577b0e1" x="28.83" y="52.626314" style="fill: #262626; stroke: #262626; stroke-width: 0.5"/>
      </g>
     </g>
     <g id="text_8">
      <!-- 0.04 -->
      <g style="fill: #262626" transform="translate(15.099531 54.415767) scale(0.05 -0.05)">
       <defs>
        <path id="ArialMT-34" d="M 2069 0 
L 2069 1097 
L 81 1097 
L 81 1613 
L 2172 4581 
L 2631 4581 
L 2631 1613 
L 3250 1613 
L 3250 1097 
L 2631 1097 
L 2631 0 
L 2069 0 
z
M 2069 1613 
L 2069 3678 
L 634 1613 
L 2069 1613 
z
" transform="scale(0.015625)"/>
       </defs>
       <use xlink:href="#ArialMT-30"/>
       <use xlink:href="#ArialMT-2e" x="55.615234"/>
       <use xlink:href="#ArialMT-30" x="83.398438"/>
       <use xlink:href="#ArialMT-34" x="139.013672"/>
      </g>
     </g>
    </g>
    <g id="ytick_6">
     <g id="line2d_24">
      <g>
       <use xlink:href="#m415577b0e1" x="28.83" y="36.771652" style="fill: #262626; stroke: #262626; stroke-width: 0.5"/>
      </g>
     </g>
     <g id="text_9">
      <!-- 0.05 -->
      <g style="fill: #262626" transform="translate(15.099531 38.561105) scale(0.05 -0.05)">
       <defs>
        <path id="ArialMT-35" d="M 266 1200 
L 856 1250 
Q 922 819 1161 601 
Q 1400 384 1738 384 
Q 2144 384 2425 690 
Q 2706 997 2706 1503 
Q 2706 1984 2436 2262 
Q 2166 2541 1728 2541 
Q 1456 2541 1237 2417 
Q 1019 2294 894 2097 
L 366 2166 
L 809 4519 
L 3088 4519 
L 3088 3981 
L 1259 3981 
L 1013 2750 
Q 1425 3038 1878 3038 
Q 2478 3038 2890 2622 
Q 3303 2206 3303 1553 
Q 3303 931 2941 478 
Q 2500 -78 1738 -78 
Q 1113 -78 717 272 
Q 322 622 266 1200 
z
" transform="scale(0.015625)"/>
       </defs>
       <use xlink:href="#ArialMT-30"/>
       <use xlink:href="#ArialMT-2e" x="55.615234"/>
       <use xlink:href="#ArialMT-30" x="83.398438"/>
       <use xlink:href="#ArialMT-35" x="139.013672"/>
      </g>
     </g>
    </g>
    <g id="ytick_7">
     <g id="line2d_25">
      <g>
       <use xlink:href="#m415577b0e1" x="28.83" y="20.91699" style="fill: #262626; stroke: #262626; stroke-width: 0.5"/>
      </g>
     </g>
     <g id="text_10">
      <!-- 0.06 -->
      <g style="fill: #262626" transform="translate(15.099531 22.706444) scale(0.05 -0.05)">
       <defs>
        <path id="ArialMT-36" d="M 3184 3459 
L 2625 3416 
Q 2550 3747 2413 3897 
Q 2184 4138 1850 4138 
Q 1581 4138 1378 3988 
Q 1113 3794 959 3422 
Q 806 3050 800 2363 
Q 1003 2672 1297 2822 
Q 1591 2972 1913 2972 
Q 2475 2972 2870 2558 
Q 3266 2144 3266 1488 
Q 3266 1056 3080 686 
Q 2894 316 2569 119 
Q 2244 -78 1831 -78 
Q 1128 -78 684 439 
Q 241 956 241 2144 
Q 241 3472 731 4075 
Q 1159 4600 1884 4600 
Q 2425 4600 2770 4297 
Q 3116 3994 3184 3459 
z
M 888 1484 
Q 888 1194 1011 928 
Q 1134 663 1356 523 
Q 1578 384 1822 384 
Q 2178 384 2434 671 
Q 2691 959 2691 1453 
Q 2691 1928 2437 2201 
Q 2184 2475 1800 2475 
Q 1419 2475 1153 2201 
Q 888 1928 888 1484 
z
" transform="scale(0.015625)"/>
       </defs>
       <use xlink:href="#ArialMT-30"/>
       <use xlink:href="#ArialMT-2e" x="55.615234"/>
       <use xlink:href="#ArialMT-30" x="83.398438"/>
       <use xlink:href="#ArialMT-36" x="139.013672"/>
      </g>
     </g>
    </g>
    <g id="text_11">
     <!-- Posterior occupancy -->
     <g style="fill: #262626" transform="translate(11.836719 90.60225) rotate(-90) scale(0.06 -0.06)">
      <defs>
       <path id="ArialMT-50" d="M 494 0 
L 494 4581 
L 2222 4581 
Q 2678 4581 2919 4538 
Q 3256 4481 3484 4323 
Q 3713 4166 3852 3881 
Q 3991 3597 3991 3256 
Q 3991 2672 3619 2267 
Q 3247 1863 2275 1863 
L 1100 1863 
L 1100 0 
L 494 0 
z
M 1100 2403 
L 2284 2403 
Q 2872 2403 3119 2622 
Q 3366 2841 3366 3238 
Q 3366 3525 3220 3729 
Q 3075 3934 2838 4000 
Q 2684 4041 2272 4041 
L 1100 4041 
L 1100 2403 
z
" transform="scale(0.015625)"/>
       <path id="ArialMT-79" d="M 397 -1278 
L 334 -750 
Q 519 -800 656 -800 
Q 844 -800 956 -737 
Q 1069 -675 1141 -563 
Q 1194 -478 1313 -144 
Q 1328 -97 1363 -6 
L 103 3319 
L 709 3319 
L 1400 1397 
Q 1534 1031 1641 628 
Q 1738 1016 1872 1384 
L 2581 3319 
L 3144 3319 
L 1881 -56 
Q 1678 -603 1566 -809 
Q 1416 -1088 1222 -1217 
Q 1028 -1347 759 -1347 
Q 597 -1347 397 -1278 
z
" transform="scale(0.015625)"/>
      </defs>
      <use xlink:href="#ArialMT-50"/>
      <use xlink:href="#ArialMT-6f" x="66.699219"/>
      <use xlink:href="#ArialMT-73" x="122.314453"/>
      <use xlink:href="#ArialMT-74" x="172.314453"/>
      <use xlink:href="#ArialMT-65" x="200.097656"/>
      <use xlink:href="#ArialMT-72" x="255.712891"/>
      <use xlink:href="#ArialMT-69" x="289.013672"/>
      <use xlink:href="#ArialMT-6f" x="311.230469"/>
      <use xlink:href="#ArialMT-72" x="366.845703"/>
      <use xlink:href="#ArialMT-20" x="400.146484"/>
      <use xlink:href="#ArialMT-6f" x="427.929688"/>
      <use xlink:href="#ArialMT-63" x="483.544922"/>
      <use xlink:href="#ArialMT-63" x="533.544922"/>
      <use xlink:href="#ArialMT-75" x="583.544922"/>
      <use xlink:href="#ArialMT-70" x="639.160156"/>
      <use xlink:href="#ArialMT-61" x="694.775391"/>
      <use xlink:href="#ArialMT-6e" x="750.390625"/>
      <use xlink:href="#ArialMT-63" x="806.005859"/>
      <use xlink:href="#ArialMT-79" x="856.005859"/>
     </g>
    </g>
   </g>
   <g id="line2d_26">
    <path d="M 29.079193 103.410122 
L 32.854263 103.695767 
L 36.629332 103.869376 
L 40.404402 103.940419 
L 44.179471 103.912765 
L 47.954541 103.785668 
L 51.729611 103.554293 
L 55.50468 103.209933 
L 59.27975 102.740037 
L 63.05482 102.128073 
L 66.829889 101.353192 
L 70.604959 100.389502 
L 74.380029 99.204536 
L 78.155098 97.756182 
L 81.930168 95.987036 
L 85.705238 93.814487 
L 89.480307 91.113257 
L 93.255377 87.684748 
L 97.030447 83.21384 
L 100.805516 77.254979 
L 104.580586 69.369962 
L 108.355655 59.526734 
L 112.130725 48.559808 
L 115.905795 38.152747 
L 119.680864 30.144172 
L 123.455934 25.750989 
L 127.231004 25.339214 
L 131.006073 28.631753 
L 134.781143 34.892148 
L 138.556213 42.991667 
L 142.331282 51.625189 
L 146.106352 59.739483 
L 149.881422 66.842308 
L 153.656491 72.946565 
L 157.431561 78.298848 
L 161.20663 83.145609 
L 164.9817 87.624895 
L 168.75677 91.75702 
L 172.531839 95.491558 
L 176.306909 98.769315 
L 180.081979 101.564309 
L 183.857048 103.893671 
L 187.632118 105.805958 
L 191.407188 107.363868 
L 195.182257 108.630876 
L 198.957327 109.663911 
L 202.732397 110.510691 
L 206.507466 111.20969 
L 210.282536 111.791274 
L 214.057606 112.279158 
L 217.832675 112.691801 
L 221.607745 113.043575 
L 225.382814 113.345711 
L 229.157884 113.607024 
L 232.932954 113.834474 
L 236.708023 114.033591 
L 240.483093 114.208798 
" clip-path="url(#p92298f031b)" style="fill: none; stroke: #0173b2; stroke-linecap: round"/>
   </g>
   <g id="line2d_27">
    <path d="M 136.129001 119.287312 
L 136.129001 7.56 
" clip-path="url(#p92298f031b)" style="fill: none; stroke: #0173b2; stroke-width: 0.5; stroke-linecap: round"/>
   </g>
   <g id="line2d_28">
    <path d="M 29.079193 97.505369 
L 32.854263 97.654153 
L 36.629332 97.696089 
L 40.404402 97.638466 
L 44.179471 97.486011 
L 47.954541 97.240883 
L 51.729611 96.902202 
L 55.50468 96.465238 
L 59.27975 95.920432 
L 63.05482 95.252428 
L 66.829889 94.439188 
L 70.604959 93.451162 
L 74.380029 92.25035 
L 78.155098 90.789192 
L 81.930168 89.009386 
L 85.705238 86.841293 
L 89.480307 84.205547 
L 93.255377 81.020372 
L 97.030447 77.22099 
L 100.805516 72.799883 
L 104.580586 67.872216 
L 108.355655 62.745095 
L 112.130725 57.914306 
L 115.905795 53.901811 
L 119.680864 51.014368 
L 123.455934 49.261476 
L 127.231004 48.498096 
L 131.006073 48.618575 
L 134.781143 49.652028 
L 138.556213 51.740226 
L 142.331282 55.03607 
L 146.106352 59.569711 
L 149.881422 65.14608 
L 153.656491 71.344304 
L 157.431561 77.636497 
L 161.20663 83.553012 
L 164.9817 88.792359 
L 168.75677 93.236145 
L 172.531839 96.900577 
L 176.306909 99.874057 
L 180.081979 102.269609 
L 183.857048 104.197779 
L 187.632118 105.754866 
L 191.407188 107.019934 
L 195.182257 108.055892 
L 198.957327 108.911998 
L 202.732397 109.626542 
L 206.507466 110.229221 
L 210.282536 110.74306 
L 214.057606 111.185931 
L 217.832675 111.571718 
L 221.607745 111.911216 
L 225.382814 112.212823 
L 229.157884 112.483077 
L 232.932954 112.727075 
L 236.708023 112.948803 
L 240.483093 113.151387 
" clip-path="url(#p92298f031b)" style="fill: none; stroke: #de8f05; stroke-linecap: round"/>
   </g>
   <g id="line2d_29">
    <path d="M 135.356565 119.287312 
L 135.356565 7.56 
" clip-path="url(#p92298f031b)" style="fill: none; stroke: #de8f05; stroke-width: 0.5; stroke-linecap: round"/>
   </g>
   <g id="line2d_30">
    <path d="M 29.079193 105.156478 
L 32.854263 105.470828 
L 36.629332 105.697904 
L 40.404402 105.848935 
L 44.179471 105.931694 
L 47.954541 105.951439 
L 51.729611 105.911485 
L 55.50468 105.813495 
L 59.27975 105.657569 
L 63.05482 105.442199 
L 66.829889 105.164167 
L 70.604959 104.818462 
L 74.380029 104.398241 
L 78.155098 103.894807 
L 81.930168 103.297527 
L 85.705238 102.593642 
L 89.480307 101.76793 
L 93.255377 100.802292 
L 97.030447 99.675427 
L 100.805516 98.362802 
L 104.580586 96.837201 
L 108.355655 95.070241 
L 112.130725 93.035344 
L 115.905795 90.71269 
L 119.680864 88.096098 
L 123.455934 85.199958 
L 127.231004 82.060897 
L 131.006073 78.726188 
L 134.781143 75.2248 
L 138.556213 71.530452 
L 142.331282 67.537759 
L 146.106352 63.065757 
L 149.881422 57.886164 
L 153.656491 51.777801 
L 157.431561 44.654319 
L 161.20663 36.889005 
L 164.9817 29.924024 
L 168.75677 26.656155 
L 172.531839 30.101733 
L 176.306909 40.307316 
L 180.081979 53.64158 
L 183.857048 66.222526 
L 187.632118 76.43218 
L 191.407188 84.294551 
L 195.182257 90.298205 
L 198.957327 94.915944 
L 202.732397 98.5106 
L 206.507466 101.343719 
L 210.282536 103.601716 
L 214.057606 105.418828 
L 217.832675 106.893535 
L 221.607745 108.099516 
L 225.382814 109.092842 
L 229.157884 109.916755 
L 232.932954 110.604933 
L 236.708023 111.183785 
L 240.483093 111.674134 
" clip-path="url(#p92298f031b)" style="fill: none; stroke: #d55e00; stroke-linecap: round"/>
   </g>
   <g id="line2d_31">
    <path d="M 161.273135 119.287312 
L 161.273135 7.56 
" clip-path="url(#p92298f031b)" style="fill: none; stroke: #d55e00; stroke-width: 0.5; stroke-linecap: round"/>
   </g>
   <g id="line2d_32">
    <path d="M 29.079193 106.87959 
L 32.854263 106.939259 
L 36.629332 106.946033 
L 40.404402 106.903411 
L 44.179471 106.813297 
L 47.954541 106.676337 
L 51.729611 106.492083 
L 55.50468 106.259015 
L 59.27975 105.974442 
L 63.05482 105.634309 
L 66.829889 105.232933 
L 70.604959 104.762718 
L 74.380029 104.213922 
L 78.155098 103.574555 
L 81.930168 102.830523 
L 85.705238 101.966109 
L 89.480307 100.964959 
L 93.255377 99.811741 
L 97.030447 98.494609 
L 100.805516 97.008385 
L 104.580586 95.357643 
L 108.355655 93.557778 
L 112.130725 91.63118 
L 115.905795 89.596501 
L 119.680864 87.452755 
L 123.455934 85.164487 
L 127.231004 82.654235 
L 131.006073 79.802567 
L 134.781143 76.449546 
L 138.556213 72.390094 
L 142.331282 67.358804 
L 146.106352 61.006874 
L 149.881422 52.899881 
L 153.656491 42.659855 
L 157.431561 30.570898 
L 161.20663 18.887601 
L 164.9817 12.638514 
L 168.75677 16.86608 
L 172.531839 31.09367 
L 176.306909 48.974835 
L 180.081979 64.656095 
L 183.857048 76.4234 
L 187.632118 84.940458 
L 191.407188 91.17212 
L 195.182257 95.824116 
L 198.957327 99.367421 
L 202.732397 102.116277 
L 206.507466 104.283707 
L 210.282536 106.017267 
L 214.057606 107.42149 
L 217.832675 108.571968 
L 221.607745 109.524336 
L 225.382814 110.320152 
L 229.157884 110.990853 
L 232.932954 111.560482 
L 236.708023 112.047623 
L 240.483093 112.466783 
" clip-path="url(#p92298f031b)" style="fill: none; stroke: #cc78bc; stroke-linecap: round"/>
   </g>
   <g id="line2d_33">
    <path d="M 158.948583 119.287312 
L 158.948583 7.56 
" clip-path="url(#p92298f031b)" style="fill: none; stroke: #cc78bc; stroke-width: 0.5; stroke-linecap: round"/>
   </g>
   <g id="patch_3">
    <path d="M 28.83 119.287312 
L 28.83 7.56 
" style="fill: none; stroke: #262626; stroke-width: 0.5; stroke-linejoin: miter; stroke-linecap: square"/>
   </g>
   <g id="patch_4">
    <path d="M 28.83 119.287312 
L 240.483093 119.287312 
" style="fill: none; stroke: #262626; stroke-width: 0.5; stroke-linejoin: miter; stroke-linecap: square"/>
   </g>
   <g id="legend_1">
    <g id="text_12">
     <!-- mNeonGreen tracking -->
     <g style="fill: #262626" transform="translate(33.33 16.427813) scale(0.06 -0.06)">
      <defs>
       <path id="ArialMT-4e" d="M 488 0 
L 488 4581 
L 1109 4581 
L 3516 984 
L 3516 4581 
L 4097 4581 
L 4097 0 
L 3475 0 
L 1069 3600 
L 1069 0 
L 488 0 
z
" transform="scale(0.015625)"/>
       <path id="ArialMT-47" d="M 2638 1797 
L 2638 2334 
L 4578 2338 
L 4578 638 
Q 4131 281 3656 101 
Q 3181 -78 2681 -78 
Q 2006 -78 1454 211 
Q 903 500 622 1047 
Q 341 1594 341 2269 
Q 341 2938 620 3517 
Q 900 4097 1425 4378 
Q 1950 4659 2634 4659 
Q 3131 4659 3532 4498 
Q 3934 4338 4162 4050 
Q 4391 3763 4509 3300 
L 3963 3150 
Q 3859 3500 3706 3700 
Q 3553 3900 3268 4020 
Q 2984 4141 2638 4141 
Q 2222 4141 1919 4014 
Q 1616 3888 1430 3681 
Q 1244 3475 1141 3228 
Q 966 2803 966 2306 
Q 966 1694 1177 1281 
Q 1388 869 1791 669 
Q 2194 469 2647 469 
Q 3041 469 3416 620 
Q 3791 772 3984 944 
L 3984 1797 
L 2638 1797 
z
" transform="scale(0.015625)"/>
       <path id="ArialMT-6b" d="M 425 0 
L 425 4581 
L 988 4581 
L 988 1969 
L 2319 3319 
L 3047 3319 
L 1778 2088 
L 3175 0 
L 2481 0 
L 1384 1697 
L 988 1316 
L 988 0 
L 425 0 
z
" transform="scale(0.015625)"/>
       <path id="ArialMT-67" d="M 319 -275 
L 866 -356 
Q 900 -609 1056 -725 
Q 1266 -881 1628 -881 
Q 2019 -881 2231 -725 
Q 2444 -569 2519 -288 
Q 2563 -116 2559 434 
Q 2191 0 1641 0 
Q 956 0 581 494 
Q 206 988 206 1678 
Q 206 2153 378 2554 
Q 550 2956 876 3175 
Q 1203 3394 1644 3394 
Q 2231 3394 2613 2919 
L 2613 3319 
L 3131 3319 
L 3131 450 
Q 3131 -325 2973 -648 
Q 2816 -972 2473 -1159 
Q 2131 -1347 1631 -1347 
Q 1038 -1347 672 -1080 
Q 306 -813 319 -275 
z
M 784 1719 
Q 784 1066 1043 766 
Q 1303 466 1694 466 
Q 2081 466 2343 764 
Q 2606 1063 2606 1700 
Q 2606 2309 2336 2618 
Q 2066 2928 1684 2928 
Q 1309 2928 1046 2623 
Q 784 2319 784 1719 
z
" transform="scale(0.015625)"/>
      </defs>
      <use xlink:href="#ArialMT-6d"/>
      <use xlink:href="#ArialMT-4e" x="83.300781"/>
      <use xlink:href="#ArialMT-65" x="155.517578"/>
      <use xlink:href="#ArialMT-6f" x="211.132812"/>
      <use xlink:href="#ArialMT-6e" x="266.748047"/>
      <use xlink:href="#ArialMT-47" x="322.363281"/>
      <use xlink:href="#ArialMT-72" x="400.146484"/>
      <use xlink:href="#ArialMT-65" x="433.447266"/>
      <use xlink:href="#ArialMT-65" x="489.0625"/>
      <use xlink:href="#ArialMT-6e" x="544.677734"/>
      <use xlink:href="#ArialMT-20" x="600.292969"/>
      <use xlink:href="#ArialMT-74" x="628.076172"/>
      <use xlink:href="#ArialMT-72" x="655.859375"/>
      <use xlink:href="#ArialMT-61" x="689.160156"/>
      <use xlink:href="#ArialMT-63" x="744.775391"/>
      <use xlink:href="#ArialMT-6b" x="794.775391"/>
      <use xlink:href="#ArialMT-69" x="844.775391"/>
      <use xlink:href="#ArialMT-6e" x="866.992188"/>
      <use xlink:href="#ArialMT-67" x="922.607422"/>
     </g>
    </g>
    <g id="line2d_34">
     <path d="M 33.499688 22.990625 
L 38.499688 22.990625 
L 43.499688 22.990625 
" style="fill: none; stroke: #0173b2; stroke-linecap: round"/>
    </g>
    <g id="text_13">
     <!-- $\text{PerM}^\text{n1}$ | $\text{FtsB}^\text{ΔLQ}$ -->
     <g style="fill: #262626" transform="translate(47.499688 24.740625) scale(0.05 -0.05)">
      <defs>
       <path id="DejaVuSans-50" d="M 1259 4147 
L 1259 2394 
L 2053 2394 
Q 2494 2394 2734 2622 
Q 2975 2850 2975 3272 
Q 2975 3691 2734 3919 
Q 2494 4147 2053 4147 
L 1259 4147 
z
M 628 4666 
L 2053 4666 
Q 2838 4666 3239 4311 
Q 3641 3956 3641 3272 
Q 3641 2581 3239 2228 
Q 2838 1875 2053 1875 
L 1259 1875 
L 1259 0 
L 628 0 
L 628 4666 
z
" transform="scale(0.015625)"/>
       <path id="DejaVuSans-65" d="M 3597 1894 
L 3597 1613 
L 953 1613 
Q 991 1019 1311 708 
Q 1631 397 2203 397 
Q 2534 397 2845 478 
Q 3156 559 3463 722 
L 3463 178 
Q 3153 47 2828 -22 
Q 2503 -91 2169 -91 
Q 1331 -91 842 396 
Q 353 884 353 1716 
Q 353 2575 817 3079 
Q 1281 3584 2069 3584 
Q 2775 3584 3186 3129 
Q 3597 2675 3597 1894 
z
M 3022 2063 
Q 3016 2534 2758 2815 
Q 2500 3097 2075 3097 
Q 1594 3097 1305 2825 
Q 1016 2553 972 2059 
L 3022 2063 
z
" transform="scale(0.015625)"/>
       <path id="DejaVuSans-72" d="M 2631 2963 
Q 2534 3019 2420 3045 
Q 2306 3072 2169 3072 
Q 1681 3072 1420 2755 
Q 1159 2438 1159 1844 
L 1159 0 
L 581 0 
L 581 3500 
L 1159 3500 
L 1159 2956 
Q 1341 3275 1631 3429 
Q 1922 3584 2338 3584 
Q 2397 3584 2469 3576 
Q 2541 3569 2628 3553 
L 2631 2963 
z
" transform="scale(0.015625)"/>
       <path id="DejaVuSans-4d" d="M 628 4666 
L 1569 4666 
L 2759 1491 
L 3956 4666 
L 4897 4666 
L 4897 0 
L 4281 0 
L 4281 4097 
L 3078 897 
L 2444 897 
L 1241 4097 
L 1241 0 
L 628 0 
L 628 4666 
z
" transform="scale(0.015625)"/>
       <path id="DejaVuSans-6e" d="M 3513 2113 
L 3513 0 
L 2938 0 
L 2938 2094 
Q 2938 2591 2744 2837 
Q 2550 3084 2163 3084 
Q 1697 3084 1428 2787 
Q 1159 2491 1159 1978 
L 1159 0 
L 581 0 
L 581 3500 
L 1159 3500 
L 1159 2956 
Q 1366 3272 1645 3428 
Q 1925 3584 2291 3584 
Q 2894 3584 3203 3211 
Q 3513 2838 3513 2113 
z
" transform="scale(0.015625)"/>
       <path id="ArialMT-7c" d="M 588 -1347 
L 588 4659 
L 1078 4659 
L 1078 -1347 
L 588 -1347 
z
" transform="scale(0.015625)"/>
       <path id="DejaVuSans-46" d="M 628 4666 
L 3309 4666 
L 3309 4134 
L 1259 4134 
L 1259 2759 
L 3109 2759 
L 3109 2228 
L 1259 2228 
L 1259 0 
L 628 0 
L 628 4666 
z
" transform="scale(0.015625)"/>
       <path id="DejaVuSans-74" d="M 1172 4494 
L 1172 3500 
L 2356 3500 
L 2356 3053 
L 1172 3053 
L 1172 1153 
Q 1172 725 1289 603 
Q 1406 481 1766 481 
L 2356 481 
L 2356 0 
L 1766 0 
Q 1100 0 847 248 
Q 594 497 594 1153 
L 594 3053 
L 172 3053 
L 172 3500 
L 594 3500 
L 594 4494 
L 1172 4494 
z
" transform="scale(0.015625)"/>
       <path id="DejaVuSans-73" d="M 2834 3397 
L 2834 2853 
Q 2591 2978 2328 3040 
Q 2066 3103 1784 3103 
Q 1356 3103 1142 2972 
Q 928 2841 928 2578 
Q 928 2378 1081 2264 
Q 1234 2150 1697 2047 
L 1894 2003 
Q 2506 1872 2764 1633 
Q 3022 1394 3022 966 
Q 3022 478 2636 193 
Q 2250 -91 1575 -91 
Q 1294 -91 989 -36 
Q 684 19 347 128 
L 347 722 
Q 666 556 975 473 
Q 1284 391 1588 391 
Q 1994 391 2212 530 
Q 2431 669 2431 922 
Q 2431 1156 2273 1281 
Q 2116 1406 1581 1522 
L 1381 1569 
Q 847 1681 609 1914 
Q 372 2147 372 2553 
Q 372 3047 722 3315 
Q 1072 3584 1716 3584 
Q 2034 3584 2315 3537 
Q 2597 3491 2834 3397 
z
" transform="scale(0.015625)"/>
       <path id="DejaVuSans-42" d="M 1259 2228 
L 1259 519 
L 2272 519 
Q 2781 519 3026 730 
Q 3272 941 3272 1375 
Q 3272 1813 3026 2020 
Q 2781 2228 2272 2228 
L 1259 2228 
z
M 1259 4147 
L 1259 2741 
L 2194 2741 
Q 2656 2741 2882 2914 
Q 3109 3088 3109 3444 
Q 3109 3797 2882 3972 
Q 2656 4147 2194 4147 
L 1259 4147 
z
M 628 4666 
L 2241 4666 
Q 2963 4666 3353 4366 
Q 3744 4066 3744 3513 
Q 3744 3084 3544 2831 
Q 3344 2578 2956 2516 
Q 3422 2416 3680 2098 
Q 3938 1781 3938 1306 
Q 3938 681 3513 340 
Q 3088 0 2303 0 
L 628 0 
L 628 4666 
z
" transform="scale(0.015625)"/>
       <path id="DejaVuSans-394" d="M 2188 4044 
L 906 525 
L 3472 525 
L 2188 4044 
z
M 50 0 
L 1831 4666 
L 2547 4666 
L 4325 0 
L 50 0 
z
" transform="scale(0.015625)"/>
       <path id="DejaVuSans-4c" d="M 628 4666 
L 1259 4666 
L 1259 531 
L 3531 531 
L 3531 0 
L 628 0 
L 628 4666 
z
" transform="scale(0.015625)"/>
       <path id="DejaVuSans-51" d="M 2522 4238 
Q 1834 4238 1429 3725 
Q 1025 3213 1025 2328 
Q 1025 1447 1429 934 
Q 1834 422 2522 422 
Q 3209 422 3611 934 
Q 4013 1447 4013 2328 
Q 4013 3213 3611 3725 
Q 3209 4238 2522 4238 
z
M 3406 84 
L 4238 -825 
L 3475 -825 
L 2784 -78 
Q 2681 -84 2626 -87 
Q 2572 -91 2522 -91 
Q 1538 -91 948 567 
Q 359 1225 359 2328 
Q 359 3434 948 4092 
Q 1538 4750 2522 4750 
Q 3503 4750 4090 4092 
Q 4678 3434 4678 2328 
Q 4678 1516 4351 937 
Q 4025 359 3406 84 
z
" transform="scale(0.015625)"/>
      </defs>
      <use xlink:href="#DejaVuSans-50" transform="translate(0 0.765625)"/>
      <use xlink:href="#DejaVuSans-65" transform="translate(60.302734 0.765625)"/>
      <use xlink:href="#DejaVuSans-72" transform="translate(121.826172 0.765625)"/>
      <use xlink:href="#DejaVuSans-4d" transform="translate(162.939453 0.765625)"/>
      <use xlink:href="#DejaVuSans-6e" transform="translate(250.175781 39.046875) scale(0.7)"/>
      <use xlink:href="#DejaVuSans-31" transform="translate(294.541016 39.046875) scale(0.7)"/>
      <use xlink:href="#ArialMT-20" transform="translate(341.811523 0.765625)"/>
      <use xlink:href="#ArialMT-7c" transform="translate(369.594727 0.765625)"/>
      <use xlink:href="#ArialMT-20" transform="translate(395.571289 0.765625)"/>
      <use xlink:href="#DejaVuSans-46" transform="translate(423.354492 0.765625)"/>
      <use xlink:href="#DejaVuSans-74" transform="translate(480.874023 0.765625)"/>
      <use xlink:href="#DejaVuSans-73" transform="translate(520.083008 0.765625)"/>
      <use xlink:href="#DejaVuSans-42" transform="translate(572.182617 0.765625)"/>
      <use xlink:href="#DejaVuSans-394" transform="translate(641.743164 39.046875) scale(0.7)"/>
      <use xlink:href="#DejaVuSans-4c" transform="translate(689.628906 39.046875) scale(0.7)"/>
      <use xlink:href="#DejaVuSans-51" transform="translate(728.62793 39.046875) scale(0.7)"/>
     </g>
    </g>
    <g id="line2d_35">
     <path d="M 33.499688 31.140625 
L 38.499688 31.140625 
L 43.499688 31.140625 
" style="fill: none; stroke: #de8f05; stroke-linecap: round"/>
    </g>
    <g id="text_14">
     <!-- $\text{PerM}^\text{n1}$ | $\text{FtsB}^\text{ΔLQΔH}$ -->
     <g style="fill: #262626" transform="translate(47.499688 32.890625) scale(0.05 -0.05)">
      <defs>
       <path id="DejaVuSans-48" d="M 628 4666 
L 1259 4666 
L 1259 2753 
L 3553 2753 
L 3553 4666 
L 4184 4666 
L 4184 0 
L 3553 0 
L 3553 2222 
L 1259 2222 
L 1259 0 
L 628 0 
L 628 4666 
z
" transform="scale(0.015625)"/>
      </defs>
      <use xlink:href="#DejaVuSans-50" transform="translate(0 0.765625)"/>
      <use xlink:href="#DejaVuSans-65" transform="translate(60.302734 0.765625)"/>
      <use xlink:href="#DejaVuSans-72" transform="translate(121.826172 0.765625)"/>
      <use xlink:href="#DejaVuSans-4d" transform="translate(162.939453 0.765625)"/>
      <use xlink:href="#DejaVuSans-6e" transform="translate(250.175781 39.046875) scale(0.7)"/>
      <use xlink:href="#DejaVuSans-31" transform="translate(294.541016 39.046875) scale(0.7)"/>
      <use xlink:href="#ArialMT-20" transform="translate(341.811523 0.765625)"/>
      <use xlink:href="#ArialMT-7c" transform="translate(369.594727 0.765625)"/>
      <use xlink:href="#ArialMT-20" transform="translate(395.571289 0.765625)"/>
      <use xlink:href="#DejaVuSans-46" transform="translate(423.354492 0.765625)"/>
      <use xlink:href="#DejaVuSans-74" transform="translate(480.874023 0.765625)"/>
      <use xlink:href="#DejaVuSans-73" transform="translate(520.083008 0.765625)"/>
      <use xlink:href="#DejaVuSans-42" transform="translate(572.182617 0.765625)"/>
      <use xlink:href="#DejaVuSans-394" transform="translate(641.743164 39.046875) scale(0.7)"/>
      <use xlink:href="#DejaVuSans-4c" transform="translate(689.628906 39.046875) scale(0.7)"/>
      <use xlink:href="#DejaVuSans-51" transform="translate(728.62793 39.046875) scale(0.7)"/>
      <use xlink:href="#DejaVuSans-394" transform="translate(783.725586 39.046875) scale(0.7)"/>
      <use xlink:href="#DejaVuSans-48" transform="translate(831.611328 39.046875) scale(0.7)"/>
     </g>
    </g>
    <g id="line2d_36">
     <path d="M 33.499688 39.290625 
L 38.499688 39.290625 
L 43.499688 39.290625 
" style="fill: none; stroke: #d55e00; stroke-linecap: round"/>
    </g>
    <g id="text_15">
     <!-- $\text{Pf3}$ | $\text{FtsB}^\text{ΔLQ}$ -->
     <g style="fill: #262626" transform="translate(47.499688 41.040625) scale(0.05 -0.05)">
      <defs>
       <path id="DejaVuSans-66" d="M 2375 4863 
L 2375 4384 
L 1825 4384 
Q 1516 4384 1395 4259 
Q 1275 4134 1275 3809 
L 1275 3500 
L 2222 3500 
L 2222 3053 
L 1275 3053 
L 1275 0 
L 697 0 
L 697 3053 
L 147 3053 
L 147 3500 
L 697 3500 
L 697 3744 
Q 697 4328 969 4595 
Q 1241 4863 1831 4863 
L 2375 4863 
z
" transform="scale(0.015625)"/>
       <path id="DejaVuSans-33" d="M 2597 2516 
Q 3050 2419 3304 2112 
Q 3559 1806 3559 1356 
Q 3559 666 3084 287 
Q 2609 -91 1734 -91 
Q 1441 -91 1130 -33 
Q 819 25 488 141 
L 488 750 
Q 750 597 1062 519 
Q 1375 441 1716 441 
Q 2309 441 2620 675 
Q 2931 909 2931 1356 
Q 2931 1769 2642 2001 
Q 2353 2234 1838 2234 
L 1294 2234 
L 1294 2753 
L 1863 2753 
Q 2328 2753 2575 2939 
Q 2822 3125 2822 3475 
Q 2822 3834 2567 4026 
Q 2313 4219 1838 4219 
Q 1578 4219 1281 4162 
Q 984 4106 628 3988 
L 628 4550 
Q 988 4650 1302 4700 
Q 1616 4750 1894 4750 
Q 2613 4750 3031 4423 
Q 3450 4097 3450 3541 
Q 3450 3153 3228 2886 
Q 3006 2619 2597 2516 
z
" transform="scale(0.015625)"/>
      </defs>
      <use xlink:href="#DejaVuSans-50" transform="translate(0 0.765625)"/>
      <use xlink:href="#DejaVuSans-66" transform="translate(60.302734 0.765625)"/>
      <use xlink:href="#DejaVuSans-33" transform="translate(95.507812 0.765625)"/>
      <use xlink:href="#ArialMT-20" transform="translate(159.130859 0.765625)"/>
      <use xlink:href="#ArialMT-7c" transform="translate(186.914062 0.765625)"/>
      <use xlink:href="#ArialMT-20" transform="translate(212.890625 0.765625)"/>
      <use xlink:href="#DejaVuSans-46" transform="translate(240.673828 0.765625)"/>
      <use xlink:href="#DejaVuSans-74" transform="translate(298.193359 0.765625)"/>
      <use xlink:href="#DejaVuSans-73" transform="translate(337.402344 0.765625)"/>
      <use xlink:href="#DejaVuSans-42" transform="translate(389.501953 0.765625)"/>
      <use xlink:href="#DejaVuSans-394" transform="translate(459.0625 39.046875) scale(0.7)"/>
      <use xlink:href="#DejaVuSans-4c" transform="translate(506.948242 39.046875) scale(0.7)"/>
      <use xlink:href="#DejaVuSans-51" transform="translate(545.947266 39.046875) scale(0.7)"/>
     </g>
    </g>
    <g id="line2d_37">
     <path d="M 33.499688 47.440625 
L 38.499688 47.440625 
L 43.499688 47.440625 
" style="fill: none; stroke: #cc78bc; stroke-linecap: round"/>
    </g>
    <g id="text_16">
     <!-- $\text{Pf3}$ | $\text{FtsB}^\text{ΔLQΔH}$ -->
     <g style="fill: #262626" transform="translate(47.499688 49.190625) scale(0.05 -0.05)">
      <use xlink:href="#DejaVuSans-50" transform="translate(0 0.765625)"/>
      <use xlink:href="#DejaVuSans-66" transform="translate(60.302734 0.765625)"/>
      <use xlink:href="#DejaVuSans-33" transform="translate(95.507812 0.765625)"/>
      <use xlink:href="#ArialMT-20" transform="translate(159.130859 0.765625)"/>
      <use xlink:href="#ArialMT-7c" transform="translate(186.914062 0.765625)"/>
      <use xlink:href="#ArialMT-20" transform="translate(212.890625 0.765625)"/>
      <use xlink:href="#DejaVuSans-46" transform="translate(240.673828 0.765625)"/>
      <use xlink:href="#DejaVuSans-74" transform="translate(298.193359 0.765625)"/>
      <use xlink:href="#DejaVuSans-73" transform="translate(337.402344 0.765625)"/>
      <use xlink:href="#DejaVuSans-42" transform="translate(389.501953 0.765625)"/>
      <use xlink:href="#DejaVuSans-394" transform="translate(459.0625 39.046875) scale(0.7)"/>
      <use xlink:href="#DejaVuSans-4c" transform="translate(506.948242 39.046875) scale(0.7)"/>
      <use xlink:href="#DejaVuSans-51" transform="translate(545.947266 39.046875) scale(0.7)"/>
      <use xlink:href="#DejaVuSans-394" transform="translate(601.044922 39.046875) scale(0.7)"/>
      <use xlink:href="#DejaVuSans-48" transform="translate(648.930664 39.046875) scale(0.7)"/>
     </g>
    </g>
   </g>
  </g>
  <g id="axes_2">
   <g id="patch_5">
    <path d="M 28.83 259.507313 
L 240.483093 259.507313 
L 240.483093 147.78 
L 28.83 147.78 
z
" style="fill: #ffffff"/>
   </g>
   <g id="matplotlib.axis_3">
    <g id="xtick_19">
     <g id="line2d_38">
      <g>
       <use xlink:href="#m8107684722" x="115.905795" y="259.507313" style="fill: #262626; stroke: #262626; stroke-width: 0.5"/>
      </g>
     </g>
     <g id="text_17">
      <!-- $\mathdefault{10^{-1}}$ -->
      <g style="fill: #262626" transform="translate(110.955795 268.663563) scale(0.05 -0.05)">
       <use xlink:href="#ArialMT-31" transform="translate(0 0.99375)"/>
       <use xlink:href="#ArialMT-30" transform="translate(55.615234 0.99375)"/>
       <use xlink:href="#ArialMT-2212" transform="translate(112.972813 70.6875) scale(0.7)"/>
       <use xlink:href="#ArialMT-31" transform="translate(153.851719 70.6875) scale(0.7)"/>
      </g>
     </g>
    </g>
    <g id="xtick_20">
     <g id="line2d_39">
      <g>
       <use xlink:href="#m8107684722" x="240.483093" y="259.507313" style="fill: #262626; stroke: #262626; stroke-width: 0.5"/>
      </g>
     </g>
     <g id="text_18">
      <!-- $\mathdefault{10^{0}}$ -->
      <g style="fill: #262626" transform="translate(236.558093 268.663563) scale(0.05 -0.05)">
       <use xlink:href="#ArialMT-31" transform="translate(0 0.99375)"/>
       <use xlink:href="#ArialMT-30" transform="translate(55.615234 0.99375)"/>
       <use xlink:href="#ArialMT-30" transform="translate(112.972813 70.6875) scale(0.7)"/>
      </g>
     </g>
    </g>
    <g id="xtick_21">
     <g id="line2d_40">
      <g>
       <use xlink:href="#m098473c879" x="28.83" y="259.507313" style="fill: #262626; stroke: #262626; stroke-width: 0.5"/>
      </g>
     </g>
    </g>
    <g id="xtick_22">
     <g id="line2d_41">
      <g>
       <use xlink:href="#m098473c879" x="50.766973" y="259.507313" style="fill: #262626; stroke: #262626; stroke-width: 0.5"/>
      </g>
     </g>
    </g>
    <g id="xtick_23">
     <g id="line2d_42">
      <g>
       <use xlink:href="#m098473c879" x="66.331504" y="259.507313" style="fill: #262626; stroke: #262626; stroke-width: 0.5"/>
      </g>
     </g>
    </g>
    <g id="xtick_24">
     <g id="line2d_43">
      <g>
       <use xlink:href="#m098473c879" x="78.404291" y="259.507313" style="fill: #262626; stroke: #262626; stroke-width: 0.5"/>
      </g>
     </g>
    </g>
    <g id="xtick_25">
     <g id="line2d_44">
      <g>
       <use xlink:href="#m098473c879" x="88.268477" y="259.507313" style="fill: #262626; stroke: #262626; stroke-width: 0.5"/>
      </g>
     </g>
    </g>
    <g id="xtick_26">
     <g id="line2d_45">
      <g>
       <use xlink:href="#m098473c879" x="96.608527" y="259.507313" style="fill: #262626; stroke: #262626; stroke-width: 0.5"/>
      </g>
     </g>
    </g>
    <g id="xtick_27">
     <g id="line2d_46">
      <g>
       <use xlink:href="#m098473c879" x="103.833007" y="259.507313" style="fill: #262626; stroke: #262626; stroke-width: 0.5"/>
      </g>
     </g>
    </g>
    <g id="xtick_28">
     <g id="line2d_47">
      <g>
       <use xlink:href="#m098473c879" x="110.20545" y="259.507313" style="fill: #262626; stroke: #262626; stroke-width: 0.5"/>
      </g>
     </g>
    </g>
    <g id="xtick_29">
     <g id="line2d_48">
      <g>
       <use xlink:href="#m098473c879" x="153.407298" y="259.507313" style="fill: #262626; stroke: #262626; stroke-width: 0.5"/>
      </g>
     </g>
    </g>
    <g id="xtick_30">
     <g id="line2d_49">
      <g>
       <use xlink:href="#m098473c879" x="175.344272" y="259.507313" style="fill: #262626; stroke: #262626; stroke-width: 0.5"/>
      </g>
     </g>
    </g>
    <g id="xtick_31">
     <g id="line2d_50">
      <g>
       <use xlink:href="#m098473c879" x="190.908802" y="259.507313" style="fill: #262626; stroke: #262626; stroke-width: 0.5"/>
      </g>
     </g>
    </g>
    <g id="xtick_32">
     <g id="line2d_51">
      <g>
       <use xlink:href="#m098473c879" x="202.981589" y="259.507313" style="fill: #262626; stroke: #262626; stroke-width: 0.5"/>
      </g>
     </g>
    </g>
    <g id="xtick_33">
     <g id="line2d_52">
      <g>
       <use xlink:href="#m098473c879" x="212.845775" y="259.507313" style="fill: #262626; stroke: #262626; stroke-width: 0.5"/>
      </g>
     </g>
    </g>
    <g id="xtick_34">
     <g id="line2d_53">
      <g>
       <use xlink:href="#m098473c879" x="221.185825" y="259.507313" style="fill: #262626; stroke: #262626; stroke-width: 0.5"/>
      </g>
     </g>
    </g>
    <g id="xtick_35">
     <g id="line2d_54">
      <g>
       <use xlink:href="#m098473c879" x="228.410305" y="259.507313" style="fill: #262626; stroke: #262626; stroke-width: 0.5"/>
      </g>
     </g>
    </g>
    <g id="xtick_36">
     <g id="line2d_55">
      <g>
       <use xlink:href="#m098473c879" x="234.782748" y="259.507313" style="fill: #262626; stroke: #262626; stroke-width: 0.5"/>
      </g>
     </g>
    </g>
    <g id="text_19">
     <!-- Apparent diffusion coefficient ($\mu$m$^{2}$ s$^{-1}$) -->
     <g style="fill: #262626" transform="translate(81.886547 277.117313) scale(0.06 -0.06)">
      <use xlink:href="#ArialMT-41" transform="translate(0 0.765625)"/>
      <use xlink:href="#ArialMT-70" transform="translate(66.699219 0.765625)"/>
      <use xlink:href="#ArialMT-70" transform="translate(122.314453 0.765625)"/>
      <use xlink:href="#ArialMT-61" transform="translate(177.929688 0.765625)"/>
      <use xlink:href="#ArialMT-72" transform="translate(233.544922 0.765625)"/>
      <use xlink:href="#ArialMT-65" transform="translate(266.845703 0.765625)"/>
      <use xlink:href="#ArialMT-6e" transform="translate(322.460938 0.765625)"/>
      <use xlink:href="#ArialMT-74" transform="translate(378.076172 0.765625)"/>
      <use xlink:href="#ArialMT-20" transform="translate(405.859375 0.765625)"/>
      <use xlink:href="#ArialMT-64" transform="translate(433.642578 0.765625)"/>
      <use xlink:href="#ArialMT-69" transform="translate(489.257812 0.765625)"/>
      <use xlink:href="#ArialMT-66" transform="translate(511.474609 0.765625)"/>
      <use xlink:href="#ArialMT-66" transform="translate(539.257812 0.765625)"/>
      <use xlink:href="#ArialMT-75" transform="translate(567.041016 0.765625)"/>
      <use xlink:href="#ArialMT-73" transform="translate(622.65625 0.765625)"/>
      <use xlink:href="#ArialMT-69" transform="translate(672.65625 0.765625)"/>
      <use xlink:href="#ArialMT-6f" transform="translate(694.873047 0.765625)"/>
      <use xlink:href="#ArialMT-6e" transform="translate(750.488281 0.765625)"/>
      <use xlink:href="#ArialMT-20" transform="translate(806.103516 0.765625)"/>
      <use xlink:href="#ArialMT-63" transform="translate(833.886719 0.765625)"/>
      <use xlink:href="#ArialMT-6f" transform="translate(883.886719 0.765625)"/>
      <use xlink:href="#ArialMT-65" transform="translate(939.501953 0.765625)"/>
      <use xlink:href="#ArialMT-66" transform="translate(995.117188 0.765625)"/>
      <use xlink:href="#ArialMT-66" transform="translate(1022.900391 0.765625)"/>
      <use xlink:href="#ArialMT-69" transform="translate(1050.683594 0.765625)"/>
      <use xlink:href="#ArialMT-63" transform="translate(1072.900391 0.765625)"/>
      <use xlink:href="#ArialMT-69" transform="translate(1122.900391 0.765625)"/>
      <use xlink:href="#ArialMT-65" transform="translate(1145.117188 0.765625)"/>
      <use xlink:href="#ArialMT-6e" transform="translate(1200.732422 0.765625)"/>
      <use xlink:href="#ArialMT-74" transform="translate(1256.347656 0.765625)"/>
      <use xlink:href="#ArialMT-20" transform="translate(1284.130859 0.765625)"/>
      <use xlink:href="#ArialMT-28" transform="translate(1311.914062 0.765625)"/>
      <use xlink:href="#DejaVuSans-Oblique-3bc" transform="translate(1345.214844 0.765625)"/>
      <use xlink:href="#ArialMT-6d" transform="translate(1408.837891 0.765625)"/>
      <use xlink:href="#DejaVuSans-32" transform="translate(1493.095703 39.046875) scale(0.7)"/>
      <use xlink:href="#ArialMT-20" transform="translate(1540.366211 0.765625)"/>
      <use xlink:href="#ArialMT-73" transform="translate(1568.149414 0.765625)"/>
      <use xlink:href="#DejaVuSans-2212" transform="translate(1619.106445 39.046875) scale(0.7)"/>
      <use xlink:href="#DejaVuSans-31" transform="translate(1677.758789 39.046875) scale(0.7)"/>
      <use xlink:href="#ArialMT-29" transform="translate(1725.029297 0.765625)"/>
     </g>
    </g>
   </g>
   <g id="matplotlib.axis_4">
    <g id="ytick_8">
     <g id="line2d_56">
      <g>
       <use xlink:href="#m415577b0e1" x="28.83" y="254.738793" style="fill: #262626; stroke: #262626; stroke-width: 0.5"/>
      </g>
     </g>
     <g id="text_20">
      <!-- 0.00 -->
      <g style="fill: #262626" transform="translate(15.099531 256.528246) scale(0.05 -0.05)">
       <use xlink:href="#ArialMT-30"/>
       <use xlink:href="#ArialMT-2e" x="55.615234"/>
       <use xlink:href="#ArialMT-30" x="83.398438"/>
       <use xlink:href="#ArialMT-30" x="139.013672"/>
      </g>
     </g>
    </g>
    <g id="ytick_9">
     <g id="line2d_57">
      <g>
       <use xlink:href="#m415577b0e1" x="28.83" y="232.826533" style="fill: #262626; stroke: #262626; stroke-width: 0.5"/>
      </g>
     </g>
     <g id="text_21">
      <!-- 0.02 -->
      <g style="fill: #262626" transform="translate(15.099531 234.615986) scale(0.05 -0.05)">
       <use xlink:href="#ArialMT-30"/>
       <use xlink:href="#ArialMT-2e" x="55.615234"/>
       <use xlink:href="#ArialMT-30" x="83.398438"/>
       <use xlink:href="#ArialMT-32" x="139.013672"/>
      </g>
     </g>
    </g>
    <g id="ytick_10">
     <g id="line2d_58">
      <g>
       <use xlink:href="#m415577b0e1" x="28.83" y="210.914273" style="fill: #262626; stroke: #262626; stroke-width: 0.5"/>
      </g>
     </g>
     <g id="text_22">
      <!-- 0.04 -->
      <g style="fill: #262626" transform="translate(15.099531 212.703726) scale(0.05 -0.05)">
       <use xlink:href="#ArialMT-30"/>
       <use xlink:href="#ArialMT-2e" x="55.615234"/>
       <use xlink:href="#ArialMT-30" x="83.398438"/>
       <use xlink:href="#ArialMT-34" x="139.013672"/>
      </g>
     </g>
    </g>
    <g id="ytick_11">
     <g id="line2d_59">
      <g>
       <use xlink:href="#m415577b0e1" x="28.83" y="189.002013" style="fill: #262626; stroke: #262626; stroke-width: 0.5"/>
      </g>
     </g>
     <g id="text_23">
      <!-- 0.06 -->
      <g style="fill: #262626" transform="translate(15.099531 190.791466) scale(0.05 -0.05)">
       <use xlink:href="#ArialMT-30"/>
       <use xlink:href="#ArialMT-2e" x="55.615234"/>
       <use xlink:href="#ArialMT-30" x="83.398438"/>
       <use xlink:href="#ArialMT-36" x="139.013672"/>
      </g>
     </g>
    </g>
    <g id="ytick_12">
     <g id="line2d_60">
      <g>
       <use xlink:href="#m415577b0e1" x="28.83" y="167.089752" style="fill: #262626; stroke: #262626; stroke-width: 0.5"/>
      </g>
     </g>
     <g id="text_24">
      <!-- 0.08 -->
      <g style="fill: #262626" transform="translate(15.099531 168.879206) scale(0.05 -0.05)">
       <defs>
        <path id="ArialMT-38" d="M 1131 2484 
Q 781 2613 612 2850 
Q 444 3088 444 3419 
Q 444 3919 803 4259 
Q 1163 4600 1759 4600 
Q 2359 4600 2725 4251 
Q 3091 3903 3091 3403 
Q 3091 3084 2923 2848 
Q 2756 2613 2416 2484 
Q 2838 2347 3058 2040 
Q 3278 1734 3278 1309 
Q 3278 722 2862 322 
Q 2447 -78 1769 -78 
Q 1091 -78 675 323 
Q 259 725 259 1325 
Q 259 1772 486 2073 
Q 713 2375 1131 2484 
z
M 1019 3438 
Q 1019 3113 1228 2906 
Q 1438 2700 1772 2700 
Q 2097 2700 2305 2904 
Q 2513 3109 2513 3406 
Q 2513 3716 2298 3927 
Q 2084 4138 1766 4138 
Q 1444 4138 1231 3931 
Q 1019 3725 1019 3438 
z
M 838 1322 
Q 838 1081 952 856 
Q 1066 631 1291 507 
Q 1516 384 1775 384 
Q 2178 384 2440 643 
Q 2703 903 2703 1303 
Q 2703 1709 2433 1975 
Q 2163 2241 1756 2241 
Q 1359 2241 1098 1978 
Q 838 1716 838 1322 
z
" transform="scale(0.015625)"/>
       </defs>
       <use xlink:href="#ArialMT-30"/>
       <use xlink:href="#ArialMT-2e" x="55.615234"/>
       <use xlink:href="#ArialMT-30" x="83.398438"/>
       <use xlink:href="#ArialMT-38" x="139.013672"/>
      </g>
     </g>
    </g>
    <g id="text_25">
     <!-- Mean posterior occupancy -->
     <g style="fill: #262626" transform="translate(11.836719 238.826625) rotate(-90) scale(0.06 -0.06)">
      <defs>
       <path id="ArialMT-4d" d="M 475 0 
L 475 4581 
L 1388 4581 
L 2472 1338 
Q 2622 884 2691 659 
Q 2769 909 2934 1394 
L 4031 4581 
L 4847 4581 
L 4847 0 
L 4263 0 
L 4263 3834 
L 2931 0 
L 2384 0 
L 1059 3900 
L 1059 0 
L 475 0 
z
" transform="scale(0.015625)"/>
      </defs>
      <use xlink:href="#ArialMT-4d"/>
      <use xlink:href="#ArialMT-65" x="83.300781"/>
      <use xlink:href="#ArialMT-61" x="138.916016"/>
      <use xlink:href="#ArialMT-6e" x="194.53125"/>
      <use xlink:href="#ArialMT-20" x="250.146484"/>
      <use xlink:href="#ArialMT-70" x="277.929688"/>
      <use xlink:href="#ArialMT-6f" x="333.544922"/>
      <use xlink:href="#ArialMT-73" x="389.160156"/>
      <use xlink:href="#ArialMT-74" x="439.160156"/>
      <use xlink:href="#ArialMT-65" x="466.943359"/>
      <use xlink:href="#ArialMT-72" x="522.558594"/>
      <use xlink:href="#ArialMT-69" x="555.859375"/>
      <use xlink:href="#ArialMT-6f" x="578.076172"/>
      <use xlink:href="#ArialMT-72" x="633.691406"/>
      <use xlink:href="#ArialMT-20" x="666.992188"/>
      <use xlink:href="#ArialMT-6f" x="694.775391"/>
      <use xlink:href="#ArialMT-63" x="750.390625"/>
      <use xlink:href="#ArialMT-63" x="800.390625"/>
      <use xlink:href="#ArialMT-75" x="850.390625"/>
      <use xlink:href="#ArialMT-70" x="906.005859"/>
      <use xlink:href="#ArialMT-61" x="961.621094"/>
      <use xlink:href="#ArialMT-6e" x="1017.236328"/>
      <use xlink:href="#ArialMT-63" x="1072.851562"/>
      <use xlink:href="#ArialMT-79" x="1122.851562"/>
     </g>
    </g>
   </g>
   <g id="patch_6">
    <path d="M 135.755418 188.910996 
L 132.271749 192.197835 
L 132.271749 190.006609 
L 121.221058 190.006609 
L 121.221058 187.815383 
L 132.271749 187.815383 
L 132.271749 185.624157 
z
" clip-path="url(#pe5e688c8e3)"/>
   </g>
   <g id="line2d_61">
    <path d="M 29.079193 250.985714 
L 32.854263 251.113497 
L 36.629332 251.19177 
L 40.404402 251.226631 
L 44.179471 251.220491 
L 47.954541 251.172447 
L 51.729611 251.07792 
L 55.50468 250.927386 
L 59.27975 250.703465 
L 63.05482 250.374169 
L 66.829889 249.876236 
L 70.604959 249.080396 
L 74.380029 247.763297 
L 78.155098 245.70469 
L 81.930168 242.977447 
L 85.705238 240.097383 
L 89.480307 237.664268 
L 93.255377 235.868811 
L 97.030447 234.430042 
L 100.805516 232.864976 
L 104.580586 230.72184 
L 108.355655 227.675242 
L 112.130725 223.577444 
L 115.905795 218.541172 
L 119.680864 213.02965 
L 123.455934 207.84473 
L 127.231004 203.911675 
L 131.006073 201.903458 
L 134.781143 201.923522 
L 138.556213 203.467529 
L 142.331282 205.671066 
L 146.106352 207.644586 
L 149.881422 208.702175 
L 153.656491 208.453725 
L 157.431561 206.875588 
L 161.20663 204.51177 
L 164.9817 202.833694 
L 168.75677 204.352826 
L 172.531839 211.461048 
L 176.306909 223.680757 
L 180.081979 236.463935 
L 183.857048 245.159294 
L 187.632118 249.354675 
L 191.407188 251.195751 
L 195.182257 252.171581 
L 198.957327 252.790743 
L 202.732397 253.215308 
L 206.507466 253.518789 
L 210.282536 253.742449 
L 214.057606 253.911414 
L 217.832675 254.041752 
L 221.607745 254.144127 
L 225.382814 254.225825 
L 229.157884 254.291952 
L 232.932954 254.346164 
L 236.708023 254.391121 
L 240.483093 254.428798 
" clip-path="url(#pe5e688c8e3)" style="fill: none; stroke: #0173b2; stroke-linecap: round"/>
   </g>
   <g id="line2d_62">
    <path d="M 143.474001 259.507313 
L 143.474001 147.78 
" clip-path="url(#pe5e688c8e3)" style="fill: none; stroke: #0173b2; stroke-width: 0.5; stroke-linecap: round"/>
   </g>
   <g id="line2d_63">
    <path d="M 29.079193 250.852514 
L 32.854263 251.002946 
L 36.629332 251.113292 
L 40.404402 251.188568 
L 44.179471 251.231884 
L 47.954541 251.244799 
L 51.729611 251.227506 
L 55.50468 251.178872 
L 59.27975 251.096349 
L 63.05482 250.975773 
L 66.829889 250.811024 
L 70.604959 250.593569 
L 74.380029 250.311778 
L 78.155098 249.949654 
L 81.930168 249.483954 
L 85.705238 248.878893 
L 89.480307 248.081165 
L 93.255377 247.020319 
L 97.030447 245.612217 
L 100.805516 243.758721 
L 104.580586 241.351082 
L 108.355655 238.299633 
L 112.130725 234.6051 
L 115.905795 230.453988 
L 119.680864 226.272697 
L 123.455934 222.652468 
L 127.231004 220.122038 
L 131.006073 218.884476 
L 134.781143 218.703462 
L 138.556213 219.009013 
L 142.331282 219.107675 
L 146.106352 218.33057 
L 149.881422 216.052889 
L 153.656491 211.639327 
L 157.431561 204.448784 
L 161.20663 194.115723 
L 164.9817 181.404733 
L 168.75677 169.660736 
L 172.531839 165.518305 
L 176.306909 175.649441 
L 180.081979 199.016105 
L 183.857048 224.211629 
L 187.632118 240.434813 
L 191.407188 247.412985 
L 195.182257 250.087148 
L 198.957327 251.408591 
L 202.732397 252.231113 
L 206.507466 252.789202 
L 210.282536 253.184544 
L 214.057606 253.473682 
L 217.832675 253.690775 
L 221.607745 253.85748 
L 225.382814 253.988032 
L 229.157884 254.092057 
L 232.932954 254.17623 
L 236.708023 254.245278 
L 240.483093 254.30261 
" clip-path="url(#pe5e688c8e3)" style="fill: none; stroke: #de8f05; stroke-linecap: round"/>
   </g>
   <g id="line2d_64">
    <path d="M 155.974031 259.507313 
L 155.974031 147.78 
" clip-path="url(#pe5e688c8e3)" style="fill: none; stroke: #de8f05; stroke-width: 0.5; stroke-linecap: round"/>
   </g>
   <g id="line2d_65">
    <path d="M 29.079193 250.737542 
L 32.854263 250.855137 
L 36.629332 250.935146 
L 40.404402 250.981505 
L 44.179471 250.996506 
L 47.954541 250.981017 
L 51.729611 250.934514 
L 55.50468 250.854956 
L 59.27975 250.73853 
L 63.05482 250.579219 
L 66.829889 250.36812 
L 70.604959 250.092334 
L 74.380029 249.733119 
L 78.155098 249.262556 
L 81.930168 248.636997 
L 85.705238 247.785132 
L 89.480307 246.600252 
L 93.255377 244.98127 
L 97.030447 242.954887 
L 100.805516 240.760338 
L 104.580586 238.72126 
L 108.355655 236.997841 
L 112.130725 235.482482 
L 115.905795 233.887224 
L 119.680864 231.876899 
L 123.455934 229.159302 
L 127.231004 225.557389 
L 131.006073 221.104285 
L 134.781143 216.121757 
L 138.556213 211.150457 
L 142.331282 206.653255 
L 146.106352 202.654781 
L 149.881422 198.620829 
L 153.656491 193.691526 
L 157.431561 187.176143 
L 161.20663 179.336239 
L 164.9817 172.576039 
L 168.75677 172.227616 
L 172.531839 183.960787 
L 176.306909 206.42568 
L 180.081979 228.708808 
L 183.857048 241.898783 
L 187.632118 247.397257 
L 191.407188 249.762873 
L 195.182257 251.090366 
L 198.957327 251.951357 
L 202.732397 252.544534 
L 206.507466 252.969671 
L 210.282536 253.28397 
L 214.057606 253.522359 
L 217.832675 253.70715 
L 221.607745 253.853114 
L 225.382814 253.970322 
L 229.157884 254.065814 
L 232.932954 254.144624 
L 236.708023 254.21042 
L 240.483093 254.265921 
" clip-path="url(#pe5e688c8e3)" style="fill: none; stroke: #029e73; stroke-linecap: round"/>
   </g>
   <g id="line2d_66">
    <path d="M 152.396681 259.507313 
L 152.396681 147.78 
" clip-path="url(#pe5e688c8e3)" style="fill: none; stroke: #029e73; stroke-width: 0.5; stroke-linecap: round"/>
   </g>
   <g id="line2d_67">
    <path d="M 29.079193 251.001809 
L 32.854263 251.142423 
L 36.629332 251.238234 
L 40.404402 251.296399 
L 44.179471 251.321476 
L 47.954541 251.316089 
L 51.729611 251.281292 
L 55.50468 251.21676 
L 59.27975 251.120847 
L 63.05482 250.990538 
L 66.829889 250.821236 
L 70.604959 250.60629 
L 74.380029 250.335906 
L 78.155098 249.99465 
L 81.930168 249.555785 
L 85.705238 248.969399 
L 89.480307 248.141229 
L 93.255377 246.905336 
L 97.030447 245.014955 
L 100.805516 242.207721 
L 104.580586 238.391155 
L 108.355655 233.863977 
L 112.130725 229.32586 
L 115.905795 225.539193 
L 119.680864 222.897483 
L 123.455934 221.284354 
L 127.231004 220.267865 
L 131.006073 219.375336 
L 134.781143 218.248675 
L 138.556213 216.661492 
L 142.331282 214.460448 
L 146.106352 211.485787 
L 149.881422 207.508488 
L 153.656491 202.225431 
L 157.431561 195.382687 
L 161.20663 187.151491 
L 164.9817 178.893159 
L 168.75677 174.094323 
L 172.531839 178.041261 
L 176.306909 193.838086 
L 180.081979 216.573454 
L 183.857048 235.507079 
L 187.632118 245.386006 
L 191.407188 249.262617 
L 195.182257 250.964155 
L 198.957327 251.950613 
L 202.732397 252.60102 
L 206.507466 253.053128 
L 210.282536 253.378768 
L 214.057606 253.620109 
L 217.832675 253.803329 
L 221.607745 253.945349 
L 225.382814 254.057459 
L 229.157884 254.147399 
L 232.932954 254.220597 
L 236.708023 254.28094 
L 240.483093 254.331262 
" clip-path="url(#pe5e688c8e3)" style="fill: none; stroke: #d55e00; stroke-linecap: round"/>
   </g>
   <g id="line2d_68">
    <path d="M 153.099617 259.507313 
L 153.099617 147.78 
" clip-path="url(#pe5e688c8e3)" style="fill: none; stroke: #d55e00; stroke-width: 0.5; stroke-linecap: round"/>
   </g>
   <g id="line2d_69">
    <path d="M 29.079193 251.093438 
L 32.854263 251.211018 
L 36.629332 251.293378 
L 40.404402 251.34477 
L 44.179471 251.367851 
L 47.954541 251.363994 
L 51.729611 251.333415 
L 55.50468 251.275162 
L 59.27975 251.186985 
L 63.05482 251.06506 
L 66.829889 250.903543 
L 70.604959 250.693876 
L 74.380029 250.423662 
L 78.155098 250.07471 
L 81.930168 249.619094 
L 85.705238 249.011165 
L 89.480307 248.177836 
L 93.255377 247.027107 
L 97.030447 245.49968 
L 100.805516 243.628537 
L 104.580586 241.520768 
L 108.355655 239.263049 
L 112.130725 236.855541 
L 115.905795 234.238114 
L 119.680864 231.382561 
L 123.455934 228.394219 
L 127.231004 225.562291 
L 131.006073 223.292791 
L 134.781143 221.908312 
L 138.556213 221.424113 
L 142.331282 221.4717 
L 146.106352 221.411333 
L 149.881422 220.490736 
L 153.656491 217.891338 
L 157.431561 212.64195 
L 161.20663 203.5539 
L 164.9817 189.593853 
L 168.75677 171.511606 
L 172.531839 155.145971 
L 176.306909 152.858514 
L 180.081979 174.07714 
L 183.857048 208.874318 
L 187.632118 235.261463 
L 191.407188 246.427756 
L 195.182257 249.961811 
L 198.957327 251.425657 
L 202.732397 252.282938 
L 206.507466 252.848588 
L 210.282536 253.24175 
L 214.057606 253.52534 
L 217.832675 253.736086 
L 221.607745 253.89668 
L 225.382814 254.021741 
L 229.157884 254.120997 
L 232.932954 254.201105 
L 236.708023 254.266722 
L 240.483093 254.321175 
" clip-path="url(#pe5e688c8e3)" style="fill: none; stroke: #cc78bc; stroke-linecap: round"/>
   </g>
   <g id="line2d_70">
    <path d="M 158.742446 259.507313 
L 158.742446 147.78 
" clip-path="url(#pe5e688c8e3)" style="fill: none; stroke: #cc78bc; stroke-width: 0.5; stroke-linecap: round"/>
   </g>
   <g id="line2d_71">
    <path d="M 136.129001 259.507313 
L 136.129001 147.78 
" clip-path="url(#pe5e688c8e3)" style="fill: none; stroke-dasharray: 1.85,0.8; stroke-dashoffset: 0; stroke: #0173b2; stroke-width: 0.5"/>
   </g>
   <g id="patch_7">
    <path d="M 28.83 259.507313 
L 28.83 147.78 
" style="fill: none; stroke: #262626; stroke-width: 0.5; stroke-linejoin: miter; stroke-linecap: square"/>
   </g>
   <g id="patch_8">
    <path d="M 28.83 259.507313 
L 240.483093 259.507313 
" style="fill: none; stroke: #262626; stroke-width: 0.5; stroke-linejoin: miter; stroke-linecap: square"/>
   </g>
   <g id="text_26">
    <!-- mNeonGreen -->
    <g style="fill: #262626" transform="translate(102.259249 178.144494) scale(0.05 -0.05)">
     <use xlink:href="#ArialMT-6d"/>
     <use xlink:href="#ArialMT-4e" x="83.300781"/>
     <use xlink:href="#ArialMT-65" x="155.517578"/>
     <use xlink:href="#ArialMT-6f" x="211.132812"/>
     <use xlink:href="#ArialMT-6e" x="266.748047"/>
     <use xlink:href="#ArialMT-47" x="322.363281"/>
     <use xlink:href="#ArialMT-72" x="400.146484"/>
     <use xlink:href="#ArialMT-65" x="433.447266"/>
     <use xlink:href="#ArialMT-65" x="489.0625"/>
     <use xlink:href="#ArialMT-6e" x="544.677734"/>
    </g>
    <!-- PerM tracking -->
    <g style="fill: #262626" transform="translate(101.431124 183.432931) scale(0.05 -0.05)">
     <use xlink:href="#ArialMT-50"/>
     <use xlink:href="#ArialMT-65" x="66.699219"/>
     <use xlink:href="#ArialMT-72" x="122.314453"/>
     <use xlink:href="#ArialMT-4d" x="155.615234"/>
     <use xlink:href="#ArialMT-20" x="238.916016"/>
     <use xlink:href="#ArialMT-74" x="266.699219"/>
     <use xlink:href="#ArialMT-72" x="294.482422"/>
     <use xlink:href="#ArialMT-61" x="327.783203"/>
     <use xlink:href="#ArialMT-63" x="383.398438"/>
     <use xlink:href="#ArialMT-6b" x="433.398438"/>
     <use xlink:href="#ArialMT-69" x="483.398438"/>
     <use xlink:href="#ArialMT-6e" x="505.615234"/>
     <use xlink:href="#ArialMT-67" x="561.230469"/>
    </g>
   </g>
   <g id="legend_2">
    <g id="text_27">
     <!-- mEos3.2 tracking -->
     <g style="fill: #262626" transform="translate(39.329531 156.5925) scale(0.06 -0.06)">
      <defs>
       <path id="ArialMT-45" d="M 506 0 
L 506 4581 
L 3819 4581 
L 3819 4041 
L 1113 4041 
L 1113 2638 
L 3647 2638 
L 3647 2100 
L 1113 2100 
L 1113 541 
L 3925 541 
L 3925 0 
L 506 0 
z
" transform="scale(0.015625)"/>
      </defs>
      <use xlink:href="#ArialMT-6d"/>
      <use xlink:href="#ArialMT-45" x="83.300781"/>
      <use xlink:href="#ArialMT-6f" x="150"/>
      <use xlink:href="#ArialMT-73" x="205.615234"/>
      <use xlink:href="#ArialMT-33" x="255.615234"/>
      <use xlink:href="#ArialMT-2e" x="311.230469"/>
      <use xlink:href="#ArialMT-32" x="339.013672"/>
      <use xlink:href="#ArialMT-20" x="394.628906"/>
      <use xlink:href="#ArialMT-74" x="422.412109"/>
      <use xlink:href="#ArialMT-72" x="450.195312"/>
      <use xlink:href="#ArialMT-61" x="483.496094"/>
      <use xlink:href="#ArialMT-63" x="539.111328"/>
      <use xlink:href="#ArialMT-6b" x="589.111328"/>
      <use xlink:href="#ArialMT-69" x="639.111328"/>
      <use xlink:href="#ArialMT-6e" x="661.328125"/>
      <use xlink:href="#ArialMT-67" x="716.943359"/>
     </g>
    </g>
    <g id="line2d_72">
     <path d="M 33.33 163.155313 
L 38.33 163.155313 
L 43.33 163.155313 
" style="fill: none; stroke: #0173b2; stroke-linecap: round"/>
    </g>
    <g id="text_28">
     <!-- $\text{PerM}^\text{n1}$ | $\text{FtsB}^\text{ΔLQ}$ -->
     <g style="fill: #262626" transform="translate(47.33 164.905313) scale(0.05 -0.05)">
      <use xlink:href="#DejaVuSans-50" transform="translate(0 0.765625)"/>
      <use xlink:href="#DejaVuSans-65" transform="translate(60.302734 0.765625)"/>
      <use xlink:href="#DejaVuSans-72" transform="translate(121.826172 0.765625)"/>
      <use xlink:href="#DejaVuSans-4d" transform="translate(162.939453 0.765625)"/>
      <use xlink:href="#DejaVuSans-6e" transform="translate(250.175781 39.046875) scale(0.7)"/>
      <use xlink:href="#DejaVuSans-31" transform="translate(294.541016 39.046875) scale(0.7)"/>
      <use xlink:href="#ArialMT-20" transform="translate(341.811523 0.765625)"/>
      <use xlink:href="#ArialMT-7c" transform="translate(369.594727 0.765625)"/>
      <use xlink:href="#ArialMT-20" transform="translate(395.571289 0.765625)"/>
      <use xlink:href="#DejaVuSans-46" transform="translate(423.354492 0.765625)"/>
      <use xlink:href="#DejaVuSans-74" transform="translate(480.874023 0.765625)"/>
      <use xlink:href="#DejaVuSans-73" transform="translate(520.083008 0.765625)"/>
      <use xlink:href="#DejaVuSans-42" transform="translate(572.182617 0.765625)"/>
      <use xlink:href="#DejaVuSans-394" transform="translate(641.743164 39.046875) scale(0.7)"/>
      <use xlink:href="#DejaVuSans-4c" transform="translate(689.628906 39.046875) scale(0.7)"/>
      <use xlink:href="#DejaVuSans-51" transform="translate(728.62793 39.046875) scale(0.7)"/>
     </g>
    </g>
    <g id="line2d_73">
     <path d="M 33.33 171.305313 
L 38.33 171.305313 
L 43.33 171.305313 
" style="fill: none; stroke: #de8f05; stroke-linecap: round"/>
    </g>
    <g id="text_29">
     <!-- $\text{PerM}^\text{n1}$ | $\text{FtsB}^\text{ΔLQΔH}$ -->
     <g style="fill: #262626" transform="translate(47.33 173.055313) scale(0.05 -0.05)">
      <use xlink:href="#DejaVuSans-50" transform="translate(0 0.765625)"/>
      <use xlink:href="#DejaVuSans-65" transform="translate(60.302734 0.765625)"/>
      <use xlink:href="#DejaVuSans-72" transform="translate(121.826172 0.765625)"/>
      <use xlink:href="#DejaVuSans-4d" transform="translate(162.939453 0.765625)"/>
      <use xlink:href="#DejaVuSans-6e" transform="translate(250.175781 39.046875) scale(0.7)"/>
      <use xlink:href="#DejaVuSans-31" transform="translate(294.541016 39.046875) scale(0.7)"/>
      <use xlink:href="#ArialMT-20" transform="translate(341.811523 0.765625)"/>
      <use xlink:href="#ArialMT-7c" transform="translate(369.594727 0.765625)"/>
      <use xlink:href="#ArialMT-20" transform="translate(395.571289 0.765625)"/>
      <use xlink:href="#DejaVuSans-46" transform="translate(423.354492 0.765625)"/>
      <use xlink:href="#DejaVuSans-74" transform="translate(480.874023 0.765625)"/>
      <use xlink:href="#DejaVuSans-73" transform="translate(520.083008 0.765625)"/>
      <use xlink:href="#DejaVuSans-42" transform="translate(572.182617 0.765625)"/>
      <use xlink:href="#DejaVuSans-394" transform="translate(641.743164 39.046875) scale(0.7)"/>
      <use xlink:href="#DejaVuSans-4c" transform="translate(689.628906 39.046875) scale(0.7)"/>
      <use xlink:href="#DejaVuSans-51" transform="translate(728.62793 39.046875) scale(0.7)"/>
      <use xlink:href="#DejaVuSans-394" transform="translate(783.725586 39.046875) scale(0.7)"/>
      <use xlink:href="#DejaVuSans-48" transform="translate(831.611328 39.046875) scale(0.7)"/>
     </g>
    </g>
    <g id="line2d_74">
     <path d="M 33.33 179.455313 
L 38.33 179.455313 
L 43.33 179.455313 
" style="fill: none; stroke: #029e73; stroke-linecap: round"/>
    </g>
    <g id="text_30">
     <!-- $\mathbf{↓}\text{PerM}^\text{n1}$ | $\text{FtsB}^\text{ΔLQ}$ -->
     <g style="fill: #262626" transform="translate(47.33 181.205313) scale(0.05 -0.05)">
      <defs>
       <path id="DejaVuSans-Bold-2193" d="M 2903 -22 
L 2466 -22 
L 1238 1206 
L 1691 1659 
L 2309 1041 
L 2309 4666 
L 3059 4666 
L 3059 1041 
L 3678 1659 
L 4131 1206 
L 2903 -22 
z
" transform="scale(0.015625)"/>
      </defs>
      <use xlink:href="#DejaVuSans-Bold-2193" transform="translate(0 0.765625)"/>
      <use xlink:href="#DejaVuSans-50" transform="translate(83.789062 0.765625)"/>
      <use xlink:href="#DejaVuSans-65" transform="translate(144.091797 0.765625)"/>
      <use xlink:href="#DejaVuSans-72" transform="translate(205.615234 0.765625)"/>
      <use xlink:href="#DejaVuSans-4d" transform="translate(246.728516 0.765625)"/>
      <use xlink:href="#DejaVuSans-6e" transform="translate(333.964844 39.046875) scale(0.7)"/>
      <use xlink:href="#DejaVuSans-31" transform="translate(378.330078 39.046875) scale(0.7)"/>
      <use xlink:href="#ArialMT-20" transform="translate(425.600586 0.765625)"/>
      <use xlink:href="#ArialMT-7c" transform="translate(453.383789 0.765625)"/>
      <use xlink:href="#ArialMT-20" transform="translate(479.360352 0.765625)"/>
      <use xlink:href="#DejaVuSans-46" transform="translate(507.143555 0.765625)"/>
      <use xlink:href="#DejaVuSans-74" transform="translate(564.663086 0.765625)"/>
      <use xlink:href="#DejaVuSans-73" transform="translate(603.87207 0.765625)"/>
      <use xlink:href="#DejaVuSans-42" transform="translate(655.97168 0.765625)"/>
      <use xlink:href="#DejaVuSans-394" transform="translate(725.532227 39.046875) scale(0.7)"/>
      <use xlink:href="#DejaVuSans-4c" transform="translate(773.417969 39.046875) scale(0.7)"/>
      <use xlink:href="#DejaVuSans-51" transform="translate(812.416992 39.046875) scale(0.7)"/>
     </g>
    </g>
    <g id="line2d_75">
     <path d="M 33.33 187.605313 
L 38.33 187.605313 
L 43.33 187.605313 
" style="fill: none; stroke: #d55e00; stroke-linecap: round"/>
    </g>
    <g id="text_31">
     <!-- $\text{Pf3}$ | $\text{FtsB}^\text{ΔLQ}$ -->
     <g style="fill: #262626" transform="translate(47.33 189.355313) scale(0.05 -0.05)">
      <use xlink:href="#DejaVuSans-50" transform="translate(0 0.765625)"/>
      <use xlink:href="#DejaVuSans-66" transform="translate(60.302734 0.765625)"/>
      <use xlink:href="#DejaVuSans-33" transform="translate(95.507812 0.765625)"/>
      <use xlink:href="#ArialMT-20" transform="translate(159.130859 0.765625)"/>
      <use xlink:href="#ArialMT-7c" transform="translate(186.914062 0.765625)"/>
      <use xlink:href="#ArialMT-20" transform="translate(212.890625 0.765625)"/>
      <use xlink:href="#DejaVuSans-46" transform="translate(240.673828 0.765625)"/>
      <use xlink:href="#DejaVuSans-74" transform="translate(298.193359 0.765625)"/>
      <use xlink:href="#DejaVuSans-73" transform="translate(337.402344 0.765625)"/>
      <use xlink:href="#DejaVuSans-42" transform="translate(389.501953 0.765625)"/>
      <use xlink:href="#DejaVuSans-394" transform="translate(459.0625 39.046875) scale(0.7)"/>
      <use xlink:href="#DejaVuSans-4c" transform="translate(506.948242 39.046875) scale(0.7)"/>
      <use xlink:href="#DejaVuSans-51" transform="translate(545.947266 39.046875) scale(0.7)"/>
     </g>
    </g>
    <g id="line2d_76">
     <path d="M 33.33 195.755313 
L 38.33 195.755313 
L 43.33 195.755313 
" style="fill: none; stroke: #cc78bc; stroke-linecap: round"/>
    </g>
    <g id="text_32">
     <!-- $\text{Pf3}$ | $\text{FtsB}^\text{ΔLQΔH}$ -->
     <g style="fill: #262626" transform="translate(47.33 197.505313) scale(0.05 -0.05)">
      <use xlink:href="#DejaVuSans-50" transform="translate(0 0.765625)"/>
      <use xlink:href="#DejaVuSans-66" transform="translate(60.302734 0.765625)"/>
      <use xlink:href="#DejaVuSans-33" transform="translate(95.507812 0.765625)"/>
      <use xlink:href="#ArialMT-20" transform="translate(159.130859 0.765625)"/>
      <use xlink:href="#ArialMT-7c" transform="translate(186.914062 0.765625)"/>
      <use xlink:href="#ArialMT-20" transform="translate(212.890625 0.765625)"/>
      <use xlink:href="#DejaVuSans-46" transform="translate(240.673828 0.765625)"/>
      <use xlink:href="#DejaVuSans-74" transform="translate(298.193359 0.765625)"/>
      <use xlink:href="#DejaVuSans-73" transform="translate(337.402344 0.765625)"/>
      <use xlink:href="#DejaVuSans-42" transform="translate(389.501953 0.765625)"/>
      <use xlink:href="#DejaVuSans-394" transform="translate(459.0625 39.046875) scale(0.7)"/>
      <use xlink:href="#DejaVuSans-4c" transform="translate(506.948242 39.046875) scale(0.7)"/>
      <use xlink:href="#DejaVuSans-51" transform="translate(545.947266 39.046875) scale(0.7)"/>
      <use xlink:href="#DejaVuSans-394" transform="translate(601.044922 39.046875) scale(0.7)"/>
      <use xlink:href="#DejaVuSans-48" transform="translate(648.930664 39.046875) scale(0.7)"/>
     </g>
    </g>
   </g>
  </g>
 </g>
 <defs>
  <clipPath id="p92298f031b">
   <rect x="28.83" y="7.56" width="211.653093" height="111.727312"/>
  </clipPath>
  <clipPath id="pe5e688c8e3">
   <rect x="28.83" y="147.78" width="211.653093" height="111.727312"/>
  </clipPath>
 </defs>
</svg>
