<?xml version="1.0" encoding="utf-8" standalone="no"?>
<!DOCTYPE svg PUBLIC "-//W3C//DTD SVG 1.1//EN"
  "http://www.w3.org/Graphics/SVG/1.1/DTD/svg11.dtd">
<svg xmlns:xlink="http://www.w3.org/1999/xlink" width="295.2pt" height="165.6pt" viewBox="0 0 295.2 165.6" xmlns="http://www.w3.org/2000/svg" version="1.1">
 <metadata>
  <rdf:RDF xmlns:dc="http://purl.org/dc/elements/1.1/" xmlns:cc="http://creativecommons.org/ns#" xmlns:rdf="http://www.w3.org/1999/02/22-rdf-syntax-ns#">
   <cc:Work>
    <dc:type rdf:resource="http://purl.org/dc/dcmitype/StillImage"/>
    <dc:date>2024-08-31T10:37:25.244360</dc:date>
    <dc:format>image/svg+xml</dc:format>
    <dc:creator>
     <cc:Agent>
      <dc:title>Matplotlib v3.8.0, https://matplotlib.org/</dc:title>
     </cc:Agent>
    </dc:creator>
   </cc:Work>
  </rdf:RDF>
 </metadata>
 <defs>
  <style type="text/css">*{stroke-linejoin: round; stroke-linecap: butt}</style>
 </defs>
 <g id="figure_1">
  <g id="patch_1">
   <path d="M 0 165.6 
L 295.2 165.6 
L 295.2 0 
L 0 0 
z
" style="fill: #ffffff"/>
  </g>
  <g id="axes_1">
   <g id="patch_2">
    <path d="M 27.88 42.726667 
L 287.1 42.726667 
L 287.1 8.1 
L 27.88 8.1 
z
" style="fill: #ffffff"/>
   </g>
   <g id="matplotlib.axis_1">
    <g id="xtick_1">
     <g id="line2d_1">
      <defs>
       <path id="mbd52eaf4d5" d="M 0 0 
L 0 3.5 
" style="stroke: #000000; stroke-width: 0.8"/>
      </defs>
      <g>
       <use xlink:href="#mbd52eaf4d5" x="27.88" y="42.726667" style="stroke: #000000; stroke-width: 0.8"/>
      </g>
     </g>
    </g>
    <g id="xtick_2">
     <g id="line2d_2">
      <g>
       <use xlink:href="#mbd52eaf4d5" x="75.010909" y="42.726667" style="stroke: #000000; stroke-width: 0.8"/>
      </g>
     </g>
    </g>
    <g id="xtick_3">
     <g id="line2d_3">
      <g>
       <use xlink:href="#mbd52eaf4d5" x="122.141818" y="42.726667" style="stroke: #000000; stroke-width: 0.8"/>
      </g>
     </g>
    </g>
    <g id="xtick_4">
     <g id="line2d_4">
      <g>
       <use xlink:href="#mbd52eaf4d5" x="169.272727" y="42.726667" style="stroke: #000000; stroke-width: 0.8"/>
      </g>
     </g>
    </g>
    <g id="xtick_5">
     <g id="line2d_5">
      <g>
       <use xlink:href="#mbd52eaf4d5" x="216.403636" y="42.726667" style="stroke: #000000; stroke-width: 0.8"/>
      </g>
     </g>
    </g>
    <g id="xtick_6">
     <g id="line2d_6">
      <g>
       <use xlink:href="#mbd52eaf4d5" x="263.534545" y="42.726667" style="stroke: #000000; stroke-width: 0.8"/>
      </g>
     </g>
    </g>
   </g>
   <g id="matplotlib.axis_2">
    <g id="ytick_1">
     <g id="line2d_7">
      <defs>
       <path id="med20db2624" d="M 0 0 
L -3.5 0 
" style="stroke: #000000; stroke-width: 0.8"/>
      </defs>
      <g>
       <use xlink:href="#med20db2624" x="27.88" y="42.726667" style="stroke: #000000; stroke-width: 0.8"/>
      </g>
     </g>
     <g id="text_1">
      <text style="font: 10px 'DejaVu Sans', 'Bitstream Vera Sans', 'Computer Modern Sans Serif', 'Lucida Grande', 'Verdana', 'Geneva', 'Lucid', 'Arial', 'Helvetica', 'Avant Garde', sans-serif; text-anchor: end" x="20.88" y="46.525885" transform="rotate(-0 20.88 46.525885)">0</text>
     </g>
    </g>
    <g id="ytick_2">
     <g id="line2d_8">
      <g>
       <use xlink:href="#med20db2624" x="27.88" y="29.408718" style="stroke: #000000; stroke-width: 0.8"/>
      </g>
     </g>
     <g id="text_2">
      <text style="font: 10px 'DejaVu Sans', 'Bitstream Vera Sans', 'Computer Modern Sans Serif', 'Lucida Grande', 'Verdana', 'Geneva', 'Lucid', 'Arial', 'Helvetica', 'Avant Garde', sans-serif; text-anchor: end" x="20.88" y="33.207937" transform="rotate(-0 20.88 33.207937)">5</text>
     </g>
    </g>
    <g id="ytick_3">
     <g id="line2d_9">
      <g>
       <use xlink:href="#med20db2624" x="27.88" y="16.090769" style="stroke: #000000; stroke-width: 0.8"/>
      </g>
     </g>
     <g id="text_3">
      <text style="font: 10px 'DejaVu Sans', 'Bitstream Vera Sans', 'Computer Modern Sans Serif', 'Lucida Grande', 'Verdana', 'Geneva', 'Lucid', 'Arial', 'Helvetica', 'Avant Garde', sans-serif; text-anchor: end" x="20.88" y="19.889988" transform="rotate(-0 20.88 19.889988)">10</text>
     </g>
    </g>
   </g>
   <g id="line2d_10">
    <path d="M 30.825682 10.160717 
L 34.195542 9.365273 
L 34.572589 9.443146 
L 34.784678 9.413105 
L 34.973202 9.429201 
L 35.161725 9.48359 
L 35.868689 9.647653 
L 36.410695 9.722712 
L 37.706795 9.989664 
L 38.178104 10.070305 
L 38.555151 10.172703 
L 38.932198 10.32403 
L 39.592031 10.383103 
L 39.898382 10.418009 
L 40.628911 10.384077 
L 41.241613 10.38373 
L 41.571529 10.32772 
L 41.925011 10.256984 
L 42.231362 10.164883 
L 45.624787 10.161363 
L 45.954704 10.21324 
L 46.119662 10.231777 
L 46.449578 10.264257 
L 48.971082 10.506432 
L 49.418825 10.681682 
L 49.937265 10.99412 
L 50.314313 11.489025 
L 50.620664 11.852002 
L 51.068407 12.387773 
L 53.943393 16.068829 
L 54.57966 17.0357 
L 54.697487 17.194143 
L 55.145231 17.679683 
L 56.017153 18.320135 
L 56.252807 18.30301 
L 56.441331 18.341767 
L 56.889075 18.506992 
L 57.242556 18.701244 
L 57.501776 18.869587 
L 57.784562 18.987561 
L 58.232305 19.044369 
L 58.46796 19.219092 
L 58.845007 19.490581 
L 59.952584 19.716577 
L 60.871636 19.464 
L 61.177987 19.565534 
L 61.390076 19.638403 
L 61.5786 19.644181 
L 61.743558 19.677633 
L 63.039658 20.185753 
L 63.440271 20.120123 
L 64.453585 19.948008 
L 64.665675 19.863072 
L 65.042722 19.888282 
L 65.20768 19.861914 
L 65.396204 19.868024 
L 65.537596 19.875879 
L 65.749685 19.871455 
L 66.056036 19.998491 
L 66.786565 19.8725 
L 66.951524 19.7876 
L 67.092916 19.800786 
L 67.564225 19.574298 
L 67.752749 19.429152 
L 67.941273 19.409264 
L 68.082665 19.423155 
L 68.200493 19.397167 
L 68.294755 19.329932 
L 69.048849 18.749961 
L 69.449462 18.725078 
L 69.755813 18.953768 
L 70.203556 18.973161 
L 70.39208 18.959218 
L 70.580604 19.06227 
L 72.677929 17.379274 
L 72.819322 17.257452 
L 73.172804 16.941534 
L 73.408458 16.770934 
L 73.667678 16.509006 
L 74.374642 15.673589 
L 75.57648 14.647045 
L 76.236313 13.87859 
L 76.966842 13.273595 
L 77.39102 13.324555 
L 77.791633 13.241256 
L 78.804947 13.229645 
L 78.94634 13.271405 
L 79.252691 13.276204 
L 79.912524 13.504808 
L 80.195309 13.647469 
L 80.336702 13.733922 
L 81.090796 14.365984 
L 81.514975 14.836157 
L 81.727064 14.979893 
L 82.221938 15.414533 
L 82.528289 15.597926 
L 82.83464 15.933628 
L 83.023164 16.12628 
L 83.258818 16.301613 
L 83.423776 16.463237 
L 83.753693 16.769915 
L 83.895085 16.813878 
L 84.225002 17.148079 
L 84.413525 17.361062 
L 85.827453 20.540847 
L 86.228065 21.199244 
L 86.605113 21.918573 
L 86.958595 22.403074 
L 87.312076 22.768104 
L 87.783385 23.475817 
L 87.995475 23.784696 
L 88.820265 25.173187 
L 90.375585 26.858343 
L 90.399151 26.836161 
L 91.035418 26.597603 
L 92.237256 26.414123 
L 92.590738 26.43725 
L 93.062047 26.307229 
L 93.344833 26.439991 
L 94.028231 26.376681 
L 95.065111 26.624384 
L 95.842771 27.034687 
L 96.5733 27.329669 
L 96.973913 27.242464 
L 97.963662 26.802771 
L 99.000542 26.326108 
L 99.236196 26.142232 
L 99.707505 26.150965 
L 100.508731 25.978398 
L 100.767951 25.785214 
L 102.040485 25.748149 
L 102.488229 25.916603 
L 103.713633 27.158102 
L 104.397031 28.153409 
L 105.834524 29.654105 
L 106.376529 30.208717 
L 106.894969 30.870391 
L 107.436975 31.402674 
L 109.039425 32.908916 
L 109.817085 33.196044 
L 110.123436 33.160883 
L 110.57118 33.178623 
L 110.971793 33.210014 
L 111.207447 33.269199 
L 111.843715 33.400085 
L 113.116249 33.471268 
L 113.563993 33.518058 
L 114.153129 33.462628 
L 114.553742 33.515426 
L 117.923602 33.468889 
L 118.630565 33.527456 
L 118.842655 33.326272 
L 119.526053 32.874204 
L 119.738142 32.864667 
L 120.020927 32.645877 
L 120.539367 31.981711 
L 121.128504 31.534657 
L 121.764771 31.20611 
L 122.283211 30.959639 
L 122.518865 30.944534 
L 122.895913 30.937218 
L 123.178698 30.934371 
L 124.616191 31.006393 
L 125.370285 31.53099 
L 125.700202 31.646164 
L 126.336469 32.437216 
L 126.807778 32.937327 
L 126.996302 33.01304 
L 128.834407 34.037219 
L 129.211455 34.062276 
L 130.837471 34.019123 
L 131.143822 34.047444 
L 131.732958 34.036991 
L 132.392791 34.0429 
L 134.466551 34.047254 
L 135.173515 34.039313 
L 135.4563 34.1007 
L 139.485993 33.929851 
L 139.698082 33.969582 
L 142.290282 33.965347 
L 142.667329 33.990802 
L 144.340476 33.914773 
L 145.023875 33.965835 
L 145.754404 33.859854 
L 151.645767 34.030123 
L 151.881422 33.976187 
L 152.140642 34.004702 
L 152.729778 33.997497 
L 156.264596 34.090331 
L 157.136518 34.110247 
L 157.725655 34.221252 
L 157.937744 34.205399 
L 158.102702 34.201038 
L 158.691838 34.139589 
L 159.139582 34.111094 
L 165.219469 33.956715 
L 165.52582 33.961717 
L 168.424371 34.152286 
L 168.989942 34.182937 
L 169.296293 34.208003 
L 170.427435 34.262151 
L 173.679467 34.058094 
L 175.682531 33.823732 
L 175.965316 33.85155 
L 176.365929 33.793709 
L 177.237851 33.786602 
L 177.544202 33.776675 
L 178.180469 33.724647 
L 179.146653 33.697408 
L 179.712224 33.687379 
L 180.112836 33.631395 
L 180.749104 33.359692 
L 180.914062 33.28769 
L 181.173282 33.283168 
L 182.752167 33.382592 
L 183.034953 33.36061 
L 183.506262 33.350584 
L 183.789047 33.384728 
L 184.236791 33.397648 
L 186.098462 33.627873 
L 187.135342 33.943527 
L 188.784924 33.918107 
L 189.444756 33.967009 
L 190.057458 33.947863 
L 191.424255 33.97748 
L 192.084087 34.023409 
L 192.390438 34.04793 
L 196.750047 34.124457 
L 197.433445 34.182737 
L 198.399629 34.214919 
L 199.389378 34.308668 
L 200.237735 34.260273 
L 200.874002 34.240242 
L 201.251049 34.216037 
L 208.0379 34.18585 
L 208.438513 34.207085 
L 209.192607 34.2407 
L 209.475393 34.260536 
L 214.754055 33.962319 
L 215.319625 33.832535 
L 215.8145 33.837423 
L 217.534778 33.777271 
L 218.830878 33.794076 
L 219.490711 33.77694 
L 220.386198 33.784412 
L 220.810376 33.833656 
L 221.187424 33.864242 
L 221.705864 33.824262 
L 223.496838 33.803356 
L 223.756058 33.803599 
L 224.180236 33.763245 
L 227.785751 33.765466 
L 228.751935 33.893909 
L 229.03472 33.915971 
L 229.741684 33.968142 
L 230.236558 33.999556 
L 230.59004 34.009878 
L 237.8482 33.883348 
L 238.272378 33.958654 
L 238.861515 34.006515 
L 239.097169 34.048673 
L 239.874829 34.040634 
L 240.793882 34.061459 
L 241.618673 34.111629 
L 242.019285 34.098523 
L 243.645302 34.067433 
L 248.947529 34.195863 
L 249.324576 34.237881 
L 250.691373 34.301623 
L 251.162682 34.256284 
L 252.270258 34.251409 
L 252.553044 34.270851 
L 255.168809 34.164018 
L 255.687249 34.059156 
L 256.087862 34.00998 
L 256.77126 33.980322 
L 257.124742 33.988857 
L 257.336831 33.969033 
L 257.596051 33.958178 
L 260.14112 33.987433 
L 260.494602 34.031893 
L 261.366524 34.163994 
L 263.699504 34.428371 
L 264.241509 34.402003 
L 264.430033 34.412833 
L 265.136996 34.479353 
L 266.056049 34.503731 
L 268.553987 34.398614 
L 275.835713 34.403665 
L 276.189195 34.421367 
L 279.06418 34.487663 
L 279.629751 34.501724 
L 280.171756 34.511634 
L 281.491422 34.494987 
L 282.080558 34.497484 
L 283.117438 34.454416 
L 284.154318 34.446523 
L 284.154318 34.446523 
" clip-path="url(#pf295228ea4)" style="fill: none; stroke: #808080; stroke-width: 1.5; stroke-linecap: square"/>
   </g>
   <g id="line2d_11">
    <path d="M 30.825682 11.026531 
L 31.461949 11.131828 
L 31.933258 11.144811 
L 32.145347 11.177979 
L 32.498829 11.171098 
L 33.111531 11.211418 
L 33.394316 11.235476 
L 33.889191 11.15989 
L 34.077715 11.114359 
L 35.680165 11.314436 
L 35.892255 11.360858 
L 36.410695 11.342189 
L 36.69348 11.34419 
L 38.295931 11.478956 
L 38.531585 11.541689 
L 39.379942 11.508658 
L 39.969078 11.597877 
L 40.558215 11.595256 
L 40.888131 11.663811 
L 41.383005 11.49013 
L 41.689356 11.441652 
L 41.901445 11.465138 
L 42.254927 11.419178 
L 42.514147 11.386448 
L 44.540776 11.178868 
L 44.894258 11.181824 
L 45.271305 11.159535 
L 45.530525 11.169501 
L 46.426013 11.120921 
L 46.850191 10.895534 
L 47.462893 11.003176 
L 48.782558 12.017978 
L 49.206736 12.043165 
L 49.442391 12.445335 
L 49.701611 12.728894 
L 49.9137 12.962815 
L 50.573533 13.909308 
L 51.115538 14.966686 
L 52.24668 17.045906 
L 52.930078 18.335342 
L 53.448518 18.816266 
L 53.707738 18.891597 
L 54.202613 19.245934 
L 54.508964 19.419265 
L 54.721053 19.583627 
L 55.121665 20.054436 
L 55.286624 20.107572 
L 55.428016 20.269438 
L 55.663671 20.566817 
L 55.993587 20.90194 
L 56.417765 21.177331 
L 56.724116 21.270577 
L 56.889075 21.327089 
L 57.17186 21.506454 
L 58.043782 21.711005 
L 58.326567 21.748944 
L 59.410578 22.595086 
L 59.646233 22.860001 
L 60.306065 23.575584 
L 60.54172 23.969554 
L 60.730244 24.159766 
L 61.154422 24.570523 
L 62.921831 24.710726 
L 63.322444 24.830365 
L 63.463836 24.818367 
L 64.665675 25.913421 
L 64.877764 26.113702 
L 65.254811 26.686467 
L 66.103167 27.807749 
L 66.338822 27.965835 
L 66.550911 28.249941 
L 66.951524 28.621253 
L 67.234309 28.731196 
L 67.399267 28.936559 
L 67.634922 29.327257 
L 67.776315 29.418886 
L 68.082665 29.58431 
L 68.459713 29.940029 
L 69.425896 31.137939 
L 69.685116 31.130446 
L 70.015033 30.968229 
L 70.415645 30.765782 
L 71.9474 31.044962 
L 72.230185 31.011283 
L 72.395144 30.950814 
L 72.677929 30.972505 
L 73.102107 31.337796 
L 74.256815 31.759368 
L 74.5396 31.816285 
L 74.657427 31.833593 
L 75.034475 31.825411 
L 75.364391 31.707922 
L 75.623611 31.967345 
L 76.118485 32.173587 
L 76.424836 32.196115 
L 76.684056 32.253228 
L 77.838764 32.349901 
L 78.121549 32.367856 
L 78.262942 32.41425 
L 78.569293 32.401198 
L 79.017036 32.385994 
L 79.535476 32.523694 
L 79.841827 32.782632 
L 80.525225 32.800951 
L 80.713749 32.786541 
L 81.067231 32.863878 
L 81.844891 32.984288 
L 82.269069 33.238494 
L 82.551855 33.140902 
L 82.905336 33.019395 
L 83.164556 32.846485 
L 83.400211 32.60795 
L 84.484222 32.520582 
L 84.979096 32.002505 
L 85.238316 31.92385 
L 85.68606 31.647479 
L 86.251631 31.395991 
L 86.675809 31.185139 
L 86.840767 31.153519 
L 87.382773 31.088956 
L 89.032355 29.917565 
L 89.05592 29.95912 
L 89.244444 30.014759 
L 89.880711 28.915503 
L 90.375585 27.94323 
L 90.469847 27.881597 
L 90.564109 27.82142 
L 90.61124 27.920598 
L 90.752633 28.053719 
L 90.799764 28.00143 
L 90.988287 27.858693 
L 91.223942 27.668279 
L 91.553858 27.617197 
L 91.624555 27.601568 
L 91.64812 27.567117 
L 91.789513 27.510731 
L 92.095864 27.615307 
L 92.661435 27.731969 
L 92.826393 27.763509 
L 93.651184 28.249188 
L 93.745445 28.200262 
L 94.028231 27.972871 
L 94.334582 27.688495 
L 94.900153 27.020553 
L 95.324331 26.732446 
L 95.748509 26.834609 
L 96.007729 27.074616 
L 96.408342 26.986643 
L 96.667562 26.820711 
L 96.738258 26.808963 
L 96.761824 26.764069 
L 97.633745 25.485013 
L 97.751573 25.388823 
L 98.057924 25.24912 
L 98.270013 25.000095 
L 98.434971 24.934218 
L 99.118369 23.824411 
L 99.401155 23.617227 
L 99.448285 23.691446 
L 99.660375 23.826438 
L 99.801767 23.900364 
L 100.037422 24.226123 
L 100.249511 24.650418 
L 100.838647 25.837163 
L 102.841711 29.285844 
L 103.407282 30.487449 
L 103.855025 31.029659 
L 104.043549 31.310502 
L 104.184942 31.428205 
L 104.302769 31.514729 
L 105.033298 32.644875 
L 105.245387 32.809345 
L 105.810958 33.29303 
L 106.211571 33.307088 
L 106.612184 33.179158 
L 107.130624 33.196752 
L 107.46054 33.192888 
L 108.049676 33.305842 
L 108.261765 33.355662 
L 108.356027 33.433874 
L 108.379593 33.402675 
L 108.544551 33.358838 
L 108.709509 33.316024 
L 109.227949 33.397487 
L 109.369342 33.43773 
L 110.924662 33.455111 
L 113.776082 33.892394 
L 114.270956 34.003823 
L 114.435915 34.058108 
L 114.600873 34.10691 
L 114.765831 34.090775 
L 115.001485 34.034164 
L 115.684884 34.068185 
L 116.179758 34.108968 
L 117.522989 34.18198 
L 119.149005 34.187914 
L 119.620315 34.181403 
L 120.869284 33.992508 
L 121.057807 33.947631 
L 121.929729 33.765597 
L 122.094687 33.731913 
L 123.225829 33.702599 
L 123.343656 33.67851 
L 124.215578 33.531503 
L 125.205327 33.334973 
L 125.912291 33.240401 
L 126.147945 33.204218 
L 126.336469 33.208873 
L 126.760647 33.349542 
L 126.925605 33.3758 
L 127.137695 33.400762 
L 127.538307 33.496311 
L 128.127444 33.492399 
L 129.117193 33.380193 
L 129.258585 33.430677 
L 129.588502 33.336586 
L 129.777025 33.336169 
L 130.295465 33.389111 
L 130.436858 33.397304 
L 130.719644 33.408809 
L 135.008556 33.729531 
L 135.291342 33.732567 
L 135.550562 33.794201 
L 135.833347 33.753712 
L 136.304656 33.738821 
L 136.587442 33.749166 
L 137.129447 33.609355 
L 137.388667 33.471749 
L 138.543375 33.221855 
L 138.779029 33.178158 
L 140.004433 33.123197 
L 140.334349 33.003982 
L 140.923485 33.042069 
L 141.324098 33.094995 
L 141.512622 33.094465 
L 143.091507 33.239859 
L 143.327162 33.267637 
L 144.104822 33.30254 
L 144.387607 33.136303 
L 144.811785 33.164552 
L 145.589445 33.16973 
L 145.777969 33.184243 
L 146.909111 33.136574 
L 147.168331 33.061351 
L 147.545378 33.027395 
L 149.524876 32.6433 
L 149.760531 32.614036 
L 149.901924 32.68879 
L 150.349667 33.078433 
L 152.635516 33.405385 
L 153.389611 33.608069 
L 153.790224 33.71317 
L 154.049444 33.794264 
L 154.143705 33.858914 
L 154.426491 34.061365 
L 154.874235 34.223526 
L 155.463371 34.287699 
L 156.052507 34.334199 
L 156.735905 34.287281 
L 165.949998 34.466365 
L 166.279915 34.443555 
L 166.727658 34.410385 
L 169.41412 34.378528 
L 169.908995 34.379578 
L 171.134398 34.387732 
L 173.703033 34.494818 
L 174.127211 34.477783 
L 174.85774 34.422881 
L 175.988882 34.361547 
L 176.625149 34.382334 
L 176.907935 34.365016 
L 177.497071 34.323551 
L 178.062642 34.261279 
L 179.5237 34.204885 
L 182.822864 34.099716 
L 183.011387 34.078611 
L 183.364869 34.070297 
L 184.095398 34.090836 
L 185.085147 33.998152 
L 185.367933 34.017587 
L 185.74498 34.021656 
L 187.111776 33.962137 
L 192.578962 33.651988 
L 192.932444 33.647334 
L 195.477513 33.710061 
L 197.904755 33.953325 
L 200.567651 34.031888 
L 201.321745 34.110543 
L 203.843249 34.160408 
L 204.385255 34.185863 
L 205.210045 34.239708 
L 206.058402 34.150093 
L 207.425198 33.98387 
L 208.0379 33.891661 
L 208.650602 33.890246 
L 212.421075 33.851178 
L 212.656729 33.870758 
L 213.010211 33.850128 
L 213.340127 33.856801 
L 219.749931 33.73705 
L 220.009151 33.735878 
L 220.928204 33.738872 
L 221.446644 33.797613 
L 221.705864 33.839762 
L 221.965084 33.877301 
L 222.177173 33.883044 
L 222.55422 33.860412 
L 222.860571 33.836686 
L 223.968147 33.842018 
L 224.274498 33.847889 
L 224.8872 33.833792 
L 225.476336 33.864608 
L 225.829818 33.884078 
L 226.301127 33.916093 
L 227.385138 33.933271 
L 227.620793 33.939967 
L 230.283689 33.931391 
L 230.896391 33.881465 
L 231.509093 33.860049 
L 231.862575 33.868029 
L 232.852324 33.881989 
L 233.465025 33.838745 
L 237.636111 33.870614 
L 237.942462 33.862777 
L 238.295944 33.870562 
L 240.228311 33.963885 
L 242.278505 33.946927 
L 245.530538 33.955594 
L 249.112487 33.968332 
L 249.560231 33.996531 
L 249.984409 33.999456 
L 255.451595 34.108431 
L 257.383962 34.062616 
L 258.06736 34.030214 
L 258.562235 34.003715 
L 265.160562 34.08263 
L 266.503793 34.059583 
L 266.857275 34.067483 
L 271.311145 34.172891 
L 272.088805 34.179954 
L 272.536549 34.138386 
L 281.232202 34.141265 
L 281.585684 34.122213 
L 282.269082 34.110353 
L 282.905349 34.108226 
L 283.282396 34.121422 
L 284.154318 34.128381 
L 284.154318 34.128381 
" clip-path="url(#pf295228ea4)" style="fill: none; stroke-dasharray: 5.55,2.4; stroke-dashoffset: 0; stroke: #808080; stroke-width: 1.5"/>
   </g>
   <g id="line2d_12">
    <path d="M 51.445455 42.726667 
L 51.445455 8.1 
" clip-path="url(#pf295228ea4)" style="fill: none; stroke-dasharray: 5.55,2.4; stroke-dashoffset: 0; stroke: #000000; stroke-width: 1.5"/>
   </g>
   <g id="line2d_13">
    <path d="M 169.272727 42.726667 
L 169.272727 8.1 
" clip-path="url(#pf295228ea4)" style="fill: none; stroke-dasharray: 5.55,2.4; stroke-dashoffset: 0; stroke: #000000; stroke-width: 1.5"/>
   </g>
   <g id="patch_3">
    <path d="M 27.88 42.726667 
L 27.88 8.1 
" style="fill: none; stroke: #000000; stroke-width: 0.8; stroke-linejoin: miter; stroke-linecap: square"/>
   </g>
   <g id="patch_4">
    <path d="M 287.1 42.726667 
L 287.1 8.1 
" style="fill: none; stroke: #000000; stroke-width: 0.8; stroke-linejoin: miter; stroke-linecap: square"/>
   </g>
   <g id="patch_5">
    <path d="M 27.88 42.726667 
L 287.1 42.726667 
" style="fill: none; stroke: #000000; stroke-width: 0.8; stroke-linejoin: miter; stroke-linecap: square"/>
   </g>
   <g id="patch_6">
    <path d="M 27.88 8.1 
L 287.1 8.1 
" style="fill: none; stroke: #000000; stroke-width: 0.8; stroke-linejoin: miter; stroke-linecap: square"/>
   </g>
  </g>
  <g id="axes_2">
   <g id="patch_7">
    <path d="M 27.88 91.573333 
L 287.1 91.573333 
L 287.1 56.946667 
L 27.88 56.946667 
z
" style="fill: #ffffff"/>
   </g>
   <g id="matplotlib.axis_3">
    <g id="xtick_7">
     <g id="line2d_14">
      <g>
       <use xlink:href="#mbd52eaf4d5" x="27.88" y="91.573333" style="stroke: #000000; stroke-width: 0.8"/>
      </g>
     </g>
    </g>
    <g id="xtick_8">
     <g id="line2d_15">
      <g>
       <use xlink:href="#mbd52eaf4d5" x="75.010909" y="91.573333" style="stroke: #000000; stroke-width: 0.8"/>
      </g>
     </g>
    </g>
    <g id="xtick_9">
     <g id="line2d_16">
      <g>
       <use xlink:href="#mbd52eaf4d5" x="122.141818" y="91.573333" style="stroke: #000000; stroke-width: 0.8"/>
      </g>
     </g>
    </g>
    <g id="xtick_10">
     <g id="line2d_17">
      <g>
       <use xlink:href="#mbd52eaf4d5" x="169.272727" y="91.573333" style="stroke: #000000; stroke-width: 0.8"/>
      </g>
     </g>
    </g>
    <g id="xtick_11">
     <g id="line2d_18">
      <g>
       <use xlink:href="#mbd52eaf4d5" x="216.403636" y="91.573333" style="stroke: #000000; stroke-width: 0.8"/>
      </g>
     </g>
    </g>
    <g id="xtick_12">
     <g id="line2d_19">
      <g>
       <use xlink:href="#mbd52eaf4d5" x="263.534545" y="91.573333" style="stroke: #000000; stroke-width: 0.8"/>
      </g>
     </g>
    </g>
   </g>
   <g id="matplotlib.axis_4">
    <g id="ytick_4">
     <g id="line2d_20">
      <g>
       <use xlink:href="#med20db2624" x="27.88" y="91.573333" style="stroke: #000000; stroke-width: 0.8"/>
      </g>
     </g>
     <g id="text_4">
      <text style="font: 10px 'DejaVu Sans', 'Bitstream Vera Sans', 'Computer Modern Sans Serif', 'Lucida Grande', 'Verdana', 'Geneva', 'Lucid', 'Arial', 'Helvetica', 'Avant Garde', sans-serif; text-anchor: end" x="20.88" y="95.372552" transform="rotate(-0 20.88 95.372552)">0</text>
     </g>
    </g>
    <g id="ytick_5">
     <g id="line2d_21">
      <g>
       <use xlink:href="#med20db2624" x="27.88" y="78.255385" style="stroke: #000000; stroke-width: 0.8"/>
      </g>
     </g>
     <g id="text_5">
      <text style="font: 10px 'DejaVu Sans', 'Bitstream Vera Sans', 'Computer Modern Sans Serif', 'Lucida Grande', 'Verdana', 'Geneva', 'Lucid', 'Arial', 'Helvetica', 'Avant Garde', sans-serif; text-anchor: end" x="20.88" y="82.054603" transform="rotate(-0 20.88 82.054603)">5</text>
     </g>
    </g>
    <g id="ytick_6">
     <g id="line2d_22">
      <g>
       <use xlink:href="#med20db2624" x="27.88" y="64.937436" style="stroke: #000000; stroke-width: 0.8"/>
      </g>
     </g>
     <g id="text_6">
      <text style="font: 10px 'DejaVu Sans', 'Bitstream Vera Sans', 'Computer Modern Sans Serif', 'Lucida Grande', 'Verdana', 'Geneva', 'Lucid', 'Arial', 'Helvetica', 'Avant Garde', sans-serif; text-anchor: end" x="20.88" y="68.736655" transform="rotate(-0 20.88 68.736655)">10</text>
     </g>
    </g>
   </g>
   <g id="line2d_23">
    <path d="M 30.825682 66.235763 
L 31.179164 66.158134 
L 31.697604 66.222989 
L 32.003955 66.127232 
L 32.758049 66.309935 
L 33.252924 66.484449 
L 34.007018 66.172214 
L 34.690416 65.808137 
L 34.949636 65.777713 
L 35.255987 65.612642 
L 35.279553 65.647472 
L 35.6566 65.533707 
L 35.868689 65.557344 
L 36.811307 64.980458 
L 37.306182 64.874814 
L 37.848187 64.637958 
L 38.319496 64.402958 
L 38.50802 64.307417 
L 39.309245 64.429037 
L 40.676042 65.574959 
L 42.372755 66.549328 
L 42.490582 66.626514 
L 42.796933 66.747763 
L 43.150415 66.918368 
L 44.163729 67.588852 
L 44.281556 67.635238 
L 44.446515 67.685429 
L 45.318436 67.516574 
L 45.648353 67.470493 
L 46.190358 67.421092 
L 46.520275 67.463882 
L 46.873756 67.510346 
L 47.274369 67.514185 
L 49.513087 67.345233 
L 50.620664 69.115075 
L 50.903449 69.589271 
L 51.46902 70.457099 
L 51.869633 71.101258 
L 54.697487 75.407744 
L 54.980273 75.857244 
L 55.35732 76.315443 
L 55.61654 76.306366 
L 55.899325 76.292868 
L 56.13498 76.241612 
L 56.91264 76.471632 
L 57.077598 76.529529 
L 58.114478 76.618345 
L 58.373698 76.651619 
L 58.656484 76.677077 
L 59.575536 76.949251 
L 60.54172 76.450637 
L 60.683113 76.399394 
L 62.426956 76.318262 
L 63.13392 76.14743 
L 63.298878 76.121242 
L 63.510967 76.045544 
L 63.958711 75.854179 
L 64.217931 75.878813 
L 64.453585 75.79214 
L 65.655424 75.117756 
L 65.796816 75.207709 
L 65.820382 75.191968 
L 66.079602 75.143381 
L 66.480215 74.976386 
L 66.645173 74.974642 
L 67.517095 74.500577 
L 67.658487 74.466156 
L 67.847011 74.431185 
L 68.011969 74.456071 
L 68.341885 74.283882 
L 68.860325 73.950761 
L 69.143111 73.766666 
L 69.3552 73.762146 
L 69.520158 73.760864 
L 69.685116 73.740867 
L 70.439211 73.497433 
L 71.829573 73.630798 
L 72.065227 73.66434 
L 72.418709 73.763832 
L 72.960715 73.899308 
L 73.196369 73.995822 
L 73.337762 74.032254 
L 73.644113 74.018345 
L 73.903333 73.90932 
L 74.068291 73.884292 
L 74.680993 73.931452 
L 75.010909 74.104823 
L 75.175867 74.080702 
L 75.482218 74.113081 
L 76.024224 74.317388 
L 76.189182 74.32481 
L 77.108235 74.653992 
L 77.273193 74.66893 
L 77.555978 74.724473 
L 77.697371 74.709382 
L 78.94634 74.87367 
L 79.111298 74.898133 
L 79.323387 75.084202 
L 80.266005 76.670538 
L 80.619487 77.270151 
L 81.302885 78.184786 
L 81.53854 78.492362 
L 85.309013 83.081222 
L 85.756756 82.966358 
L 86.298762 82.379468 
L 86.864333 82.254081 
L 87.029291 82.318237 
L 87.783385 82.459095 
L 87.924778 82.487085 
L 88.584611 82.451937 
L 88.749569 82.449655 
L 89.103051 82.496558 
L 89.244444 82.504491 
L 89.456533 82.531315 
L 89.692187 82.504421 
L 90.045669 82.160406 
L 90.163496 82.085378 
L 90.304889 82.064249 
L 90.469847 81.971609 
L 90.823329 81.440028 
L 91.058984 81.28027 
L 91.3889 81.315629 
L 91.600989 81.446751 
L 92.16656 82.144724 
L 92.614304 82.349498 
L 92.732131 82.243507 
L 92.967785 82.131551 
L 95.395027 82.179186 
L 96.903216 83.164872 
L 97.09174 83.07256 
L 98.152185 82.366343 
L 98.623495 82.461364 
L 98.859149 82.576655 
L 99.141935 82.548494 
L 100.602993 82.568255 
L 102.346836 82.559174 
L 102.79458 82.989188 
L 102.983104 83.083399 
L 103.666502 83.547871 
L 103.784329 83.619597 
L 104.09068 83.739847 
L 106.093744 83.648579 
L 106.305833 83.669884 
L 118.889785 83.842254 
L 119.054744 83.822704 
L 120.704325 83.76442 
L 121.929729 83.8071 
L 123.060871 83.74801 
L 123.932793 83.711995 
L 124.781149 83.72153 
L 124.946107 83.747702 
L 126.430731 83.847931 
L 129.541371 83.744004 
L 129.777025 83.65342 
L 131.002429 83.484125 
L 131.968613 83.478457 
L 133.12332 83.357774 
L 135.032122 83.300251 
L 135.432735 83.424198 
L 135.762651 83.572114 
L 139.108945 83.739859 
L 139.297469 83.793411 
L 140.475742 83.808847 
L 141.67758 83.79218 
L 142.266716 83.837221 
L 143.916298 83.823466 
L 144.835351 83.849473 
L 145.542315 83.832177 
L 147.191896 83.743293 
L 147.969556 83.733798 
L 151.198024 83.753555 
L 152.588385 83.887671 
L 153.153956 83.875441 
L 157.419304 83.857558 
L 158.220529 83.857636 
L 159.775849 83.828765 
L 164.300416 83.557986 
L 164.441809 83.599249 
L 166.256349 83.5924 
L 167.034009 83.752135 
L 167.198967 83.842973 
L 167.811669 83.875552 
L 169.202031 83.757226 
L 169.461251 83.634047 
L 170.875178 83.63555 
L 171.063702 83.686511 
L 173.538075 83.70491 
L 174.409996 83.720184 
L 175.022698 83.857762 
L 175.399745 84.057001 
L 184.566707 83.987171 
L 184.943755 83.992024 
L 195.171162 84.002436 
L 196.985702 84.044754 
L 207.566591 84.024179 
L 208.344251 84.024375 
L 224.133105 84.003081 
L 225.099289 83.998206 
L 226.890264 84.006112 
L 241.760065 84.002405 
L 244.682182 84.034351 
L 245.766193 84.04214 
L 247.839953 84.050852 
L 248.334827 84.048102 
L 249.277445 84.05277 
L 250.267195 84.050803 
L 254.838893 84.027413 
L 258.185187 84.021761 
L 260.800953 84.054325 
L 262.615493 84.053383 
L 268.766076 84.049314 
L 269.614433 84.042501 
L 270.344962 84.036223 
L 281.208636 83.990922 
L 282.528302 83.990577 
L 284.083622 83.911793 
L 284.154318 83.884356 
L 284.154318 83.884356 
" clip-path="url(#pdd5e07aa49)" style="fill: none; stroke: #ffa500; stroke-width: 1.5; stroke-linecap: square"/>
   </g>
   <g id="line2d_24">
    <path d="M 30.825682 66.194751 
L 30.99064 66.180023 
L 31.532645 66.286858 
L 32.54596 66.288897 
L 34.219107 66.045431 
L 34.454762 66.067863 
L 34.761113 66.083759 
L 35.845124 65.921195 
L 36.69348 66.012314 
L 37.188355 66.023218 
L 37.98958 66.123613 
L 38.2488 66.141255 
L 38.437324 66.204242 
L 38.649413 66.214522 
L 40.628911 66.318862 
L 41.123785 66.351199 
L 46.614536 66.897894 
L 46.80306 67.130067 
L 48.735427 70.413108 
L 48.900385 70.704463 
L 50.267182 74.238285 
L 51.115538 76.802706 
L 51.846067 78.84212 
L 52.977209 81.35449 
L 53.330691 81.757438 
L 53.943393 82.480867 
L 54.296875 82.92162 
L 55.121665 83.637785 
L 55.404451 83.733972 
L 57.855258 83.802317 
L 58.043782 83.651896 
L 58.72718 83.545844 
L 59.363447 82.830786 
L 60.070411 82.358385 
L 61.225118 82.397759 
L 64.642109 82.452124 
L 65.113418 82.942953 
L 65.20768 83.00349 
L 65.561162 83.307397 
L 66.268125 83.358701 
L 67.163613 83.269745 
L 67.564225 83.032518 
L 69.637985 83.073263 
L 69.87364 82.985561 
L 70.015033 83.033714 
L 70.203556 83.00828 
L 70.557038 83.037443 
L 70.698431 83.049312 
L 71.452525 83.188067 
L 71.664615 83.286323 
L 73.267065 83.501419 
L 73.432024 83.645689 
L 73.455589 83.593988 
L 73.667678 83.395153 
L 75.57648 83.481737 
L 75.953527 83.633792 
L 76.118485 83.570919 
L 76.307009 83.490459 
L 76.542664 83.394643 
L 76.990407 82.184439 
L 80.454529 72.102918 
L 81.514975 69.772105 
L 82.245504 68.884881 
L 82.481158 68.431847 
L 82.528289 68.469783 
L 83.117425 68.884164 
L 84.036478 70.352544 
L 85.16762 71.965517 
L 85.42684 72.326588 
L 87.194249 75.199544 
L 87.618427 74.894847 
L 87.736255 74.818583 
L 87.924778 74.638748 
L 87.948344 74.661995 
L 88.561045 75.0005 
L 88.702438 75.070717 
L 89.079485 75.248253 
L 89.432967 75.061356 
L 89.83358 74.934112 
L 90.375585 74.347879 
L 90.941156 74.161856 
L 91.600989 73.696539 
L 92.991351 72.682018 
L 93.651184 72.536238 
L 93.910404 72.617936 
L 94.358147 72.868196 
L 94.75876 73.299289 
L 94.970849 73.503908 
L 95.324331 74.027528 
L 95.53642 74.175921 
L 96.101991 74.978045 
L 96.549735 75.643311 
L 96.714693 75.767442 
L 96.997478 76.311305 
L 98.788453 79.568119 
L 99.754636 80.443446 
L 100.273076 80.03138 
L 100.697255 79.611374 
L 101.003605 79.326613 
L 101.309956 79.003203 
L 101.922658 78.568467 
L 102.299705 78.309267 
L 102.488229 78.22326 
L 103.454413 77.322138 
L 104.019984 76.534667 
L 104.750513 75.247829 
L 104.939036 74.869842 
L 105.622435 73.462004 
L 105.646 73.488949 
L 105.787393 73.514621 
L 107.20132 72.753328 
L 107.413409 72.656392 
L 107.861153 72.355549 
L 108.356027 71.799639 
L 108.426724 71.834924 
L 108.473855 71.734624 
L 108.638813 71.7124 
L 108.898033 71.845221 
L 109.062991 71.780642 
L 109.416473 71.881238 
L 109.628562 71.991631 
L 109.958478 72.405793 
L 110.594745 72.91662 
L 111.60806 75.126668 
L 112.032238 75.872239 
L 112.597809 75.871985 
L 113.351904 76.136978 
L 113.563993 76.186434 
L 113.799647 76.763605 
L 114.270956 77.880426 
L 114.341653 77.992836 
L 114.553742 78.315951 
L 114.765831 78.378263 
L 115.49636 79.224918 
L 115.849842 79.365647 
L 116.156193 79.842029 
L 116.462544 80.205752 
L 116.910287 80.284059 
L 117.358031 80.654962 
L 117.687947 80.78461 
L 118.041429 81.263759 
L 118.842655 82.904767 
L 119.620315 84.019425 
L 120.068058 83.971925 
L 121.694075 83.920536 
L 122.118253 83.906109 
L 135.833347 83.754645 
L 136.304656 82.371526 
L 137.01162 80.284639 
L 138.072065 77.168069 
L 138.56694 75.589718 
L 139.627385 72.171843 
L 141.748276 66.227059 
L 142.761591 66.522924 
L 143.280031 66.526232 
L 143.397858 66.518776 
L 144.246215 66.841161 
L 144.481869 66.968302 
L 144.741089 67.08384 
L 144.882482 67.133543 
L 145.094571 67.226413 
L 145.259529 67.297208 
L 145.495184 67.381039 
L 145.683707 67.396451 
L 146.060755 67.542123 
L 146.437802 67.199003 
L 147.993122 66.422945 
L 148.110949 66.345855 
L 148.15808 66.385184 
L 148.346604 66.435429 
L 148.464431 66.505239 
L 148.700085 66.673484 
L 150.066882 66.770934 
L 151.221589 66.363587 
L 151.362982 66.34364 
L 151.551505 66.364065 
L 152.022815 67.552325 
L 152.729778 69.897186 
L 153.318915 71.910617 
L 153.884485 73.754619 
L 154.214402 74.563588 
L 154.591449 75.200696 
L 154.779973 75.473077 
L 155.062758 76.0504 
L 155.392675 76.718822 
L 155.628329 77.177756 
L 156.217465 78.753495 
L 157.466435 82.396964 
L 157.819916 82.565715 
L 158.196964 82.57705 
L 158.691838 82.566 
L 158.856796 82.541186 
L 160.105765 82.4599 
L 160.34142 82.358754 
L 160.60064 82.581106 
L 161.095515 82.669898 
L 161.590389 82.794173 
L 161.802478 82.822771 
L 162.014567 82.664471 
L 162.250222 82.614397 
L 163.169275 82.637498 
L 165.360862 82.528828 
L 165.572951 82.564983 
L 165.832171 82.522695 
L 166.138522 82.569807 
L 167.057575 83.072299 
L 167.246098 83.205223 
L 167.481753 83.2727 
L 167.646711 83.375159 
L 168.023758 83.576213 
L 168.400805 83.534904 
L 168.848549 83.48888 
L 169.390555 83.540426 
L 176.224536 83.946173 
L 179.240915 83.579561 
L 179.830051 83.19462 
L 181.102585 83.04536 
L 181.408936 82.737683 
L 182.822864 81.32776 
L 182.964256 81.22228 
L 184.307487 79.945784 
L 184.613838 79.707971 
L 185.155844 79.355753 
L 185.74498 79.246216 
L 186.169158 78.964003 
L 187.182473 78.225867 
L 187.724478 78.333583 
L 188.455007 78.362966 
L 189.161971 78.351159 
L 191.44782 78.743925 
L 191.636344 78.797233 
L 191.848433 78.874401 
L 192.131218 78.884468 
L 192.4847 78.862689 
L 192.791051 79.016696 
L 193.827931 79.854626 
L 194.157847 79.893943 
L 194.417067 79.985962 
L 195.33612 80.074172 
L 196.137345 79.983958 
L 196.373 79.947054 
L 196.844309 79.930737 
L 197.315618 79.920964 
L 198.376064 79.910095 
L 199.695729 80.115151 
L 200.426258 80.641255 
L 201.651662 81.438153 
L 201.863751 81.490545 
L 202.523584 81.795371 
L 202.641411 81.878353 
L 203.37194 82.484541 
L 203.748987 82.743288 
L 204.738736 83.147298 
L 205.18648 83.01018 
L 207.071716 83.012301 
L 207.236675 83.063311 
L 207.378067 83.115593 
L 208.650602 83.628384 
L 209.357565 83.667741 
L 210.040964 83.690587 
L 215.131102 83.810762 
L 216.639291 83.760399 
L 216.898511 83.773794 
L 223.803189 83.560501 
L 224.227367 83.530651 
L 224.604415 83.475235 
L 230.425082 83.287228 
L 230.872825 83.359118 
L 231.485527 83.455933 
L 231.674051 83.481828 
L 234.431209 83.640156 
L 235.185304 83.771425 
L 236.646362 83.679853 
L 237.424022 83.678486 
L 241.288756 83.644049 
L 241.547976 83.487193 
L 241.854327 83.464125 
L 242.137113 83.295435 
L 242.372767 83.200975 
L 242.914773 83.170118 
L 244.305135 83.126341 
L 244.564355 83.113999 
L 247.250816 83.272586 
L 247.486471 83.344796 
L 248.947529 83.652799 
L 249.489535 83.686718 
L 250.314325 83.70868 
L 250.856331 83.689768 
L 256.959784 83.62358 
L 257.54892 83.54886 
L 257.902402 83.550756 
L 267.163625 83.098494 
L 267.870589 82.689714 
L 268.247636 82.625945 
L 268.624684 82.57989 
L 269.826522 82.256831 
L 272.206633 81.523825 
L 272.536549 81.496 
L 273.078555 81.446197 
L 273.314209 81.606596 
L 273.785518 81.551865 
L 274.468916 81.467026 
L 274.940225 81.577105 
L 275.741451 81.635984 
L 276.943289 81.723248 
L 277.367467 81.899713 
L 278.875656 82.299189 
L 279.205573 82.396776 
L 279.370531 82.429062 
L 280.266018 82.648306 
L 281.420725 82.631785 
L 281.65638 82.641377 
L 282.669695 82.906537 
L 284.154318 83.038458 
L 284.154318 83.038458 
" clip-path="url(#pdd5e07aa49)" style="fill: none; stroke-dasharray: 5.55,2.4; stroke-dashoffset: 0; stroke: #ffa500; stroke-width: 1.5"/>
   </g>
   <g id="line2d_25">
    <path d="M 51.445455 91.573333 
L 51.445455 56.946667 
" clip-path="url(#pdd5e07aa49)" style="fill: none; stroke-dasharray: 5.55,2.4; stroke-dashoffset: 0; stroke: #000000; stroke-width: 1.5"/>
   </g>
   <g id="line2d_26">
    <path d="M 169.272727 91.573333 
L 169.272727 56.946667 
" clip-path="url(#pdd5e07aa49)" style="fill: none; stroke-dasharray: 5.55,2.4; stroke-dashoffset: 0; stroke: #000000; stroke-width: 1.5"/>
   </g>
   <g id="patch_8">
    <path d="M 27.88 91.573333 
L 27.88 56.946667 
" style="fill: none; stroke: #000000; stroke-width: 0.8; stroke-linejoin: miter; stroke-linecap: square"/>
   </g>
   <g id="patch_9">
    <path d="M 287.1 91.573333 
L 287.1 56.946667 
" style="fill: none; stroke: #000000; stroke-width: 0.8; stroke-linejoin: miter; stroke-linecap: square"/>
   </g>
   <g id="patch_10">
    <path d="M 27.88 91.573333 
L 287.1 91.573333 
" style="fill: none; stroke: #000000; stroke-width: 0.8; stroke-linejoin: miter; stroke-linecap: square"/>
   </g>
   <g id="patch_11">
    <path d="M 27.88 56.946667 
L 287.1 56.946667 
" style="fill: none; stroke: #000000; stroke-width: 0.8; stroke-linejoin: miter; stroke-linecap: square"/>
   </g>
  </g>
  <g id="axes_3">
   <g id="patch_12">
    <path d="M 27.88 140.42 
L 287.1 140.42 
L 287.1 105.793333 
L 27.88 105.793333 
z
" style="fill: #ffffff"/>
   </g>
   <g id="matplotlib.axis_5">
    <g id="xtick_13">
     <g id="line2d_27">
      <g>
       <use xlink:href="#mbd52eaf4d5" x="27.88" y="140.42" style="stroke: #000000; stroke-width: 0.8"/>
      </g>
     </g>
     <g id="text_7">
      <text style="font: 10px 'DejaVu Sans', 'Bitstream Vera Sans', 'Computer Modern Sans Serif', 'Lucida Grande', 'Verdana', 'Geneva', 'Lucid', 'Arial', 'Helvetica', 'Avant Garde', sans-serif; text-anchor: middle" x="27.88" y="155.018437" transform="rotate(-0 27.88 155.018437)">0</text>
     </g>
    </g>
    <g id="xtick_14">
     <g id="line2d_28">
      <g>
       <use xlink:href="#mbd52eaf4d5" x="75.010909" y="140.42" style="stroke: #000000; stroke-width: 0.8"/>
      </g>
     </g>
     <g id="text_8">
      <text style="font: 10px 'DejaVu Sans', 'Bitstream Vera Sans', 'Computer Modern Sans Serif', 'Lucida Grande', 'Verdana', 'Geneva', 'Lucid', 'Arial', 'Helvetica', 'Avant Garde', sans-serif; text-anchor: middle" x="75.010909" y="155.018437" transform="rotate(-0 75.010909 155.018437)">200</text>
     </g>
    </g>
    <g id="xtick_15">
     <g id="line2d_29">
      <g>
       <use xlink:href="#mbd52eaf4d5" x="122.141818" y="140.42" style="stroke: #000000; stroke-width: 0.8"/>
      </g>
     </g>
     <g id="text_9">
      <text style="font: 10px 'DejaVu Sans', 'Bitstream Vera Sans', 'Computer Modern Sans Serif', 'Lucida Grande', 'Verdana', 'Geneva', 'Lucid', 'Arial', 'Helvetica', 'Avant Garde', sans-serif; text-anchor: middle" x="122.141818" y="155.018437" transform="rotate(-0 122.141818 155.018437)">400</text>
     </g>
    </g>
    <g id="xtick_16">
     <g id="line2d_30">
      <g>
       <use xlink:href="#mbd52eaf4d5" x="169.272727" y="140.42" style="stroke: #000000; stroke-width: 0.8"/>
      </g>
     </g>
     <g id="text_10">
      <text style="font: 10px 'DejaVu Sans', 'Bitstream Vera Sans', 'Computer Modern Sans Serif', 'Lucida Grande', 'Verdana', 'Geneva', 'Lucid', 'Arial', 'Helvetica', 'Avant Garde', sans-serif; text-anchor: middle" x="169.272727" y="155.018437" transform="rotate(-0 169.272727 155.018437)">600</text>
     </g>
    </g>
    <g id="xtick_17">
     <g id="line2d_31">
      <g>
       <use xlink:href="#mbd52eaf4d5" x="216.403636" y="140.42" style="stroke: #000000; stroke-width: 0.8"/>
      </g>
     </g>
     <g id="text_11">
      <text style="font: 10px 'DejaVu Sans', 'Bitstream Vera Sans', 'Computer Modern Sans Serif', 'Lucida Grande', 'Verdana', 'Geneva', 'Lucid', 'Arial', 'Helvetica', 'Avant Garde', sans-serif; text-anchor: middle" x="216.403636" y="155.018437" transform="rotate(-0 216.403636 155.018437)">800</text>
     </g>
    </g>
    <g id="xtick_18">
     <g id="line2d_32">
      <g>
       <use xlink:href="#mbd52eaf4d5" x="263.534545" y="140.42" style="stroke: #000000; stroke-width: 0.8"/>
      </g>
     </g>
     <g id="text_12">
      <text style="font: 10px 'DejaVu Sans', 'Bitstream Vera Sans', 'Computer Modern Sans Serif', 'Lucida Grande', 'Verdana', 'Geneva', 'Lucid', 'Arial', 'Helvetica', 'Avant Garde', sans-serif; text-anchor: middle" x="263.534545" y="155.018437" transform="rotate(-0 263.534545 155.018437)">1000</text>
     </g>
    </g>
   </g>
   <g id="matplotlib.axis_6">
    <g id="ytick_7">
     <g id="line2d_33">
      <g>
       <use xlink:href="#med20db2624" x="27.88" y="140.42" style="stroke: #000000; stroke-width: 0.8"/>
      </g>
     </g>
     <g id="text_13">
      <text style="font: 10px 'DejaVu Sans', 'Bitstream Vera Sans', 'Computer Modern Sans Serif', 'Lucida Grande', 'Verdana', 'Geneva', 'Lucid', 'Arial', 'Helvetica', 'Avant Garde', sans-serif; text-anchor: end" x="20.88" y="144.219219" transform="rotate(-0 20.88 144.219219)">0</text>
     </g>
    </g>
    <g id="ytick_8">
     <g id="line2d_34">
      <g>
       <use xlink:href="#med20db2624" x="27.88" y="127.102051" style="stroke: #000000; stroke-width: 0.8"/>
      </g>
     </g>
     <g id="text_14">
      <text style="font: 10px 'DejaVu Sans', 'Bitstream Vera Sans', 'Computer Modern Sans Serif', 'Lucida Grande', 'Verdana', 'Geneva', 'Lucid', 'Arial', 'Helvetica', 'Avant Garde', sans-serif; text-anchor: end" x="20.88" y="130.90127" transform="rotate(-0 20.88 130.90127)">5</text>
     </g>
    </g>
    <g id="ytick_9">
     <g id="line2d_35">
      <g>
       <use xlink:href="#med20db2624" x="27.88" y="113.784103" style="stroke: #000000; stroke-width: 0.8"/>
      </g>
     </g>
     <g id="text_15">
      <text style="font: 10px 'DejaVu Sans', 'Bitstream Vera Sans', 'Computer Modern Sans Serif', 'Lucida Grande', 'Verdana', 'Geneva', 'Lucid', 'Arial', 'Helvetica', 'Avant Garde', sans-serif; text-anchor: end" x="20.88" y="117.583321" transform="rotate(-0 20.88 117.583321)">10</text>
     </g>
    </g>
   </g>
   <g id="line2d_36">
    <path d="M 30.825682 125.203925 
L 31.461949 126.182833 
L 32.239609 127.410081 
L 34.996767 131.372018 
L 35.703731 131.7483 
L 36.269302 131.81925 
L 36.929135 131.866406 
L 37.588967 131.927862 
L 37.871753 131.933259 
L 40.039775 131.966885 
L 40.841 132.010422 
L 41.736487 131.931226 
L 42.65554 131.872824 
L 42.820498 131.847382 
L 50.17292 131.745183 
L 50.714925 131.779563 
L 51.445455 131.82761 
L 51.775371 131.832763 
L 52.081722 131.826423 
L 52.600162 131.745064 
L 52.76512 131.738305 
L 52.930078 131.763592 
L 54.886011 131.892083 
L 56.724116 132.005511 
L 57.054033 131.965603 
L 58.491525 132.005358 
L 58.656484 132.011616 
L 60.188238 131.811423 
L 61.531469 131.634524 
L 61.814255 131.559468 
L 61.979213 131.502816 
L 62.191302 131.436317 
L 66.173864 131.829022 
L 67.187178 130.663015 
L 67.210744 130.69144 
L 67.564225 130.891201 
L 67.823445 130.862654 
L 68.153362 131.0069 
L 69.119545 130.845353 
L 69.732247 129.758297 
L 69.897205 129.68082 
L 70.13286 129.617926 
L 70.698431 129.15968 
L 71.216871 129.052664 
L 71.900269 127.755993 
L 71.9474 127.810941 
L 72.135924 127.968208 
L 72.159489 127.913258 
L 72.300882 127.820055 
L 72.701495 127.789667 
L 73.455589 126.92849 
L 73.479155 126.953845 
L 73.573416 126.915555 
L 74.02116 126.397096 
L 74.586731 125.547286 
L 74.704558 125.480093 
L 74.940213 125.191103 
L 75.010909 125.159892 
L 75.034475 125.178529 
L 75.199433 125.275195 
L 75.411522 125.369955 
L 75.765004 125.797887 
L 76.047789 125.91058 
L 76.236313 126.051241 
L 76.448402 125.892183 
L 76.61336 125.787058 
L 77.178931 125.337618 
L 77.791633 125.884306 
L 77.815198 125.85695 
L 78.192245 125.677634 
L 78.592858 125.929122 
L 79.017036 126.563619 
L 79.20556 126.703252 
L 79.229125 126.682863 
L 79.888958 126.140992 
L 79.98322 126.204422 
L 80.006785 126.157178 
L 80.195309 126.037932 
L 80.76088 125.449345 
L 81.067231 125.007764 
L 81.185058 125.029381 
L 81.208624 125.066496 
L 81.232189 124.989653 
L 81.562105 124.322442 
L 82.198373 122.861652 
L 82.905336 121.850025 
L 83.35308 121.223215 
L 83.423776 121.151021 
L 83.800824 120.349884 
L 83.942216 120.292225 
L 84.342829 119.693715 
L 84.696311 118.959255 
L 85.026227 118.321453 
L 85.309013 117.807408 
L 85.591798 117.684999 
L 85.756756 117.730313 
L 85.921715 117.834889 
L 86.251631 117.975922 
L 86.345893 118.025569 
L 86.581547 118.170166 
L 87.429904 119.254012 
L 88.914527 123.075586 
L 89.244444 123.871298 
L 89.31514 123.963138 
L 90.681936 126.459035 
L 90.799764 126.568452 
L 90.941156 126.806481 
L 91.742382 128.201859 
L 92.991351 130.018789 
L 93.179875 129.825736 
L 94.735195 128.400672 
L 95.347896 128.465878 
L 95.53642 128.417412 
L 95.701378 128.406313 
L 96.101991 128.609113 
L 96.997478 129.405867 
L 97.539484 129.529125 
L 97.657311 129.514236 
L 98.482102 129.184065 
L 99.42472 129.586178 
L 99.754636 129.938737 
L 100.060987 130.219126 
L 100.485165 130.55611 
L 100.909344 130.244717 
L 101.262825 129.884089 
L 102.064051 130.13649 
L 102.818145 129.955754 
L 103.289455 129.412591 
L 103.760764 128.884711 
L 104.067115 128.548759 
L 104.208507 128.39971 
L 104.373465 128.208589 
L 104.750513 127.849406 
L 105.481042 127.219598 
L 106.070178 126.495344 
L 106.565053 126.493016 
L 107.177755 127.355152 
L 107.436975 127.446478 
L 108.379593 127.592592 
L 108.615247 127.628041 
L 108.709509 127.720948 
L 109.204384 128.349746 
L 110.194133 129.855467 
L 110.618311 130.446744 
L 111.961542 132.176472 
L 112.102935 132.25186 
L 112.267893 132.291938 
L 113.021987 132.311467 
L 113.634689 132.300045 
L 114.506611 132.288795 
L 114.812962 132.007354 
L 116.627502 131.968233 
L 117.970733 132.032068 
L 119.031178 131.990905 
L 119.573184 131.990698 
L 119.785273 131.905551 
L 120.42154 131.978962 
L 120.775022 132.258706 
L 122.448169 132.345304 
L 122.943044 132.325245 
L 123.508615 132.306434 
L 124.922542 132.398857 
L 125.181762 132.396871 
L 125.558809 132.504678 
L 125.86516 132.538393 
L 126.218642 132.474545 
L 129.965549 132.093265 
L 130.201204 132.020384 
L 130.295465 131.934054 
L 130.719644 131.897731 
L 132.487053 131.679551 
L 132.699142 131.54237 
L 135.833347 131.613284 
L 136.092567 131.656961 
L 136.186829 131.727092 
L 136.469615 131.711906 
L 137.129447 131.780532 
L 137.459364 131.868131 
L 137.859976 131.894408 
L 138.873291 132.178247 
L 140.593569 132.113196 
L 141.017747 132.099099 
L 146.131451 132.164265 
L 146.367105 132.263907 
L 147.074069 132.380195 
L 149.878358 132.604021 
L 151.26872 132.424784 
L 151.457244 132.354416 
L 156.099638 131.967725 
L 156.45312 131.987458 
L 157.325042 132.009082 
L 158.361922 132.106478 
L 158.998189 132.149719 
L 160.364985 132.160686 
L 166.963313 131.715665 
L 167.151836 131.780962 
L 167.740973 131.634755 
L 168.424371 131.561992 
L 170.262476 131.047021 
L 170.474565 131.048037 
L 171.134398 131.173639 
L 171.393618 131.256125 
L 171.864927 131.282634 
L 172.571891 131.38771 
L 173.420247 131.570701 
L 173.844425 131.620219 
L 174.362865 131.743583 
L 174.622085 131.814846 
L 175.164091 132.107672 
L 175.729662 132.326889 
L 176.15384 132.364507 
L 178.392558 132.285066 
L 187.017515 132.601984 
L 187.347431 132.572986 
L 197.999016 132.475255 
L 198.635284 132.522278 
L 200.119907 132.554836 
L 202.735673 132.589249 
L 212.468205 132.616565 
L 213.080907 132.613305 
L 213.528651 132.598289 
L 215.484584 132.584582 
L 216.780684 132.576728 
L 217.346255 132.562996 
L 219.632104 132.414233 
L 220.456895 132.394361 
L 221.069596 132.400039 
L 221.870822 132.383486 
L 223.308315 132.327832 
L 224.486587 132.393026 
L 225.876949 132.455521 
L 266.338835 132.347399 
L 269.590867 132.166038 
L 269.920784 132.143265 
L 271.782455 132.1779 
L 273.149251 132.257499 
L 274.516047 132.324203 
L 275.246576 132.327132 
L 276.424849 132.410598 
L 276.943289 132.410088 
L 277.555991 132.409202 
L 279.205573 132.371544 
L 279.676882 132.338134 
L 281.750642 132.218299 
L 283.447355 132.175629 
L 284.154318 132.116565 
L 284.154318 132.116565 
" clip-path="url(#p40c11ecaf3)" style="fill: none; stroke: #008000; stroke-width: 1.5; stroke-linecap: square"/>
   </g>
   <g id="line2d_37">
    <path d="M 30.825682 122.223809 
L 31.132033 122.2117 
L 31.862562 122.149213 
L 33.111531 122.091427 
L 33.794929 122.09816 
L 34.808244 122.160853 
L 36.010082 122.124754 
L 36.292867 122.166075 
L 36.905569 122.186488 
L 42.514147 122.446862 
L 43.17398 122.485612 
L 43.480331 122.436152 
L 43.786682 122.445839 
L 47.510024 122.42372 
L 47.769244 122.607475 
L 48.546904 123.679447 
L 49.112475 123.765354 
L 50.620664 126.439212 
L 53.660607 131.322772 
L 54.391136 131.478796 
L 55.050969 131.942483 
L 55.475147 131.620324 
L 58.090913 129.324062 
L 58.255871 129.167655 
L 60.2825 127.203607 
L 60.706678 127.107845 
L 61.06016 127.108602 
L 61.366511 127.093153 
L 63.110355 127.289427 
L 64.029407 127.20786 
L 64.312193 127.283945 
L 64.736371 127.237782 
L 65.160549 127.148393 
L 66.951524 127.262642 
L 68.082665 127.164199 
L 68.459713 127.168762 
L 70.604169 127.04393 
L 71.405395 127.157384 
L 72.230185 127.078188 
L 72.560102 127.003965 
L 72.748625 127.014311 
L 73.007845 127.01791 
L 73.196369 126.913566 
L 73.455589 126.880243 
L 74.162553 126.541794 
L 74.586731 126.536611 
L 74.987344 126.543403 
L 75.505784 126.742481 
L 75.882831 126.440315 
L 76.377705 126.119742 
L 76.542664 126.039426 
L 76.896145 125.923723 
L 77.980156 125.76893 
L 79.370518 125.753169 
L 80.030351 125.948908 
L 80.383833 125.887579 
L 80.878707 125.731432 
L 81.232189 125.550611 
L 81.467844 125.532181 
L 82.104111 126.036357 
L 82.269069 126.065863 
L 82.952467 126.359344 
L 83.965782 126.616913 
L 84.366395 126.649095 
L 85.309013 126.820432 
L 86.487285 126.756721 
L 86.770071 126.750358 
L 87.147118 126.773238 
L 87.429904 126.834513 
L 87.641993 126.865004 
L 87.924778 126.95759 
L 88.113302 127.040586 
L 88.301825 127.097552 
L 88.914527 127.076598 
L 89.150182 127.042967 
L 89.739318 126.458925 
L 90.210627 125.920038 
L 90.564109 125.356689 
L 91.341769 124.021145 
L 91.436031 123.899362 
L 91.64812 123.716162 
L 92.001602 123.545084 
L 92.920655 122.781805 
L 93.651184 122.031945 
L 94.617367 120.355192 
L 94.735195 120.276685 
L 95.701378 118.867865 
L 96.455473 118.507973 
L 96.973913 118.908225 
L 97.374525 119.43888 
L 98.576364 120.044849 
L 99.354024 119.244935 
L 99.613244 119.085156 
L 99.778202 119.012493 
L 99.848898 119.095811 
L 100.060987 119.296915 
L 100.508731 119.753175 
L 100.767951 120.059176 
L 101.097867 120.577227 
L 101.333522 120.968817 
L 101.569176 121.286977 
L 102.558925 122.230292 
L 102.79458 122.267353 
L 103.195193 122.085939 
L 103.57224 121.79835 
L 103.878591 121.427987 
L 104.067115 121.284176 
L 104.373465 121.141187 
L 104.514858 121.200476 
L 104.726947 121.411336 
L 105.151125 122.148207 
L 105.433911 122.490643 
L 105.787393 123.030529 
L 105.834524 122.984222 
L 105.952351 122.960668 
L 106.117309 122.946277 
L 106.42366 122.623723 
L 107.107058 122.552189 
L 107.743325 122.463498 
L 108.120373 122.463467 
L 108.733075 122.739468 
L 109.416473 123.205189 
L 110.241264 124.093657 
L 110.453353 124.120085 
L 110.736138 124.372603 
L 111.018924 124.516741 
L 111.560929 125.040215 
L 111.914411 124.977523 
L 112.150065 125.046347 
L 112.362155 125.010332 
L 113.092684 124.471445 
L 113.257642 124.308244 
L 113.493296 124.367978 
L 113.870344 124.577954 
L 113.988171 124.652266 
L 114.129564 124.651108 
L 114.318087 124.687815 
L 115.567056 125.098834 
L 115.991235 125.484426 
L 116.839591 126.440618 
L 117.028115 126.464613 
L 117.216638 126.552784 
L 117.593685 127.014512 
L 119.667445 130.624462 
L 119.9031 130.871411 
L 120.704325 131.875439 
L 120.916415 132.081712 
L 121.057807 132.130841 
L 121.434855 132.207058 
L 122.730955 132.266312 
L 124.781149 132.314755 
L 125.0875 132.451156 
L 125.323155 132.357791 
L 126.147945 132.232902 
L 126.90204 132.152612 
L 127.137695 132.173447 
L 127.986051 132.175827 
L 128.174575 132.193506 
L 131.568 132.144941 
L 132.251398 132.218253 
L 134.607944 132.314712 
L 135.008556 132.362234 
L 135.220645 132.288147 
L 135.526996 132.208784 
L 136.257525 132.004054 
L 137.082316 131.893271 
L 137.930673 131.442093 
L 138.849725 130.917036 
L 139.08538 130.777262 
L 141.536187 129.965561 
L 141.795407 130.029005 
L 142.148889 130.064201 
L 143.374293 130.389964 
L 143.704209 130.566491 
L 143.727775 130.529426 
L 143.963429 130.591588 
L 144.081256 130.552668 
L 144.434738 130.448739 
L 144.835351 130.690211 
L 145.023875 130.753871 
L 145.895796 130.990619 
L 146.272844 131.057541 
L 146.744153 131.269986 
L 147.003373 131.440829 
L 147.498247 131.546409 
L 147.89886 131.548996 
L 148.110949 131.479715 
L 148.582258 130.889704 
L 149.171395 130.85337 
L 149.996185 130.959883 
L 150.349667 131.213836 
L 150.962369 131.177054 
L 151.810725 130.996895 
L 151.975684 130.982834 
L 152.187773 130.97521 
L 152.965433 131.042587 
L 153.177522 131.068817 
L 153.554569 131.077601 
L 154.002313 131.178051 
L 154.497187 131.793554 
L 156.028942 132.073847 
L 156.335293 132.090593 
L 157.089387 132.215419 
L 157.348607 132.240192 
L 158.00844 132.453503 
L 158.738969 132.40903 
L 159.210278 132.468395 
L 160.317855 132.386341 
L 160.718467 132.301963 
L 166.162087 132.564272 
L 166.397742 132.675848 
L 167.222533 132.667831 
L 168.471502 132.646767 
L 169.390555 132.652299 
L 171.299356 132.679413 
L 172.029885 132.680043 
L 174.009384 132.738625 
L 174.952002 132.773001 
L 176.130275 132.797045 
L 179.099522 132.788193 
L 181.503198 132.445463 
L 181.998073 131.854779 
L 182.37512 131.712784 
L 182.540078 131.660217 
L 183.482696 131.630873 
L 184.990885 131.596097 
L 187.229604 131.801965 
L 188.030829 132.538883 
L 188.384311 132.598312 
L 191.400689 132.497364 
L 192.414004 132.412476 
L 193.285925 132.425347 
L 193.945758 132.443395 
L 194.794115 132.464008 
L 196.985702 132.596515 
L 197.621969 132.617535 
L 198.729545 132.603688 
L 199.672164 132.574175 
L 200.402693 132.552287 
L 203.937511 132.609977 
L 204.102469 132.630437 
L 204.809433 132.617602 
L 207.189544 132.657339 
L 207.872942 132.657013 
L 210.936451 132.677081 
L 211.855504 132.686883 
L 213.811436 132.697298 
L 214.212049 132.70987 
L 214.659793 132.7236 
L 215.390322 132.678568 
L 217.134165 132.688513 
L 217.817564 132.692865 
L 218.878009 132.693887 
L 226.418955 132.710446 
L 227.856447 132.679105 
L 229.105416 132.717674 
L 232.687365 132.687437 
L 234.266251 132.710245 
L 234.99678 132.668041 
L 236.151487 132.685727 
L 239.992656 132.674709 
L 242.419898 132.704561 
L 244.705747 132.691146 
L 247.156555 132.650964 
L 247.839953 132.643442 
L 248.240565 132.653238 
L 283.093873 132.592717 
L 284.154318 132.581929 
L 284.154318 132.581929 
" clip-path="url(#p40c11ecaf3)" style="fill: none; stroke-dasharray: 5.55,2.4; stroke-dashoffset: 0; stroke: #008000; stroke-width: 1.5"/>
   </g>
   <g id="line2d_38">
    <path d="M 51.445455 140.42 
L 51.445455 105.793333 
" clip-path="url(#p40c11ecaf3)" style="fill: none; stroke-dasharray: 5.55,2.4; stroke-dashoffset: 0; stroke: #000000; stroke-width: 1.5"/>
   </g>
   <g id="line2d_39">
    <path d="M 169.272727 140.42 
L 169.272727 105.793333 
" clip-path="url(#p40c11ecaf3)" style="fill: none; stroke-dasharray: 5.55,2.4; stroke-dashoffset: 0; stroke: #000000; stroke-width: 1.5"/>
   </g>
   <g id="patch_13">
    <path d="M 27.88 140.42 
L 27.88 105.793333 
" style="fill: none; stroke: #000000; stroke-width: 0.8; stroke-linejoin: miter; stroke-linecap: square"/>
   </g>
   <g id="patch_14">
    <path d="M 287.1 140.42 
L 287.1 105.793333 
" style="fill: none; stroke: #000000; stroke-width: 0.8; stroke-linejoin: miter; stroke-linecap: square"/>
   </g>
   <g id="patch_15">
    <path d="M 27.88 140.42 
L 287.1 140.42 
" style="fill: none; stroke: #000000; stroke-width: 0.8; stroke-linejoin: miter; stroke-linecap: square"/>
   </g>
   <g id="patch_16">
    <path d="M 27.88 105.793333 
L 287.1 105.793333 
" style="fill: none; stroke: #000000; stroke-width: 0.8; stroke-linejoin: miter; stroke-linecap: square"/>
   </g>
  </g>
 </g>
 <defs>
  <clipPath id="pf295228ea4">
   <rect x="27.88" y="8.1" width="259.22" height="34.626667"/>
  </clipPath>
  <clipPath id="pdd5e07aa49">
   <rect x="27.88" y="56.946667" width="259.22" height="34.626667"/>
  </clipPath>
  <clipPath id="p40c11ecaf3">
   <rect x="27.88" y="105.793333" width="259.22" height="34.626667"/>
  </clipPath>
 </defs>
</svg>
