<?xml version="1.0" encoding="utf-8" standalone="no"?>
<!DOCTYPE svg PUBLIC "-//W3C//DTD SVG 1.1//EN"
  "http://www.w3.org/Graphics/SVG/1.1/DTD/svg11.dtd">
<svg xmlns:xlink="http://www.w3.org/1999/xlink" width="345.6pt" height="345.6pt" viewBox="0 0 345.6 345.6" xmlns="http://www.w3.org/2000/svg" version="1.1">
 <metadata>
  <rdf:RDF xmlns:dc="http://purl.org/dc/elements/1.1/" xmlns:cc="http://creativecommons.org/ns#" xmlns:rdf="http://www.w3.org/1999/02/22-rdf-syntax-ns#">
   <cc:Work>
    <dc:type rdf:resource="http://purl.org/dc/dcmitype/StillImage"/>
    <dc:date>2024-08-31T18:46:05.377913</dc:date>
    <dc:format>image/svg+xml</dc:format>
    <dc:creator>
     <cc:Agent>
      <dc:title>Matplotlib v3.8.2, https://matplotlib.org/</dc:title>
     </cc:Agent>
    </dc:creator>
   </cc:Work>
  </rdf:RDF>
 </metadata>
 <defs>
  <style type="text/css">*{stroke-linejoin: round; stroke-linecap: butt}</style>
 </defs>
 <g id="figure_1">
  <g id="patch_1">
   <path d="M 0 345.6 
L 345.6 345.6 
L 345.6 0 
L 0 0 
z
" style="fill: #ffffff"/>
  </g>
  <g id="axes_1">
   <g id="patch_2">
    <path d="M 43.2 307.584 
L 311.04 307.584 
L 311.04 41.472 
L 43.2 41.472 
z
" style="fill: #ffffff"/>
   </g>
   <g id="PathCollection_1">
    <defs>
     <path id="C0_0_b08699cc52" d="M 0 3 
C 0.795609 3 1.55874 2.683901 2.12132 2.12132 
C 2.683901 1.55874 3 0.795609 3 -0 
C 3 -0.795609 2.683901 -1.55874 2.12132 -2.12132 
C 1.55874 -2.683901 0.795609 -3 0 -3 
C -0.795609 -3 -1.55874 -2.683901 -2.12132 -2.12132 
C -2.683901 -1.55874 -3 -0.795609 -3 0 
C -3 0.795609 -2.683901 1.55874 -2.12132 2.12132 
C -1.55874 2.683901 -0.795609 3 0 3 
z
"/>
    </defs>
    <g clip-path="url(#pad093957fd)">
     <use xlink:href="#C0_0_b08699cc52" x="137.261253" y="205.463198" style="fill: none; stroke: #000000"/>
    </g>
    <g clip-path="url(#pad093957fd)">
     <use xlink:href="#C0_0_b08699cc52" x="127.012632" y="201.261436" style="fill: none; stroke: #000000"/>
    </g>
    <g clip-path="url(#pad093957fd)">
     <use xlink:href="#C0_0_b08699cc52" x="127.337929" y="204.158923" style="fill: none; stroke: #000000"/>
    </g>
    <g clip-path="url(#pad093957fd)">
     <use xlink:href="#C0_0_b08699cc52" x="129.813328" y="203.273147" style="fill: none; stroke: #000000"/>
    </g>
    <g clip-path="url(#pad093957fd)">
     <use xlink:href="#C0_0_b08699cc52" x="132.086023" y="209.470754" style="fill: none; stroke: #000000"/>
    </g>
    <g clip-path="url(#pad093957fd)">
     <use xlink:href="#C0_0_b08699cc52" x="132.788385" y="208.279512" style="fill: none; stroke: #000000"/>
    </g>
    <g clip-path="url(#pad093957fd)">
     <use xlink:href="#C0_0_b08699cc52" x="136.711046" y="208.090915" style="fill: none; stroke: #000000"/>
    </g>
    <g clip-path="url(#pad093957fd)">
     <use xlink:href="#C0_0_b08699cc52" x="134.024649" y="203.637469" style="fill: none; stroke: #000000"/>
    </g>
    <g clip-path="url(#pad093957fd)">
     <use xlink:href="#C0_0_b08699cc52" x="131.228348" y="210.573014" style="fill: none; stroke: #000000"/>
    </g>
   </g>
   <g id="PathCollection_2">
    <defs>
     <path id="C1_0_2a9ab2cff6" d="M -3 3 
L 3 3 
L 3 -3 
L -3 -3 
z
"/>
    </defs>
    <g clip-path="url(#pad093957fd)">
     <use xlink:href="#C1_0_2a9ab2cff6" x="127.685004" y="204.399896" style="fill: none; stroke: #000000"/>
    </g>
    <g clip-path="url(#pad093957fd)">
     <use xlink:href="#C1_0_2a9ab2cff6" x="125.553715" y="202.018114" style="fill: none; stroke: #000000"/>
    </g>
    <g clip-path="url(#pad093957fd)">
     <use xlink:href="#C1_0_2a9ab2cff6" x="116.658533" y="186.179661" style="fill: none; stroke: #000000"/>
    </g>
    <g clip-path="url(#pad093957fd)">
     <use xlink:href="#C1_0_2a9ab2cff6" x="115.795126" y="187.451672" style="fill: none; stroke: #000000"/>
    </g>
    <g clip-path="url(#pad093957fd)">
     <use xlink:href="#C1_0_2a9ab2cff6" x="135.335617" y="204.151793" style="fill: none; stroke: #000000"/>
    </g>
    <g clip-path="url(#pad093957fd)">
     <use xlink:href="#C1_0_2a9ab2cff6" x="113.516027" y="175.557381" style="fill: none; stroke: #000000"/>
    </g>
    <g clip-path="url(#pad093957fd)">
     <use xlink:href="#C1_0_2a9ab2cff6" x="133.309106" y="58.511877" style="fill: none; stroke: #000000"/>
    </g>
    <g clip-path="url(#pad093957fd)">
     <use xlink:href="#C1_0_2a9ab2cff6" x="128.888758" y="69.932647" style="fill: none; stroke: #000000"/>
    </g>
    <g clip-path="url(#pad093957fd)">
     <use xlink:href="#C1_0_2a9ab2cff6" x="106.988595" y="72.986414" style="fill: none; stroke: #000000"/>
    </g>
   </g>
   <g id="PathCollection_3">
    <defs>
     <path id="C2_0_87ffa97a8c" d="M 0 3 
C 0.795609 3 1.55874 2.683901 2.12132 2.12132 
C 2.683901 1.55874 3 0.795609 3 -0 
C 3 -0.795609 2.683901 -1.55874 2.12132 -2.12132 
C 1.55874 -2.683901 0.795609 -3 0 -3 
C -0.795609 -3 -1.55874 -2.683901 -2.12132 -2.12132 
C -2.683901 -1.55874 -3 -0.795609 -3 0 
C -3 0.795609 -2.683901 1.55874 -2.12132 2.12132 
C -1.55874 2.683901 -0.795609 3 0 3 
z
"/>
    </defs>
    <g clip-path="url(#pad093957fd)">
     <use xlink:href="#C2_0_87ffa97a8c" x="121.196737" y="194.718542" style="fill: none; stroke: #bf00bf"/>
    </g>
    <g clip-path="url(#pad093957fd)">
     <use xlink:href="#C2_0_87ffa97a8c" x="119.452148" y="194.9143" style="fill: none; stroke: #bf00bf"/>
    </g>
    <g clip-path="url(#pad093957fd)">
     <use xlink:href="#C2_0_87ffa97a8c" x="134.702877" y="209.335841" style="fill: none; stroke: #bf00bf"/>
    </g>
    <g clip-path="url(#pad093957fd)">
     <use xlink:href="#C2_0_87ffa97a8c" x="134.153654" y="204.701286" style="fill: none; stroke: #bf00bf"/>
    </g>
    <g clip-path="url(#pad093957fd)">
     <use xlink:href="#C2_0_87ffa97a8c" x="139.860686" y="208.146701" style="fill: none; stroke: #bf00bf"/>
    </g>
    <g clip-path="url(#pad093957fd)">
     <use xlink:href="#C2_0_87ffa97a8c" x="120.592582" y="187.463684" style="fill: none; stroke: #bf00bf"/>
    </g>
    <g clip-path="url(#pad093957fd)">
     <use xlink:href="#C2_0_87ffa97a8c" x="231.803242" y="108.292826" style="fill: none; stroke: #bf00bf"/>
    </g>
    <g clip-path="url(#pad093957fd)">
     <use xlink:href="#C2_0_87ffa97a8c" x="112.374066" y="93.560393" style="fill: none; stroke: #bf00bf"/>
    </g>
    <g clip-path="url(#pad093957fd)">
     <use xlink:href="#C2_0_87ffa97a8c" x="106.721163" y="78.282834" style="fill: none; stroke: #bf00bf"/>
    </g>
   </g>
   <g id="PathCollection_4">
    <defs>
     <path id="C3_0_5889faabc2" d="M -3 3 
L 3 3 
L 3 -3 
L -3 -3 
z
"/>
    </defs>
    <g clip-path="url(#pad093957fd)">
     <use xlink:href="#C3_0_5889faabc2" x="131.114676" y="190.920885" style="fill: none; stroke: #bf00bf"/>
    </g>
    <g clip-path="url(#pad093957fd)">
     <use xlink:href="#C3_0_5889faabc2" x="120.393533" y="187.23718" style="fill: none; stroke: #bf00bf"/>
    </g>
    <g clip-path="url(#pad093957fd)">
     <use xlink:href="#C3_0_5889faabc2" x="133.977616" y="204.990394" style="fill: none; stroke: #bf00bf"/>
    </g>
    <g clip-path="url(#pad093957fd)">
     <use xlink:href="#C3_0_5889faabc2" x="134.091123" y="205.794909" style="fill: none; stroke: #bf00bf"/>
    </g>
    <g clip-path="url(#pad093957fd)">
     <use xlink:href="#C3_0_5889faabc2" x="126.191693" y="201.209637" style="fill: none; stroke: #bf00bf"/>
    </g>
    <g clip-path="url(#pad093957fd)">
     <use xlink:href="#C3_0_5889faabc2" x="121.513474" y="188.273356" style="fill: none; stroke: #bf00bf"/>
    </g>
    <g clip-path="url(#pad093957fd)">
     <use xlink:href="#C3_0_5889faabc2" x="231.494916" y="118.382449" style="fill: none; stroke: #bf00bf"/>
    </g>
    <g clip-path="url(#pad093957fd)">
     <use xlink:href="#C3_0_5889faabc2" x="129.721535" y="73.071241" style="fill: none; stroke: #bf00bf"/>
    </g>
    <g clip-path="url(#pad093957fd)">
     <use xlink:href="#C3_0_5889faabc2" x="110.87942" y="65.829692" style="fill: none; stroke: #bf00bf"/>
    </g>
   </g>
   <g id="PathCollection_5">
    <defs>
     <path id="C4_0_d9483cb8d4" d="M 0 3 
C 0.795609 3 1.55874 2.683901 2.12132 2.12132 
C 2.683901 1.55874 3 0.795609 3 -0 
C 3 -0.795609 2.683901 -1.55874 2.12132 -2.12132 
C 1.55874 -2.683901 0.795609 -3 0 -3 
C -0.795609 -3 -1.55874 -2.683901 -2.12132 -2.12132 
C -2.683901 -1.55874 -3 -0.795609 -3 0 
C -3 0.795609 -2.683901 1.55874 -2.12132 2.12132 
C -1.55874 2.683901 -0.795609 3 0 3 
z
"/>
    </defs>
    <g clip-path="url(#pad093957fd)">
     <use xlink:href="#C4_0_d9483cb8d4" x="117.072387" y="184.741846" style="fill: none; stroke: #008000"/>
    </g>
    <g clip-path="url(#pad093957fd)">
     <use xlink:href="#C4_0_d9483cb8d4" x="126.761336" y="200.482981" style="fill: none; stroke: #008000"/>
    </g>
    <g clip-path="url(#pad093957fd)">
     <use xlink:href="#C4_0_d9483cb8d4" x="119.929941" y="204.274194" style="fill: none; stroke: #008000"/>
    </g>
    <g clip-path="url(#pad093957fd)">
     <use xlink:href="#C4_0_d9483cb8d4" x="131.848231" y="207.760285" style="fill: none; stroke: #008000"/>
    </g>
    <g clip-path="url(#pad093957fd)">
     <use xlink:href="#C4_0_d9483cb8d4" x="134.545024" y="211.103579" style="fill: none; stroke: #008000"/>
    </g>
    <g clip-path="url(#pad093957fd)">
     <use xlink:href="#C4_0_d9483cb8d4" x="117.856793" y="194.482873" style="fill: none; stroke: #008000"/>
    </g>
    <g clip-path="url(#pad093957fd)">
     <use xlink:href="#C4_0_d9483cb8d4" x="101.644794" y="190.147754" style="fill: none; stroke: #008000"/>
    </g>
    <g clip-path="url(#pad093957fd)">
     <use xlink:href="#C4_0_d9483cb8d4" x="131.234443" y="205.88124" style="fill: none; stroke: #008000"/>
    </g>
    <g clip-path="url(#pad093957fd)">
     <use xlink:href="#C4_0_d9483cb8d4" x="112.19354" y="175.613283" style="fill: none; stroke: #008000"/>
    </g>
   </g>
   <g id="PathCollection_6">
    <defs>
     <path id="C5_0_0cfb709b56" d="M -3 3 
L 3 3 
L 3 -3 
L -3 -3 
z
"/>
    </defs>
    <g clip-path="url(#pad093957fd)">
     <use xlink:href="#C5_0_0cfb709b56" x="121.495592" y="198.402438" style="fill: none; stroke: #008000"/>
    </g>
    <g clip-path="url(#pad093957fd)">
     <use xlink:href="#C5_0_0cfb709b56" x="125.625067" y="207.995792" style="fill: none; stroke: #008000"/>
    </g>
    <g clip-path="url(#pad093957fd)">
     <use xlink:href="#C5_0_0cfb709b56" x="134.90725" y="208.194371" style="fill: none; stroke: #008000"/>
    </g>
    <g clip-path="url(#pad093957fd)">
     <use xlink:href="#C5_0_0cfb709b56" x="125.62868" y="198.133254" style="fill: none; stroke: #008000"/>
    </g>
    <g clip-path="url(#pad093957fd)">
     <use xlink:href="#C5_0_0cfb709b56" x="121.275922" y="203.055586" style="fill: none; stroke: #008000"/>
    </g>
    <g clip-path="url(#pad093957fd)">
     <use xlink:href="#C5_0_0cfb709b56" x="139.220154" y="208.582175" style="fill: none; stroke: #008000"/>
    </g>
    <g clip-path="url(#pad093957fd)">
     <use xlink:href="#C5_0_0cfb709b56" x="126.240918" y="200.890514" style="fill: none; stroke: #008000"/>
    </g>
    <g clip-path="url(#pad093957fd)">
     <use xlink:href="#C5_0_0cfb709b56" x="131.981209" y="209.320699" style="fill: none; stroke: #008000"/>
    </g>
    <g clip-path="url(#pad093957fd)">
     <use xlink:href="#C5_0_0cfb709b56" x="117.088348" y="187.774853" style="fill: none; stroke: #008000"/>
    </g>
   </g>
   <g id="matplotlib.axis_1">
    <g id="xtick_1">
     <g id="line2d_1">
      <defs>
       <path id="m1863e03a34" d="M 0 0 
L 0 3.5 
" style="stroke: #000000; stroke-width: 0.8"/>
      </defs>
      <g>
       <use xlink:href="#m1863e03a34" x="43.2" y="307.584" style="stroke: #000000; stroke-width: 0.8"/>
      </g>
     </g>
     <g id="text_1">
      <!-- -180$\degree$ -->
      <g transform="translate(29.35 322.182437) scale(0.1 -0.1)">
       <defs>
        <path id="DejaVuSans-2d" d="M 313 2009 
L 1997 2009 
L 1997 1497 
L 313 1497 
L 313 2009 
z
" transform="scale(0.015625)"/>
        <path id="DejaVuSans-31" d="M 794 531 
L 1825 531 
L 1825 4091 
L 703 3866 
L 703 4441 
L 1819 4666 
L 2450 4666 
L 2450 531 
L 3481 531 
L 3481 0 
L 794 0 
L 794 531 
z
" transform="scale(0.015625)"/>
        <path id="DejaVuSans-38" d="M 2034 2216 
Q 1584 2216 1326 1975 
Q 1069 1734 1069 1313 
Q 1069 891 1326 650 
Q 1584 409 2034 409 
Q 2484 409 2743 651 
Q 3003 894 3003 1313 
Q 3003 1734 2745 1975 
Q 2488 2216 2034 2216 
z
M 1403 2484 
Q 997 2584 770 2862 
Q 544 3141 544 3541 
Q 544 4100 942 4425 
Q 1341 4750 2034 4750 
Q 2731 4750 3128 4425 
Q 3525 4100 3525 3541 
Q 3525 3141 3298 2862 
Q 3072 2584 2669 2484 
Q 3125 2378 3379 2068 
Q 3634 1759 3634 1313 
Q 3634 634 3220 271 
Q 2806 -91 2034 -91 
Q 1263 -91 848 271 
Q 434 634 434 1313 
Q 434 1759 690 2068 
Q 947 2378 1403 2484 
z
M 1172 3481 
Q 1172 3119 1398 2916 
Q 1625 2713 2034 2713 
Q 2441 2713 2670 2916 
Q 2900 3119 2900 3481 
Q 2900 3844 2670 4047 
Q 2441 4250 2034 4250 
Q 1625 4250 1398 4047 
Q 1172 3844 1172 3481 
z
" transform="scale(0.015625)"/>
        <path id="DejaVuSans-30" d="M 2034 4250 
Q 1547 4250 1301 3770 
Q 1056 3291 1056 2328 
Q 1056 1369 1301 889 
Q 1547 409 2034 409 
Q 2525 409 2770 889 
Q 3016 1369 3016 2328 
Q 3016 3291 2770 3770 
Q 2525 4250 2034 4250 
z
M 2034 4750 
Q 2819 4750 3233 4129 
Q 3647 3509 3647 2328 
Q 3647 1150 3233 529 
Q 2819 -91 2034 -91 
Q 1250 -91 836 529 
Q 422 1150 422 2328 
Q 422 3509 836 4129 
Q 1250 4750 2034 4750 
z
" transform="scale(0.015625)"/>
        <path id="DejaVuSans-b0" d="M 1600 4347 
Q 1350 4347 1178 4173 
Q 1006 4000 1006 3750 
Q 1006 3503 1178 3333 
Q 1350 3163 1600 3163 
Q 1850 3163 2022 3333 
Q 2194 3503 2194 3750 
Q 2194 3997 2020 4172 
Q 1847 4347 1600 4347 
z
M 1600 4750 
Q 1800 4750 1984 4673 
Q 2169 4597 2303 4453 
Q 2447 4313 2519 4134 
Q 2591 3956 2591 3750 
Q 2591 3338 2302 3052 
Q 2013 2766 1594 2766 
Q 1172 2766 890 3047 
Q 609 3328 609 3750 
Q 609 4169 896 4459 
Q 1184 4750 1600 4750 
z
" transform="scale(0.015625)"/>
       </defs>
       <use xlink:href="#DejaVuSans-2d" transform="translate(0 0.78125)"/>
       <use xlink:href="#DejaVuSans-31" transform="translate(36.083984 0.78125)"/>
       <use xlink:href="#DejaVuSans-38" transform="translate(99.707031 0.78125)"/>
       <use xlink:href="#DejaVuSans-30" transform="translate(163.330078 0.78125)"/>
       <use xlink:href="#DejaVuSans-b0" transform="translate(226.953125 0.78125)"/>
      </g>
     </g>
    </g>
    <g id="xtick_2">
     <g id="line2d_2">
      <g>
       <use xlink:href="#m1863e03a34" x="87.84" y="307.584" style="stroke: #000000; stroke-width: 0.8"/>
      </g>
     </g>
     <g id="text_2">
      <!-- -120$\degree$ -->
      <g transform="translate(73.99 322.182437) scale(0.1 -0.1)">
       <defs>
        <path id="DejaVuSans-32" d="M 1228 531 
L 3431 531 
L 3431 0 
L 469 0 
L 469 531 
Q 828 903 1448 1529 
Q 2069 2156 2228 2338 
Q 2531 2678 2651 2914 
Q 2772 3150 2772 3378 
Q 2772 3750 2511 3984 
Q 2250 4219 1831 4219 
Q 1534 4219 1204 4116 
Q 875 4013 500 3803 
L 500 4441 
Q 881 4594 1212 4672 
Q 1544 4750 1819 4750 
Q 2544 4750 2975 4387 
Q 3406 4025 3406 3419 
Q 3406 3131 3298 2873 
Q 3191 2616 2906 2266 
Q 2828 2175 2409 1742 
Q 1991 1309 1228 531 
z
" transform="scale(0.015625)"/>
       </defs>
       <use xlink:href="#DejaVuSans-2d" transform="translate(0 0.78125)"/>
       <use xlink:href="#DejaVuSans-31" transform="translate(36.083984 0.78125)"/>
       <use xlink:href="#DejaVuSans-32" transform="translate(99.707031 0.78125)"/>
       <use xlink:href="#DejaVuSans-30" transform="translate(163.330078 0.78125)"/>
       <use xlink:href="#DejaVuSans-b0" transform="translate(226.953125 0.78125)"/>
      </g>
     </g>
    </g>
    <g id="xtick_3">
     <g id="line2d_3">
      <g>
       <use xlink:href="#m1863e03a34" x="132.48" y="307.584" style="stroke: #000000; stroke-width: 0.8"/>
      </g>
     </g>
     <g id="text_3">
      <!-- -60$\degree$ -->
      <g transform="translate(121.78 322.182437) scale(0.1 -0.1)">
       <defs>
        <path id="DejaVuSans-36" d="M 2113 2584 
Q 1688 2584 1439 2293 
Q 1191 2003 1191 1497 
Q 1191 994 1439 701 
Q 1688 409 2113 409 
Q 2538 409 2786 701 
Q 3034 994 3034 1497 
Q 3034 2003 2786 2293 
Q 2538 2584 2113 2584 
z
M 3366 4563 
L 3366 3988 
Q 3128 4100 2886 4159 
Q 2644 4219 2406 4219 
Q 1781 4219 1451 3797 
Q 1122 3375 1075 2522 
Q 1259 2794 1537 2939 
Q 1816 3084 2150 3084 
Q 2853 3084 3261 2657 
Q 3669 2231 3669 1497 
Q 3669 778 3244 343 
Q 2819 -91 2113 -91 
Q 1303 -91 875 529 
Q 447 1150 447 2328 
Q 447 3434 972 4092 
Q 1497 4750 2381 4750 
Q 2619 4750 2861 4703 
Q 3103 4656 3366 4563 
z
" transform="scale(0.015625)"/>
       </defs>
       <use xlink:href="#DejaVuSans-2d" transform="translate(0 0.78125)"/>
       <use xlink:href="#DejaVuSans-36" transform="translate(36.083984 0.78125)"/>
       <use xlink:href="#DejaVuSans-30" transform="translate(99.707031 0.78125)"/>
       <use xlink:href="#DejaVuSans-b0" transform="translate(163.330078 0.78125)"/>
      </g>
     </g>
    </g>
    <g id="xtick_4">
     <g id="line2d_4">
      <g>
       <use xlink:href="#m1863e03a34" x="177.12" y="307.584" style="stroke: #000000; stroke-width: 0.8"/>
      </g>
     </g>
     <g id="text_4">
      <!-- 0$\degree$ -->
      <g transform="translate(171.42 322.182437) scale(0.1 -0.1)">
       <use xlink:href="#DejaVuSans-30" transform="translate(0 0.78125)"/>
       <use xlink:href="#DejaVuSans-b0" transform="translate(63.623047 0.78125)"/>
      </g>
     </g>
    </g>
    <g id="xtick_5">
     <g id="line2d_5">
      <g>
       <use xlink:href="#m1863e03a34" x="221.76" y="307.584" style="stroke: #000000; stroke-width: 0.8"/>
      </g>
     </g>
     <g id="text_5">
      <!-- 60$\degree$ -->
      <g transform="translate(212.86 322.182437) scale(0.1 -0.1)">
       <use xlink:href="#DejaVuSans-36" transform="translate(0 0.78125)"/>
       <use xlink:href="#DejaVuSans-30" transform="translate(63.623047 0.78125)"/>
       <use xlink:href="#DejaVuSans-b0" transform="translate(127.246094 0.78125)"/>
      </g>
     </g>
    </g>
    <g id="xtick_6">
     <g id="line2d_6">
      <g>
       <use xlink:href="#m1863e03a34" x="266.4" y="307.584" style="stroke: #000000; stroke-width: 0.8"/>
      </g>
     </g>
     <g id="text_6">
      <!-- 120$\degree$ -->
      <g transform="translate(254.35 322.182437) scale(0.1 -0.1)">
       <use xlink:href="#DejaVuSans-31" transform="translate(0 0.78125)"/>
       <use xlink:href="#DejaVuSans-32" transform="translate(63.623047 0.78125)"/>
       <use xlink:href="#DejaVuSans-30" transform="translate(127.246094 0.78125)"/>
       <use xlink:href="#DejaVuSans-b0" transform="translate(190.869141 0.78125)"/>
      </g>
     </g>
    </g>
    <g id="xtick_7">
     <g id="line2d_7">
      <g>
       <use xlink:href="#m1863e03a34" x="311.04" y="307.584" style="stroke: #000000; stroke-width: 0.8"/>
      </g>
     </g>
     <g id="text_7">
      <!-- 180$\degree$ -->
      <g transform="translate(298.99 322.182437) scale(0.1 -0.1)">
       <use xlink:href="#DejaVuSans-31" transform="translate(0 0.78125)"/>
       <use xlink:href="#DejaVuSans-38" transform="translate(63.623047 0.78125)"/>
       <use xlink:href="#DejaVuSans-30" transform="translate(127.246094 0.78125)"/>
       <use xlink:href="#DejaVuSans-b0" transform="translate(190.869141 0.78125)"/>
      </g>
     </g>
    </g>
    <g id="text_8">
     <!-- $\phi$ -->
     <g transform="translate(173.82 335.862125) scale(0.1 -0.1)">
      <defs>
       <path id="DejaVuSans-Oblique-3d5" d="M 2991 4863 
L 2738 3572 
Q 3363 3572 3684 3094 
Q 4016 2606 3850 1747 
Q 3681 888 3159 400 
Q 2653 -78 2028 -78 
L 1784 -1331 
L 1213 -1331 
L 1456 -78 
Q 834 -78 509 400 
Q 178 888 347 1747 
Q 513 2606 1034 3094 
Q 1544 3572 2166 3572 
L 2419 4863 
L 2991 4863 
z
M 2128 434 
Q 2481 434 2784 756 
Q 3116 1116 3244 1747 
Q 3369 2372 3169 2738 
Q 2991 3059 2638 3059 
L 2128 434 
z
M 1556 434 
L 2066 3059 
Q 1716 3059 1413 2738 
Q 1072 2372 953 1747 
Q 834 1116 1028 756 
Q 1203 434 1556 434 
z
" transform="scale(0.015625)"/>
      </defs>
      <use xlink:href="#DejaVuSans-Oblique-3d5" transform="translate(0 0.015625)"/>
     </g>
    </g>
   </g>
   <g id="matplotlib.axis_2">
    <g id="ytick_1">
     <g id="line2d_8">
      <defs>
       <path id="me018d8ed90" d="M 0 0 
L -3.5 0 
" style="stroke: #000000; stroke-width: 0.8"/>
      </defs>
      <g>
       <use xlink:href="#me018d8ed90" x="43.2" y="307.584" style="stroke: #000000; stroke-width: 0.8"/>
      </g>
     </g>
     <g id="text_9">
      <!-- -180$\degree$ -->
      <g transform="translate(8.5 311.383219) scale(0.1 -0.1)">
       <use xlink:href="#DejaVuSans-2d" transform="translate(0 0.78125)"/>
       <use xlink:href="#DejaVuSans-31" transform="translate(36.083984 0.78125)"/>
       <use xlink:href="#DejaVuSans-38" transform="translate(99.707031 0.78125)"/>
       <use xlink:href="#DejaVuSans-30" transform="translate(163.330078 0.78125)"/>
       <use xlink:href="#DejaVuSans-b0" transform="translate(226.953125 0.78125)"/>
      </g>
     </g>
    </g>
    <g id="ytick_2">
     <g id="line2d_9">
      <g>
       <use xlink:href="#me018d8ed90" x="43.2" y="263.232" style="stroke: #000000; stroke-width: 0.8"/>
      </g>
     </g>
     <g id="text_10">
      <!-- -120$\degree$ -->
      <g transform="translate(8.5 267.031219) scale(0.1 -0.1)">
       <use xlink:href="#DejaVuSans-2d" transform="translate(0 0.78125)"/>
       <use xlink:href="#DejaVuSans-31" transform="translate(36.083984 0.78125)"/>
       <use xlink:href="#DejaVuSans-32" transform="translate(99.707031 0.78125)"/>
       <use xlink:href="#DejaVuSans-30" transform="translate(163.330078 0.78125)"/>
       <use xlink:href="#DejaVuSans-b0" transform="translate(226.953125 0.78125)"/>
      </g>
     </g>
    </g>
    <g id="ytick_3">
     <g id="line2d_10">
      <g>
       <use xlink:href="#me018d8ed90" x="43.2" y="218.88" style="stroke: #000000; stroke-width: 0.8"/>
      </g>
     </g>
     <g id="text_11">
      <!-- -60$\degree$ -->
      <g transform="translate(14.8 222.679219) scale(0.1 -0.1)">
       <use xlink:href="#DejaVuSans-2d" transform="translate(0 0.78125)"/>
       <use xlink:href="#DejaVuSans-36" transform="translate(36.083984 0.78125)"/>
       <use xlink:href="#DejaVuSans-30" transform="translate(99.707031 0.78125)"/>
       <use xlink:href="#DejaVuSans-b0" transform="translate(163.330078 0.78125)"/>
      </g>
     </g>
    </g>
    <g id="ytick_4">
     <g id="line2d_11">
      <g>
       <use xlink:href="#me018d8ed90" x="43.2" y="174.528" style="stroke: #000000; stroke-width: 0.8"/>
      </g>
     </g>
     <g id="text_12">
      <!-- 0$\degree$ -->
      <g transform="translate(24.8 178.327219) scale(0.1 -0.1)">
       <use xlink:href="#DejaVuSans-30" transform="translate(0 0.78125)"/>
       <use xlink:href="#DejaVuSans-b0" transform="translate(63.623047 0.78125)"/>
      </g>
     </g>
    </g>
    <g id="ytick_5">
     <g id="line2d_12">
      <g>
       <use xlink:href="#me018d8ed90" x="43.2" y="130.176" style="stroke: #000000; stroke-width: 0.8"/>
      </g>
     </g>
     <g id="text_13">
      <!-- 60$\degree$ -->
      <g transform="translate(18.4 133.975219) scale(0.1 -0.1)">
       <use xlink:href="#DejaVuSans-36" transform="translate(0 0.78125)"/>
       <use xlink:href="#DejaVuSans-30" transform="translate(63.623047 0.78125)"/>
       <use xlink:href="#DejaVuSans-b0" transform="translate(127.246094 0.78125)"/>
      </g>
     </g>
    </g>
    <g id="ytick_6">
     <g id="line2d_13">
      <g>
       <use xlink:href="#me018d8ed90" x="43.2" y="85.824" style="stroke: #000000; stroke-width: 0.8"/>
      </g>
     </g>
     <g id="text_14">
      <!-- 120$\degree$ -->
      <g transform="translate(12.1 89.623219) scale(0.1 -0.1)">
       <use xlink:href="#DejaVuSans-31" transform="translate(0 0.78125)"/>
       <use xlink:href="#DejaVuSans-32" transform="translate(63.623047 0.78125)"/>
       <use xlink:href="#DejaVuSans-30" transform="translate(127.246094 0.78125)"/>
       <use xlink:href="#DejaVuSans-b0" transform="translate(190.869141 0.78125)"/>
      </g>
     </g>
    </g>
    <g id="ytick_7">
     <g id="line2d_14">
      <g>
       <use xlink:href="#me018d8ed90" x="43.2" y="41.472" style="stroke: #000000; stroke-width: 0.8"/>
      </g>
     </g>
     <g id="text_15">
      <!-- 180$\degree$ -->
      <g transform="translate(12.1 45.271219) scale(0.1 -0.1)">
       <use xlink:href="#DejaVuSans-31" transform="translate(0 0.78125)"/>
       <use xlink:href="#DejaVuSans-38" transform="translate(63.623047 0.78125)"/>
       <use xlink:href="#DejaVuSans-30" transform="translate(127.246094 0.78125)"/>
       <use xlink:href="#DejaVuSans-b0" transform="translate(190.869141 0.78125)"/>
      </g>
     </g>
    </g>
    <g id="text_16">
     <!-- $\psi$ -->
     <g transform="translate(2.4 177.828) rotate(-90) scale(0.1 -0.1)">
      <defs>
       <path id="DejaVuSans-Oblique-3c8" d="M 1591 -78 
Q 891 38 616 341 
Q 278 713 425 1472 
L 819 3500 
L 1400 3500 
L 1009 1494 
Q 900 922 1119 684 
Q 1313 478 1691 434 
L 2284 3500 
L 2856 3500 
L 2263 438 
Q 2681 481 2928 688 
Q 3247 950 3353 1497 
L 3741 3500 
L 4322 3500 
L 3928 1475 
Q 3775 688 3300 344 
Q 2872 34 2163 -75 
L 1919 -1331 
L 1347 -1331 
L 1591 -78 
z
" transform="scale(0.015625)"/>
      </defs>
      <use xlink:href="#DejaVuSans-Oblique-3c8" transform="translate(0 0.3125)"/>
     </g>
    </g>
   </g>
   <g id="line2d_15">
    <path d="M 43.2 174.528 
L 311.04 174.528 
" clip-path="url(#pad093957fd)" style="fill: none; stroke: #000000; stroke-linecap: square"/>
   </g>
   <g id="line2d_16">
    <path d="M 177.12 307.584 
L 177.12 41.472 
" clip-path="url(#pad093957fd)" style="fill: none; stroke: #000000; stroke-linecap: square"/>
   </g>
   <g id="line2d_17">
    <path d="M 43.2 174.528 
L 311.04 174.528 
" clip-path="url(#pad093957fd)" style="fill: none; stroke: #000000; stroke-linecap: square"/>
   </g>
   <g id="line2d_18">
    <path d="M 177.12 307.584 
L 177.12 41.472 
" clip-path="url(#pad093957fd)" style="fill: none; stroke: #000000; stroke-linecap: square"/>
   </g>
   <g id="line2d_19">
    <path d="M 43.2 174.528 
L 311.04 174.528 
" clip-path="url(#pad093957fd)" style="fill: none; stroke: #000000; stroke-linecap: square"/>
   </g>
   <g id="line2d_20">
    <path d="M 177.12 307.584 
L 177.12 41.472 
" clip-path="url(#pad093957fd)" style="fill: none; stroke: #000000; stroke-linecap: square"/>
   </g>
   <g id="line2d_21">
    <path d="M 43.2 174.528 
L 311.04 174.528 
" clip-path="url(#pad093957fd)" style="fill: none; stroke: #000000; stroke-linecap: square"/>
   </g>
   <g id="line2d_22">
    <path d="M 177.12 307.584 
L 177.12 41.472 
" clip-path="url(#pad093957fd)" style="fill: none; stroke: #000000; stroke-linecap: square"/>
   </g>
   <g id="line2d_23">
    <path d="M 43.2 174.528 
L 311.04 174.528 
" clip-path="url(#pad093957fd)" style="fill: none; stroke: #000000; stroke-linecap: square"/>
   </g>
   <g id="line2d_24">
    <path d="M 177.12 307.584 
L 177.12 41.472 
" clip-path="url(#pad093957fd)" style="fill: none; stroke: #000000; stroke-linecap: square"/>
   </g>
   <g id="line2d_25">
    <path d="M 43.2 174.528 
L 311.04 174.528 
" clip-path="url(#pad093957fd)" style="fill: none; stroke: #000000; stroke-linecap: square"/>
   </g>
   <g id="line2d_26">
    <path d="M 177.12 307.584 
L 177.12 41.472 
" clip-path="url(#pad093957fd)" style="fill: none; stroke: #000000; stroke-linecap: square"/>
   </g>
   <g id="patch_3">
    <path d="M 43.2 307.584 
L 43.2 41.472 
" style="fill: none; stroke: #000000; stroke-width: 0.8; stroke-linejoin: miter; stroke-linecap: square"/>
   </g>
   <g id="patch_4">
    <path d="M 311.04 307.584 
L 311.04 41.472 
" style="fill: none; stroke: #000000; stroke-width: 0.8; stroke-linejoin: miter; stroke-linecap: square"/>
   </g>
   <g id="patch_5">
    <path d="M 43.2 307.584 
L 311.04 307.584 
" style="fill: none; stroke: #000000; stroke-width: 0.8; stroke-linejoin: miter; stroke-linecap: square"/>
   </g>
   <g id="patch_6">
    <path d="M 43.2 41.472 
L 311.04 41.472 
" style="fill: none; stroke: #000000; stroke-width: 0.8; stroke-linejoin: miter; stroke-linecap: square"/>
   </g>
   <g id="text_17">
    <!-- FtsBᴴ dihedral angles -->
    <g transform="translate(113.056875 35.472) scale(0.12 -0.12)">
     <defs>
      <path id="DejaVuSans-46" d="M 628 4666 
L 3309 4666 
L 3309 4134 
L 1259 4134 
L 1259 2759 
L 3109 2759 
L 3109 2228 
L 1259 2228 
L 1259 0 
L 628 0 
L 628 4666 
z
" transform="scale(0.015625)"/>
      <path id="DejaVuSans-74" d="M 1172 4494 
L 1172 3500 
L 2356 3500 
L 2356 3053 
L 1172 3053 
L 1172 1153 
Q 1172 725 1289 603 
Q 1406 481 1766 481 
L 2356 481 
L 2356 0 
L 1766 0 
Q 1100 0 847 248 
Q 594 497 594 1153 
L 594 3053 
L 172 3053 
L 172 3500 
L 594 3500 
L 594 4494 
L 1172 4494 
z
" transform="scale(0.015625)"/>
      <path id="DejaVuSans-73" d="M 2834 3397 
L 2834 2853 
Q 2591 2978 2328 3040 
Q 2066 3103 1784 3103 
Q 1356 3103 1142 2972 
Q 928 2841 928 2578 
Q 928 2378 1081 2264 
Q 1234 2150 1697 2047 
L 1894 2003 
Q 2506 1872 2764 1633 
Q 3022 1394 3022 966 
Q 3022 478 2636 193 
Q 2250 -91 1575 -91 
Q 1294 -91 989 -36 
Q 684 19 347 128 
L 347 722 
Q 666 556 975 473 
Q 1284 391 1588 391 
Q 1994 391 2212 530 
Q 2431 669 2431 922 
Q 2431 1156 2273 1281 
Q 2116 1406 1581 1522 
L 1381 1569 
Q 847 1681 609 1914 
Q 372 2147 372 2553 
Q 372 3047 722 3315 
Q 1072 3584 1716 3584 
Q 2034 3584 2315 3537 
Q 2597 3491 2834 3397 
z
" transform="scale(0.015625)"/>
      <path id="DejaVuSans-42" d="M 1259 2228 
L 1259 519 
L 2272 519 
Q 2781 519 3026 730 
Q 3272 941 3272 1375 
Q 3272 1813 3026 2020 
Q 2781 2228 2272 2228 
L 1259 2228 
z
M 1259 4147 
L 1259 2741 
L 2194 2741 
Q 2656 2741 2882 2914 
Q 3109 3088 3109 3444 
Q 3109 3797 2882 3972 
Q 2656 4147 2194 4147 
L 1259 4147 
z
M 628 4666 
L 2241 4666 
Q 2963 4666 3353 4366 
Q 3744 4066 3744 3513 
Q 3744 3084 3544 2831 
Q 3344 2578 2956 2516 
Q 3422 2416 3680 2098 
Q 3938 1781 3938 1306 
Q 3938 681 3513 340 
Q 3088 0 2303 0 
L 628 0 
L 628 4666 
z
" transform="scale(0.015625)"/>
      <path id="DejaVuSans-1d34" d="M 397 4700 
L 794 4700 
L 794 3628 
L 2238 3628 
L 2238 4700 
L 2638 4700 
L 2638 2088 
L 2238 2088 
L 2238 3331 
L 794 3331 
L 794 2088 
L 397 2088 
L 397 4700 
z
" transform="scale(0.015625)"/>
      <path id="DejaVuSans-20" transform="scale(0.015625)"/>
      <path id="DejaVuSans-64" d="M 2906 2969 
L 2906 4863 
L 3481 4863 
L 3481 0 
L 2906 0 
L 2906 525 
Q 2725 213 2448 61 
Q 2172 -91 1784 -91 
Q 1150 -91 751 415 
Q 353 922 353 1747 
Q 353 2572 751 3078 
Q 1150 3584 1784 3584 
Q 2172 3584 2448 3432 
Q 2725 3281 2906 2969 
z
M 947 1747 
Q 947 1113 1208 752 
Q 1469 391 1925 391 
Q 2381 391 2643 752 
Q 2906 1113 2906 1747 
Q 2906 2381 2643 2742 
Q 2381 3103 1925 3103 
Q 1469 3103 1208 2742 
Q 947 2381 947 1747 
z
" transform="scale(0.015625)"/>
      <path id="DejaVuSans-69" d="M 603 3500 
L 1178 3500 
L 1178 0 
L 603 0 
L 603 3500 
z
M 603 4863 
L 1178 4863 
L 1178 4134 
L 603 4134 
L 603 4863 
z
" transform="scale(0.015625)"/>
      <path id="DejaVuSans-68" d="M 3513 2113 
L 3513 0 
L 2938 0 
L 2938 2094 
Q 2938 2591 2744 2837 
Q 2550 3084 2163 3084 
Q 1697 3084 1428 2787 
Q 1159 2491 1159 1978 
L 1159 0 
L 581 0 
L 581 4863 
L 1159 4863 
L 1159 2956 
Q 1366 3272 1645 3428 
Q 1925 3584 2291 3584 
Q 2894 3584 3203 3211 
Q 3513 2838 3513 2113 
z
" transform="scale(0.015625)"/>
      <path id="DejaVuSans-65" d="M 3597 1894 
L 3597 1613 
L 953 1613 
Q 991 1019 1311 708 
Q 1631 397 2203 397 
Q 2534 397 2845 478 
Q 3156 559 3463 722 
L 3463 178 
Q 3153 47 2828 -22 
Q 2503 -91 2169 -91 
Q 1331 -91 842 396 
Q 353 884 353 1716 
Q 353 2575 817 3079 
Q 1281 3584 2069 3584 
Q 2775 3584 3186 3129 
Q 3597 2675 3597 1894 
z
M 3022 2063 
Q 3016 2534 2758 2815 
Q 2500 3097 2075 3097 
Q 1594 3097 1305 2825 
Q 1016 2553 972 2059 
L 3022 2063 
z
" transform="scale(0.015625)"/>
      <path id="DejaVuSans-72" d="M 2631 2963 
Q 2534 3019 2420 3045 
Q 2306 3072 2169 3072 
Q 1681 3072 1420 2755 
Q 1159 2438 1159 1844 
L 1159 0 
L 581 0 
L 581 3500 
L 1159 3500 
L 1159 2956 
Q 1341 3275 1631 3429 
Q 1922 3584 2338 3584 
Q 2397 3584 2469 3576 
Q 2541 3569 2628 3553 
L 2631 2963 
z
" transform="scale(0.015625)"/>
      <path id="DejaVuSans-61" d="M 2194 1759 
Q 1497 1759 1228 1600 
Q 959 1441 959 1056 
Q 959 750 1161 570 
Q 1363 391 1709 391 
Q 2188 391 2477 730 
Q 2766 1069 2766 1631 
L 2766 1759 
L 2194 1759 
z
M 3341 1997 
L 3341 0 
L 2766 0 
L 2766 531 
Q 2569 213 2275 61 
Q 1981 -91 1556 -91 
Q 1019 -91 701 211 
Q 384 513 384 1019 
Q 384 1609 779 1909 
Q 1175 2209 1959 2209 
L 2766 2209 
L 2766 2266 
Q 2766 2663 2505 2880 
Q 2244 3097 1772 3097 
Q 1472 3097 1187 3025 
Q 903 2953 641 2809 
L 641 3341 
Q 956 3463 1253 3523 
Q 1550 3584 1831 3584 
Q 2591 3584 2966 3190 
Q 3341 2797 3341 1997 
z
" transform="scale(0.015625)"/>
      <path id="DejaVuSans-6c" d="M 603 4863 
L 1178 4863 
L 1178 0 
L 603 0 
L 603 4863 
z
" transform="scale(0.015625)"/>
      <path id="DejaVuSans-6e" d="M 3513 2113 
L 3513 0 
L 2938 0 
L 2938 2094 
Q 2938 2591 2744 2837 
Q 2550 3084 2163 3084 
Q 1697 3084 1428 2787 
Q 1159 2491 1159 1978 
L 1159 0 
L 581 0 
L 581 3500 
L 1159 3500 
L 1159 2956 
Q 1366 3272 1645 3428 
Q 1925 3584 2291 3584 
Q 2894 3584 3203 3211 
Q 3513 2838 3513 2113 
z
" transform="scale(0.015625)"/>
      <path id="DejaVuSans-67" d="M 2906 1791 
Q 2906 2416 2648 2759 
Q 2391 3103 1925 3103 
Q 1463 3103 1205 2759 
Q 947 2416 947 1791 
Q 947 1169 1205 825 
Q 1463 481 1925 481 
Q 2391 481 2648 825 
Q 2906 1169 2906 1791 
z
M 3481 434 
Q 3481 -459 3084 -895 
Q 2688 -1331 1869 -1331 
Q 1566 -1331 1297 -1286 
Q 1028 -1241 775 -1147 
L 775 -588 
Q 1028 -725 1275 -790 
Q 1522 -856 1778 -856 
Q 2344 -856 2625 -561 
Q 2906 -266 2906 331 
L 2906 616 
Q 2728 306 2450 153 
Q 2172 0 1784 0 
Q 1141 0 747 490 
Q 353 981 353 1791 
Q 353 2603 747 3093 
Q 1141 3584 1784 3584 
Q 2172 3584 2450 3431 
Q 2728 3278 2906 2969 
L 2906 3500 
L 3481 3500 
L 3481 434 
z
" transform="scale(0.015625)"/>
     </defs>
     <use xlink:href="#DejaVuSans-46"/>
     <use xlink:href="#DejaVuSans-74" x="57.519531"/>
     <use xlink:href="#DejaVuSans-73" x="96.728516"/>
     <use xlink:href="#DejaVuSans-42" x="148.828125"/>
     <use xlink:href="#DejaVuSans-1d34" x="217.431641"/>
     <use xlink:href="#DejaVuSans-20" x="264.794922"/>
     <use xlink:href="#DejaVuSans-64" x="296.582031"/>
     <use xlink:href="#DejaVuSans-69" x="360.058594"/>
     <use xlink:href="#DejaVuSans-68" x="387.841797"/>
     <use xlink:href="#DejaVuSans-65" x="451.220703"/>
     <use xlink:href="#DejaVuSans-64" x="512.744141"/>
     <use xlink:href="#DejaVuSans-72" x="576.220703"/>
     <use xlink:href="#DejaVuSans-61" x="617.333984"/>
     <use xlink:href="#DejaVuSans-6c" x="678.613281"/>
     <use xlink:href="#DejaVuSans-20" x="706.396484"/>
     <use xlink:href="#DejaVuSans-61" x="738.183594"/>
     <use xlink:href="#DejaVuSans-6e" x="799.462891"/>
     <use xlink:href="#DejaVuSans-67" x="862.841797"/>
     <use xlink:href="#DejaVuSans-6c" x="926.318359"/>
     <use xlink:href="#DejaVuSans-65" x="954.101562"/>
     <use xlink:href="#DejaVuSans-73" x="1015.625"/>
    </g>
   </g>
   <g id="legend_1">
    <g id="patch_7">
     <path d="M 186.382187 302.584 
L 304.04 302.584 
Q 306.04 302.584 306.04 300.584 
L 306.04 213.51525 
Q 306.04 211.51525 304.04 211.51525 
L 186.382187 211.51525 
Q 184.382187 211.51525 184.382187 213.51525 
L 184.382187 300.584 
Q 184.382187 302.584 186.382187 302.584 
z
" style="fill: #ffffff; opacity: 0.8; stroke: #cccccc; stroke-linejoin: miter"/>
    </g>
    <g id="PathCollection_7">
     <path d="M 198.382187 223.488687 
C 199.177797 223.488687 199.940927 223.172589 200.503508 222.610008 
C 201.066089 222.047427 201.382187 221.284297 201.382187 220.488687 
C 201.382187 219.693078 201.066089 218.929948 200.503508 218.367367 
C 199.940927 217.804786 199.177797 217.488687 198.382187 217.488687 
C 197.586578 217.488687 196.823448 217.804786 196.260867 218.367367 
C 195.698286 218.929948 195.382187 219.693078 195.382187 220.488687 
C 195.382187 221.284297 195.698286 222.047427 196.260867 222.610008 
C 196.823448 223.172589 197.586578 223.488687 198.382187 223.488687 
L 198.382187 223.488687 
z
" style="fill: none; stroke: #000000"/>
    </g>
    <g id="text_18">
     <!-- Fig. 2, Run 1 -->
     <g transform="translate(216.382187 223.113687) scale(0.1 -0.1)">
      <defs>
       <path id="DejaVuSans-2e" d="M 684 794 
L 1344 794 
L 1344 0 
L 684 0 
L 684 794 
z
" transform="scale(0.015625)"/>
       <path id="DejaVuSans-2c" d="M 750 794 
L 1409 794 
L 1409 256 
L 897 -744 
L 494 -744 
L 750 256 
L 750 794 
z
" transform="scale(0.015625)"/>
       <path id="DejaVuSans-52" d="M 2841 2188 
Q 3044 2119 3236 1894 
Q 3428 1669 3622 1275 
L 4263 0 
L 3584 0 
L 2988 1197 
Q 2756 1666 2539 1819 
Q 2322 1972 1947 1972 
L 1259 1972 
L 1259 0 
L 628 0 
L 628 4666 
L 2053 4666 
Q 2853 4666 3247 4331 
Q 3641 3997 3641 3322 
Q 3641 2881 3436 2590 
Q 3231 2300 2841 2188 
z
M 1259 4147 
L 1259 2491 
L 2053 2491 
Q 2509 2491 2742 2702 
Q 2975 2913 2975 3322 
Q 2975 3731 2742 3939 
Q 2509 4147 2053 4147 
L 1259 4147 
z
" transform="scale(0.015625)"/>
       <path id="DejaVuSans-75" d="M 544 1381 
L 544 3500 
L 1119 3500 
L 1119 1403 
Q 1119 906 1312 657 
Q 1506 409 1894 409 
Q 2359 409 2629 706 
Q 2900 1003 2900 1516 
L 2900 3500 
L 3475 3500 
L 3475 0 
L 2900 0 
L 2900 538 
Q 2691 219 2414 64 
Q 2138 -91 1772 -91 
Q 1169 -91 856 284 
Q 544 659 544 1381 
z
M 1991 3584 
L 1991 3584 
z
" transform="scale(0.015625)"/>
      </defs>
      <use xlink:href="#DejaVuSans-46"/>
      <use xlink:href="#DejaVuSans-69" x="50.269531"/>
      <use xlink:href="#DejaVuSans-67" x="78.052734"/>
      <use xlink:href="#DejaVuSans-2e" x="141.529297"/>
      <use xlink:href="#DejaVuSans-20" x="173.316406"/>
      <use xlink:href="#DejaVuSans-32" x="205.103516"/>
      <use xlink:href="#DejaVuSans-2c" x="268.726562"/>
      <use xlink:href="#DejaVuSans-20" x="300.513672"/>
      <use xlink:href="#DejaVuSans-52" x="332.300781"/>
      <use xlink:href="#DejaVuSans-75" x="397.283203"/>
      <use xlink:href="#DejaVuSans-6e" x="460.662109"/>
      <use xlink:href="#DejaVuSans-20" x="524.041016"/>
      <use xlink:href="#DejaVuSans-31" x="555.828125"/>
     </g>
    </g>
    <g id="PathCollection_8">
     <path d="M 195.382187 238.166812 
L 201.382187 238.166812 
L 201.382187 232.166812 
L 195.382187 232.166812 
L 195.382187 238.166812 
z
" style="fill: none; stroke: #000000"/>
    </g>
    <g id="text_19">
     <!-- Fig. 2, Run 2 -->
     <g transform="translate(216.382187 237.791812) scale(0.1 -0.1)">
      <use xlink:href="#DejaVuSans-46"/>
      <use xlink:href="#DejaVuSans-69" x="50.269531"/>
      <use xlink:href="#DejaVuSans-67" x="78.052734"/>
      <use xlink:href="#DejaVuSans-2e" x="141.529297"/>
      <use xlink:href="#DejaVuSans-20" x="173.316406"/>
      <use xlink:href="#DejaVuSans-32" x="205.103516"/>
      <use xlink:href="#DejaVuSans-2c" x="268.726562"/>
      <use xlink:href="#DejaVuSans-20" x="300.513672"/>
      <use xlink:href="#DejaVuSans-52" x="332.300781"/>
      <use xlink:href="#DejaVuSans-75" x="397.283203"/>
      <use xlink:href="#DejaVuSans-6e" x="460.662109"/>
      <use xlink:href="#DejaVuSans-20" x="524.041016"/>
      <use xlink:href="#DejaVuSans-32" x="555.828125"/>
     </g>
    </g>
    <g id="PathCollection_9">
     <path d="M 198.382187 252.844937 
C 199.177797 252.844937 199.940927 252.528839 200.503508 251.966258 
C 201.066089 251.403677 201.382187 250.640547 201.382187 249.844937 
C 201.382187 249.049328 201.066089 248.286198 200.503508 247.723617 
C 199.940927 247.161036 199.177797 246.844937 198.382187 246.844937 
C 197.586578 246.844937 196.823448 247.161036 196.260867 247.723617 
C 195.698286 248.286198 195.382187 249.049328 195.382187 249.844937 
C 195.382187 250.640547 195.698286 251.403677 196.260867 251.966258 
C 196.823448 252.528839 197.586578 252.844937 198.382187 252.844937 
L 198.382187 252.844937 
z
" style="fill: none; stroke: #bf00bf"/>
    </g>
    <g id="text_20">
     <!-- Replicate, Run 1 -->
     <g transform="translate(216.382187 252.469937) scale(0.1 -0.1)">
      <defs>
       <path id="DejaVuSans-70" d="M 1159 525 
L 1159 -1331 
L 581 -1331 
L 581 3500 
L 1159 3500 
L 1159 2969 
Q 1341 3281 1617 3432 
Q 1894 3584 2278 3584 
Q 2916 3584 3314 3078 
Q 3713 2572 3713 1747 
Q 3713 922 3314 415 
Q 2916 -91 2278 -91 
Q 1894 -91 1617 61 
Q 1341 213 1159 525 
z
M 3116 1747 
Q 3116 2381 2855 2742 
Q 2594 3103 2138 3103 
Q 1681 3103 1420 2742 
Q 1159 2381 1159 1747 
Q 1159 1113 1420 752 
Q 1681 391 2138 391 
Q 2594 391 2855 752 
Q 3116 1113 3116 1747 
z
" transform="scale(0.015625)"/>
       <path id="DejaVuSans-63" d="M 3122 3366 
L 3122 2828 
Q 2878 2963 2633 3030 
Q 2388 3097 2138 3097 
Q 1578 3097 1268 2742 
Q 959 2388 959 1747 
Q 959 1106 1268 751 
Q 1578 397 2138 397 
Q 2388 397 2633 464 
Q 2878 531 3122 666 
L 3122 134 
Q 2881 22 2623 -34 
Q 2366 -91 2075 -91 
Q 1284 -91 818 406 
Q 353 903 353 1747 
Q 353 2603 823 3093 
Q 1294 3584 2113 3584 
Q 2378 3584 2631 3529 
Q 2884 3475 3122 3366 
z
" transform="scale(0.015625)"/>
      </defs>
      <use xlink:href="#DejaVuSans-52"/>
      <use xlink:href="#DejaVuSans-65" x="64.982422"/>
      <use xlink:href="#DejaVuSans-70" x="126.505859"/>
      <use xlink:href="#DejaVuSans-6c" x="189.982422"/>
      <use xlink:href="#DejaVuSans-69" x="217.765625"/>
      <use xlink:href="#DejaVuSans-63" x="245.548828"/>
      <use xlink:href="#DejaVuSans-61" x="300.529297"/>
      <use xlink:href="#DejaVuSans-74" x="361.808594"/>
      <use xlink:href="#DejaVuSans-65" x="401.017578"/>
      <use xlink:href="#DejaVuSans-2c" x="462.541016"/>
      <use xlink:href="#DejaVuSans-20" x="494.328125"/>
      <use xlink:href="#DejaVuSans-52" x="526.115234"/>
      <use xlink:href="#DejaVuSans-75" x="591.097656"/>
      <use xlink:href="#DejaVuSans-6e" x="654.476562"/>
      <use xlink:href="#DejaVuSans-20" x="717.855469"/>
      <use xlink:href="#DejaVuSans-31" x="749.642578"/>
     </g>
    </g>
    <g id="PathCollection_10">
     <path d="M 195.382187 267.523062 
L 201.382187 267.523062 
L 201.382187 261.523062 
L 195.382187 261.523062 
L 195.382187 267.523062 
z
" style="fill: none; stroke: #bf00bf"/>
    </g>
    <g id="text_21">
     <!-- Replicate, Run 2 -->
     <g transform="translate(216.382187 267.148062) scale(0.1 -0.1)">
      <use xlink:href="#DejaVuSans-52"/>
      <use xlink:href="#DejaVuSans-65" x="64.982422"/>
      <use xlink:href="#DejaVuSans-70" x="126.505859"/>
      <use xlink:href="#DejaVuSans-6c" x="189.982422"/>
      <use xlink:href="#DejaVuSans-69" x="217.765625"/>
      <use xlink:href="#DejaVuSans-63" x="245.548828"/>
      <use xlink:href="#DejaVuSans-61" x="300.529297"/>
      <use xlink:href="#DejaVuSans-74" x="361.808594"/>
      <use xlink:href="#DejaVuSans-65" x="401.017578"/>
      <use xlink:href="#DejaVuSans-2c" x="462.541016"/>
      <use xlink:href="#DejaVuSans-20" x="494.328125"/>
      <use xlink:href="#DejaVuSans-52" x="526.115234"/>
      <use xlink:href="#DejaVuSans-75" x="591.097656"/>
      <use xlink:href="#DejaVuSans-6e" x="654.476562"/>
      <use xlink:href="#DejaVuSans-20" x="717.855469"/>
      <use xlink:href="#DejaVuSans-32" x="749.642578"/>
     </g>
    </g>
    <g id="PathCollection_11">
     <path d="M 198.382187 282.201188 
C 199.177797 282.201188 199.940927 281.885089 200.503508 281.322508 
C 201.066089 280.759927 201.382187 279.996797 201.382187 279.201188 
C 201.382187 278.405578 201.066089 277.642448 200.503508 277.079867 
C 199.940927 276.517286 199.177797 276.201188 198.382187 276.201188 
C 197.586578 276.201188 196.823448 276.517286 196.260867 277.079867 
C 195.698286 277.642448 195.382187 278.405578 195.382187 279.201188 
C 195.382187 279.996797 195.698286 280.759927 196.260867 281.322508 
C 196.823448 281.885089 197.586578 282.201188 198.382187 282.201188 
L 198.382187 282.201188 
z
" style="fill: none; stroke: #008000"/>
    </g>
    <g id="text_22">
     <!-- Low boost, Run 1 -->
     <g transform="translate(216.382187 281.826188) scale(0.1 -0.1)">
      <defs>
       <path id="DejaVuSans-4c" d="M 628 4666 
L 1259 4666 
L 1259 531 
L 3531 531 
L 3531 0 
L 628 0 
L 628 4666 
z
" transform="scale(0.015625)"/>
       <path id="DejaVuSans-6f" d="M 1959 3097 
Q 1497 3097 1228 2736 
Q 959 2375 959 1747 
Q 959 1119 1226 758 
Q 1494 397 1959 397 
Q 2419 397 2687 759 
Q 2956 1122 2956 1747 
Q 2956 2369 2687 2733 
Q 2419 3097 1959 3097 
z
M 1959 3584 
Q 2709 3584 3137 3096 
Q 3566 2609 3566 1747 
Q 3566 888 3137 398 
Q 2709 -91 1959 -91 
Q 1206 -91 779 398 
Q 353 888 353 1747 
Q 353 2609 779 3096 
Q 1206 3584 1959 3584 
z
" transform="scale(0.015625)"/>
       <path id="DejaVuSans-77" d="M 269 3500 
L 844 3500 
L 1563 769 
L 2278 3500 
L 2956 3500 
L 3675 769 
L 4391 3500 
L 4966 3500 
L 4050 0 
L 3372 0 
L 2619 2869 
L 1863 0 
L 1184 0 
L 269 3500 
z
" transform="scale(0.015625)"/>
       <path id="DejaVuSans-62" d="M 3116 1747 
Q 3116 2381 2855 2742 
Q 2594 3103 2138 3103 
Q 1681 3103 1420 2742 
Q 1159 2381 1159 1747 
Q 1159 1113 1420 752 
Q 1681 391 2138 391 
Q 2594 391 2855 752 
Q 3116 1113 3116 1747 
z
M 1159 2969 
Q 1341 3281 1617 3432 
Q 1894 3584 2278 3584 
Q 2916 3584 3314 3078 
Q 3713 2572 3713 1747 
Q 3713 922 3314 415 
Q 2916 -91 2278 -91 
Q 1894 -91 1617 61 
Q 1341 213 1159 525 
L 1159 0 
L 581 0 
L 581 4863 
L 1159 4863 
L 1159 2969 
z
" transform="scale(0.015625)"/>
      </defs>
      <use xlink:href="#DejaVuSans-4c"/>
      <use xlink:href="#DejaVuSans-6f" x="53.962891"/>
      <use xlink:href="#DejaVuSans-77" x="115.144531"/>
      <use xlink:href="#DejaVuSans-20" x="196.931641"/>
      <use xlink:href="#DejaVuSans-62" x="228.71875"/>
      <use xlink:href="#DejaVuSans-6f" x="292.195312"/>
      <use xlink:href="#DejaVuSans-6f" x="353.376953"/>
      <use xlink:href="#DejaVuSans-73" x="414.558594"/>
      <use xlink:href="#DejaVuSans-74" x="466.658203"/>
      <use xlink:href="#DejaVuSans-2c" x="505.867188"/>
      <use xlink:href="#DejaVuSans-20" x="537.654297"/>
      <use xlink:href="#DejaVuSans-52" x="569.441406"/>
      <use xlink:href="#DejaVuSans-75" x="634.423828"/>
      <use xlink:href="#DejaVuSans-6e" x="697.802734"/>
      <use xlink:href="#DejaVuSans-20" x="761.181641"/>
      <use xlink:href="#DejaVuSans-31" x="792.96875"/>
     </g>
    </g>
    <g id="PathCollection_12">
     <path d="M 195.382187 296.879312 
L 201.382187 296.879312 
L 201.382187 290.879312 
L 195.382187 290.879312 
L 195.382187 296.879312 
z
" style="fill: none; stroke: #008000"/>
    </g>
    <g id="text_23">
     <!-- Low boost, Run 2 -->
     <g transform="translate(216.382187 296.504312) scale(0.1 -0.1)">
      <use xlink:href="#DejaVuSans-4c"/>
      <use xlink:href="#DejaVuSans-6f" x="53.962891"/>
      <use xlink:href="#DejaVuSans-77" x="115.144531"/>
      <use xlink:href="#DejaVuSans-20" x="196.931641"/>
      <use xlink:href="#DejaVuSans-62" x="228.71875"/>
      <use xlink:href="#DejaVuSans-6f" x="292.195312"/>
      <use xlink:href="#DejaVuSans-6f" x="353.376953"/>
      <use xlink:href="#DejaVuSans-73" x="414.558594"/>
      <use xlink:href="#DejaVuSans-74" x="466.658203"/>
      <use xlink:href="#DejaVuSans-2c" x="505.867188"/>
      <use xlink:href="#DejaVuSans-20" x="537.654297"/>
      <use xlink:href="#DejaVuSans-52" x="569.441406"/>
      <use xlink:href="#DejaVuSans-75" x="634.423828"/>
      <use xlink:href="#DejaVuSans-6e" x="697.802734"/>
      <use xlink:href="#DejaVuSans-20" x="761.181641"/>
      <use xlink:href="#DejaVuSans-32" x="792.96875"/>
     </g>
    </g>
   </g>
  </g>
 </g>
 <defs>
  <clipPath id="pad093957fd">
   <rect x="43.2" y="41.472" width="267.84" height="266.112"/>
  </clipPath>
 </defs>
</svg>
