<?xml version="1.0" encoding="utf-8" standalone="no"?>
<!DOCTYPE svg PUBLIC "-//W3C//DTD SVG 1.1//EN"
  "http://www.w3.org/Graphics/SVG/1.1/DTD/svg11.dtd">
<svg xmlns:xlink="http://www.w3.org/1999/xlink" width="216pt" height="144pt" viewBox="0 0 216 144" xmlns="http://www.w3.org/2000/svg" version="1.1">
 <metadata>
  <rdf:RDF xmlns:dc="http://purl.org/dc/elements/1.1/" xmlns:cc="http://creativecommons.org/ns#" xmlns:rdf="http://www.w3.org/1999/02/22-rdf-syntax-ns#">
   <cc:Work>
    <dc:type rdf:resource="http://purl.org/dc/dcmitype/StillImage"/>
    <dc:date>2024-03-06T21:16:00.472881</dc:date>
    <dc:format>image/svg+xml</dc:format>
    <dc:creator>
     <cc:Agent>
      <dc:title>Matplotlib v3.8.2, https://matplotlib.org/</dc:title>
     </cc:Agent>
    </dc:creator>
   </cc:Work>
  </rdf:RDF>
 </metadata>
 <defs>
  <style type="text/css">*{stroke-linejoin: round; stroke-linecap: butt}</style>
 </defs>
 <g id="figure_1">
  <g id="patch_1">
   <path d="M 0 144 
L 216 144 
L 216 0 
L 0 0 
z
" style="fill: #ffffff"/>
  </g>
  <g id="axes_1">
   <g id="patch_2">
    <path d="M 28.89 115.507313 
L 204.475743 115.507313 
L 204.475743 7.56 
L 28.89 7.56 
z
" style="fill: #ffffff"/>
   </g>
   <g id="matplotlib.axis_1">
    <g id="xtick_1">
     <g id="line2d_1">
      <defs>
       <path id="med0881513b" d="M 0 0 
L 0 3 
" style="stroke: #262626; stroke-width: 0.5"/>
      </defs>
      <g>
       <use xlink:href="#med0881513b" x="101.127395" y="115.507313" style="fill: #262626; stroke: #262626; stroke-width: 0.5"/>
      </g>
     </g>
     <g id="text_1">
      <!-- $\mathdefault{10^{-1}}$ -->
      <g style="fill: #262626" transform="translate(96.177395 124.663563) scale(0.05 -0.05)">
       <defs>
        <path id="ArialMT-31" d="M 2384 0 
L 1822 0 
L 1822 3584 
Q 1619 3391 1289 3197 
Q 959 3003 697 2906 
L 697 3450 
Q 1169 3672 1522 3987 
Q 1875 4303 2022 4600 
L 2384 4600 
L 2384 0 
z
" transform="scale(0.015625)"/>
        <path id="ArialMT-30" d="M 266 2259 
Q 266 3072 433 3567 
Q 600 4063 929 4331 
Q 1259 4600 1759 4600 
Q 2128 4600 2406 4451 
Q 2684 4303 2865 4023 
Q 3047 3744 3150 3342 
Q 3253 2941 3253 2259 
Q 3253 1453 3087 958 
Q 2922 463 2592 192 
Q 2263 -78 1759 -78 
Q 1097 -78 719 397 
Q 266 969 266 2259 
z
M 844 2259 
Q 844 1131 1108 757 
Q 1372 384 1759 384 
Q 2147 384 2411 759 
Q 2675 1134 2675 2259 
Q 2675 3391 2411 3762 
Q 2147 4134 1753 4134 
Q 1366 4134 1134 3806 
Q 844 3388 844 2259 
z
" transform="scale(0.015625)"/>
        <path id="ArialMT-2212" d="M 3381 1997 
L 356 1997 
L 356 2522 
L 3381 2522 
L 3381 1997 
z
" transform="scale(0.015625)"/>
       </defs>
       <use xlink:href="#ArialMT-31" transform="translate(0 0.99375)"/>
       <use xlink:href="#ArialMT-30" transform="translate(55.615234 0.99375)"/>
       <use xlink:href="#ArialMT-2212" transform="translate(112.972813 70.6875) scale(0.7)"/>
       <use xlink:href="#ArialMT-31" transform="translate(153.851719 70.6875) scale(0.7)"/>
      </g>
     </g>
    </g>
    <g id="xtick_2">
     <g id="line2d_2">
      <g>
       <use xlink:href="#med0881513b" x="204.475743" y="115.507313" style="fill: #262626; stroke: #262626; stroke-width: 0.5"/>
      </g>
     </g>
     <g id="text_2">
      <!-- $\mathdefault{10^{0}}$ -->
      <g style="fill: #262626" transform="translate(200.550743 124.663563) scale(0.05 -0.05)">
       <use xlink:href="#ArialMT-31" transform="translate(0 0.99375)"/>
       <use xlink:href="#ArialMT-30" transform="translate(55.615234 0.99375)"/>
       <use xlink:href="#ArialMT-30" transform="translate(112.972813 70.6875) scale(0.7)"/>
      </g>
     </g>
    </g>
    <g id="xtick_3">
     <g id="line2d_3">
      <defs>
       <path id="m1935710d75" d="M 0 0 
L 0 2 
" style="stroke: #262626; stroke-width: 0.5"/>
      </defs>
      <g>
       <use xlink:href="#m1935710d75" x="28.89" y="115.507313" style="fill: #262626; stroke: #262626; stroke-width: 0.5"/>
      </g>
     </g>
    </g>
    <g id="xtick_4">
     <g id="line2d_4">
      <g>
       <use xlink:href="#m1935710d75" x="47.088741" y="115.507313" style="fill: #262626; stroke: #262626; stroke-width: 0.5"/>
      </g>
     </g>
    </g>
    <g id="xtick_5">
     <g id="line2d_5">
      <g>
       <use xlink:href="#m1935710d75" x="60.000953" y="115.507313" style="fill: #262626; stroke: #262626; stroke-width: 0.5"/>
      </g>
     </g>
    </g>
    <g id="xtick_6">
     <g id="line2d_6">
      <g>
       <use xlink:href="#m1935710d75" x="70.016442" y="115.507313" style="fill: #262626; stroke: #262626; stroke-width: 0.5"/>
      </g>
     </g>
    </g>
    <g id="xtick_7">
     <g id="line2d_7">
      <g>
       <use xlink:href="#m1935710d75" x="78.199693" y="115.507313" style="fill: #262626; stroke: #262626; stroke-width: 0.5"/>
      </g>
     </g>
    </g>
    <g id="xtick_8">
     <g id="line2d_8">
      <g>
       <use xlink:href="#m1935710d75" x="85.118534" y="115.507313" style="fill: #262626; stroke: #262626; stroke-width: 0.5"/>
      </g>
     </g>
    </g>
    <g id="xtick_9">
     <g id="line2d_9">
      <g>
       <use xlink:href="#m1935710d75" x="91.111905" y="115.507313" style="fill: #262626; stroke: #262626; stroke-width: 0.5"/>
      </g>
     </g>
    </g>
    <g id="xtick_10">
     <g id="line2d_10">
      <g>
       <use xlink:href="#m1935710d75" x="96.398434" y="115.507313" style="fill: #262626; stroke: #262626; stroke-width: 0.5"/>
      </g>
     </g>
    </g>
    <g id="xtick_11">
     <g id="line2d_11">
      <g>
       <use xlink:href="#m1935710d75" x="132.238348" y="115.507313" style="fill: #262626; stroke: #262626; stroke-width: 0.5"/>
      </g>
     </g>
    </g>
    <g id="xtick_12">
     <g id="line2d_12">
      <g>
       <use xlink:href="#m1935710d75" x="150.437089" y="115.507313" style="fill: #262626; stroke: #262626; stroke-width: 0.5"/>
      </g>
     </g>
    </g>
    <g id="xtick_13">
     <g id="line2d_13">
      <g>
       <use xlink:href="#m1935710d75" x="163.349301" y="115.507313" style="fill: #262626; stroke: #262626; stroke-width: 0.5"/>
      </g>
     </g>
    </g>
    <g id="xtick_14">
     <g id="line2d_14">
      <g>
       <use xlink:href="#m1935710d75" x="173.36479" y="115.507313" style="fill: #262626; stroke: #262626; stroke-width: 0.5"/>
      </g>
     </g>
    </g>
    <g id="xtick_15">
     <g id="line2d_15">
      <g>
       <use xlink:href="#m1935710d75" x="181.548041" y="115.507313" style="fill: #262626; stroke: #262626; stroke-width: 0.5"/>
      </g>
     </g>
    </g>
    <g id="xtick_16">
     <g id="line2d_16">
      <g>
       <use xlink:href="#m1935710d75" x="188.466882" y="115.507313" style="fill: #262626; stroke: #262626; stroke-width: 0.5"/>
      </g>
     </g>
    </g>
    <g id="xtick_17">
     <g id="line2d_17">
      <g>
       <use xlink:href="#m1935710d75" x="194.460253" y="115.507313" style="fill: #262626; stroke: #262626; stroke-width: 0.5"/>
      </g>
     </g>
    </g>
    <g id="xtick_18">
     <g id="line2d_18">
      <g>
       <use xlink:href="#m1935710d75" x="199.746782" y="115.507313" style="fill: #262626; stroke: #262626; stroke-width: 0.5"/>
      </g>
     </g>
    </g>
    <g id="text_3">
     <!-- Apparent diffusion coefficient ($\mu$m$^{2}$ s$^{-1}$) -->
     <g style="fill: #262626" transform="translate(63.912872 133.117312) scale(0.06 -0.06)">
      <defs>
       <path id="ArialMT-41" d="M -9 0 
L 1750 4581 
L 2403 4581 
L 4278 0 
L 3588 0 
L 3053 1388 
L 1138 1388 
L 634 0 
L -9 0 
z
M 1313 1881 
L 2866 1881 
L 2388 3150 
Q 2169 3728 2063 4100 
Q 1975 3659 1816 3225 
L 1313 1881 
z
" transform="scale(0.015625)"/>
       <path id="ArialMT-70" d="M 422 -1272 
L 422 3319 
L 934 3319 
L 934 2888 
Q 1116 3141 1344 3267 
Q 1572 3394 1897 3394 
Q 2322 3394 2647 3175 
Q 2972 2956 3137 2557 
Q 3303 2159 3303 1684 
Q 3303 1175 3120 767 
Q 2938 359 2589 142 
Q 2241 -75 1856 -75 
Q 1575 -75 1351 44 
Q 1128 163 984 344 
L 984 -1272 
L 422 -1272 
z
M 931 1641 
Q 931 1000 1190 694 
Q 1450 388 1819 388 
Q 2194 388 2461 705 
Q 2728 1022 2728 1688 
Q 2728 2322 2467 2637 
Q 2206 2953 1844 2953 
Q 1484 2953 1207 2617 
Q 931 2281 931 1641 
z
" transform="scale(0.015625)"/>
       <path id="ArialMT-61" d="M 2588 409 
Q 2275 144 1986 34 
Q 1697 -75 1366 -75 
Q 819 -75 525 192 
Q 231 459 231 875 
Q 231 1119 342 1320 
Q 453 1522 633 1644 
Q 813 1766 1038 1828 
Q 1203 1872 1538 1913 
Q 2219 1994 2541 2106 
Q 2544 2222 2544 2253 
Q 2544 2597 2384 2738 
Q 2169 2928 1744 2928 
Q 1347 2928 1158 2789 
Q 969 2650 878 2297 
L 328 2372 
Q 403 2725 575 2942 
Q 747 3159 1072 3276 
Q 1397 3394 1825 3394 
Q 2250 3394 2515 3294 
Q 2781 3194 2906 3042 
Q 3031 2891 3081 2659 
Q 3109 2516 3109 2141 
L 3109 1391 
Q 3109 606 3145 398 
Q 3181 191 3288 0 
L 2700 0 
Q 2613 175 2588 409 
z
M 2541 1666 
Q 2234 1541 1622 1453 
Q 1275 1403 1131 1340 
Q 988 1278 909 1158 
Q 831 1038 831 891 
Q 831 666 1001 516 
Q 1172 366 1500 366 
Q 1825 366 2078 508 
Q 2331 650 2450 897 
Q 2541 1088 2541 1459 
L 2541 1666 
z
" transform="scale(0.015625)"/>
       <path id="ArialMT-72" d="M 416 0 
L 416 3319 
L 922 3319 
L 922 2816 
Q 1116 3169 1280 3281 
Q 1444 3394 1641 3394 
Q 1925 3394 2219 3213 
L 2025 2691 
Q 1819 2813 1613 2813 
Q 1428 2813 1281 2702 
Q 1134 2591 1072 2394 
Q 978 2094 978 1738 
L 978 0 
L 416 0 
z
" transform="scale(0.015625)"/>
       <path id="ArialMT-65" d="M 2694 1069 
L 3275 997 
Q 3138 488 2766 206 
Q 2394 -75 1816 -75 
Q 1088 -75 661 373 
Q 234 822 234 1631 
Q 234 2469 665 2931 
Q 1097 3394 1784 3394 
Q 2450 3394 2872 2941 
Q 3294 2488 3294 1666 
Q 3294 1616 3291 1516 
L 816 1516 
Q 847 969 1125 678 
Q 1403 388 1819 388 
Q 2128 388 2347 550 
Q 2566 713 2694 1069 
z
M 847 1978 
L 2700 1978 
Q 2663 2397 2488 2606 
Q 2219 2931 1791 2931 
Q 1403 2931 1139 2672 
Q 875 2413 847 1978 
z
" transform="scale(0.015625)"/>
       <path id="ArialMT-6e" d="M 422 0 
L 422 3319 
L 928 3319 
L 928 2847 
Q 1294 3394 1984 3394 
Q 2284 3394 2536 3286 
Q 2788 3178 2913 3003 
Q 3038 2828 3088 2588 
Q 3119 2431 3119 2041 
L 3119 0 
L 2556 0 
L 2556 2019 
Q 2556 2363 2490 2533 
Q 2425 2703 2258 2804 
Q 2091 2906 1866 2906 
Q 1506 2906 1245 2678 
Q 984 2450 984 1813 
L 984 0 
L 422 0 
z
" transform="scale(0.015625)"/>
       <path id="ArialMT-74" d="M 1650 503 
L 1731 6 
Q 1494 -44 1306 -44 
Q 1000 -44 831 53 
Q 663 150 594 308 
Q 525 466 525 972 
L 525 2881 
L 113 2881 
L 113 3319 
L 525 3319 
L 525 4141 
L 1084 4478 
L 1084 3319 
L 1650 3319 
L 1650 2881 
L 1084 2881 
L 1084 941 
Q 1084 700 1114 631 
Q 1144 563 1211 522 
Q 1278 481 1403 481 
Q 1497 481 1650 503 
z
" transform="scale(0.015625)"/>
       <path id="ArialMT-20" transform="scale(0.015625)"/>
       <path id="ArialMT-64" d="M 2575 0 
L 2575 419 
Q 2259 -75 1647 -75 
Q 1250 -75 917 144 
Q 584 363 401 755 
Q 219 1147 219 1656 
Q 219 2153 384 2558 
Q 550 2963 881 3178 
Q 1213 3394 1622 3394 
Q 1922 3394 2156 3267 
Q 2391 3141 2538 2938 
L 2538 4581 
L 3097 4581 
L 3097 0 
L 2575 0 
z
M 797 1656 
Q 797 1019 1065 703 
Q 1334 388 1700 388 
Q 2069 388 2326 689 
Q 2584 991 2584 1609 
Q 2584 2291 2321 2609 
Q 2059 2928 1675 2928 
Q 1300 2928 1048 2622 
Q 797 2316 797 1656 
z
" transform="scale(0.015625)"/>
       <path id="ArialMT-69" d="M 425 3934 
L 425 4581 
L 988 4581 
L 988 3934 
L 425 3934 
z
M 425 0 
L 425 3319 
L 988 3319 
L 988 0 
L 425 0 
z
" transform="scale(0.015625)"/>
       <path id="ArialMT-66" d="M 556 0 
L 556 2881 
L 59 2881 
L 59 3319 
L 556 3319 
L 556 3672 
Q 556 4006 616 4169 
Q 697 4388 901 4523 
Q 1106 4659 1475 4659 
Q 1713 4659 2000 4603 
L 1916 4113 
Q 1741 4144 1584 4144 
Q 1328 4144 1222 4034 
Q 1116 3925 1116 3625 
L 1116 3319 
L 1763 3319 
L 1763 2881 
L 1116 2881 
L 1116 0 
L 556 0 
z
" transform="scale(0.015625)"/>
       <path id="ArialMT-75" d="M 2597 0 
L 2597 488 
Q 2209 -75 1544 -75 
Q 1250 -75 995 37 
Q 741 150 617 320 
Q 494 491 444 738 
Q 409 903 409 1263 
L 409 3319 
L 972 3319 
L 972 1478 
Q 972 1038 1006 884 
Q 1059 663 1231 536 
Q 1403 409 1656 409 
Q 1909 409 2131 539 
Q 2353 669 2445 892 
Q 2538 1116 2538 1541 
L 2538 3319 
L 3100 3319 
L 3100 0 
L 2597 0 
z
" transform="scale(0.015625)"/>
       <path id="ArialMT-73" d="M 197 991 
L 753 1078 
Q 800 744 1014 566 
Q 1228 388 1613 388 
Q 2000 388 2187 545 
Q 2375 703 2375 916 
Q 2375 1106 2209 1216 
Q 2094 1291 1634 1406 
Q 1016 1563 777 1677 
Q 538 1791 414 1992 
Q 291 2194 291 2438 
Q 291 2659 392 2848 
Q 494 3038 669 3163 
Q 800 3259 1026 3326 
Q 1253 3394 1513 3394 
Q 1903 3394 2198 3281 
Q 2494 3169 2634 2976 
Q 2775 2784 2828 2463 
L 2278 2388 
Q 2241 2644 2061 2787 
Q 1881 2931 1553 2931 
Q 1166 2931 1000 2803 
Q 834 2675 834 2503 
Q 834 2394 903 2306 
Q 972 2216 1119 2156 
Q 1203 2125 1616 2013 
Q 2213 1853 2448 1751 
Q 2684 1650 2818 1456 
Q 2953 1263 2953 975 
Q 2953 694 2789 445 
Q 2625 197 2315 61 
Q 2006 -75 1616 -75 
Q 969 -75 630 194 
Q 291 463 197 991 
z
" transform="scale(0.015625)"/>
       <path id="ArialMT-6f" d="M 213 1659 
Q 213 2581 725 3025 
Q 1153 3394 1769 3394 
Q 2453 3394 2887 2945 
Q 3322 2497 3322 1706 
Q 3322 1066 3130 698 
Q 2938 331 2570 128 
Q 2203 -75 1769 -75 
Q 1072 -75 642 372 
Q 213 819 213 1659 
z
M 791 1659 
Q 791 1022 1069 705 
Q 1347 388 1769 388 
Q 2188 388 2466 706 
Q 2744 1025 2744 1678 
Q 2744 2294 2464 2611 
Q 2184 2928 1769 2928 
Q 1347 2928 1069 2612 
Q 791 2297 791 1659 
z
" transform="scale(0.015625)"/>
       <path id="ArialMT-63" d="M 2588 1216 
L 3141 1144 
Q 3050 572 2676 248 
Q 2303 -75 1759 -75 
Q 1078 -75 664 370 
Q 250 816 250 1647 
Q 250 2184 428 2587 
Q 606 2991 970 3192 
Q 1334 3394 1763 3394 
Q 2303 3394 2647 3120 
Q 2991 2847 3088 2344 
L 2541 2259 
Q 2463 2594 2264 2762 
Q 2066 2931 1784 2931 
Q 1359 2931 1093 2626 
Q 828 2322 828 1663 
Q 828 994 1084 691 
Q 1341 388 1753 388 
Q 2084 388 2306 591 
Q 2528 794 2588 1216 
z
" transform="scale(0.015625)"/>
       <path id="ArialMT-28" d="M 1497 -1347 
Q 1031 -759 709 28 
Q 388 816 388 1659 
Q 388 2403 628 3084 
Q 909 3875 1497 4659 
L 1900 4659 
Q 1522 4009 1400 3731 
Q 1209 3300 1100 2831 
Q 966 2247 966 1656 
Q 966 153 1900 -1347 
L 1497 -1347 
z
" transform="scale(0.015625)"/>
       <path id="DejaVuSans-Oblique-3bc" d="M -84 -1331 
L 856 3500 
L 1434 3500 
L 1009 1322 
Q 997 1256 987 1175 
Q 978 1094 978 1013 
Q 978 722 1161 565 
Q 1344 409 1684 409 
Q 2147 409 2431 671 
Q 2716 934 2816 1459 
L 3213 3500 
L 3788 3500 
L 3266 809 
Q 3253 750 3248 706 
Q 3244 663 3244 628 
Q 3244 531 3283 486 
Q 3322 441 3406 441 
Q 3438 441 3492 456 
Q 3547 472 3647 513 
L 3559 50 
Q 3422 -19 3297 -55 
Q 3172 -91 3053 -91 
Q 2847 -91 2730 40 
Q 2613 172 2613 403 
Q 2438 153 2195 31 
Q 1953 -91 1625 -91 
Q 1334 -91 1117 43 
Q 900 178 831 397 
L 494 -1331 
L -84 -1331 
z
" transform="scale(0.015625)"/>
       <path id="ArialMT-6d" d="M 422 0 
L 422 3319 
L 925 3319 
L 925 2853 
Q 1081 3097 1340 3245 
Q 1600 3394 1931 3394 
Q 2300 3394 2536 3241 
Q 2772 3088 2869 2813 
Q 3263 3394 3894 3394 
Q 4388 3394 4653 3120 
Q 4919 2847 4919 2278 
L 4919 0 
L 4359 0 
L 4359 2091 
Q 4359 2428 4304 2576 
Q 4250 2725 4106 2815 
Q 3963 2906 3769 2906 
Q 3419 2906 3187 2673 
Q 2956 2441 2956 1928 
L 2956 0 
L 2394 0 
L 2394 2156 
Q 2394 2531 2256 2718 
Q 2119 2906 1806 2906 
Q 1569 2906 1367 2781 
Q 1166 2656 1075 2415 
Q 984 2175 984 1722 
L 984 0 
L 422 0 
z
" transform="scale(0.015625)"/>
       <path id="DejaVuSans-32" d="M 1228 531 
L 3431 531 
L 3431 0 
L 469 0 
L 469 531 
Q 828 903 1448 1529 
Q 2069 2156 2228 2338 
Q 2531 2678 2651 2914 
Q 2772 3150 2772 3378 
Q 2772 3750 2511 3984 
Q 2250 4219 1831 4219 
Q 1534 4219 1204 4116 
Q 875 4013 500 3803 
L 500 4441 
Q 881 4594 1212 4672 
Q 1544 4750 1819 4750 
Q 2544 4750 2975 4387 
Q 3406 4025 3406 3419 
Q 3406 3131 3298 2873 
Q 3191 2616 2906 2266 
Q 2828 2175 2409 1742 
Q 1991 1309 1228 531 
z
" transform="scale(0.015625)"/>
       <path id="DejaVuSans-2212" d="M 678 2272 
L 4684 2272 
L 4684 1741 
L 678 1741 
L 678 2272 
z
" transform="scale(0.015625)"/>
       <path id="DejaVuSans-31" d="M 794 531 
L 1825 531 
L 1825 4091 
L 703 3866 
L 703 4441 
L 1819 4666 
L 2450 4666 
L 2450 531 
L 3481 531 
L 3481 0 
L 794 0 
L 794 531 
z
" transform="scale(0.015625)"/>
       <path id="ArialMT-29" d="M 791 -1347 
L 388 -1347 
Q 1322 153 1322 1656 
Q 1322 2244 1188 2822 
Q 1081 3291 891 3722 
Q 769 4003 388 4659 
L 791 4659 
Q 1378 3875 1659 3084 
Q 1900 2403 1900 1659 
Q 1900 816 1576 28 
Q 1253 -759 791 -1347 
z
" transform="scale(0.015625)"/>
      </defs>
      <use xlink:href="#ArialMT-41" transform="translate(0 0.765625)"/>
      <use xlink:href="#ArialMT-70" transform="translate(66.699219 0.765625)"/>
      <use xlink:href="#ArialMT-70" transform="translate(122.314453 0.765625)"/>
      <use xlink:href="#ArialMT-61" transform="translate(177.929688 0.765625)"/>
      <use xlink:href="#ArialMT-72" transform="translate(233.544922 0.765625)"/>
      <use xlink:href="#ArialMT-65" transform="translate(266.845703 0.765625)"/>
      <use xlink:href="#ArialMT-6e" transform="translate(322.460938 0.765625)"/>
      <use xlink:href="#ArialMT-74" transform="translate(378.076172 0.765625)"/>
      <use xlink:href="#ArialMT-20" transform="translate(405.859375 0.765625)"/>
      <use xlink:href="#ArialMT-64" transform="translate(433.642578 0.765625)"/>
      <use xlink:href="#ArialMT-69" transform="translate(489.257812 0.765625)"/>
      <use xlink:href="#ArialMT-66" transform="translate(511.474609 0.765625)"/>
      <use xlink:href="#ArialMT-66" transform="translate(539.257812 0.765625)"/>
      <use xlink:href="#ArialMT-75" transform="translate(567.041016 0.765625)"/>
      <use xlink:href="#ArialMT-73" transform="translate(622.65625 0.765625)"/>
      <use xlink:href="#ArialMT-69" transform="translate(672.65625 0.765625)"/>
      <use xlink:href="#ArialMT-6f" transform="translate(694.873047 0.765625)"/>
      <use xlink:href="#ArialMT-6e" transform="translate(750.488281 0.765625)"/>
      <use xlink:href="#ArialMT-20" transform="translate(806.103516 0.765625)"/>
      <use xlink:href="#ArialMT-63" transform="translate(833.886719 0.765625)"/>
      <use xlink:href="#ArialMT-6f" transform="translate(883.886719 0.765625)"/>
      <use xlink:href="#ArialMT-65" transform="translate(939.501953 0.765625)"/>
      <use xlink:href="#ArialMT-66" transform="translate(995.117188 0.765625)"/>
      <use xlink:href="#ArialMT-66" transform="translate(1022.900391 0.765625)"/>
      <use xlink:href="#ArialMT-69" transform="translate(1050.683594 0.765625)"/>
      <use xlink:href="#ArialMT-63" transform="translate(1072.900391 0.765625)"/>
      <use xlink:href="#ArialMT-69" transform="translate(1122.900391 0.765625)"/>
      <use xlink:href="#ArialMT-65" transform="translate(1145.117188 0.765625)"/>
      <use xlink:href="#ArialMT-6e" transform="translate(1200.732422 0.765625)"/>
      <use xlink:href="#ArialMT-74" transform="translate(1256.347656 0.765625)"/>
      <use xlink:href="#ArialMT-20" transform="translate(1284.130859 0.765625)"/>
      <use xlink:href="#ArialMT-28" transform="translate(1311.914062 0.765625)"/>
      <use xlink:href="#DejaVuSans-Oblique-3bc" transform="translate(1345.214844 0.765625)"/>
      <use xlink:href="#ArialMT-6d" transform="translate(1408.837891 0.765625)"/>
      <use xlink:href="#DejaVuSans-32" transform="translate(1493.095703 39.046875) scale(0.7)"/>
      <use xlink:href="#ArialMT-20" transform="translate(1540.366211 0.765625)"/>
      <use xlink:href="#ArialMT-73" transform="translate(1568.149414 0.765625)"/>
      <use xlink:href="#DejaVuSans-2212" transform="translate(1619.106445 39.046875) scale(0.7)"/>
      <use xlink:href="#DejaVuSans-31" transform="translate(1677.758789 39.046875) scale(0.7)"/>
      <use xlink:href="#ArialMT-29" transform="translate(1725.029297 0.765625)"/>
     </g>
    </g>
   </g>
   <g id="matplotlib.axis_2">
    <g id="ytick_1">
     <g id="line2d_19">
      <defs>
       <path id="m3f0e91c44b" d="M 0 0 
L -3 0 
" style="stroke: #262626; stroke-width: 0.5"/>
      </defs>
      <g>
       <use xlink:href="#m3f0e91c44b" x="28.89" y="111.17388" style="fill: #262626; stroke: #262626; stroke-width: 0.5"/>
      </g>
     </g>
     <g id="text_4">
      <!-- 0.00 -->
      <g style="fill: #262626" transform="translate(15.159531 112.963333) scale(0.05 -0.05)">
       <defs>
        <path id="ArialMT-2e" d="M 581 0 
L 581 641 
L 1222 641 
L 1222 0 
L 581 0 
z
" transform="scale(0.015625)"/>
       </defs>
       <use xlink:href="#ArialMT-30"/>
       <use xlink:href="#ArialMT-2e" x="55.615234"/>
       <use xlink:href="#ArialMT-30" x="83.398438"/>
       <use xlink:href="#ArialMT-30" x="139.013672"/>
      </g>
     </g>
    </g>
    <g id="ytick_2">
     <g id="line2d_20">
      <g>
       <use xlink:href="#m3f0e91c44b" x="28.89" y="98.960452" style="fill: #262626; stroke: #262626; stroke-width: 0.5"/>
      </g>
     </g>
     <g id="text_5">
      <!-- 0.01 -->
      <g style="fill: #262626" transform="translate(15.159531 100.749905) scale(0.05 -0.05)">
       <use xlink:href="#ArialMT-30"/>
       <use xlink:href="#ArialMT-2e" x="55.615234"/>
       <use xlink:href="#ArialMT-30" x="83.398438"/>
       <use xlink:href="#ArialMT-31" x="139.013672"/>
      </g>
     </g>
    </g>
    <g id="ytick_3">
     <g id="line2d_21">
      <g>
       <use xlink:href="#m3f0e91c44b" x="28.89" y="86.747025" style="fill: #262626; stroke: #262626; stroke-width: 0.5"/>
      </g>
     </g>
     <g id="text_6">
      <!-- 0.02 -->
      <g style="fill: #262626" transform="translate(15.159531 88.536478) scale(0.05 -0.05)">
       <defs>
        <path id="ArialMT-32" d="M 3222 541 
L 3222 0 
L 194 0 
Q 188 203 259 391 
Q 375 700 629 1000 
Q 884 1300 1366 1694 
Q 2113 2306 2375 2664 
Q 2638 3022 2638 3341 
Q 2638 3675 2398 3904 
Q 2159 4134 1775 4134 
Q 1369 4134 1125 3890 
Q 881 3647 878 3216 
L 300 3275 
Q 359 3922 746 4261 
Q 1134 4600 1788 4600 
Q 2447 4600 2831 4234 
Q 3216 3869 3216 3328 
Q 3216 3053 3103 2787 
Q 2991 2522 2730 2228 
Q 2469 1934 1863 1422 
Q 1356 997 1212 845 
Q 1069 694 975 541 
L 3222 541 
z
" transform="scale(0.015625)"/>
       </defs>
       <use xlink:href="#ArialMT-30"/>
       <use xlink:href="#ArialMT-2e" x="55.615234"/>
       <use xlink:href="#ArialMT-30" x="83.398438"/>
       <use xlink:href="#ArialMT-32" x="139.013672"/>
      </g>
     </g>
    </g>
    <g id="ytick_4">
     <g id="line2d_22">
      <g>
       <use xlink:href="#m3f0e91c44b" x="28.89" y="74.533597" style="fill: #262626; stroke: #262626; stroke-width: 0.5"/>
      </g>
     </g>
     <g id="text_7">
      <!-- 0.03 -->
      <g style="fill: #262626" transform="translate(15.159531 76.32305) scale(0.05 -0.05)">
       <defs>
        <path id="ArialMT-33" d="M 269 1209 
L 831 1284 
Q 928 806 1161 595 
Q 1394 384 1728 384 
Q 2125 384 2398 659 
Q 2672 934 2672 1341 
Q 2672 1728 2419 1979 
Q 2166 2231 1775 2231 
Q 1616 2231 1378 2169 
L 1441 2663 
Q 1497 2656 1531 2656 
Q 1891 2656 2178 2843 
Q 2466 3031 2466 3422 
Q 2466 3731 2256 3934 
Q 2047 4138 1716 4138 
Q 1388 4138 1169 3931 
Q 950 3725 888 3313 
L 325 3413 
Q 428 3978 793 4289 
Q 1159 4600 1703 4600 
Q 2078 4600 2393 4439 
Q 2709 4278 2876 4000 
Q 3044 3722 3044 3409 
Q 3044 3113 2884 2869 
Q 2725 2625 2413 2481 
Q 2819 2388 3044 2092 
Q 3269 1797 3269 1353 
Q 3269 753 2831 336 
Q 2394 -81 1725 -81 
Q 1122 -81 723 278 
Q 325 638 269 1209 
z
" transform="scale(0.015625)"/>
       </defs>
       <use xlink:href="#ArialMT-30"/>
       <use xlink:href="#ArialMT-2e" x="55.615234"/>
       <use xlink:href="#ArialMT-30" x="83.398438"/>
       <use xlink:href="#ArialMT-33" x="139.013672"/>
      </g>
     </g>
    </g>
    <g id="ytick_5">
     <g id="line2d_23">
      <g>
       <use xlink:href="#m3f0e91c44b" x="28.89" y="62.32017" style="fill: #262626; stroke: #262626; stroke-width: 0.5"/>
      </g>
     </g>
     <g id="text_8">
      <!-- 0.04 -->
      <g style="fill: #262626" transform="translate(15.159531 64.109623) scale(0.05 -0.05)">
       <defs>
        <path id="ArialMT-34" d="M 2069 0 
L 2069 1097 
L 81 1097 
L 81 1613 
L 2172 4581 
L 2631 4581 
L 2631 1613 
L 3250 1613 
L 3250 1097 
L 2631 1097 
L 2631 0 
L 2069 0 
z
M 2069 1613 
L 2069 3678 
L 634 1613 
L 2069 1613 
z
" transform="scale(0.015625)"/>
       </defs>
       <use xlink:href="#ArialMT-30"/>
       <use xlink:href="#ArialMT-2e" x="55.615234"/>
       <use xlink:href="#ArialMT-30" x="83.398438"/>
       <use xlink:href="#ArialMT-34" x="139.013672"/>
      </g>
     </g>
    </g>
    <g id="ytick_6">
     <g id="line2d_24">
      <g>
       <use xlink:href="#m3f0e91c44b" x="28.89" y="50.106742" style="fill: #262626; stroke: #262626; stroke-width: 0.5"/>
      </g>
     </g>
     <g id="text_9">
      <!-- 0.05 -->
      <g style="fill: #262626" transform="translate(15.159531 51.896195) scale(0.05 -0.05)">
       <defs>
        <path id="ArialMT-35" d="M 266 1200 
L 856 1250 
Q 922 819 1161 601 
Q 1400 384 1738 384 
Q 2144 384 2425 690 
Q 2706 997 2706 1503 
Q 2706 1984 2436 2262 
Q 2166 2541 1728 2541 
Q 1456 2541 1237 2417 
Q 1019 2294 894 2097 
L 366 2166 
L 809 4519 
L 3088 4519 
L 3088 3981 
L 1259 3981 
L 1013 2750 
Q 1425 3038 1878 3038 
Q 2478 3038 2890 2622 
Q 3303 2206 3303 1553 
Q 3303 931 2941 478 
Q 2500 -78 1738 -78 
Q 1113 -78 717 272 
Q 322 622 266 1200 
z
" transform="scale(0.015625)"/>
       </defs>
       <use xlink:href="#ArialMT-30"/>
       <use xlink:href="#ArialMT-2e" x="55.615234"/>
       <use xlink:href="#ArialMT-30" x="83.398438"/>
       <use xlink:href="#ArialMT-35" x="139.013672"/>
      </g>
     </g>
    </g>
    <g id="ytick_7">
     <g id="line2d_25">
      <g>
       <use xlink:href="#m3f0e91c44b" x="28.89" y="37.893315" style="fill: #262626; stroke: #262626; stroke-width: 0.5"/>
      </g>
     </g>
     <g id="text_10">
      <!-- 0.06 -->
      <g style="fill: #262626" transform="translate(15.159531 39.682768) scale(0.05 -0.05)">
       <defs>
        <path id="ArialMT-36" d="M 3184 3459 
L 2625 3416 
Q 2550 3747 2413 3897 
Q 2184 4138 1850 4138 
Q 1581 4138 1378 3988 
Q 1113 3794 959 3422 
Q 806 3050 800 2363 
Q 1003 2672 1297 2822 
Q 1591 2972 1913 2972 
Q 2475 2972 2870 2558 
Q 3266 2144 3266 1488 
Q 3266 1056 3080 686 
Q 2894 316 2569 119 
Q 2244 -78 1831 -78 
Q 1128 -78 684 439 
Q 241 956 241 2144 
Q 241 3472 731 4075 
Q 1159 4600 1884 4600 
Q 2425 4600 2770 4297 
Q 3116 3994 3184 3459 
z
M 888 1484 
Q 888 1194 1011 928 
Q 1134 663 1356 523 
Q 1578 384 1822 384 
Q 2178 384 2434 671 
Q 2691 959 2691 1453 
Q 2691 1928 2437 2201 
Q 2184 2475 1800 2475 
Q 1419 2475 1153 2201 
Q 888 1928 888 1484 
z
" transform="scale(0.015625)"/>
       </defs>
       <use xlink:href="#ArialMT-30"/>
       <use xlink:href="#ArialMT-2e" x="55.615234"/>
       <use xlink:href="#ArialMT-30" x="83.398438"/>
       <use xlink:href="#ArialMT-36" x="139.013672"/>
      </g>
     </g>
    </g>
    <g id="ytick_8">
     <g id="line2d_26">
      <g>
       <use xlink:href="#m3f0e91c44b" x="28.89" y="25.679887" style="fill: #262626; stroke: #262626; stroke-width: 0.5"/>
      </g>
     </g>
     <g id="text_11">
      <!-- 0.07 -->
      <g style="fill: #262626" transform="translate(15.159531 27.46934) scale(0.05 -0.05)">
       <defs>
        <path id="ArialMT-37" d="M 303 3981 
L 303 4522 
L 3269 4522 
L 3269 4084 
Q 2831 3619 2401 2847 
Q 1972 2075 1738 1259 
Q 1569 684 1522 0 
L 944 0 
Q 953 541 1156 1306 
Q 1359 2072 1739 2783 
Q 2119 3494 2547 3981 
L 303 3981 
z
" transform="scale(0.015625)"/>
       </defs>
       <use xlink:href="#ArialMT-30"/>
       <use xlink:href="#ArialMT-2e" x="55.615234"/>
       <use xlink:href="#ArialMT-30" x="83.398438"/>
       <use xlink:href="#ArialMT-37" x="139.013672"/>
      </g>
     </g>
    </g>
    <g id="ytick_9">
     <g id="line2d_27">
      <g>
       <use xlink:href="#m3f0e91c44b" x="28.89" y="13.46646" style="fill: #262626; stroke: #262626; stroke-width: 0.5"/>
      </g>
     </g>
     <g id="text_12">
      <!-- 0.08 -->
      <g style="fill: #262626" transform="translate(15.159531 15.255913) scale(0.05 -0.05)">
       <defs>
        <path id="ArialMT-38" d="M 1131 2484 
Q 781 2613 612 2850 
Q 444 3088 444 3419 
Q 444 3919 803 4259 
Q 1163 4600 1759 4600 
Q 2359 4600 2725 4251 
Q 3091 3903 3091 3403 
Q 3091 3084 2923 2848 
Q 2756 2613 2416 2484 
Q 2838 2347 3058 2040 
Q 3278 1734 3278 1309 
Q 3278 722 2862 322 
Q 2447 -78 1769 -78 
Q 1091 -78 675 323 
Q 259 725 259 1325 
Q 259 1772 486 2073 
Q 713 2375 1131 2484 
z
M 1019 3438 
Q 1019 3113 1228 2906 
Q 1438 2700 1772 2700 
Q 2097 2700 2305 2904 
Q 2513 3109 2513 3406 
Q 2513 3716 2298 3927 
Q 2084 4138 1766 4138 
Q 1444 4138 1231 3931 
Q 1019 3725 1019 3438 
z
M 838 1322 
Q 838 1081 952 856 
Q 1066 631 1291 507 
Q 1516 384 1775 384 
Q 2178 384 2440 643 
Q 2703 903 2703 1303 
Q 2703 1709 2433 1975 
Q 2163 2241 1756 2241 
Q 1359 2241 1098 1978 
Q 838 1716 838 1322 
z
" transform="scale(0.015625)"/>
       </defs>
       <use xlink:href="#ArialMT-30"/>
       <use xlink:href="#ArialMT-2e" x="55.615234"/>
       <use xlink:href="#ArialMT-30" x="83.398438"/>
       <use xlink:href="#ArialMT-38" x="139.013672"/>
      </g>
     </g>
    </g>
    <g id="text_13">
     <!-- Posterior occupancy -->
     <g style="fill: #262626" transform="translate(11.896719 88.71225) rotate(-90) scale(0.06 -0.06)">
      <defs>
       <path id="ArialMT-50" d="M 494 0 
L 494 4581 
L 2222 4581 
Q 2678 4581 2919 4538 
Q 3256 4481 3484 4323 
Q 3713 4166 3852 3881 
Q 3991 3597 3991 3256 
Q 3991 2672 3619 2267 
Q 3247 1863 2275 1863 
L 1100 1863 
L 1100 0 
L 494 0 
z
M 1100 2403 
L 2284 2403 
Q 2872 2403 3119 2622 
Q 3366 2841 3366 3238 
Q 3366 3525 3220 3729 
Q 3075 3934 2838 4000 
Q 2684 4041 2272 4041 
L 1100 4041 
L 1100 2403 
z
" transform="scale(0.015625)"/>
       <path id="ArialMT-79" d="M 397 -1278 
L 334 -750 
Q 519 -800 656 -800 
Q 844 -800 956 -737 
Q 1069 -675 1141 -563 
Q 1194 -478 1313 -144 
Q 1328 -97 1363 -6 
L 103 3319 
L 709 3319 
L 1400 1397 
Q 1534 1031 1641 628 
Q 1738 1016 1872 1384 
L 2581 3319 
L 3144 3319 
L 1881 -56 
Q 1678 -603 1566 -809 
Q 1416 -1088 1222 -1217 
Q 1028 -1347 759 -1347 
Q 597 -1347 397 -1278 
z
" transform="scale(0.015625)"/>
      </defs>
      <use xlink:href="#ArialMT-50"/>
      <use xlink:href="#ArialMT-6f" x="66.699219"/>
      <use xlink:href="#ArialMT-73" x="122.314453"/>
      <use xlink:href="#ArialMT-74" x="172.314453"/>
      <use xlink:href="#ArialMT-65" x="200.097656"/>
      <use xlink:href="#ArialMT-72" x="255.712891"/>
      <use xlink:href="#ArialMT-69" x="289.013672"/>
      <use xlink:href="#ArialMT-6f" x="311.230469"/>
      <use xlink:href="#ArialMT-72" x="366.845703"/>
      <use xlink:href="#ArialMT-20" x="400.146484"/>
      <use xlink:href="#ArialMT-6f" x="427.929688"/>
      <use xlink:href="#ArialMT-63" x="483.544922"/>
      <use xlink:href="#ArialMT-63" x="533.544922"/>
      <use xlink:href="#ArialMT-75" x="583.544922"/>
      <use xlink:href="#ArialMT-70" x="639.160156"/>
      <use xlink:href="#ArialMT-61" x="694.775391"/>
      <use xlink:href="#ArialMT-6e" x="750.390625"/>
      <use xlink:href="#ArialMT-63" x="806.005859"/>
      <use xlink:href="#ArialMT-79" x="856.005859"/>
     </g>
    </g>
   </g>
   <g id="line2d_28">
    <path d="M 29.096728 105.164449 
L 32.228497 105.268765 
L 35.360265 105.32002 
L 38.492033 105.3205 
L 41.623801 105.269527 
L 44.755569 105.163248 
L 47.887337 104.994097 
L 51.019105 104.749899 
L 54.150873 104.412479 
L 57.282642 103.955478 
L 60.41441 103.340736 
L 63.546178 102.512896 
L 66.677946 101.397466 
L 69.809714 99.921228 
L 72.941482 98.06583 
L 76.07325 95.902992 
L 79.205018 93.539397 
L 82.336786 91.01066 
L 85.468555 88.238657 
L 88.600323 85.089836 
L 91.732091 81.487115 
L 94.863859 77.515733 
L 97.995627 73.465214 
L 101.127395 69.755555 
L 104.259163 66.759843 
L 107.390931 64.633865 
L 110.5227 63.273737 
L 113.654468 62.41139 
L 116.786236 61.753785 
L 119.918004 61.073826 
L 123.049772 60.226816 
L 126.18154 59.119884 
L 129.313308 57.684777 
L 132.445076 55.911417 
L 135.576845 53.996646 
L 138.708613 52.629279 
L 141.840381 53.283892 
L 144.972149 58.00819 
L 148.103917 67.910723 
L 151.235685 80.93913 
L 154.367453 92.461852 
L 157.499221 99.686728 
L 160.630989 103.490174 
L 163.762758 105.622684 
L 166.894526 106.980225 
L 170.026294 107.907992 
L 173.158062 108.568592 
L 176.28983 109.053732 
L 179.421598 109.419196 
L 182.553366 109.70051 
L 185.685134 109.921117 
L 188.816903 110.096947 
L 191.948671 110.239106 
L 195.080439 110.355507 
L 198.212207 110.4519 
L 201.343975 110.532538 
L 204.475743 110.600616 
" clip-path="url(#p6d3a2a82c9)" style="fill: none; stroke: #0173b2; stroke-linecap: round"/>
   </g>
   <g id="line2d_29">
    <path d="M 123.981274 115.507313 
L 123.981274 7.56 
" clip-path="url(#p6d3a2a82c9)" style="fill: none; stroke: #0173b2; stroke-width: 0.5; stroke-linecap: round"/>
   </g>
   <g id="line2d_30">
    <path d="M 29.096728 102.901039 
L 32.228497 103.028229 
L 35.360265 103.074235 
L 38.492033 103.0446 
L 41.623801 102.941063 
L 44.755569 102.761848 
L 47.887337 102.501529 
L 51.019105 102.15057 
L 54.150873 101.694651 
L 57.282642 101.114066 
L 60.41441 100.383784 
L 63.546178 99.47552 
L 66.677946 98.364564 
L 69.809714 97.045991 
L 72.941482 95.558623 
L 76.07325 93.988902 
L 79.205018 92.418519 
L 82.336786 90.844063 
L 85.468555 89.144185 
L 88.600323 87.110687 
L 91.732091 84.502454 
L 94.863859 81.104479 
L 97.995627 76.813599 
L 101.127395 71.758254 
L 104.259163 66.385188 
L 107.390931 61.388182 
L 110.5227 57.435967 
L 113.654468 54.854246 
L 116.786236 53.49505 
L 119.918004 52.868702 
L 123.049772 52.420087 
L 126.18154 51.809444 
L 129.313308 51.160222 
L 132.445076 51.274473 
L 135.576845 53.638956 
L 138.708613 59.736459 
L 141.840381 69.495121 
L 144.972149 80.421627 
L 148.103917 89.466736 
L 151.235685 95.617372 
L 154.367453 99.613712 
L 157.499221 102.321691 
L 160.630989 104.235724 
L 163.762758 105.627926 
L 166.894526 106.664162 
L 170.026294 107.451174 
L 173.158062 108.059751 
L 176.28983 108.537979 
L 179.421598 108.919224 
L 182.553366 109.227096 
L 185.685134 109.478618 
L 188.816903 109.686279 
L 191.948671 109.859387 
L 195.080439 110.004985 
L 198.212207 110.128469 
L 201.343975 110.234021 
L 204.475743 110.324911 
" clip-path="url(#p6d3a2a82c9)" style="fill: none; stroke: #0173b2; stroke-linecap: round"/>
   </g>
   <g id="line2d_31">
    <path d="M 121.074996 115.507313 
L 121.074996 7.56 
" clip-path="url(#p6d3a2a82c9)" style="fill: none; stroke: #0173b2; stroke-width: 0.5; stroke-linecap: round"/>
   </g>
   <g id="line2d_32">
    <path d="M 29.096728 103.926299 
L 32.228497 104.112126 
L 35.360265 104.227543 
L 38.492033 104.279655 
L 41.623801 104.272015 
L 44.755569 104.205055 
L 47.887337 104.076128 
L 51.019105 103.879207 
L 54.150873 103.60425 
L 57.282642 103.236153 
L 60.41441 102.753209 
L 63.546178 102.125015 
L 66.677946 101.309978 
L 69.809714 100.253233 
L 72.941482 98.888114 
L 76.07325 97.154064 
L 79.205018 95.05422 
L 82.336786 92.718377 
L 85.468555 90.339422 
L 88.600323 87.979919 
L 91.732091 85.455145 
L 94.863859 82.381367 
L 97.995627 78.29652 
L 101.127395 72.817653 
L 104.259163 65.91014 
L 107.390931 58.258798 
L 110.5227 51.401618 
L 113.654468 47.124545 
L 116.786236 46.288084 
L 119.918004 48.199403 
L 123.049772 51.199004 
L 126.18154 53.742788 
L 129.313308 55.044749 
L 132.445076 55.229706 
L 135.576845 55.390056 
L 138.708613 57.521838 
L 141.840381 63.6087 
L 144.972149 73.558024 
L 148.103917 84.331265 
L 151.235685 92.725936 
L 154.367453 98.149651 
L 157.499221 101.589025 
L 160.630989 103.887037 
L 163.762758 105.490339 
L 166.894526 106.644258 
L 170.026294 107.496334 
L 173.158062 108.139653 
L 176.28983 108.634908 
L 179.421598 109.022781 
L 182.553366 109.331212 
L 185.685134 109.579818 
L 188.816903 109.782643 
L 191.948671 109.949928 
L 195.080439 110.089263 
L 198.212207 110.206361 
L 201.343975 110.305579 
L 204.475743 110.390283 
" clip-path="url(#p6d3a2a82c9)" style="fill: none; stroke: #0173b2; stroke-linecap: round"/>
   </g>
   <g id="line2d_33">
    <path d="M 122.483019 115.507313 
L 122.483019 7.56 
" clip-path="url(#p6d3a2a82c9)" style="fill: none; stroke: #0173b2; stroke-width: 0.5; stroke-linecap: round"/>
   </g>
   <g id="line2d_34">
    <path d="M 29.096728 106.341806 
L 32.228497 106.390064 
L 35.360265 106.406647 
L 38.492033 106.393783 
L 41.623801 106.352375 
L 44.755569 106.282247 
L 47.887337 106.18226 
L 51.019105 106.050354 
L 54.150873 105.883533 
L 57.282642 105.677812 
L 60.41441 105.428159 
L 63.546178 105.128449 
L 66.677946 104.771453 
L 69.809714 104.348832 
L 72.941482 103.850974 
L 76.07325 103.266252 
L 79.205018 102.579006 
L 82.336786 101.765354 
L 85.468555 100.785993 
L 88.600323 99.575424 
L 91.732091 98.027827 
L 94.863859 95.984423 
L 97.995627 93.241593 
L 101.127395 89.620266 
L 104.259163 85.12903 
L 107.390931 80.157699 
L 110.5227 75.494248 
L 113.654468 71.991852 
L 116.786236 70.050615 
L 119.918004 69.350734 
L 123.049772 69.036505 
L 126.18154 68.085661 
L 129.313308 65.512706 
L 132.445076 60.346159 
L 135.576845 51.620602 
L 138.708613 38.869655 
L 141.840381 23.754866 
L 144.972149 12.466696 
L 148.103917 14.887617 
L 151.235685 35.34292 
L 154.367453 63.585902 
L 157.499221 84.752499 
L 160.630989 95.516589 
L 163.762758 100.621371 
L 166.894526 103.507069 
L 170.026294 105.371769 
L 173.158062 106.652413 
L 176.28983 107.565968 
L 179.421598 108.237039 
L 182.553366 108.742125 
L 185.685134 109.130329 
L 188.816903 109.434255 
L 191.948671 109.676152 
L 195.080439 109.871558 
L 198.212207 110.031543 
L 201.343975 110.164131 
L 204.475743 110.275232 
" clip-path="url(#p6d3a2a82c9)" style="fill: none; stroke: #de8f05; stroke-linecap: round"/>
   </g>
   <g id="line2d_35">
    <path d="M 134.623329 115.507313 
L 134.623329 7.56 
" clip-path="url(#p6d3a2a82c9)" style="fill: none; stroke: #de8f05; stroke-width: 0.5; stroke-linecap: round"/>
   </g>
   <g id="line2d_36">
    <path d="M 29.096728 104.703259 
L 32.228497 104.832826 
L 35.360265 104.913105 
L 38.492033 104.946336 
L 41.623801 104.932901 
L 44.755569 104.871638 
L 47.887337 104.759979 
L 51.019105 104.593975 
L 54.150873 104.368256 
L 57.282642 104.075969 
L 60.41441 103.708764 
L 63.546178 103.256909 
L 66.677946 102.709652 
L 69.809714 102.056022 
L 72.941482 101.286169 
L 76.07325 100.393243 
L 79.205018 99.375337 
L 82.336786 98.236411 
L 85.468555 96.984407 
L 88.600323 95.624764 
L 91.732091 94.149929 
L 94.863859 92.529848 
L 97.995627 90.710045 
L 101.127395 88.620971 
L 104.259163 86.199249 
L 107.390931 83.419073 
L 110.5227 80.323976 
L 113.654468 77.032855 
L 116.786236 73.689026 
L 119.918004 70.354794 
L 123.049772 66.908191 
L 126.18154 63.007311 
L 129.313308 58.141804 
L 132.445076 51.77792 
L 135.576845 43.691752 
L 138.708613 34.694972 
L 141.840381 27.701543 
L 144.972149 27.817119 
L 148.103917 38.883244 
L 151.235685 57.853163 
L 154.367453 76.017064 
L 157.499221 88.096494 
L 160.630989 95.076719 
L 163.762758 99.332227 
L 166.894526 102.15082 
L 170.026294 104.113297 
L 173.158062 105.526772 
L 176.28983 106.57283 
L 179.421598 107.364902 
L 182.553366 107.97663 
L 185.685134 108.457337 
L 188.816903 108.840934 
L 191.948671 109.151271 
L 195.080439 109.405458 
L 198.212207 109.615986 
L 201.343975 109.792119 
L 204.475743 109.94083 
" clip-path="url(#p6d3a2a82c9)" style="fill: none; stroke: #de8f05; stroke-linecap: round"/>
   </g>
   <g id="line2d_37">
    <path d="M 132.88338 115.507313 
L 132.88338 7.56 
" clip-path="url(#p6d3a2a82c9)" style="fill: none; stroke: #de8f05; stroke-width: 0.5; stroke-linecap: round"/>
   </g>
   <g id="line2d_38">
    <path d="M 29.096728 102.908165 
L 32.228497 103.111576 
L 35.360265 103.257708 
L 38.492033 103.352819 
L 41.623801 103.401032 
L 44.755569 103.404786 
L 47.887337 103.365076 
L 51.019105 103.281535 
L 54.150873 103.152416 
L 57.282642 102.974505 
L 60.41441 102.742993 
L 63.546178 102.451229 
L 66.677946 102.090248 
L 69.809714 101.647911 
L 72.941482 101.10742 
L 76.07325 100.444994 
L 79.205018 99.626288 
L 82.336786 98.600953 
L 85.468555 97.294559 
L 88.600323 95.599222 
L 91.732091 93.374347 
L 94.863859 90.49205 
L 97.995627 86.970312 
L 101.127395 83.147747 
L 104.259163 79.680708 
L 107.390931 77.197193 
L 110.5227 75.863355 
L 113.654468 75.299687 
L 116.786236 74.858631 
L 119.918004 73.914382 
L 123.049772 71.958352 
L 126.18154 68.55823 
L 129.313308 63.323104 
L 132.445076 56.004644 
L 135.576845 46.856362 
L 138.708613 37.293863 
L 141.840381 30.516804 
L 144.972149 30.978347 
L 148.103917 41.436211 
L 151.235685 59.130497 
L 154.367453 76.69968 
L 157.499221 88.898701 
L 160.630989 95.957787 
L 163.762758 100.132643 
L 166.894526 102.840872 
L 170.026294 104.70457 
L 173.158062 106.033687 
L 176.28983 107.008165 
L 179.421598 107.7397 
L 182.553366 108.300371 
L 185.685134 108.738104 
L 188.816903 109.085573 
L 191.948671 109.365539 
L 195.080439 109.594172 
L 198.212207 109.783157 
L 201.343975 109.941079 
L 204.475743 110.074334 
" clip-path="url(#p6d3a2a82c9)" style="fill: none; stroke: #de8f05; stroke-linecap: round"/>
   </g>
   <g id="line2d_39">
    <path d="M 131.377749 115.507313 
L 131.377749 7.56 
" clip-path="url(#p6d3a2a82c9)" style="fill: none; stroke: #de8f05; stroke-width: 0.5; stroke-linecap: round"/>
   </g>
   <g id="patch_3">
    <path d="M 28.89 115.507313 
L 28.89 7.56 
" style="fill: none; stroke: #262626; stroke-width: 0.5; stroke-linejoin: miter; stroke-linecap: square"/>
   </g>
   <g id="patch_4">
    <path d="M 28.89 115.507313 
L 204.475743 115.507313 
" style="fill: none; stroke: #262626; stroke-width: 0.5; stroke-linejoin: miter; stroke-linecap: square"/>
   </g>
   <g id="legend_1">
    <g id="text_14">
     <!-- mEos3.2 tracking -->
     <g style="fill: #262626" transform="translate(39.389531 16.3725) scale(0.06 -0.06)">
      <defs>
       <path id="ArialMT-45" d="M 506 0 
L 506 4581 
L 3819 4581 
L 3819 4041 
L 1113 4041 
L 1113 2638 
L 3647 2638 
L 3647 2100 
L 1113 2100 
L 1113 541 
L 3925 541 
L 3925 0 
L 506 0 
z
" transform="scale(0.015625)"/>
       <path id="ArialMT-6b" d="M 425 0 
L 425 4581 
L 988 4581 
L 988 1969 
L 2319 3319 
L 3047 3319 
L 1778 2088 
L 3175 0 
L 2481 0 
L 1384 1697 
L 988 1316 
L 988 0 
L 425 0 
z
" transform="scale(0.015625)"/>
       <path id="ArialMT-67" d="M 319 -275 
L 866 -356 
Q 900 -609 1056 -725 
Q 1266 -881 1628 -881 
Q 2019 -881 2231 -725 
Q 2444 -569 2519 -288 
Q 2563 -116 2559 434 
Q 2191 0 1641 0 
Q 956 0 581 494 
Q 206 988 206 1678 
Q 206 2153 378 2554 
Q 550 2956 876 3175 
Q 1203 3394 1644 3394 
Q 2231 3394 2613 2919 
L 2613 3319 
L 3131 3319 
L 3131 450 
Q 3131 -325 2973 -648 
Q 2816 -972 2473 -1159 
Q 2131 -1347 1631 -1347 
Q 1038 -1347 672 -1080 
Q 306 -813 319 -275 
z
M 784 1719 
Q 784 1066 1043 766 
Q 1303 466 1694 466 
Q 2081 466 2343 764 
Q 2606 1063 2606 1700 
Q 2606 2309 2336 2618 
Q 2066 2928 1684 2928 
Q 1309 2928 1046 2623 
Q 784 2319 784 1719 
z
" transform="scale(0.015625)"/>
      </defs>
      <use xlink:href="#ArialMT-6d"/>
      <use xlink:href="#ArialMT-45" x="83.300781"/>
      <use xlink:href="#ArialMT-6f" x="150"/>
      <use xlink:href="#ArialMT-73" x="205.615234"/>
      <use xlink:href="#ArialMT-33" x="255.615234"/>
      <use xlink:href="#ArialMT-2e" x="311.230469"/>
      <use xlink:href="#ArialMT-32" x="339.013672"/>
      <use xlink:href="#ArialMT-20" x="394.628906"/>
      <use xlink:href="#ArialMT-74" x="422.412109"/>
      <use xlink:href="#ArialMT-72" x="450.195312"/>
      <use xlink:href="#ArialMT-61" x="483.496094"/>
      <use xlink:href="#ArialMT-63" x="539.111328"/>
      <use xlink:href="#ArialMT-6b" x="589.111328"/>
      <use xlink:href="#ArialMT-69" x="639.111328"/>
      <use xlink:href="#ArialMT-6e" x="661.328125"/>
      <use xlink:href="#ArialMT-67" x="716.943359"/>
     </g>
    </g>
    <g id="line2d_40">
     <path d="M 33.39 22.935313 
L 38.39 22.935313 
L 43.39 22.935313 
" style="fill: none; stroke: #0173b2; stroke-linecap: round"/>
    </g>
    <g id="text_15">
     <!-- $\text{PerM}^\text{n1}$ | $\text{FtsB}^\text{ΔLQ}$ -->
     <g style="fill: #262626" transform="translate(47.39 24.685313) scale(0.05 -0.05)">
      <defs>
       <path id="DejaVuSans-50" d="M 1259 4147 
L 1259 2394 
L 2053 2394 
Q 2494 2394 2734 2622 
Q 2975 2850 2975 3272 
Q 2975 3691 2734 3919 
Q 2494 4147 2053 4147 
L 1259 4147 
z
M 628 4666 
L 2053 4666 
Q 2838 4666 3239 4311 
Q 3641 3956 3641 3272 
Q 3641 2581 3239 2228 
Q 2838 1875 2053 1875 
L 1259 1875 
L 1259 0 
L 628 0 
L 628 4666 
z
" transform="scale(0.015625)"/>
       <path id="DejaVuSans-65" d="M 3597 1894 
L 3597 1613 
L 953 1613 
Q 991 1019 1311 708 
Q 1631 397 2203 397 
Q 2534 397 2845 478 
Q 3156 559 3463 722 
L 3463 178 
Q 3153 47 2828 -22 
Q 2503 -91 2169 -91 
Q 1331 -91 842 396 
Q 353 884 353 1716 
Q 353 2575 817 3079 
Q 1281 3584 2069 3584 
Q 2775 3584 3186 3129 
Q 3597 2675 3597 1894 
z
M 3022 2063 
Q 3016 2534 2758 2815 
Q 2500 3097 2075 3097 
Q 1594 3097 1305 2825 
Q 1016 2553 972 2059 
L 3022 2063 
z
" transform="scale(0.015625)"/>
       <path id="DejaVuSans-72" d="M 2631 2963 
Q 2534 3019 2420 3045 
Q 2306 3072 2169 3072 
Q 1681 3072 1420 2755 
Q 1159 2438 1159 1844 
L 1159 0 
L 581 0 
L 581 3500 
L 1159 3500 
L 1159 2956 
Q 1341 3275 1631 3429 
Q 1922 3584 2338 3584 
Q 2397 3584 2469 3576 
Q 2541 3569 2628 3553 
L 2631 2963 
z
" transform="scale(0.015625)"/>
       <path id="DejaVuSans-4d" d="M 628 4666 
L 1569 4666 
L 2759 1491 
L 3956 4666 
L 4897 4666 
L 4897 0 
L 4281 0 
L 4281 4097 
L 3078 897 
L 2444 897 
L 1241 4097 
L 1241 0 
L 628 0 
L 628 4666 
z
" transform="scale(0.015625)"/>
       <path id="DejaVuSans-6e" d="M 3513 2113 
L 3513 0 
L 2938 0 
L 2938 2094 
Q 2938 2591 2744 2837 
Q 2550 3084 2163 3084 
Q 1697 3084 1428 2787 
Q 1159 2491 1159 1978 
L 1159 0 
L 581 0 
L 581 3500 
L 1159 3500 
L 1159 2956 
Q 1366 3272 1645 3428 
Q 1925 3584 2291 3584 
Q 2894 3584 3203 3211 
Q 3513 2838 3513 2113 
z
" transform="scale(0.015625)"/>
       <path id="ArialMT-7c" d="M 588 -1347 
L 588 4659 
L 1078 4659 
L 1078 -1347 
L 588 -1347 
z
" transform="scale(0.015625)"/>
       <path id="DejaVuSans-46" d="M 628 4666 
L 3309 4666 
L 3309 4134 
L 1259 4134 
L 1259 2759 
L 3109 2759 
L 3109 2228 
L 1259 2228 
L 1259 0 
L 628 0 
L 628 4666 
z
" transform="scale(0.015625)"/>
       <path id="DejaVuSans-74" d="M 1172 4494 
L 1172 3500 
L 2356 3500 
L 2356 3053 
L 1172 3053 
L 1172 1153 
Q 1172 725 1289 603 
Q 1406 481 1766 481 
L 2356 481 
L 2356 0 
L 1766 0 
Q 1100 0 847 248 
Q 594 497 594 1153 
L 594 3053 
L 172 3053 
L 172 3500 
L 594 3500 
L 594 4494 
L 1172 4494 
z
" transform="scale(0.015625)"/>
       <path id="DejaVuSans-73" d="M 2834 3397 
L 2834 2853 
Q 2591 2978 2328 3040 
Q 2066 3103 1784 3103 
Q 1356 3103 1142 2972 
Q 928 2841 928 2578 
Q 928 2378 1081 2264 
Q 1234 2150 1697 2047 
L 1894 2003 
Q 2506 1872 2764 1633 
Q 3022 1394 3022 966 
Q 3022 478 2636 193 
Q 2250 -91 1575 -91 
Q 1294 -91 989 -36 
Q 684 19 347 128 
L 347 722 
Q 666 556 975 473 
Q 1284 391 1588 391 
Q 1994 391 2212 530 
Q 2431 669 2431 922 
Q 2431 1156 2273 1281 
Q 2116 1406 1581 1522 
L 1381 1569 
Q 847 1681 609 1914 
Q 372 2147 372 2553 
Q 372 3047 722 3315 
Q 1072 3584 1716 3584 
Q 2034 3584 2315 3537 
Q 2597 3491 2834 3397 
z
" transform="scale(0.015625)"/>
       <path id="DejaVuSans-42" d="M 1259 2228 
L 1259 519 
L 2272 519 
Q 2781 519 3026 730 
Q 3272 941 3272 1375 
Q 3272 1813 3026 2020 
Q 2781 2228 2272 2228 
L 1259 2228 
z
M 1259 4147 
L 1259 2741 
L 2194 2741 
Q 2656 2741 2882 2914 
Q 3109 3088 3109 3444 
Q 3109 3797 2882 3972 
Q 2656 4147 2194 4147 
L 1259 4147 
z
M 628 4666 
L 2241 4666 
Q 2963 4666 3353 4366 
Q 3744 4066 3744 3513 
Q 3744 3084 3544 2831 
Q 3344 2578 2956 2516 
Q 3422 2416 3680 2098 
Q 3938 1781 3938 1306 
Q 3938 681 3513 340 
Q 3088 0 2303 0 
L 628 0 
L 628 4666 
z
" transform="scale(0.015625)"/>
       <path id="DejaVuSans-394" d="M 2188 4044 
L 906 525 
L 3472 525 
L 2188 4044 
z
M 50 0 
L 1831 4666 
L 2547 4666 
L 4325 0 
L 50 0 
z
" transform="scale(0.015625)"/>
       <path id="DejaVuSans-4c" d="M 628 4666 
L 1259 4666 
L 1259 531 
L 3531 531 
L 3531 0 
L 628 0 
L 628 4666 
z
" transform="scale(0.015625)"/>
       <path id="DejaVuSans-51" d="M 2522 4238 
Q 1834 4238 1429 3725 
Q 1025 3213 1025 2328 
Q 1025 1447 1429 934 
Q 1834 422 2522 422 
Q 3209 422 3611 934 
Q 4013 1447 4013 2328 
Q 4013 3213 3611 3725 
Q 3209 4238 2522 4238 
z
M 3406 84 
L 4238 -825 
L 3475 -825 
L 2784 -78 
Q 2681 -84 2626 -87 
Q 2572 -91 2522 -91 
Q 1538 -91 948 567 
Q 359 1225 359 2328 
Q 359 3434 948 4092 
Q 1538 4750 2522 4750 
Q 3503 4750 4090 4092 
Q 4678 3434 4678 2328 
Q 4678 1516 4351 937 
Q 4025 359 3406 84 
z
" transform="scale(0.015625)"/>
      </defs>
      <use xlink:href="#DejaVuSans-50" transform="translate(0 0.765625)"/>
      <use xlink:href="#DejaVuSans-65" transform="translate(60.302734 0.765625)"/>
      <use xlink:href="#DejaVuSans-72" transform="translate(121.826172 0.765625)"/>
      <use xlink:href="#DejaVuSans-4d" transform="translate(162.939453 0.765625)"/>
      <use xlink:href="#DejaVuSans-6e" transform="translate(250.175781 39.046875) scale(0.7)"/>
      <use xlink:href="#DejaVuSans-31" transform="translate(294.541016 39.046875) scale(0.7)"/>
      <use xlink:href="#ArialMT-20" transform="translate(341.811523 0.765625)"/>
      <use xlink:href="#ArialMT-7c" transform="translate(369.594727 0.765625)"/>
      <use xlink:href="#ArialMT-20" transform="translate(395.571289 0.765625)"/>
      <use xlink:href="#DejaVuSans-46" transform="translate(423.354492 0.765625)"/>
      <use xlink:href="#DejaVuSans-74" transform="translate(480.874023 0.765625)"/>
      <use xlink:href="#DejaVuSans-73" transform="translate(520.083008 0.765625)"/>
      <use xlink:href="#DejaVuSans-42" transform="translate(572.182617 0.765625)"/>
      <use xlink:href="#DejaVuSans-394" transform="translate(641.743164 39.046875) scale(0.7)"/>
      <use xlink:href="#DejaVuSans-4c" transform="translate(689.628906 39.046875) scale(0.7)"/>
      <use xlink:href="#DejaVuSans-51" transform="translate(728.62793 39.046875) scale(0.7)"/>
     </g>
    </g>
    <g id="line2d_41">
     <path d="M 33.39 31.085313 
L 38.39 31.085313 
L 43.39 31.085313 
" style="fill: none; stroke: #de8f05; stroke-linecap: round"/>
    </g>
    <g id="text_16">
     <!-- $\text{PerM}^\text{n1}$ | $\text{FtsB}^\text{ΔLQΔH}$ -->
     <g style="fill: #262626" transform="translate(47.39 32.835313) scale(0.05 -0.05)">
      <defs>
       <path id="DejaVuSans-48" d="M 628 4666 
L 1259 4666 
L 1259 2753 
L 3553 2753 
L 3553 4666 
L 4184 4666 
L 4184 0 
L 3553 0 
L 3553 2222 
L 1259 2222 
L 1259 0 
L 628 0 
L 628 4666 
z
" transform="scale(0.015625)"/>
      </defs>
      <use xlink:href="#DejaVuSans-50" transform="translate(0 0.765625)"/>
      <use xlink:href="#DejaVuSans-65" transform="translate(60.302734 0.765625)"/>
      <use xlink:href="#DejaVuSans-72" transform="translate(121.826172 0.765625)"/>
      <use xlink:href="#DejaVuSans-4d" transform="translate(162.939453 0.765625)"/>
      <use xlink:href="#DejaVuSans-6e" transform="translate(250.175781 39.046875) scale(0.7)"/>
      <use xlink:href="#DejaVuSans-31" transform="translate(294.541016 39.046875) scale(0.7)"/>
      <use xlink:href="#ArialMT-20" transform="translate(341.811523 0.765625)"/>
      <use xlink:href="#ArialMT-7c" transform="translate(369.594727 0.765625)"/>
      <use xlink:href="#ArialMT-20" transform="translate(395.571289 0.765625)"/>
      <use xlink:href="#DejaVuSans-46" transform="translate(423.354492 0.765625)"/>
      <use xlink:href="#DejaVuSans-74" transform="translate(480.874023 0.765625)"/>
      <use xlink:href="#DejaVuSans-73" transform="translate(520.083008 0.765625)"/>
      <use xlink:href="#DejaVuSans-42" transform="translate(572.182617 0.765625)"/>
      <use xlink:href="#DejaVuSans-394" transform="translate(641.743164 39.046875) scale(0.7)"/>
      <use xlink:href="#DejaVuSans-4c" transform="translate(689.628906 39.046875) scale(0.7)"/>
      <use xlink:href="#DejaVuSans-51" transform="translate(728.62793 39.046875) scale(0.7)"/>
      <use xlink:href="#DejaVuSans-394" transform="translate(783.725586 39.046875) scale(0.7)"/>
      <use xlink:href="#DejaVuSans-48" transform="translate(831.611328 39.046875) scale(0.7)"/>
     </g>
    </g>
   </g>
  </g>
 </g>
 <defs>
  <clipPath id="p6d3a2a82c9">
   <rect x="28.89" y="7.56" width="175.585743" height="107.947313"/>
  </clipPath>
 </defs>
</svg>
