<?xml version="1.0" encoding="utf-8" standalone="no"?>
<!DOCTYPE svg PUBLIC "-//W3C//DTD SVG 1.1//EN"
  "http://www.w3.org/Graphics/SVG/1.1/DTD/svg11.dtd">
<svg xmlns:xlink="http://www.w3.org/1999/xlink" width="216pt" height="144pt" viewBox="0 0 216 144" xmlns="http://www.w3.org/2000/svg" version="1.1">
 <metadata>
  <rdf:RDF xmlns:dc="http://purl.org/dc/elements/1.1/" xmlns:cc="http://creativecommons.org/ns#" xmlns:rdf="http://www.w3.org/1999/02/22-rdf-syntax-ns#">
   <cc:Work>
    <dc:type rdf:resource="http://purl.org/dc/dcmitype/StillImage"/>
    <dc:date>2024-03-04T23:28:15.771125</dc:date>
    <dc:format>image/svg+xml</dc:format>
    <dc:creator>
     <cc:Agent>
      <dc:title>Matplotlib v3.8.2, https://matplotlib.org/</dc:title>
     </cc:Agent>
    </dc:creator>
   </cc:Work>
  </rdf:RDF>
 </metadata>
 <defs>
  <style type="text/css">*{stroke-linejoin: round; stroke-linecap: butt}</style>
 </defs>
 <g id="figure_1">
  <g id="patch_1">
   <path d="M 0 144 
L 216 144 
L 216 0 
L 0 0 
z
" style="fill: #ffffff"/>
  </g>
  <g id="axes_1">
   <g id="patch_2">
    <path d="M 30.89 113.507312 
L 204.475743 113.507312 
L 204.475743 7.618777 
L 30.89 7.618777 
z
" style="fill: #ffffff"/>
   </g>
   <g id="matplotlib.axis_1">
    <g id="xtick_1">
     <g id="line2d_1">
      <defs>
       <path id="m3e2810afce" d="M 0 0 
L 0 3 
" style="stroke: #262626; stroke-width: 0.5"/>
      </defs>
      <g>
       <use xlink:href="#m3e2810afce" x="102.304579" y="113.507312" style="fill: #262626; stroke: #262626; stroke-width: 0.5"/>
      </g>
     </g>
     <g id="text_1">
      <!-- $\mathdefault{10^{-1}}$ -->
      <g style="fill: #262626" transform="translate(97.354579 122.663562) scale(0.05 -0.05)">
       <defs>
        <path id="ArialMT-31" d="M 2384 0 
L 1822 0 
L 1822 3584 
Q 1619 3391 1289 3197 
Q 959 3003 697 2906 
L 697 3450 
Q 1169 3672 1522 3987 
Q 1875 4303 2022 4600 
L 2384 4600 
L 2384 0 
z
" transform="scale(0.015625)"/>
        <path id="ArialMT-30" d="M 266 2259 
Q 266 3072 433 3567 
Q 600 4063 929 4331 
Q 1259 4600 1759 4600 
Q 2128 4600 2406 4451 
Q 2684 4303 2865 4023 
Q 3047 3744 3150 3342 
Q 3253 2941 3253 2259 
Q 3253 1453 3087 958 
Q 2922 463 2592 192 
Q 2263 -78 1759 -78 
Q 1097 -78 719 397 
Q 266 969 266 2259 
z
M 844 2259 
Q 844 1131 1108 757 
Q 1372 384 1759 384 
Q 2147 384 2411 759 
Q 2675 1134 2675 2259 
Q 2675 3391 2411 3762 
Q 2147 4134 1753 4134 
Q 1366 4134 1134 3806 
Q 844 3388 844 2259 
z
" transform="scale(0.015625)"/>
        <path id="ArialMT-2212" d="M 3381 1997 
L 356 1997 
L 356 2522 
L 3381 2522 
L 3381 1997 
z
" transform="scale(0.015625)"/>
       </defs>
       <use xlink:href="#ArialMT-31" transform="translate(0 0.99375)"/>
       <use xlink:href="#ArialMT-30" transform="translate(55.615234 0.99375)"/>
       <use xlink:href="#ArialMT-2212" transform="translate(112.972813 70.6875) scale(0.7)"/>
       <use xlink:href="#ArialMT-31" transform="translate(153.851719 70.6875) scale(0.7)"/>
      </g>
     </g>
    </g>
    <g id="xtick_2">
     <g id="line2d_2">
      <g>
       <use xlink:href="#m3e2810afce" x="204.475743" y="113.507312" style="fill: #262626; stroke: #262626; stroke-width: 0.5"/>
      </g>
     </g>
     <g id="text_2">
      <!-- $\mathdefault{10^{0}}$ -->
      <g style="fill: #262626" transform="translate(200.550743 122.663562) scale(0.05 -0.05)">
       <use xlink:href="#ArialMT-31" transform="translate(0 0.99375)"/>
       <use xlink:href="#ArialMT-30" transform="translate(55.615234 0.99375)"/>
       <use xlink:href="#ArialMT-30" transform="translate(112.972813 70.6875) scale(0.7)"/>
      </g>
     </g>
    </g>
    <g id="xtick_3">
     <g id="line2d_3">
      <defs>
       <path id="m8cf0b32059" d="M 0 0 
L 0 2 
" style="stroke: #262626; stroke-width: 0.5"/>
      </defs>
      <g>
       <use xlink:href="#m8cf0b32059" x="30.89" y="113.507312" style="fill: #262626; stroke: #262626; stroke-width: 0.5"/>
      </g>
     </g>
    </g>
    <g id="xtick_4">
     <g id="line2d_4">
      <g>
       <use xlink:href="#m8cf0b32059" x="48.881449" y="113.507312" style="fill: #262626; stroke: #262626; stroke-width: 0.5"/>
      </g>
     </g>
    </g>
    <g id="xtick_5">
     <g id="line2d_5">
      <g>
       <use xlink:href="#m8cf0b32059" x="61.646585" y="113.507312" style="fill: #262626; stroke: #262626; stroke-width: 0.5"/>
      </g>
     </g>
    </g>
    <g id="xtick_6">
     <g id="line2d_6">
      <g>
       <use xlink:href="#m8cf0b32059" x="71.547994" y="113.507312" style="fill: #262626; stroke: #262626; stroke-width: 0.5"/>
      </g>
     </g>
    </g>
    <g id="xtick_7">
     <g id="line2d_7">
      <g>
       <use xlink:href="#m8cf0b32059" x="79.638034" y="113.507312" style="fill: #262626; stroke: #262626; stroke-width: 0.5"/>
      </g>
     </g>
    </g>
    <g id="xtick_8">
     <g id="line2d_8">
      <g>
       <use xlink:href="#m8cf0b32059" x="86.478065" y="113.507312" style="fill: #262626; stroke: #262626; stroke-width: 0.5"/>
      </g>
     </g>
    </g>
    <g id="xtick_9">
     <g id="line2d_9">
      <g>
       <use xlink:href="#m8cf0b32059" x="92.40317" y="113.507312" style="fill: #262626; stroke: #262626; stroke-width: 0.5"/>
      </g>
     </g>
    </g>
    <g id="xtick_10">
     <g id="line2d_10">
      <g>
       <use xlink:href="#m8cf0b32059" x="97.629483" y="113.507312" style="fill: #262626; stroke: #262626; stroke-width: 0.5"/>
      </g>
     </g>
    </g>
    <g id="xtick_11">
     <g id="line2d_11">
      <g>
       <use xlink:href="#m8cf0b32059" x="133.061164" y="113.507312" style="fill: #262626; stroke: #262626; stroke-width: 0.5"/>
      </g>
     </g>
    </g>
    <g id="xtick_12">
     <g id="line2d_12">
      <g>
       <use xlink:href="#m8cf0b32059" x="151.052613" y="113.507312" style="fill: #262626; stroke: #262626; stroke-width: 0.5"/>
      </g>
     </g>
    </g>
    <g id="xtick_13">
     <g id="line2d_13">
      <g>
       <use xlink:href="#m8cf0b32059" x="163.817749" y="113.507312" style="fill: #262626; stroke: #262626; stroke-width: 0.5"/>
      </g>
     </g>
    </g>
    <g id="xtick_14">
     <g id="line2d_14">
      <g>
       <use xlink:href="#m8cf0b32059" x="173.719158" y="113.507312" style="fill: #262626; stroke: #262626; stroke-width: 0.5"/>
      </g>
     </g>
    </g>
    <g id="xtick_15">
     <g id="line2d_15">
      <g>
       <use xlink:href="#m8cf0b32059" x="181.809198" y="113.507312" style="fill: #262626; stroke: #262626; stroke-width: 0.5"/>
      </g>
     </g>
    </g>
    <g id="xtick_16">
     <g id="line2d_16">
      <g>
       <use xlink:href="#m8cf0b32059" x="188.64923" y="113.507312" style="fill: #262626; stroke: #262626; stroke-width: 0.5"/>
      </g>
     </g>
    </g>
    <g id="xtick_17">
     <g id="line2d_17">
      <g>
       <use xlink:href="#m8cf0b32059" x="194.574334" y="113.507312" style="fill: #262626; stroke: #262626; stroke-width: 0.5"/>
      </g>
     </g>
    </g>
    <g id="xtick_18">
     <g id="line2d_18">
      <g>
       <use xlink:href="#m8cf0b32059" x="199.800647" y="113.507312" style="fill: #262626; stroke: #262626; stroke-width: 0.5"/>
      </g>
     </g>
    </g>
    <g id="text_3">
     <!-- Apparent diffusion coefficient ($\mu$m$^{2}$ s$^{-1}$) -->
     <g style="fill: #262626" transform="translate(64.912872 133.117312) scale(0.06 -0.06)">
      <defs>
       <path id="ArialMT-41" d="M -9 0 
L 1750 4581 
L 2403 4581 
L 4278 0 
L 3588 0 
L 3053 1388 
L 1138 1388 
L 634 0 
L -9 0 
z
M 1313 1881 
L 2866 1881 
L 2388 3150 
Q 2169 3728 2063 4100 
Q 1975 3659 1816 3225 
L 1313 1881 
z
" transform="scale(0.015625)"/>
       <path id="ArialMT-70" d="M 422 -1272 
L 422 3319 
L 934 3319 
L 934 2888 
Q 1116 3141 1344 3267 
Q 1572 3394 1897 3394 
Q 2322 3394 2647 3175 
Q 2972 2956 3137 2557 
Q 3303 2159 3303 1684 
Q 3303 1175 3120 767 
Q 2938 359 2589 142 
Q 2241 -75 1856 -75 
Q 1575 -75 1351 44 
Q 1128 163 984 344 
L 984 -1272 
L 422 -1272 
z
M 931 1641 
Q 931 1000 1190 694 
Q 1450 388 1819 388 
Q 2194 388 2461 705 
Q 2728 1022 2728 1688 
Q 2728 2322 2467 2637 
Q 2206 2953 1844 2953 
Q 1484 2953 1207 2617 
Q 931 2281 931 1641 
z
" transform="scale(0.015625)"/>
       <path id="ArialMT-61" d="M 2588 409 
Q 2275 144 1986 34 
Q 1697 -75 1366 -75 
Q 819 -75 525 192 
Q 231 459 231 875 
Q 231 1119 342 1320 
Q 453 1522 633 1644 
Q 813 1766 1038 1828 
Q 1203 1872 1538 1913 
Q 2219 1994 2541 2106 
Q 2544 2222 2544 2253 
Q 2544 2597 2384 2738 
Q 2169 2928 1744 2928 
Q 1347 2928 1158 2789 
Q 969 2650 878 2297 
L 328 2372 
Q 403 2725 575 2942 
Q 747 3159 1072 3276 
Q 1397 3394 1825 3394 
Q 2250 3394 2515 3294 
Q 2781 3194 2906 3042 
Q 3031 2891 3081 2659 
Q 3109 2516 3109 2141 
L 3109 1391 
Q 3109 606 3145 398 
Q 3181 191 3288 0 
L 2700 0 
Q 2613 175 2588 409 
z
M 2541 1666 
Q 2234 1541 1622 1453 
Q 1275 1403 1131 1340 
Q 988 1278 909 1158 
Q 831 1038 831 891 
Q 831 666 1001 516 
Q 1172 366 1500 366 
Q 1825 366 2078 508 
Q 2331 650 2450 897 
Q 2541 1088 2541 1459 
L 2541 1666 
z
" transform="scale(0.015625)"/>
       <path id="ArialMT-72" d="M 416 0 
L 416 3319 
L 922 3319 
L 922 2816 
Q 1116 3169 1280 3281 
Q 1444 3394 1641 3394 
Q 1925 3394 2219 3213 
L 2025 2691 
Q 1819 2813 1613 2813 
Q 1428 2813 1281 2702 
Q 1134 2591 1072 2394 
Q 978 2094 978 1738 
L 978 0 
L 416 0 
z
" transform="scale(0.015625)"/>
       <path id="ArialMT-65" d="M 2694 1069 
L 3275 997 
Q 3138 488 2766 206 
Q 2394 -75 1816 -75 
Q 1088 -75 661 373 
Q 234 822 234 1631 
Q 234 2469 665 2931 
Q 1097 3394 1784 3394 
Q 2450 3394 2872 2941 
Q 3294 2488 3294 1666 
Q 3294 1616 3291 1516 
L 816 1516 
Q 847 969 1125 678 
Q 1403 388 1819 388 
Q 2128 388 2347 550 
Q 2566 713 2694 1069 
z
M 847 1978 
L 2700 1978 
Q 2663 2397 2488 2606 
Q 2219 2931 1791 2931 
Q 1403 2931 1139 2672 
Q 875 2413 847 1978 
z
" transform="scale(0.015625)"/>
       <path id="ArialMT-6e" d="M 422 0 
L 422 3319 
L 928 3319 
L 928 2847 
Q 1294 3394 1984 3394 
Q 2284 3394 2536 3286 
Q 2788 3178 2913 3003 
Q 3038 2828 3088 2588 
Q 3119 2431 3119 2041 
L 3119 0 
L 2556 0 
L 2556 2019 
Q 2556 2363 2490 2533 
Q 2425 2703 2258 2804 
Q 2091 2906 1866 2906 
Q 1506 2906 1245 2678 
Q 984 2450 984 1813 
L 984 0 
L 422 0 
z
" transform="scale(0.015625)"/>
       <path id="ArialMT-74" d="M 1650 503 
L 1731 6 
Q 1494 -44 1306 -44 
Q 1000 -44 831 53 
Q 663 150 594 308 
Q 525 466 525 972 
L 525 2881 
L 113 2881 
L 113 3319 
L 525 3319 
L 525 4141 
L 1084 4478 
L 1084 3319 
L 1650 3319 
L 1650 2881 
L 1084 2881 
L 1084 941 
Q 1084 700 1114 631 
Q 1144 563 1211 522 
Q 1278 481 1403 481 
Q 1497 481 1650 503 
z
" transform="scale(0.015625)"/>
       <path id="ArialMT-20" transform="scale(0.015625)"/>
       <path id="ArialMT-64" d="M 2575 0 
L 2575 419 
Q 2259 -75 1647 -75 
Q 1250 -75 917 144 
Q 584 363 401 755 
Q 219 1147 219 1656 
Q 219 2153 384 2558 
Q 550 2963 881 3178 
Q 1213 3394 1622 3394 
Q 1922 3394 2156 3267 
Q 2391 3141 2538 2938 
L 2538 4581 
L 3097 4581 
L 3097 0 
L 2575 0 
z
M 797 1656 
Q 797 1019 1065 703 
Q 1334 388 1700 388 
Q 2069 388 2326 689 
Q 2584 991 2584 1609 
Q 2584 2291 2321 2609 
Q 2059 2928 1675 2928 
Q 1300 2928 1048 2622 
Q 797 2316 797 1656 
z
" transform="scale(0.015625)"/>
       <path id="ArialMT-69" d="M 425 3934 
L 425 4581 
L 988 4581 
L 988 3934 
L 425 3934 
z
M 425 0 
L 425 3319 
L 988 3319 
L 988 0 
L 425 0 
z
" transform="scale(0.015625)"/>
       <path id="ArialMT-66" d="M 556 0 
L 556 2881 
L 59 2881 
L 59 3319 
L 556 3319 
L 556 3672 
Q 556 4006 616 4169 
Q 697 4388 901 4523 
Q 1106 4659 1475 4659 
Q 1713 4659 2000 4603 
L 1916 4113 
Q 1741 4144 1584 4144 
Q 1328 4144 1222 4034 
Q 1116 3925 1116 3625 
L 1116 3319 
L 1763 3319 
L 1763 2881 
L 1116 2881 
L 1116 0 
L 556 0 
z
" transform="scale(0.015625)"/>
       <path id="ArialMT-75" d="M 2597 0 
L 2597 488 
Q 2209 -75 1544 -75 
Q 1250 -75 995 37 
Q 741 150 617 320 
Q 494 491 444 738 
Q 409 903 409 1263 
L 409 3319 
L 972 3319 
L 972 1478 
Q 972 1038 1006 884 
Q 1059 663 1231 536 
Q 1403 409 1656 409 
Q 1909 409 2131 539 
Q 2353 669 2445 892 
Q 2538 1116 2538 1541 
L 2538 3319 
L 3100 3319 
L 3100 0 
L 2597 0 
z
" transform="scale(0.015625)"/>
       <path id="ArialMT-73" d="M 197 991 
L 753 1078 
Q 800 744 1014 566 
Q 1228 388 1613 388 
Q 2000 388 2187 545 
Q 2375 703 2375 916 
Q 2375 1106 2209 1216 
Q 2094 1291 1634 1406 
Q 1016 1563 777 1677 
Q 538 1791 414 1992 
Q 291 2194 291 2438 
Q 291 2659 392 2848 
Q 494 3038 669 3163 
Q 800 3259 1026 3326 
Q 1253 3394 1513 3394 
Q 1903 3394 2198 3281 
Q 2494 3169 2634 2976 
Q 2775 2784 2828 2463 
L 2278 2388 
Q 2241 2644 2061 2787 
Q 1881 2931 1553 2931 
Q 1166 2931 1000 2803 
Q 834 2675 834 2503 
Q 834 2394 903 2306 
Q 972 2216 1119 2156 
Q 1203 2125 1616 2013 
Q 2213 1853 2448 1751 
Q 2684 1650 2818 1456 
Q 2953 1263 2953 975 
Q 2953 694 2789 445 
Q 2625 197 2315 61 
Q 2006 -75 1616 -75 
Q 969 -75 630 194 
Q 291 463 197 991 
z
" transform="scale(0.015625)"/>
       <path id="ArialMT-6f" d="M 213 1659 
Q 213 2581 725 3025 
Q 1153 3394 1769 3394 
Q 2453 3394 2887 2945 
Q 3322 2497 3322 1706 
Q 3322 1066 3130 698 
Q 2938 331 2570 128 
Q 2203 -75 1769 -75 
Q 1072 -75 642 372 
Q 213 819 213 1659 
z
M 791 1659 
Q 791 1022 1069 705 
Q 1347 388 1769 388 
Q 2188 388 2466 706 
Q 2744 1025 2744 1678 
Q 2744 2294 2464 2611 
Q 2184 2928 1769 2928 
Q 1347 2928 1069 2612 
Q 791 2297 791 1659 
z
" transform="scale(0.015625)"/>
       <path id="ArialMT-63" d="M 2588 1216 
L 3141 1144 
Q 3050 572 2676 248 
Q 2303 -75 1759 -75 
Q 1078 -75 664 370 
Q 250 816 250 1647 
Q 250 2184 428 2587 
Q 606 2991 970 3192 
Q 1334 3394 1763 3394 
Q 2303 3394 2647 3120 
Q 2991 2847 3088 2344 
L 2541 2259 
Q 2463 2594 2264 2762 
Q 2066 2931 1784 2931 
Q 1359 2931 1093 2626 
Q 828 2322 828 1663 
Q 828 994 1084 691 
Q 1341 388 1753 388 
Q 2084 388 2306 591 
Q 2528 794 2588 1216 
z
" transform="scale(0.015625)"/>
       <path id="ArialMT-28" d="M 1497 -1347 
Q 1031 -759 709 28 
Q 388 816 388 1659 
Q 388 2403 628 3084 
Q 909 3875 1497 4659 
L 1900 4659 
Q 1522 4009 1400 3731 
Q 1209 3300 1100 2831 
Q 966 2247 966 1656 
Q 966 153 1900 -1347 
L 1497 -1347 
z
" transform="scale(0.015625)"/>
       <path id="DejaVuSans-Oblique-3bc" d="M -84 -1331 
L 856 3500 
L 1434 3500 
L 1009 1322 
Q 997 1256 987 1175 
Q 978 1094 978 1013 
Q 978 722 1161 565 
Q 1344 409 1684 409 
Q 2147 409 2431 671 
Q 2716 934 2816 1459 
L 3213 3500 
L 3788 3500 
L 3266 809 
Q 3253 750 3248 706 
Q 3244 663 3244 628 
Q 3244 531 3283 486 
Q 3322 441 3406 441 
Q 3438 441 3492 456 
Q 3547 472 3647 513 
L 3559 50 
Q 3422 -19 3297 -55 
Q 3172 -91 3053 -91 
Q 2847 -91 2730 40 
Q 2613 172 2613 403 
Q 2438 153 2195 31 
Q 1953 -91 1625 -91 
Q 1334 -91 1117 43 
Q 900 178 831 397 
L 494 -1331 
L -84 -1331 
z
" transform="scale(0.015625)"/>
       <path id="ArialMT-6d" d="M 422 0 
L 422 3319 
L 925 3319 
L 925 2853 
Q 1081 3097 1340 3245 
Q 1600 3394 1931 3394 
Q 2300 3394 2536 3241 
Q 2772 3088 2869 2813 
Q 3263 3394 3894 3394 
Q 4388 3394 4653 3120 
Q 4919 2847 4919 2278 
L 4919 0 
L 4359 0 
L 4359 2091 
Q 4359 2428 4304 2576 
Q 4250 2725 4106 2815 
Q 3963 2906 3769 2906 
Q 3419 2906 3187 2673 
Q 2956 2441 2956 1928 
L 2956 0 
L 2394 0 
L 2394 2156 
Q 2394 2531 2256 2718 
Q 2119 2906 1806 2906 
Q 1569 2906 1367 2781 
Q 1166 2656 1075 2415 
Q 984 2175 984 1722 
L 984 0 
L 422 0 
z
" transform="scale(0.015625)"/>
       <path id="DejaVuSans-32" d="M 1228 531 
L 3431 531 
L 3431 0 
L 469 0 
L 469 531 
Q 828 903 1448 1529 
Q 2069 2156 2228 2338 
Q 2531 2678 2651 2914 
Q 2772 3150 2772 3378 
Q 2772 3750 2511 3984 
Q 2250 4219 1831 4219 
Q 1534 4219 1204 4116 
Q 875 4013 500 3803 
L 500 4441 
Q 881 4594 1212 4672 
Q 1544 4750 1819 4750 
Q 2544 4750 2975 4387 
Q 3406 4025 3406 3419 
Q 3406 3131 3298 2873 
Q 3191 2616 2906 2266 
Q 2828 2175 2409 1742 
Q 1991 1309 1228 531 
z
" transform="scale(0.015625)"/>
       <path id="DejaVuSans-2212" d="M 678 2272 
L 4684 2272 
L 4684 1741 
L 678 1741 
L 678 2272 
z
" transform="scale(0.015625)"/>
       <path id="DejaVuSans-31" d="M 794 531 
L 1825 531 
L 1825 4091 
L 703 3866 
L 703 4441 
L 1819 4666 
L 2450 4666 
L 2450 531 
L 3481 531 
L 3481 0 
L 794 0 
L 794 531 
z
" transform="scale(0.015625)"/>
       <path id="ArialMT-29" d="M 791 -1347 
L 388 -1347 
Q 1322 153 1322 1656 
Q 1322 2244 1188 2822 
Q 1081 3291 891 3722 
Q 769 4003 388 4659 
L 791 4659 
Q 1378 3875 1659 3084 
Q 1900 2403 1900 1659 
Q 1900 816 1576 28 
Q 1253 -759 791 -1347 
z
" transform="scale(0.015625)"/>
      </defs>
      <use xlink:href="#ArialMT-41" transform="translate(0 0.765625)"/>
      <use xlink:href="#ArialMT-70" transform="translate(66.699219 0.765625)"/>
      <use xlink:href="#ArialMT-70" transform="translate(122.314453 0.765625)"/>
      <use xlink:href="#ArialMT-61" transform="translate(177.929688 0.765625)"/>
      <use xlink:href="#ArialMT-72" transform="translate(233.544922 0.765625)"/>
      <use xlink:href="#ArialMT-65" transform="translate(266.845703 0.765625)"/>
      <use xlink:href="#ArialMT-6e" transform="translate(322.460938 0.765625)"/>
      <use xlink:href="#ArialMT-74" transform="translate(378.076172 0.765625)"/>
      <use xlink:href="#ArialMT-20" transform="translate(405.859375 0.765625)"/>
      <use xlink:href="#ArialMT-64" transform="translate(433.642578 0.765625)"/>
      <use xlink:href="#ArialMT-69" transform="translate(489.257812 0.765625)"/>
      <use xlink:href="#ArialMT-66" transform="translate(511.474609 0.765625)"/>
      <use xlink:href="#ArialMT-66" transform="translate(539.257812 0.765625)"/>
      <use xlink:href="#ArialMT-75" transform="translate(567.041016 0.765625)"/>
      <use xlink:href="#ArialMT-73" transform="translate(622.65625 0.765625)"/>
      <use xlink:href="#ArialMT-69" transform="translate(672.65625 0.765625)"/>
      <use xlink:href="#ArialMT-6f" transform="translate(694.873047 0.765625)"/>
      <use xlink:href="#ArialMT-6e" transform="translate(750.488281 0.765625)"/>
      <use xlink:href="#ArialMT-20" transform="translate(806.103516 0.765625)"/>
      <use xlink:href="#ArialMT-63" transform="translate(833.886719 0.765625)"/>
      <use xlink:href="#ArialMT-6f" transform="translate(883.886719 0.765625)"/>
      <use xlink:href="#ArialMT-65" transform="translate(939.501953 0.765625)"/>
      <use xlink:href="#ArialMT-66" transform="translate(995.117188 0.765625)"/>
      <use xlink:href="#ArialMT-66" transform="translate(1022.900391 0.765625)"/>
      <use xlink:href="#ArialMT-69" transform="translate(1050.683594 0.765625)"/>
      <use xlink:href="#ArialMT-63" transform="translate(1072.900391 0.765625)"/>
      <use xlink:href="#ArialMT-69" transform="translate(1122.900391 0.765625)"/>
      <use xlink:href="#ArialMT-65" transform="translate(1145.117188 0.765625)"/>
      <use xlink:href="#ArialMT-6e" transform="translate(1200.732422 0.765625)"/>
      <use xlink:href="#ArialMT-74" transform="translate(1256.347656 0.765625)"/>
      <use xlink:href="#ArialMT-20" transform="translate(1284.130859 0.765625)"/>
      <use xlink:href="#ArialMT-28" transform="translate(1311.914062 0.765625)"/>
      <use xlink:href="#DejaVuSans-Oblique-3bc" transform="translate(1345.214844 0.765625)"/>
      <use xlink:href="#ArialMT-6d" transform="translate(1408.837891 0.765625)"/>
      <use xlink:href="#DejaVuSans-32" transform="translate(1493.095703 39.046875) scale(0.7)"/>
      <use xlink:href="#ArialMT-20" transform="translate(1540.366211 0.765625)"/>
      <use xlink:href="#ArialMT-73" transform="translate(1568.149414 0.765625)"/>
      <use xlink:href="#DejaVuSans-2212" transform="translate(1619.106445 39.046875) scale(0.7)"/>
      <use xlink:href="#DejaVuSans-31" transform="translate(1677.758789 39.046875) scale(0.7)"/>
      <use xlink:href="#ArialMT-29" transform="translate(1725.029297 0.765625)"/>
     </g>
    </g>
   </g>
   <g id="matplotlib.axis_2">
    <g id="ytick_1">
     <g id="line2d_19">
      <defs>
       <path id="m194b63b7b9" d="M 0 0 
L -3 0 
" style="stroke: #262626; stroke-width: 0.5"/>
      </defs>
      <g>
       <use xlink:href="#m194b63b7b9" x="30.89" y="109.229047" style="fill: #262626; stroke: #262626; stroke-width: 0.5"/>
      </g>
     </g>
     <g id="text_4">
      <!-- 0.00 -->
      <g style="fill: #262626" transform="translate(17.159531 111.0185) scale(0.05 -0.05)">
       <defs>
        <path id="ArialMT-2e" d="M 581 0 
L 581 641 
L 1222 641 
L 1222 0 
L 581 0 
z
" transform="scale(0.015625)"/>
       </defs>
       <use xlink:href="#ArialMT-30"/>
       <use xlink:href="#ArialMT-2e" x="55.615234"/>
       <use xlink:href="#ArialMT-30" x="83.398438"/>
       <use xlink:href="#ArialMT-30" x="139.013672"/>
      </g>
     </g>
    </g>
    <g id="ytick_2">
     <g id="line2d_20">
      <g>
       <use xlink:href="#m194b63b7b9" x="30.89" y="92.571142" style="fill: #262626; stroke: #262626; stroke-width: 0.5"/>
      </g>
     </g>
     <g id="text_5">
      <!-- 0.02 -->
      <g style="fill: #262626" transform="translate(17.159531 94.360595) scale(0.05 -0.05)">
       <defs>
        <path id="ArialMT-32" d="M 3222 541 
L 3222 0 
L 194 0 
Q 188 203 259 391 
Q 375 700 629 1000 
Q 884 1300 1366 1694 
Q 2113 2306 2375 2664 
Q 2638 3022 2638 3341 
Q 2638 3675 2398 3904 
Q 2159 4134 1775 4134 
Q 1369 4134 1125 3890 
Q 881 3647 878 3216 
L 300 3275 
Q 359 3922 746 4261 
Q 1134 4600 1788 4600 
Q 2447 4600 2831 4234 
Q 3216 3869 3216 3328 
Q 3216 3053 3103 2787 
Q 2991 2522 2730 2228 
Q 2469 1934 1863 1422 
Q 1356 997 1212 845 
Q 1069 694 975 541 
L 3222 541 
z
" transform="scale(0.015625)"/>
       </defs>
       <use xlink:href="#ArialMT-30"/>
       <use xlink:href="#ArialMT-2e" x="55.615234"/>
       <use xlink:href="#ArialMT-30" x="83.398438"/>
       <use xlink:href="#ArialMT-32" x="139.013672"/>
      </g>
     </g>
    </g>
    <g id="ytick_3">
     <g id="line2d_21">
      <g>
       <use xlink:href="#m194b63b7b9" x="30.89" y="75.913237" style="fill: #262626; stroke: #262626; stroke-width: 0.5"/>
      </g>
     </g>
     <g id="text_6">
      <!-- 0.04 -->
      <g style="fill: #262626" transform="translate(17.159531 77.70269) scale(0.05 -0.05)">
       <defs>
        <path id="ArialMT-34" d="M 2069 0 
L 2069 1097 
L 81 1097 
L 81 1613 
L 2172 4581 
L 2631 4581 
L 2631 1613 
L 3250 1613 
L 3250 1097 
L 2631 1097 
L 2631 0 
L 2069 0 
z
M 2069 1613 
L 2069 3678 
L 634 1613 
L 2069 1613 
z
" transform="scale(0.015625)"/>
       </defs>
       <use xlink:href="#ArialMT-30"/>
       <use xlink:href="#ArialMT-2e" x="55.615234"/>
       <use xlink:href="#ArialMT-30" x="83.398438"/>
       <use xlink:href="#ArialMT-34" x="139.013672"/>
      </g>
     </g>
    </g>
    <g id="ytick_4">
     <g id="line2d_22">
      <g>
       <use xlink:href="#m194b63b7b9" x="30.89" y="59.255331" style="fill: #262626; stroke: #262626; stroke-width: 0.5"/>
      </g>
     </g>
     <g id="text_7">
      <!-- 0.06 -->
      <g style="fill: #262626" transform="translate(17.159531 61.044784) scale(0.05 -0.05)">
       <defs>
        <path id="ArialMT-36" d="M 3184 3459 
L 2625 3416 
Q 2550 3747 2413 3897 
Q 2184 4138 1850 4138 
Q 1581 4138 1378 3988 
Q 1113 3794 959 3422 
Q 806 3050 800 2363 
Q 1003 2672 1297 2822 
Q 1591 2972 1913 2972 
Q 2475 2972 2870 2558 
Q 3266 2144 3266 1488 
Q 3266 1056 3080 686 
Q 2894 316 2569 119 
Q 2244 -78 1831 -78 
Q 1128 -78 684 439 
Q 241 956 241 2144 
Q 241 3472 731 4075 
Q 1159 4600 1884 4600 
Q 2425 4600 2770 4297 
Q 3116 3994 3184 3459 
z
M 888 1484 
Q 888 1194 1011 928 
Q 1134 663 1356 523 
Q 1578 384 1822 384 
Q 2178 384 2434 671 
Q 2691 959 2691 1453 
Q 2691 1928 2437 2201 
Q 2184 2475 1800 2475 
Q 1419 2475 1153 2201 
Q 888 1928 888 1484 
z
" transform="scale(0.015625)"/>
       </defs>
       <use xlink:href="#ArialMT-30"/>
       <use xlink:href="#ArialMT-2e" x="55.615234"/>
       <use xlink:href="#ArialMT-30" x="83.398438"/>
       <use xlink:href="#ArialMT-36" x="139.013672"/>
      </g>
     </g>
    </g>
    <g id="ytick_5">
     <g id="line2d_23">
      <g>
       <use xlink:href="#m194b63b7b9" x="30.89" y="42.597426" style="fill: #262626; stroke: #262626; stroke-width: 0.5"/>
      </g>
     </g>
     <g id="text_8">
      <!-- 0.08 -->
      <g style="fill: #262626" transform="translate(17.159531 44.386879) scale(0.05 -0.05)">
       <defs>
        <path id="ArialMT-38" d="M 1131 2484 
Q 781 2613 612 2850 
Q 444 3088 444 3419 
Q 444 3919 803 4259 
Q 1163 4600 1759 4600 
Q 2359 4600 2725 4251 
Q 3091 3903 3091 3403 
Q 3091 3084 2923 2848 
Q 2756 2613 2416 2484 
Q 2838 2347 3058 2040 
Q 3278 1734 3278 1309 
Q 3278 722 2862 322 
Q 2447 -78 1769 -78 
Q 1091 -78 675 323 
Q 259 725 259 1325 
Q 259 1772 486 2073 
Q 713 2375 1131 2484 
z
M 1019 3438 
Q 1019 3113 1228 2906 
Q 1438 2700 1772 2700 
Q 2097 2700 2305 2904 
Q 2513 3109 2513 3406 
Q 2513 3716 2298 3927 
Q 2084 4138 1766 4138 
Q 1444 4138 1231 3931 
Q 1019 3725 1019 3438 
z
M 838 1322 
Q 838 1081 952 856 
Q 1066 631 1291 507 
Q 1516 384 1775 384 
Q 2178 384 2440 643 
Q 2703 903 2703 1303 
Q 2703 1709 2433 1975 
Q 2163 2241 1756 2241 
Q 1359 2241 1098 1978 
Q 838 1716 838 1322 
z
" transform="scale(0.015625)"/>
       </defs>
       <use xlink:href="#ArialMT-30"/>
       <use xlink:href="#ArialMT-2e" x="55.615234"/>
       <use xlink:href="#ArialMT-30" x="83.398438"/>
       <use xlink:href="#ArialMT-38" x="139.013672"/>
      </g>
     </g>
    </g>
    <g id="ytick_6">
     <g id="line2d_24">
      <g>
       <use xlink:href="#m194b63b7b9" x="30.89" y="25.939521" style="fill: #262626; stroke: #262626; stroke-width: 0.5"/>
      </g>
     </g>
     <g id="text_9">
      <!-- 0.10 -->
      <g style="fill: #262626" transform="translate(17.159531 27.728974) scale(0.05 -0.05)">
       <use xlink:href="#ArialMT-30"/>
       <use xlink:href="#ArialMT-2e" x="55.615234"/>
       <use xlink:href="#ArialMT-31" x="83.398438"/>
       <use xlink:href="#ArialMT-30" x="139.013672"/>
      </g>
     </g>
    </g>
    <g id="ytick_7">
     <g id="line2d_25">
      <g>
       <use xlink:href="#m194b63b7b9" x="30.89" y="9.281616" style="fill: #262626; stroke: #262626; stroke-width: 0.5"/>
      </g>
     </g>
     <g id="text_10">
      <!-- 0.12 -->
      <g style="fill: #262626" transform="translate(17.159531 11.071069) scale(0.05 -0.05)">
       <use xlink:href="#ArialMT-30"/>
       <use xlink:href="#ArialMT-2e" x="55.615234"/>
       <use xlink:href="#ArialMT-31" x="83.398438"/>
       <use xlink:href="#ArialMT-32" x="139.013672"/>
      </g>
     </g>
    </g>
    <g id="text_11">
     <!-- Posterior occupancy -->
     <g style="fill: #262626" transform="translate(11.896719 87.741638) rotate(-90) scale(0.06 -0.06)">
      <defs>
       <path id="ArialMT-50" d="M 494 0 
L 494 4581 
L 2222 4581 
Q 2678 4581 2919 4538 
Q 3256 4481 3484 4323 
Q 3713 4166 3852 3881 
Q 3991 3597 3991 3256 
Q 3991 2672 3619 2267 
Q 3247 1863 2275 1863 
L 1100 1863 
L 1100 0 
L 494 0 
z
M 1100 2403 
L 2284 2403 
Q 2872 2403 3119 2622 
Q 3366 2841 3366 3238 
Q 3366 3525 3220 3729 
Q 3075 3934 2838 4000 
Q 2684 4041 2272 4041 
L 1100 4041 
L 1100 2403 
z
" transform="scale(0.015625)"/>
       <path id="ArialMT-79" d="M 397 -1278 
L 334 -750 
Q 519 -800 656 -800 
Q 844 -800 956 -737 
Q 1069 -675 1141 -563 
Q 1194 -478 1313 -144 
Q 1328 -97 1363 -6 
L 103 3319 
L 709 3319 
L 1400 1397 
Q 1534 1031 1641 628 
Q 1738 1016 1872 1384 
L 2581 3319 
L 3144 3319 
L 1881 -56 
Q 1678 -603 1566 -809 
Q 1416 -1088 1222 -1217 
Q 1028 -1347 759 -1347 
Q 597 -1347 397 -1278 
z
" transform="scale(0.015625)"/>
      </defs>
      <use xlink:href="#ArialMT-50"/>
      <use xlink:href="#ArialMT-6f" x="66.699219"/>
      <use xlink:href="#ArialMT-73" x="122.314453"/>
      <use xlink:href="#ArialMT-74" x="172.314453"/>
      <use xlink:href="#ArialMT-65" x="200.097656"/>
      <use xlink:href="#ArialMT-72" x="255.712891"/>
      <use xlink:href="#ArialMT-69" x="289.013672"/>
      <use xlink:href="#ArialMT-6f" x="311.230469"/>
      <use xlink:href="#ArialMT-72" x="366.845703"/>
      <use xlink:href="#ArialMT-20" x="400.146484"/>
      <use xlink:href="#ArialMT-6f" x="427.929688"/>
      <use xlink:href="#ArialMT-63" x="483.544922"/>
      <use xlink:href="#ArialMT-63" x="533.544922"/>
      <use xlink:href="#ArialMT-75" x="583.544922"/>
      <use xlink:href="#ArialMT-70" x="639.160156"/>
      <use xlink:href="#ArialMT-61" x="694.775391"/>
      <use xlink:href="#ArialMT-6e" x="750.390625"/>
      <use xlink:href="#ArialMT-63" x="806.005859"/>
      <use xlink:href="#ArialMT-79" x="856.005859"/>
     </g>
    </g>
   </g>
   <g id="line2d_26">
    <path d="M 33.158438 102.767643 
L 37.286565 102.940911 
L 41.414693 103.027397 
L 45.542821 103.035284 
L 49.670949 102.967122 
L 53.799077 102.819704 
L 57.927205 102.582741 
L 62.055333 102.236322 
L 66.18346 101.746604 
L 70.311588 101.057704 
L 74.439716 100.073447 
L 78.567844 98.60663 
L 82.695972 96.244635 
L 86.8241 92.174482 
L 90.952227 85.499813 
L 95.080355 76.583032 
L 99.208483 67.907676 
L 103.336611 62.45198 
L 107.464739 61.347668 
L 111.592867 63.589787 
L 115.720995 67.304446 
L 119.849122 70.837365 
L 123.97725 73.088013 
L 128.105378 73.345968 
L 132.233506 70.970413 
L 136.361634 65.267158 
L 140.489762 56.443583 
L 144.617889 49.279697 
L 148.746017 55.490584 
L 152.874145 76.764072 
L 157.002273 93.500163 
L 161.130401 100.370057 
L 165.258529 103.56756 
L 169.386656 105.380647 
L 173.514784 106.493187 
L 177.642912 107.212334 
L 181.77104 107.696735 
L 185.899168 108.034475 
L 190.027296 108.277052 
L 194.155424 108.45583 
L 198.283551 108.590592 
L 202.411679 108.694197 
" clip-path="url(#pacddfcbef9)" style="fill: none; stroke: #0173b2; stroke-linecap: round"/>
   </g>
   <g id="line2d_27">
    <path d="M 126.34549 113.507312 
L 126.34549 7.618777 
" clip-path="url(#pacddfcbef9)" style="fill: none; stroke-dasharray: 1.85,0.8; stroke-dashoffset: 0; stroke: #0173b2; stroke-width: 0.5"/>
   </g>
   <g id="line2d_28">
    <path d="M 33.158438 100.129003 
L 37.286565 100.429585 
L 41.414693 100.592776 
L 45.542821 100.628947 
L 49.670949 100.540349 
L 53.799077 100.322537 
L 57.927205 99.964924 
L 62.055333 99.450562 
L 66.18346 98.754796 
L 70.311588 97.841964 
L 74.439716 96.658857 
L 78.567844 95.123148 
L 82.695972 93.103614 
L 86.8241 90.390125 
L 90.952227 86.676881 
L 95.080355 81.656701 
L 99.208483 75.343075 
L 103.336611 68.468867 
L 107.464739 62.464134 
L 111.592867 58.771424 
L 115.720995 57.971598 
L 119.849122 59.44227 
L 123.97725 61.804482 
L 128.105378 63.744006 
L 132.233506 64.63385 
L 136.361634 64.923313 
L 140.489762 66.542373 
L 144.617889 72.188007 
L 148.746017 81.513351 
L 152.874145 90.297639 
L 157.002273 96.448079 
L 161.130401 100.435786 
L 165.258529 103.004477 
L 169.386656 104.686606 
L 173.514784 105.816974 
L 177.642912 106.598485 
L 181.77104 107.154133 
L 185.899168 107.559655 
L 190.027296 107.862729 
L 194.155424 108.094102 
L 198.283551 108.27409 
L 202.411679 108.416436 
" clip-path="url(#pacddfcbef9)" style="fill: none; stroke: #0173b2; stroke-linecap: round"/>
   </g>
   <g id="line2d_29">
    <path d="M 123.149968 113.507312 
L 123.149968 7.618777 
" clip-path="url(#pacddfcbef9)" style="fill: none; stroke-dasharray: 1.85,0.8; stroke-dashoffset: 0; stroke: #0173b2; stroke-width: 0.5"/>
   </g>
   <g id="line2d_30">
    <path d="M 33.158438 100.45104 
L 37.286565 100.779971 
L 41.414693 100.989586 
L 45.542821 101.091292 
L 49.670949 101.088995 
L 53.799077 100.979998 
L 57.927205 100.754793 
L 62.055333 100.395812 
L 66.18346 99.874871 
L 70.311588 99.148663 
L 74.439716 98.151081 
L 78.567844 96.779863 
L 82.695972 94.871841 
L 86.8241 92.157156 
L 90.952227 88.227227 
L 95.080355 82.748135 
L 99.208483 76.117418 
L 103.336611 69.814121 
L 107.464739 65.488314 
L 111.592867 63.688073 
L 115.720995 63.667859 
L 119.849122 64.088871 
L 123.97725 63.666147 
L 128.105378 61.430296 
L 132.233506 57.008468 
L 136.361634 51.883947 
L 140.489762 51.788068 
L 144.617889 63.442543 
L 148.746017 80.75979 
L 152.874145 92.264395 
L 157.002273 98.342879 
L 161.130401 101.837655 
L 165.258529 103.988148 
L 169.386656 105.376932 
L 173.514784 106.3104 
L 177.642912 106.959674 
L 181.77104 107.424875 
L 185.899168 107.76692 
L 190.027296 108.024158 
L 194.155424 108.221475 
L 198.283551 108.375469 
L 202.411679 108.497492 
" clip-path="url(#pacddfcbef9)" style="fill: none; stroke: #0173b2; stroke-linecap: round"/>
   </g>
   <g id="line2d_31">
    <path d="M 124.219817 113.507312 
L 124.219817 7.618777 
" clip-path="url(#pacddfcbef9)" style="fill: none; stroke-dasharray: 1.85,0.8; stroke-dashoffset: 0; stroke: #0173b2; stroke-width: 0.5"/>
   </g>
   <g id="line2d_32">
    <path d="M 33.158438 103.591801 
L 37.286565 103.719829 
L 41.414693 103.785299 
L 45.542821 103.793124 
L 49.670949 103.745247 
L 53.799077 103.641313 
L 57.927205 103.479028 
L 62.055333 103.25424 
L 66.18346 102.960669 
L 70.311588 102.589001 
L 74.439716 102.124904 
L 78.567844 101.545351 
L 82.695972 100.812379 
L 86.8241 99.862673 
L 90.952227 98.58896 
L 95.080355 96.802454 
L 99.208483 94.151963 
L 103.336611 90.005967 
L 107.464739 83.677191 
L 111.592867 75.908275 
L 115.720995 70.107375 
L 119.849122 69.02843 
L 123.97725 71.167433 
L 128.105378 73.162106 
L 132.233506 72.678066 
L 136.361634 67.925518 
L 140.489762 56.010862 
L 144.617889 33.887608 
L 148.746017 12.431892 
L 152.874145 28.640823 
L 157.002273 71.267814 
L 161.130401 91.866316 
L 165.258529 99.074255 
L 169.386656 102.619273 
L 173.514784 104.646394 
L 177.642912 105.901973 
L 181.77104 106.725328 
L 185.899168 107.289719 
L 190.027296 107.690756 
L 194.155424 107.984364 
L 198.283551 108.204812 
L 202.411679 108.373926 
" clip-path="url(#pacddfcbef9)" style="fill: none; stroke: #de8f05; stroke-linecap: round"/>
   </g>
   <g id="line2d_33">
    <path d="M 136.133432 113.507312 
L 136.133432 7.618777 
" clip-path="url(#pacddfcbef9)" style="fill: none; stroke-dasharray: 1.85,0.8; stroke-dashoffset: 0; stroke: #de8f05; stroke-width: 0.5"/>
   </g>
   <g id="line2d_34">
    <path d="M 33.158438 102.190848 
L 37.286565 102.421042 
L 41.414693 102.560135 
L 45.542821 102.615577 
L 49.670949 102.589761 
L 53.799077 102.480871 
L 57.927205 102.28309 
L 62.055333 101.986357 
L 66.18346 101.57574 
L 70.311588 101.03041 
L 74.439716 100.322213 
L 78.567844 99.413791 
L 82.695972 98.256308 
L 86.8241 96.787084 
L 90.952227 94.928364 
L 95.080355 92.591472 
L 99.208483 89.69999 
L 103.336611 86.264101 
L 107.464739 82.513809 
L 111.592867 78.942582 
L 115.720995 76.044019 
L 119.849122 73.892286 
L 123.97725 72.003756 
L 128.105378 69.527226 
L 132.233506 65.412581 
L 136.361634 58.440624 
L 140.489762 47.826038 
L 144.617889 36.651759 
L 148.746017 37.133279 
L 152.874145 57.155352 
L 157.002273 78.793972 
L 161.130401 90.820795 
L 165.258529 97.26527 
L 169.386656 101.025957 
L 173.514784 103.35551 
L 177.642912 104.87065 
L 181.77104 105.897511 
L 185.899168 106.618318 
L 190.027296 107.139774 
L 194.155424 107.52695 
L 198.283551 107.820953 
L 202.411679 108.048585 
" clip-path="url(#pacddfcbef9)" style="fill: none; stroke: #de8f05; stroke-linecap: round"/>
   </g>
   <g id="line2d_35">
    <path d="M 134.303316 113.507312 
L 134.303316 7.618777 
" clip-path="url(#pacddfcbef9)" style="fill: none; stroke-dasharray: 1.85,0.8; stroke-dashoffset: 0; stroke: #de8f05; stroke-width: 0.5"/>
   </g>
   <g id="line2d_36">
    <path d="M 33.158438 100.418018 
L 37.286565 100.823427 
L 41.414693 101.112988 
L 45.542821 101.300047 
L 49.670949 101.392029 
L 53.799077 101.391514 
L 57.927205 101.2966 
L 62.055333 101.100681 
L 66.18346 100.791572 
L 70.311588 100.349847 
L 74.439716 99.746132 
L 78.567844 98.937045 
L 82.695972 97.859638 
L 86.8241 96.425132 
L 90.952227 94.516953 
L 95.080355 92.015229 
L 99.208483 88.909419 
L 103.336611 85.517404 
L 107.464739 82.507799 
L 111.592867 80.398349 
L 115.720995 79.062828 
L 119.849122 77.864768 
L 123.97725 76.032344 
L 128.105378 72.746292 
L 132.233506 66.940608 
L 136.361634 57.183278 
L 140.489762 42.913967 
L 144.617889 29.846362 
L 148.746017 34.286691 
L 152.874145 60.050822 
L 157.002273 82.476035 
L 161.130401 93.306605 
L 165.258529 98.868679 
L 169.386656 102.106058 
L 173.514784 104.119906 
L 177.642912 105.435703 
L 181.77104 106.330436 
L 185.899168 106.959631 
L 190.027296 107.415004 
L 194.155424 107.752875 
L 198.283551 108.009041 
L 202.411679 108.206958 
" clip-path="url(#pacddfcbef9)" style="fill: none; stroke: #de8f05; stroke-linecap: round"/>
   </g>
   <g id="line2d_37">
    <path d="M 133.222753 113.507312 
L 133.222753 7.618777 
" clip-path="url(#pacddfcbef9)" style="fill: none; stroke-dasharray: 1.85,0.8; stroke-dashoffset: 0; stroke: #de8f05; stroke-width: 0.5"/>
   </g>
   <g id="patch_3">
    <path d="M 30.89 113.507313 
L 30.89 7.618777 
" style="fill: none; stroke: #262626; stroke-width: 0.5; stroke-linejoin: miter; stroke-linecap: square"/>
   </g>
   <g id="patch_4">
    <path d="M 30.89 113.507312 
L 204.475743 113.507312 
" style="fill: none; stroke: #262626; stroke-width: 0.5; stroke-linejoin: miter; stroke-linecap: square"/>
   </g>
   <g id="legend_1">
    <g id="text_12">
     <!-- mEos3.2 tracking -->
     <g style="fill: #262626" transform="translate(41.389531 16.431277) scale(0.06 -0.06)">
      <defs>
       <path id="ArialMT-45" d="M 506 0 
L 506 4581 
L 3819 4581 
L 3819 4041 
L 1113 4041 
L 1113 2638 
L 3647 2638 
L 3647 2100 
L 1113 2100 
L 1113 541 
L 3925 541 
L 3925 0 
L 506 0 
z
" transform="scale(0.015625)"/>
       <path id="ArialMT-33" d="M 269 1209 
L 831 1284 
Q 928 806 1161 595 
Q 1394 384 1728 384 
Q 2125 384 2398 659 
Q 2672 934 2672 1341 
Q 2672 1728 2419 1979 
Q 2166 2231 1775 2231 
Q 1616 2231 1378 2169 
L 1441 2663 
Q 1497 2656 1531 2656 
Q 1891 2656 2178 2843 
Q 2466 3031 2466 3422 
Q 2466 3731 2256 3934 
Q 2047 4138 1716 4138 
Q 1388 4138 1169 3931 
Q 950 3725 888 3313 
L 325 3413 
Q 428 3978 793 4289 
Q 1159 4600 1703 4600 
Q 2078 4600 2393 4439 
Q 2709 4278 2876 4000 
Q 3044 3722 3044 3409 
Q 3044 3113 2884 2869 
Q 2725 2625 2413 2481 
Q 2819 2388 3044 2092 
Q 3269 1797 3269 1353 
Q 3269 753 2831 336 
Q 2394 -81 1725 -81 
Q 1122 -81 723 278 
Q 325 638 269 1209 
z
" transform="scale(0.015625)"/>
       <path id="ArialMT-6b" d="M 425 0 
L 425 4581 
L 988 4581 
L 988 1969 
L 2319 3319 
L 3047 3319 
L 1778 2088 
L 3175 0 
L 2481 0 
L 1384 1697 
L 988 1316 
L 988 0 
L 425 0 
z
" transform="scale(0.015625)"/>
       <path id="ArialMT-67" d="M 319 -275 
L 866 -356 
Q 900 -609 1056 -725 
Q 1266 -881 1628 -881 
Q 2019 -881 2231 -725 
Q 2444 -569 2519 -288 
Q 2563 -116 2559 434 
Q 2191 0 1641 0 
Q 956 0 581 494 
Q 206 988 206 1678 
Q 206 2153 378 2554 
Q 550 2956 876 3175 
Q 1203 3394 1644 3394 
Q 2231 3394 2613 2919 
L 2613 3319 
L 3131 3319 
L 3131 450 
Q 3131 -325 2973 -648 
Q 2816 -972 2473 -1159 
Q 2131 -1347 1631 -1347 
Q 1038 -1347 672 -1080 
Q 306 -813 319 -275 
z
M 784 1719 
Q 784 1066 1043 766 
Q 1303 466 1694 466 
Q 2081 466 2343 764 
Q 2606 1063 2606 1700 
Q 2606 2309 2336 2618 
Q 2066 2928 1684 2928 
Q 1309 2928 1046 2623 
Q 784 2319 784 1719 
z
" transform="scale(0.015625)"/>
      </defs>
      <use xlink:href="#ArialMT-6d"/>
      <use xlink:href="#ArialMT-45" x="83.300781"/>
      <use xlink:href="#ArialMT-6f" x="150"/>
      <use xlink:href="#ArialMT-73" x="205.615234"/>
      <use xlink:href="#ArialMT-33" x="255.615234"/>
      <use xlink:href="#ArialMT-2e" x="311.230469"/>
      <use xlink:href="#ArialMT-32" x="339.013672"/>
      <use xlink:href="#ArialMT-20" x="394.628906"/>
      <use xlink:href="#ArialMT-74" x="422.412109"/>
      <use xlink:href="#ArialMT-72" x="450.195312"/>
      <use xlink:href="#ArialMT-61" x="483.496094"/>
      <use xlink:href="#ArialMT-63" x="539.111328"/>
      <use xlink:href="#ArialMT-6b" x="589.111328"/>
      <use xlink:href="#ArialMT-69" x="639.111328"/>
      <use xlink:href="#ArialMT-6e" x="661.328125"/>
      <use xlink:href="#ArialMT-67" x="716.943359"/>
     </g>
    </g>
    <g id="line2d_38">
     <path d="M 35.39 22.994089 
L 40.39 22.994089 
L 45.39 22.994089 
" style="fill: none; stroke: #0173b2; stroke-linecap: round"/>
    </g>
    <g id="text_13">
     <!-- $\text{PerM}^\text{n1}$ | $\text{FtsB}^\text{ΔLQ}$ -->
     <g style="fill: #262626" transform="translate(49.39 24.744089) scale(0.05 -0.05)">
      <defs>
       <path id="DejaVuSans-50" d="M 1259 4147 
L 1259 2394 
L 2053 2394 
Q 2494 2394 2734 2622 
Q 2975 2850 2975 3272 
Q 2975 3691 2734 3919 
Q 2494 4147 2053 4147 
L 1259 4147 
z
M 628 4666 
L 2053 4666 
Q 2838 4666 3239 4311 
Q 3641 3956 3641 3272 
Q 3641 2581 3239 2228 
Q 2838 1875 2053 1875 
L 1259 1875 
L 1259 0 
L 628 0 
L 628 4666 
z
" transform="scale(0.015625)"/>
       <path id="DejaVuSans-65" d="M 3597 1894 
L 3597 1613 
L 953 1613 
Q 991 1019 1311 708 
Q 1631 397 2203 397 
Q 2534 397 2845 478 
Q 3156 559 3463 722 
L 3463 178 
Q 3153 47 2828 -22 
Q 2503 -91 2169 -91 
Q 1331 -91 842 396 
Q 353 884 353 1716 
Q 353 2575 817 3079 
Q 1281 3584 2069 3584 
Q 2775 3584 3186 3129 
Q 3597 2675 3597 1894 
z
M 3022 2063 
Q 3016 2534 2758 2815 
Q 2500 3097 2075 3097 
Q 1594 3097 1305 2825 
Q 1016 2553 972 2059 
L 3022 2063 
z
" transform="scale(0.015625)"/>
       <path id="DejaVuSans-72" d="M 2631 2963 
Q 2534 3019 2420 3045 
Q 2306 3072 2169 3072 
Q 1681 3072 1420 2755 
Q 1159 2438 1159 1844 
L 1159 0 
L 581 0 
L 581 3500 
L 1159 3500 
L 1159 2956 
Q 1341 3275 1631 3429 
Q 1922 3584 2338 3584 
Q 2397 3584 2469 3576 
Q 2541 3569 2628 3553 
L 2631 2963 
z
" transform="scale(0.015625)"/>
       <path id="DejaVuSans-4d" d="M 628 4666 
L 1569 4666 
L 2759 1491 
L 3956 4666 
L 4897 4666 
L 4897 0 
L 4281 0 
L 4281 4097 
L 3078 897 
L 2444 897 
L 1241 4097 
L 1241 0 
L 628 0 
L 628 4666 
z
" transform="scale(0.015625)"/>
       <path id="DejaVuSans-6e" d="M 3513 2113 
L 3513 0 
L 2938 0 
L 2938 2094 
Q 2938 2591 2744 2837 
Q 2550 3084 2163 3084 
Q 1697 3084 1428 2787 
Q 1159 2491 1159 1978 
L 1159 0 
L 581 0 
L 581 3500 
L 1159 3500 
L 1159 2956 
Q 1366 3272 1645 3428 
Q 1925 3584 2291 3584 
Q 2894 3584 3203 3211 
Q 3513 2838 3513 2113 
z
" transform="scale(0.015625)"/>
       <path id="ArialMT-7c" d="M 588 -1347 
L 588 4659 
L 1078 4659 
L 1078 -1347 
L 588 -1347 
z
" transform="scale(0.015625)"/>
       <path id="DejaVuSans-46" d="M 628 4666 
L 3309 4666 
L 3309 4134 
L 1259 4134 
L 1259 2759 
L 3109 2759 
L 3109 2228 
L 1259 2228 
L 1259 0 
L 628 0 
L 628 4666 
z
" transform="scale(0.015625)"/>
       <path id="DejaVuSans-74" d="M 1172 4494 
L 1172 3500 
L 2356 3500 
L 2356 3053 
L 1172 3053 
L 1172 1153 
Q 1172 725 1289 603 
Q 1406 481 1766 481 
L 2356 481 
L 2356 0 
L 1766 0 
Q 1100 0 847 248 
Q 594 497 594 1153 
L 594 3053 
L 172 3053 
L 172 3500 
L 594 3500 
L 594 4494 
L 1172 4494 
z
" transform="scale(0.015625)"/>
       <path id="DejaVuSans-73" d="M 2834 3397 
L 2834 2853 
Q 2591 2978 2328 3040 
Q 2066 3103 1784 3103 
Q 1356 3103 1142 2972 
Q 928 2841 928 2578 
Q 928 2378 1081 2264 
Q 1234 2150 1697 2047 
L 1894 2003 
Q 2506 1872 2764 1633 
Q 3022 1394 3022 966 
Q 3022 478 2636 193 
Q 2250 -91 1575 -91 
Q 1294 -91 989 -36 
Q 684 19 347 128 
L 347 722 
Q 666 556 975 473 
Q 1284 391 1588 391 
Q 1994 391 2212 530 
Q 2431 669 2431 922 
Q 2431 1156 2273 1281 
Q 2116 1406 1581 1522 
L 1381 1569 
Q 847 1681 609 1914 
Q 372 2147 372 2553 
Q 372 3047 722 3315 
Q 1072 3584 1716 3584 
Q 2034 3584 2315 3537 
Q 2597 3491 2834 3397 
z
" transform="scale(0.015625)"/>
       <path id="DejaVuSans-42" d="M 1259 2228 
L 1259 519 
L 2272 519 
Q 2781 519 3026 730 
Q 3272 941 3272 1375 
Q 3272 1813 3026 2020 
Q 2781 2228 2272 2228 
L 1259 2228 
z
M 1259 4147 
L 1259 2741 
L 2194 2741 
Q 2656 2741 2882 2914 
Q 3109 3088 3109 3444 
Q 3109 3797 2882 3972 
Q 2656 4147 2194 4147 
L 1259 4147 
z
M 628 4666 
L 2241 4666 
Q 2963 4666 3353 4366 
Q 3744 4066 3744 3513 
Q 3744 3084 3544 2831 
Q 3344 2578 2956 2516 
Q 3422 2416 3680 2098 
Q 3938 1781 3938 1306 
Q 3938 681 3513 340 
Q 3088 0 2303 0 
L 628 0 
L 628 4666 
z
" transform="scale(0.015625)"/>
       <path id="DejaVuSans-394" d="M 2188 4044 
L 906 525 
L 3472 525 
L 2188 4044 
z
M 50 0 
L 1831 4666 
L 2547 4666 
L 4325 0 
L 50 0 
z
" transform="scale(0.015625)"/>
       <path id="DejaVuSans-4c" d="M 628 4666 
L 1259 4666 
L 1259 531 
L 3531 531 
L 3531 0 
L 628 0 
L 628 4666 
z
" transform="scale(0.015625)"/>
       <path id="DejaVuSans-51" d="M 2522 4238 
Q 1834 4238 1429 3725 
Q 1025 3213 1025 2328 
Q 1025 1447 1429 934 
Q 1834 422 2522 422 
Q 3209 422 3611 934 
Q 4013 1447 4013 2328 
Q 4013 3213 3611 3725 
Q 3209 4238 2522 4238 
z
M 3406 84 
L 4238 -825 
L 3475 -825 
L 2784 -78 
Q 2681 -84 2626 -87 
Q 2572 -91 2522 -91 
Q 1538 -91 948 567 
Q 359 1225 359 2328 
Q 359 3434 948 4092 
Q 1538 4750 2522 4750 
Q 3503 4750 4090 4092 
Q 4678 3434 4678 2328 
Q 4678 1516 4351 937 
Q 4025 359 3406 84 
z
" transform="scale(0.015625)"/>
      </defs>
      <use xlink:href="#DejaVuSans-50" transform="translate(0 0.765625)"/>
      <use xlink:href="#DejaVuSans-65" transform="translate(60.302734 0.765625)"/>
      <use xlink:href="#DejaVuSans-72" transform="translate(121.826172 0.765625)"/>
      <use xlink:href="#DejaVuSans-4d" transform="translate(162.939453 0.765625)"/>
      <use xlink:href="#DejaVuSans-6e" transform="translate(250.175781 39.046875) scale(0.7)"/>
      <use xlink:href="#DejaVuSans-31" transform="translate(294.541016 39.046875) scale(0.7)"/>
      <use xlink:href="#ArialMT-20" transform="translate(341.811523 0.765625)"/>
      <use xlink:href="#ArialMT-7c" transform="translate(369.594727 0.765625)"/>
      <use xlink:href="#ArialMT-20" transform="translate(395.571289 0.765625)"/>
      <use xlink:href="#DejaVuSans-46" transform="translate(423.354492 0.765625)"/>
      <use xlink:href="#DejaVuSans-74" transform="translate(480.874023 0.765625)"/>
      <use xlink:href="#DejaVuSans-73" transform="translate(520.083008 0.765625)"/>
      <use xlink:href="#DejaVuSans-42" transform="translate(572.182617 0.765625)"/>
      <use xlink:href="#DejaVuSans-394" transform="translate(641.743164 39.046875) scale(0.7)"/>
      <use xlink:href="#DejaVuSans-4c" transform="translate(689.628906 39.046875) scale(0.7)"/>
      <use xlink:href="#DejaVuSans-51" transform="translate(728.62793 39.046875) scale(0.7)"/>
     </g>
    </g>
    <g id="line2d_39">
     <path d="M 35.39 31.144089 
L 40.39 31.144089 
L 45.39 31.144089 
" style="fill: none; stroke: #de8f05; stroke-linecap: round"/>
    </g>
    <g id="text_14">
     <!-- $\text{PerM}^\text{n1}$ | $\text{FtsB}^\text{ΔLQΔH}$ -->
     <g style="fill: #262626" transform="translate(49.39 32.894089) scale(0.05 -0.05)">
      <defs>
       <path id="DejaVuSans-48" d="M 628 4666 
L 1259 4666 
L 1259 2753 
L 3553 2753 
L 3553 4666 
L 4184 4666 
L 4184 0 
L 3553 0 
L 3553 2222 
L 1259 2222 
L 1259 0 
L 628 0 
L 628 4666 
z
" transform="scale(0.015625)"/>
      </defs>
      <use xlink:href="#DejaVuSans-50" transform="translate(0 0.765625)"/>
      <use xlink:href="#DejaVuSans-65" transform="translate(60.302734 0.765625)"/>
      <use xlink:href="#DejaVuSans-72" transform="translate(121.826172 0.765625)"/>
      <use xlink:href="#DejaVuSans-4d" transform="translate(162.939453 0.765625)"/>
      <use xlink:href="#DejaVuSans-6e" transform="translate(250.175781 39.046875) scale(0.7)"/>
      <use xlink:href="#DejaVuSans-31" transform="translate(294.541016 39.046875) scale(0.7)"/>
      <use xlink:href="#ArialMT-20" transform="translate(341.811523 0.765625)"/>
      <use xlink:href="#ArialMT-7c" transform="translate(369.594727 0.765625)"/>
      <use xlink:href="#ArialMT-20" transform="translate(395.571289 0.765625)"/>
      <use xlink:href="#DejaVuSans-46" transform="translate(423.354492 0.765625)"/>
      <use xlink:href="#DejaVuSans-74" transform="translate(480.874023 0.765625)"/>
      <use xlink:href="#DejaVuSans-73" transform="translate(520.083008 0.765625)"/>
      <use xlink:href="#DejaVuSans-42" transform="translate(572.182617 0.765625)"/>
      <use xlink:href="#DejaVuSans-394" transform="translate(641.743164 39.046875) scale(0.7)"/>
      <use xlink:href="#DejaVuSans-4c" transform="translate(689.628906 39.046875) scale(0.7)"/>
      <use xlink:href="#DejaVuSans-51" transform="translate(728.62793 39.046875) scale(0.7)"/>
      <use xlink:href="#DejaVuSans-394" transform="translate(783.725586 39.046875) scale(0.7)"/>
      <use xlink:href="#DejaVuSans-48" transform="translate(831.611328 39.046875) scale(0.7)"/>
     </g>
    </g>
   </g>
  </g>
 </g>
 <defs>
  <clipPath id="pacddfcbef9">
   <rect x="30.89" y="7.618777" width="173.585743" height="105.888536"/>
  </clipPath>
 </defs>
</svg>
