<?xml version="1.0" encoding="utf-8" standalone="no"?>
<!DOCTYPE svg PUBLIC "-//W3C//DTD SVG 1.1//EN"
  "http://www.w3.org/Graphics/SVG/1.1/DTD/svg11.dtd">
<svg xmlns:xlink="http://www.w3.org/1999/xlink" width="295.2pt" height="165.6pt" viewBox="0 0 295.2 165.6" xmlns="http://www.w3.org/2000/svg" version="1.1">
 <metadata>
  <rdf:RDF xmlns:dc="http://purl.org/dc/elements/1.1/" xmlns:cc="http://creativecommons.org/ns#" xmlns:rdf="http://www.w3.org/1999/02/22-rdf-syntax-ns#">
   <cc:Work>
    <dc:type rdf:resource="http://purl.org/dc/dcmitype/StillImage"/>
    <dc:date>2024-03-07T21:37:16.096055</dc:date>
    <dc:format>image/svg+xml</dc:format>
    <dc:creator>
     <cc:Agent>
      <dc:title>Matplotlib v3.8.2, https://matplotlib.org/</dc:title>
     </cc:Agent>
    </dc:creator>
   </cc:Work>
  </rdf:RDF>
 </metadata>
 <defs>
  <style type="text/css">*{stroke-linejoin: round; stroke-linecap: butt}</style>
 </defs>
 <g id="figure_1">
  <g id="patch_1">
   <path d="M 0 165.6 
L 295.2 165.6 
L 295.2 0 
L 0 0 
z
" style="fill: #ffffff"/>
  </g>
  <g id="axes_1">
   <g id="patch_2">
    <path d="M 23.47 45.366667 
L 287.1 45.366667 
L 287.1 8.1 
L 23.47 8.1 
z
" style="fill: #ffffff"/>
   </g>
   <g id="matplotlib.axis_1">
    <g id="xtick_1">
     <g id="line2d_1">
      <defs>
       <path id="m89309ca5a9" d="M 0 0 
L 0 3.5 
" style="stroke: #000000; stroke-width: 0.8"/>
      </defs>
      <g>
       <use xlink:href="#m89309ca5a9" x="23.47" y="45.366667" style="stroke: #000000; stroke-width: 0.8"/>
      </g>
     </g>
    </g>
    <g id="xtick_2">
     <g id="line2d_2">
      <g>
       <use xlink:href="#m89309ca5a9" x="71.402727" y="45.366667" style="stroke: #000000; stroke-width: 0.8"/>
      </g>
     </g>
    </g>
    <g id="xtick_3">
     <g id="line2d_3">
      <g>
       <use xlink:href="#m89309ca5a9" x="119.335455" y="45.366667" style="stroke: #000000; stroke-width: 0.8"/>
      </g>
     </g>
    </g>
    <g id="xtick_4">
     <g id="line2d_4">
      <g>
       <use xlink:href="#m89309ca5a9" x="167.268182" y="45.366667" style="stroke: #000000; stroke-width: 0.8"/>
      </g>
     </g>
    </g>
    <g id="xtick_5">
     <g id="line2d_5">
      <g>
       <use xlink:href="#m89309ca5a9" x="215.200909" y="45.366667" style="stroke: #000000; stroke-width: 0.8"/>
      </g>
     </g>
    </g>
    <g id="xtick_6">
     <g id="line2d_6">
      <g>
       <use xlink:href="#m89309ca5a9" x="263.133636" y="45.366667" style="stroke: #000000; stroke-width: 0.8"/>
      </g>
     </g>
    </g>
   </g>
   <g id="matplotlib.axis_2">
    <g id="ytick_1">
     <g id="line2d_7">
      <defs>
       <path id="m95d495c6ec" d="M 0 0 
L -3.5 0 
" style="stroke: #000000; stroke-width: 0.8"/>
      </defs>
      <g>
       <use xlink:href="#m95d495c6ec" x="23.47" y="45.366667" style="stroke: #000000; stroke-width: 0.8"/>
      </g>
     </g>
     <g id="text_1">
      <text style="font: 500 7.5px 'Arial'; text-anchor: end" x="16.47" y="48.050846" transform="rotate(-0 16.47 48.050846)">0</text>
     </g>
    </g>
    <g id="ytick_2">
     <g id="line2d_8">
      <g>
       <use xlink:href="#m95d495c6ec" x="23.47" y="31.033333" style="stroke: #000000; stroke-width: 0.8"/>
      </g>
     </g>
     <g id="text_2">
      <text style="font: 500 7.5px 'Arial'; text-anchor: end" x="16.47" y="33.717513" transform="rotate(-0 16.47 33.717513)">5</text>
     </g>
    </g>
    <g id="ytick_3">
     <g id="line2d_9">
      <g>
       <use xlink:href="#m95d495c6ec" x="23.47" y="16.7" style="stroke: #000000; stroke-width: 0.8"/>
      </g>
     </g>
     <g id="text_3">
      <text style="font: 500 7.5px 'Arial'; text-anchor: end" x="16.47" y="19.38418" transform="rotate(-0 16.47 19.38418)">10</text>
     </g>
    </g>
   </g>
   <g id="line2d_10">
    <path d="M 26.465795 10.31783 
L 28.886398 9.527796 
L 29.102095 9.492677 
L 29.653322 9.480622 
L 30.348346 9.526756 
L 30.516111 9.531219 
L 30.947505 9.603904 
L 35.525081 10.572625 
L 36.459769 10.562303 
L 37.010995 10.561288 
L 39.215901 10.220211 
L 41.995999 10.377817 
L 42.283595 10.44673 
L 42.738956 10.384389 
L 43.889342 10.511856 
L 44.272804 10.575458 
L 44.967828 10.721515 
L 45.303357 10.842134 
L 45.61492 10.904898 
L 46.214079 11.614627 
L 46.525642 12.053343 
L 48.299153 14.340542 
L 48.682615 14.930435 
L 49.928865 16.60815 
L 51.270982 18.488913 
L 51.558578 18.766381 
L 52.037905 19.122859 
L 52.373435 19.122916 
L 52.900695 19.258949 
L 52.99656 19.325446 
L 53.475887 19.625554 
L 54.099013 19.8997 
L 54.242811 19.8392 
L 54.266777 19.866797 
L 54.458508 19.933201 
L 54.698172 20.187499 
L 56.088221 20.602245 
L 57.022909 20.330412 
L 57.334472 20.439687 
L 57.550169 20.518112 
L 57.717934 20.535124 
L 57.909665 20.560333 
L 59.227815 21.107193 
L 59.58731 21.06252 
L 59.779041 21.021724 
L 59.874906 20.965541 
L 60.090604 20.918616 
L 60.234402 20.960998 
L 60.521998 20.885249 
L 60.833561 20.803092 
L 61.121157 20.727112 
L 61.312888 20.800169 
L 61.624451 20.765239 
L 61.768249 20.773694 
L 61.95998 20.754287 
L 62.415341 20.908308 
L 62.535173 20.87974 
L 62.607072 21.008291 
L 62.678971 20.95823 
L 63.829356 20.449119 
L 64.021087 20.292907 
L 64.212818 20.271502 
L 64.356616 20.286453 
L 64.428515 20.282955 
L 64.452482 20.257135 
L 64.59628 20.161922 
L 65.435103 19.518275 
L 65.746665 19.535153 
L 66.058228 19.781279 
L 66.489623 19.831001 
L 66.657387 19.758834 
L 67.040849 19.894806 
L 67.160681 19.786685 
L 67.472244 19.418519 
L 67.711907 19.174441 
L 67.927605 18.978458 
L 68.2871 18.649267 
L 68.478831 18.522027 
L 69.581284 17.591749 
L 69.773015 17.432022 
L 70.012678 17.185931 
L 70.779602 16.232089 
L 71.282895 15.861836 
L 71.522559 15.682531 
L 71.953954 15.169382 
L 72.337415 14.66645 
L 72.529146 14.400517 
L 72.792776 14.125137 
L 72.984507 13.826911 
L 73.272104 13.67541 
L 73.511767 13.715784 
L 73.679532 13.726192 
L 74.710085 13.586659 
L 74.973715 13.601431 
L 76.028235 13.731363 
L 76.243933 13.863674 
L 77.010856 14.227624 
L 77.178621 14.291973 
L 77.586049 14.843714 
L 78.017444 15.349734 
L 78.209175 15.483328 
L 80.94134 18.01369 
L 83.505741 23.462852 
L 84.152833 24.251452 
L 84.440429 24.710943 
L 84.704059 25.147209 
L 85.42305 26.444395 
L 87.00483 28.303125 
L 87.603989 28.058903 
L 87.867619 27.936507 
L 88.05935 27.873589 
L 88.562644 27.779683 
L 88.970072 27.827333 
L 89.329567 27.826107 
L 89.593197 27.581005 
L 89.976659 27.82522 
L 90.336155 27.801054 
L 90.839448 27.780143 
L 91.294809 27.874522 
L 92.0138 28.134257 
L 92.469161 28.459308 
L 92.948488 28.664155 
L 93.355916 28.796816 
L 93.547647 28.733851 
L 94.314571 28.407562 
L 94.698033 28.250698 
L 95.728586 27.827287 
L 96.064115 27.524041 
L 96.471544 27.528967 
L 97.502097 27.223531 
L 97.741761 27.088554 
L 98.316954 27.048923 
L 99.299575 27.229666 
L 100.354095 28.307969 
L 100.71359 28.790127 
L 101.192917 29.532009 
L 101.552413 30.02128 
L 102.487101 31.001396 
L 103.301957 31.894325 
L 103.829217 32.606447 
L 104.356477 33.150225 
L 105.410997 34.260562 
L 106.489484 35.101178 
L 106.729147 35.109843 
L 108.981985 35.340382 
L 109.14975 35.337472 
L 109.533212 35.367437 
L 109.988573 35.382735 
L 112.001747 35.442034 
L 115.572735 35.474045 
L 115.788433 35.455576 
L 116.26776 34.913595 
L 116.675188 34.763035 
L 116.890885 34.75277 
L 117.154515 34.560005 
L 117.705742 33.802496 
L 118.280935 33.333665 
L 119.838748 32.650312 
L 120.006513 32.667905 
L 121.732091 32.68423 
L 122.043654 32.89705 
L 122.499015 33.247918 
L 122.930409 33.409833 
L 124.224593 34.931529 
L 124.368391 34.996479 
L 124.919617 35.369493 
L 125.902238 35.981816 
L 126.141902 36.014719 
L 126.501397 36.033139 
L 126.741061 36.013548 
L 127.771615 35.902745 
L 128.418706 36.020041 
L 131.534334 36.073126 
L 131.869863 36.02552 
L 132.588854 36.016973 
L 132.87645 36.083041 
L 136.974698 35.899166 
L 137.190395 35.941925 
L 139.754796 35.93261 
L 140.186191 35.962239 
L 141.04898 35.942045 
L 141.83987 35.870432 
L 142.175399 35.897136 
L 142.750592 35.92665 
L 143.062155 35.875928 
L 144.236506 35.823415 
L 144.691867 35.868404 
L 145.099295 35.916914 
L 145.410858 35.924793 
L 147.975259 36.008372 
L 148.334755 36.010748 
L 149.341342 36.007082 
L 149.581005 35.949035 
L 149.820669 35.980935 
L 152.169373 35.964503 
L 152.504902 35.989638 
L 152.936296 35.990315 
L 153.727186 36.004837 
L 154.278413 36.073022 
L 154.733774 36.076767 
L 155.644495 36.201244 
L 156.219688 36.200285 
L 156.435385 36.125925 
L 158.113031 36.064652 
L 159.407215 36.038169 
L 160.677432 35.918963 
L 160.869163 35.903949 
L 162.355077 35.880801 
L 162.642674 35.921271 
L 164.392218 35.89949 
L 164.679815 35.931003 
L 165.183108 35.993957 
L 169.233424 36.238832 
L 171.414363 36.109173 
L 171.63006 36.043849 
L 172.133354 35.933299 
L 172.852345 35.831011 
L 173.115975 35.827408 
L 175.272947 35.745885 
L 175.704342 35.727829 
L 176.567131 35.682095 
L 177.190256 35.667726 
L 177.525785 35.653969 
L 178.172877 35.651593 
L 179.514994 35.219445 
L 180.042254 35.217451 
L 180.545547 35.298385 
L 181.048841 35.294782 
L 182.127327 35.302233 
L 182.366991 35.31645 
L 183.301679 35.323975 
L 184.308266 35.513471 
L 184.787594 35.806726 
L 186.153676 35.889494 
L 186.680936 35.858096 
L 187.423894 35.90917 
L 188.861875 35.943994 
L 189.437068 35.961437 
L 189.628799 35.952087 
L 190.060194 35.970953 
L 200.413663 36.210912 
L 200.701259 36.216618 
L 201.228519 36.212404 
L 201.707846 36.205464 
L 203.577223 36.115884 
L 204.775541 36.113015 
L 207.22011 36.19606 
L 207.651505 36.225518 
L 208.897755 36.245271 
L 209.425015 36.197577 
L 210.671266 36.16959 
L 210.982829 36.152717 
L 213.067903 35.985841 
L 214.098456 35.79443 
L 214.553817 35.791129 
L 217.022353 35.735433 
L 217.597545 35.766856 
L 218.196705 35.738498 
L 218.580166 35.73399 
L 218.915695 35.744112 
L 220.042115 35.8237 
L 220.40161 35.787797 
L 220.689206 35.787091 
L 221.096635 35.784644 
L 226.584932 35.708553 
L 228.142745 35.88976 
L 229.341064 35.987789 
L 235.500419 35.714783 
L 235.811982 35.778345 
L 236.914435 35.830024 
L 237.681358 35.961749 
L 237.944988 35.980465 
L 248.87365 36.25352 
L 250.143867 36.296623 
L 250.623195 36.232106 
L 252.061176 36.268664 
L 252.276874 36.270543 
L 254.433846 36.18196 
L 255.176804 36.042049 
L 259.94611 36.011 
L 261.216327 36.213978 
L 261.647722 36.308565 
L 263.469165 36.414582 
L 265.050945 36.52956 
L 265.338542 36.586693 
L 270.371478 36.365494 
L 271.090469 36.370947 
L 271.785494 36.403517 
L 273.271408 36.380222 
L 276.363069 36.453078 
L 278.567975 36.501629 
L 279.071268 36.480103 
L 279.526629 36.520308 
L 280.293553 36.529934 
L 282.594324 36.489444 
L 283.001752 36.467015 
L 284.104205 36.45523 
L 284.104205 36.45523 
" clip-path="url(#p09ddec8167)" style="fill: none; stroke: #808080; stroke-width: 1.5; stroke-linecap: square"/>
   </g>
   <g id="line2d_11">
    <path d="M 26.465795 11.249656 
L 27.088921 11.369844 
L 27.472383 11.372303 
L 28.694667 11.457161 
L 28.862432 11.468692 
L 29.485557 11.413242 
L 30.492145 11.345921 
L 31.163203 11.537943 
L 31.450799 11.582323 
L 31.594597 11.620355 
L 31.954093 11.565258 
L 32.457386 11.592122 
L 33.320175 11.681455 
L 33.48794 11.71313 
L 35.453182 11.824311 
L 35.716812 11.869087 
L 35.980442 11.829712 
L 36.292005 11.776997 
L 36.507702 11.975864 
L 36.699433 11.935522 
L 37.17876 11.744848 
L 37.610155 11.714864 
L 37.849818 11.713563 
L 38.209314 11.646815 
L 38.472944 11.633584 
L 38.736574 11.585736 
L 41.828235 11.373394 
L 42.235663 11.440027 
L 42.810855 11.101446 
L 43.314149 11.144024 
L 43.817443 11.590462 
L 44.440568 12.065355 
L 44.776097 12.302548 
L 45.183525 12.370763 
L 46.238045 13.844384 
L 48.562783 18.416832 
L 49.090043 19.369015 
L 49.233841 19.528971 
L 49.425572 19.640737 
L 49.737135 19.714368 
L 50.240428 20.09572 
L 50.480092 20.200692 
L 50.863554 20.634156 
L 51.079251 20.96558 
L 51.510645 21.260001 
L 51.822208 21.629107 
L 52.037905 21.832758 
L 52.277569 22.047909 
L 52.373435 22.118423 
L 53.188291 22.511372 
L 53.739517 22.709443 
L 54.794037 23.015835 
L 55.393196 23.545643 
L 55.608894 23.792746 
L 55.824591 24.043517 
L 56.232019 24.49597 
L 56.543582 24.955626 
L 56.831178 25.330989 
L 57.022909 25.58889 
L 57.382405 25.843953 
L 57.526203 25.899251 
L 57.765866 25.849105 
L 57.933631 25.845446 
L 58.484857 25.884291 
L 58.772454 25.910658 
L 58.988151 25.904539 
L 59.347646 26.057607 
L 59.946805 26.225343 
L 60.593897 26.96041 
L 60.785628 27.155733 
L 61.193056 27.604913 
L 61.816182 28.61001 
L 63.062433 30.093743 
L 63.27813 30.209194 
L 63.661592 30.525176 
L 63.901255 30.945662 
L 64.021087 31.019825 
L 64.380583 31.238523 
L 64.500415 31.352768 
L 65.339237 32.37057 
L 65.722699 32.894394 
L 65.986329 32.886329 
L 66.297892 32.751407 
L 66.513589 32.592622 
L 66.777219 32.509737 
L 66.921017 32.534348 
L 67.016883 32.575117 
L 67.256546 32.679221 
L 67.544143 32.721825 
L 68.55073 32.7724 
L 68.910225 32.68615 
L 69.07799 32.762595 
L 69.461452 33.109488 
L 70.611837 33.526412 
L 70.779602 33.587902 
L 70.971333 33.616983 
L 71.282895 33.63906 
L 71.786189 33.521178 
L 72.073785 33.805016 
L 72.385348 34.02632 
L 72.744844 34.0213 
L 73.487801 34.167704 
L 73.751431 34.156755 
L 74.829917 34.302407 
L 75.261312 34.265905 
L 75.740639 34.281268 
L 76.124101 34.5198 
L 76.435664 34.659683 
L 76.771193 34.613228 
L 78.448838 34.967656 
L 78.760401 35.166751 
L 79.766988 34.58729 
L 79.934753 34.476481 
L 81.037205 34.382452 
L 81.20497 34.307043 
L 81.252903 34.222314 
L 81.4686 33.863584 
L 81.780163 33.752475 
L 83.721438 32.87806 
L 83.937135 32.86132 
L 84.080934 32.720056 
L 84.464395 32.356728 
L 84.63216 32.245404 
L 85.447016 31.658196 
L 85.95031 31.597747 
L 86.669301 30.130123 
L 86.932931 29.623589 
L 87.220527 29.325017 
L 87.412258 29.575027 
L 87.675888 29.324863 
L 88.083316 29.085157 
L 88.275047 29.116598 
L 88.490745 29.009638 
L 88.778341 29.103189 
L 89.353534 29.228746 
L 89.497332 29.242579 
L 90.312188 29.804253 
L 91.151011 29.054878 
L 91.606372 28.481584 
L 92.181565 28.160031 
L 92.517094 28.304739 
L 92.756757 28.521275 
L 93.164185 28.426595 
L 93.427815 28.248012 
L 93.499715 28.235368 
L 93.523681 28.187051 
L 94.410436 26.810478 
L 94.506302 26.745004 
L 94.745965 26.562173 
L 95.249259 26.167967 
L 95.632721 25.45507 
L 95.776519 25.224639 
L 96.136015 24.849532 
L 96.207914 24.800288 
L 96.255846 24.880167 
L 96.471544 25.02545 
L 96.615342 25.105012 
L 96.831039 25.417674 
L 97.214501 26.224048 
L 98.005391 27.848508 
L 98.580584 28.751679 
L 98.700415 28.91781 
L 99.227675 29.882153 
L 99.39544 30.01469 
L 99.587171 30.525696 
L 99.874767 31.356525 
L 100.425994 32.464068 
L 101.288783 33.524514 
L 101.600345 34.065874 
L 102.199505 34.747014 
L 102.319336 34.860146 
L 102.654865 35.198927 
L 103.134193 35.228923 
L 103.541621 35.091238 
L 104.020948 35.109613 
L 104.332511 35.099803 
L 104.644074 35.170146 
L 104.93167 35.208605 
L 105.243233 35.32871 
L 105.315132 35.365375 
L 105.339098 35.331797 
L 105.482896 35.281187 
L 105.818425 35.227887 
L 106.058089 35.214548 
L 106.177921 35.273849 
L 106.297753 35.386846 
L 106.321719 35.368315 
L 106.896912 35.291552 
L 107.30434 35.298801 
L 112.337276 36.011022 
L 112.457108 36.02472 
L 112.600906 36.046353 
L 113.847157 36.146475 
L 114.254585 36.177779 
L 114.853745 36.158991 
L 115.47687 36.139703 
L 116.387592 36.176996 
L 117.130549 36.168887 
L 117.609876 36.110442 
L 118.328867 35.931584 
L 118.400766 35.933557 
L 118.424733 35.904483 
L 118.616464 35.820611 
L 118.975959 35.758841 
L 119.790815 35.667478 
L 120.294109 35.662928 
L 122.786611 35.259954 
L 123.936996 35.175642 
L 124.272525 35.303889 
L 124.44029 35.343513 
L 124.775819 35.45555 
L 124.991516 35.447437 
L 126.501397 35.371655 
L 126.81296 35.315837 
L 127.052624 35.257776 
L 128.634404 35.387257 
L 130.168251 35.608979 
L 130.479814 35.620322 
L 130.719477 35.517494 
L 132.181425 35.742471 
L 132.660753 35.647235 
L 132.948349 35.759086 
L 133.691306 35.68761 
L 134.410297 35.625859 
L 134.72186 35.423613 
L 135.536716 35.243985 
L 136.087943 35.102265 
L 136.255707 35.090162 
L 137.477992 35.038054 
L 138.340781 34.898553 
L 138.628377 34.990171 
L 139.563065 35.043241 
L 140.617585 35.142988 
L 141.168812 35.330275 
L 141.528307 35.384216 
L 141.863836 35.053078 
L 142.199365 35.042063 
L 142.89439 35.049364 
L 143.229919 35.099011 
L 143.541482 35.132929 
L 143.757179 35.170335 
L 144.092708 35.122856 
L 144.667901 34.985597 
L 144.835665 34.966092 
L 145.00343 34.949623 
L 145.147228 34.925397 
L 145.554656 34.881204 
L 145.722421 34.858223 
L 145.914152 34.75751 
L 146.872806 34.53666 
L 147.63973 34.658765 
L 148.023192 34.982834 
L 150.299996 35.312805 
L 150.611559 35.442204 
L 151.258651 35.573233 
L 152.840431 36.245168 
L 154.925505 36.282039 
L 155.117235 36.321552 
L 156.842814 36.272846 
L 157.9213 36.354519 
L 158.496493 36.372143 
L 159.119618 36.369733 
L 160.389835 36.452657 
L 161.08486 36.467311 
L 162.13938 36.507801 
L 162.93027 36.505886 
L 163.313732 36.501744 
L 169.568953 36.414576 
L 170.192078 36.462123 
L 171.126766 36.50674 
L 171.63006 36.51908 
L 173.906865 36.373434 
L 174.817586 36.378329 
L 175.296914 36.34527 
L 175.632443 36.322882 
L 176.183669 36.257258 
L 178.604272 36.224577 
L 178.915835 36.201524 
L 180.114153 36.188084 
L 181.048841 36.081982 
L 181.240572 36.059267 
L 181.600067 36.05032 
L 182.295092 36.06994 
L 183.157881 35.985922 
L 183.421511 35.965406 
L 183.972737 35.995264 
L 189.29327 35.671311 
L 189.532934 35.625775 
L 189.964328 35.588724 
L 192.840292 35.626783 
L 201.899577 36.165785 
L 202.354938 36.149475 
L 203.049963 36.182638 
L 203.936718 36.226926 
L 204.248281 36.192444 
L 204.463978 36.16969 
L 205.542465 36.027911 
L 205.710229 36.016525 
L 207.411841 35.852128 
L 208.011 35.792709 
L 208.418428 35.772574 
L 208.993621 35.760919 
L 209.784511 35.708993 
L 210.551435 35.796917 
L 210.767132 35.783551 
L 211.869585 35.831242 
L 212.157181 35.822322 
L 212.636508 35.81053 
L 213.475331 35.745137 
L 214.290187 35.767433 
L 214.673649 35.659848 
L 216.087665 35.653772 
L 216.566992 35.643275 
L 216.902521 35.632945 
L 217.333915 35.609874 
L 222.342885 35.799891 
L 222.870145 35.803006 
L 225.314715 35.859975 
L 225.698176 35.856362 
L 226.632865 35.908936 
L 227.160125 35.838254 
L 228.430342 35.86919 
L 229.197265 35.891687 
L 232.959985 35.813031 
L 234.158303 35.936632 
L 237.53756 35.84255 
L 239.11934 35.942079 
L 239.454869 35.934227 
L 240.509389 35.864463 
L 240.70112 35.854259 
L 241.156481 35.869624 
L 241.348212 35.903546 
L 241.779606 35.920686 
L 243.241555 36.021006 
L 243.409319 36.0384 
L 244.679536 35.94258 
L 246.76461 35.96577 
L 247.29187 35.96203 
L 248.298457 35.919172 
L 248.921583 35.97093 
L 249.329011 35.977936 
L 249.92817 35.991823 
L 251.078555 36.024183 
L 251.366152 36.062017 
L 251.725647 36.095111 
L 252.876033 36.101032 
L 254.098317 36.123933 
L 254.649544 36.08702 
L 255.320602 36.117255 
L 255.799929 36.105365 
L 256.662718 36.053388 
L 257.166012 36.030891 
L 257.525507 35.998323 
L 257.980868 35.989986 
L 258.915556 35.999239 
L 261.00063 35.99672 
L 261.336159 35.983866 
L 261.743587 36.001311 
L 262.84604 36.072975 
L 265.410441 36.029285 
L 265.985634 36.016082 
L 266.297196 36.047427 
L 267.423615 36.077694 
L 267.950875 36.106719 
L 268.310371 36.107292 
L 269.316958 36.09801 
L 277.034127 36.121725 
L 277.87295 36.115466 
L 279.1911 36.148346 
L 284.104205 36.112832 
L 284.104205 36.112832 
" clip-path="url(#p09ddec8167)" style="fill: none; stroke-dasharray: 5.55,2.4; stroke-dashoffset: 0; stroke: #808080; stroke-width: 1.5"/>
   </g>
   <g id="line2d_12">
    <path d="M 47.436364 45.366667 
L 47.436364 8.1 
" clip-path="url(#p09ddec8167)" style="fill: none; stroke-dasharray: 5.55,2.4; stroke-dashoffset: 0; stroke: #000000; stroke-width: 1.5"/>
   </g>
   <g id="line2d_13">
    <path d="M 167.268182 45.366667 
L 167.268182 8.1 
" clip-path="url(#p09ddec8167)" style="fill: none; stroke-dasharray: 5.55,2.4; stroke-dashoffset: 0; stroke: #000000; stroke-width: 1.5"/>
   </g>
   <g id="patch_3">
    <path d="M 23.47 45.366667 
L 23.47 8.1 
" style="fill: none; stroke: #000000; stroke-width: 0.8; stroke-linejoin: miter; stroke-linecap: square"/>
   </g>
   <g id="patch_4">
    <path d="M 287.1 45.366667 
L 287.1 8.1 
" style="fill: none; stroke: #000000; stroke-width: 0.8; stroke-linejoin: miter; stroke-linecap: square"/>
   </g>
   <g id="patch_5">
    <path d="M 23.47 45.366667 
L 287.1 45.366667 
" style="fill: none; stroke: #000000; stroke-width: 0.8; stroke-linejoin: miter; stroke-linecap: square"/>
   </g>
   <g id="patch_6">
    <path d="M 23.47 8.1 
L 287.1 8.1 
" style="fill: none; stroke: #000000; stroke-width: 0.8; stroke-linejoin: miter; stroke-linecap: square"/>
   </g>
  </g>
  <g id="axes_2">
   <g id="patch_7">
    <path d="M 23.47 94.693333 
L 287.1 94.693333 
L 287.1 57.426667 
L 23.47 57.426667 
z
" style="fill: #ffffff"/>
   </g>
   <g id="matplotlib.axis_3">
    <g id="xtick_7">
     <g id="line2d_14">
      <g>
       <use xlink:href="#m89309ca5a9" x="23.47" y="94.693333" style="stroke: #000000; stroke-width: 0.8"/>
      </g>
     </g>
    </g>
    <g id="xtick_8">
     <g id="line2d_15">
      <g>
       <use xlink:href="#m89309ca5a9" x="71.402727" y="94.693333" style="stroke: #000000; stroke-width: 0.8"/>
      </g>
     </g>
    </g>
    <g id="xtick_9">
     <g id="line2d_16">
      <g>
       <use xlink:href="#m89309ca5a9" x="119.335455" y="94.693333" style="stroke: #000000; stroke-width: 0.8"/>
      </g>
     </g>
    </g>
    <g id="xtick_10">
     <g id="line2d_17">
      <g>
       <use xlink:href="#m89309ca5a9" x="167.268182" y="94.693333" style="stroke: #000000; stroke-width: 0.8"/>
      </g>
     </g>
    </g>
    <g id="xtick_11">
     <g id="line2d_18">
      <g>
       <use xlink:href="#m89309ca5a9" x="215.200909" y="94.693333" style="stroke: #000000; stroke-width: 0.8"/>
      </g>
     </g>
    </g>
    <g id="xtick_12">
     <g id="line2d_19">
      <g>
       <use xlink:href="#m89309ca5a9" x="263.133636" y="94.693333" style="stroke: #000000; stroke-width: 0.8"/>
      </g>
     </g>
    </g>
   </g>
   <g id="matplotlib.axis_4">
    <g id="ytick_4">
     <g id="line2d_20">
      <g>
       <use xlink:href="#m95d495c6ec" x="23.47" y="94.693333" style="stroke: #000000; stroke-width: 0.8"/>
      </g>
     </g>
     <g id="text_4">
      <text style="font: 500 7.5px 'Arial'; text-anchor: end" x="16.47" y="97.377513" transform="rotate(-0 16.47 97.377513)">0</text>
     </g>
    </g>
    <g id="ytick_5">
     <g id="line2d_21">
      <g>
       <use xlink:href="#m95d495c6ec" x="23.47" y="80.36" style="stroke: #000000; stroke-width: 0.8"/>
      </g>
     </g>
     <g id="text_5">
      <text style="font: 500 7.5px 'Arial'; text-anchor: end" x="16.47" y="83.04418" transform="rotate(-0 16.47 83.04418)">5</text>
     </g>
    </g>
    <g id="ytick_6">
     <g id="line2d_22">
      <g>
       <use xlink:href="#m95d495c6ec" x="23.47" y="66.026667" style="stroke: #000000; stroke-width: 0.8"/>
      </g>
     </g>
     <g id="text_6">
      <text style="font: 500 7.5px 'Arial'; text-anchor: end" x="16.47" y="68.710846" transform="rotate(-0 16.47 68.710846)">10</text>
     </g>
    </g>
   </g>
   <g id="line2d_23">
    <path d="M 26.465795 67.423981 
L 26.825291 67.340433 
L 27.352551 67.410233 
L 27.664114 67.307175 
L 28.335172 67.480907 
L 28.934331 67.691626 
L 29.701255 67.355587 
L 30.396279 66.963751 
L 30.659909 66.931008 
L 30.971472 66.753351 
L 31.091304 66.743831 
L 31.235102 66.720595 
L 31.474765 66.729042 
L 31.618564 66.674739 
L 31.930126 66.397907 
L 32.337555 66.138969 
L 32.912747 66.011612 
L 33.128445 65.921265 
L 33.272243 65.823179 
L 33.416041 65.817385 
L 33.535873 65.752409 
L 33.799503 65.62058 
L 34.422628 65.345552 
L 35.261451 65.633289 
L 36.196139 66.52194 
L 37.298592 67.166517 
L 37.466356 67.288155 
L 37.682054 67.40222 
L 38.401045 67.891667 
L 38.49691 67.94735 
L 38.856405 68.086299 
L 39.599363 68.625612 
L 40.270421 68.985295 
L 40.989412 68.846453 
L 41.229075 68.807135 
L 41.468739 68.770298 
L 41.636504 68.758629 
L 44.752131 68.583137 
L 44.919895 68.558104 
L 45.063694 68.523333 
L 45.303357 68.443383 
L 45.423189 68.555313 
L 46.717373 70.719845 
L 46.909104 71.064803 
L 47.867758 72.66043 
L 50.743722 77.29525 
L 51.007352 77.73925 
L 51.438746 78.260918 
L 51.798242 78.283603 
L 51.94204 78.252352 
L 52.373435 78.268458 
L 52.852762 78.390895 
L 55.89649 78.806446 
L 56.16012 78.637844 
L 56.927044 78.337205 
L 57.502236 78.489766 
L 57.909665 78.413009 
L 58.197261 78.397277 
L 58.580723 78.27669 
L 59.084016 78.134829 
L 59.275747 78.082582 
L 59.826974 77.923447 
L 60.066637 77.802831 
L 60.761662 77.61846 
L 60.953393 77.507097 
L 61.768249 76.981694 
L 62.343442 76.993398 
L 65.315271 75.586366 
L 65.483035 75.522757 
L 65.698733 75.550112 
L 65.866497 75.52934 
L 66.369791 75.225221 
L 66.561522 75.158887 
L 66.777219 75.243625 
L 66.992916 75.285477 
L 67.472244 75.273404 
L 67.855705 75.429522 
L 68.191235 75.375414 
L 68.454865 75.453615 
L 68.982125 75.600106 
L 69.245755 75.637262 
L 69.557317 75.775681 
L 69.701115 75.814891 
L 70.012678 75.799921 
L 70.276308 75.682584 
L 70.444073 75.655647 
L 71.067198 75.706403 
L 71.378761 75.90129 
L 71.810155 75.866621 
L 74.494388 76.67125 
L 74.710085 76.603818 
L 74.87785 76.705951 
L 74.901816 76.688101 
L 75.14148 76.695073 
L 75.477009 76.715377 
L 75.812538 76.984835 
L 76.507563 78.230715 
L 77.418285 79.749753 
L 77.705881 80.195362 
L 80.509945 83.991147 
L 80.893407 84.550686 
L 81.708264 85.567931 
L 82.211557 85.582271 
L 83.242111 84.601891 
L 84.775958 84.893692 
L 85.734613 84.924528 
L 85.878411 84.933066 
L 86.094108 84.961936 
L 86.309805 84.946805 
L 86.525503 84.700682 
L 86.861032 84.430403 
L 87.172595 84.292222 
L 87.484157 83.787447 
L 87.723821 83.615508 
L 88.035384 83.652367 
L 88.251081 83.771351 
L 88.754375 84.404151 
L 89.065937 84.728404 
L 89.449399 84.623474 
L 89.64113 84.531771 
L 92.27743 84.633849 
L 92.421228 84.779243 
L 92.852623 85.187919 
L 93.020387 85.274196 
L 93.523681 85.686296 
L 94.170773 85.300302 
L 94.554235 84.986953 
L 94.698033 84.882123 
L 95.033562 84.786663 
L 95.393057 84.847201 
L 95.608755 85.008687 
L 98.60455 84.954242 
L 98.748348 84.928029 
L 99.371474 85.178872 
L 99.754935 85.490012 
L 99.898734 85.571427 
L 100.18633 85.787476 
L 100.71359 86.172353 
L 101.001186 86.262791 
L 101.816043 86.273493 
L 102.82263 86.249992 
L 105.650661 86.23339 
L 107.208475 86.206356 
L 109.053885 86.321652 
L 109.269582 86.332212 
L 109.724943 86.31536 
L 110.252203 86.364043 
L 111.810016 86.360483 
L 112.097613 86.357941 
L 113.200065 86.383904 
L 122.019687 86.242894 
L 122.187452 86.271062 
L 123.601467 86.372058 
L 124.272525 86.399754 
L 126.333633 86.406873 
L 126.765027 86.346587 
L 127.124523 86.163747 
L 127.579884 86.043453 
L 127.819547 86.00936 
L 130.120318 85.897801 
L 130.743444 85.784991 
L 132.205392 85.773851 
L 133.092147 86.04239 
L 133.451643 86.132125 
L 134.697894 86.155496 
L 135.536716 86.166902 
L 135.752414 86.197078 
L 140.449821 86.39885 
L 141.240711 86.362657 
L 142.247298 86.335025 
L 142.870424 86.367574 
L 144.284439 86.249199 
L 144.883598 86.269504 
L 149.844635 86.351939 
L 149.988434 86.401944 
L 150.53966 86.401545 
L 151.618146 86.416181 
L 153.128027 86.42748 
L 153.751153 86.430461 
L 154.422211 86.412985 
L 158.951854 86.302575 
L 159.143585 86.138602 
L 164.943445 86.203334 
L 165.135175 86.376597 
L 165.758301 86.409543 
L 166.669023 86.487104 
L 167.052485 86.43289 
L 167.483879 86.147183 
L 173.044075 86.314549 
L 173.47547 86.602653 
L 176.063837 86.631465 
L 180.617446 86.507168 
L 181.000908 86.512348 
L 182.96615 86.537076 
L 184.428098 86.568605 
L 185.027257 86.572916 
L 186.513172 86.603873 
L 187.999086 86.562703 
L 195.165029 86.587395 
L 200.988855 86.563581 
L 202.21114 86.546297 
L 206.069725 86.571641 
L 207.004413 86.568828 
L 222.750314 86.553474 
L 224.571757 86.533337 
L 226.081638 86.54005 
L 228.382409 86.573735 
L 228.83777 86.580118 
L 230.060055 86.594274 
L 230.779045 86.593415 
L 243.265521 86.574482 
L 243.720882 86.577365 
L 247.938962 86.599701 
L 248.777785 86.591835 
L 251.533916 86.592143 
L 252.03721 86.58625 
L 256.231324 86.547626 
L 258.580027 86.578328 
L 259.227119 86.576704 
L 260.018009 86.60483 
L 283.984373 86.482231 
L 284.104205 86.418134 
L 284.104205 86.418134 
" clip-path="url(#p8049dec2f2)" style="fill: none; stroke: #ffa500; stroke-width: 1.5; stroke-linecap: square"/>
   </g>
   <g id="line2d_24">
    <path d="M 26.465795 67.379841 
L 26.609594 67.372668 
L 26.825291 67.401744 
L 27.112887 67.476156 
L 27.448416 67.447776 
L 28.862432 67.325568 
L 29.245894 67.290855 
L 29.629355 67.210033 
L 29.845053 67.191509 
L 30.516111 67.246161 
L 31.90616 67.131359 
L 32.289622 67.221528 
L 33.152411 67.221012 
L 33.440007 67.291032 
L 34.710225 67.434098 
L 34.901955 67.458611 
L 35.309384 67.477141 
L 35.525081 67.537021 
L 35.692845 67.540508 
L 36.076307 67.541966 
L 37.322558 67.601408 
L 37.514289 67.610261 
L 37.801885 67.614095 
L 38.041549 67.592789 
L 40.701815 67.827852 
L 41.229075 67.881615 
L 42.283595 67.973237 
L 42.547225 68.151514 
L 42.882755 68.692439 
L 45.111626 72.838169 
L 45.854584 74.935797 
L 46.813238 77.919152 
L 48.922278 83.580172 
L 49.209875 83.972394 
L 49.30574 84.061863 
L 51.15115 86.151785 
L 52.157737 86.301162 
L 52.517233 86.305694 
L 54.410575 86.123913 
L 54.57834 86.104718 
L 54.865936 86.017636 
L 55.345264 85.44798 
L 55.824591 84.889886 
L 56.064255 84.774132 
L 56.711346 84.763582 
L 56.927044 84.828498 
L 59.970772 84.763494 
L 60.11457 84.833875 
L 60.833561 84.84263 
L 61.336855 85.404957 
L 61.43272 85.47011 
L 61.792215 85.797187 
L 62.463274 85.850059 
L 63.254164 85.829185 
L 63.421928 85.756664 
L 63.829356 85.501351 
L 65.91443 85.573409 
L 66.130127 85.451933 
L 66.417724 85.479638 
L 67.735874 85.602458 
L 67.951571 85.772118 
L 68.790394 85.771364 
L 69.07799 85.816306 
L 69.629216 86.006002 
L 69.796981 86.161271 
L 69.820947 86.105628 
L 70.036645 85.891634 
L 71.97792 85.984819 
L 72.361382 86.148467 
L 72.529146 86.0808 
L 72.720877 85.994206 
L 72.936575 85.925384 
L 73.152272 85.474921 
L 73.895229 83.091063 
L 75.956336 76.734863 
L 76.052202 76.441056 
L 76.579462 74.840352 
L 77.538116 71.979333 
L 77.849679 71.370975 
L 77.873645 71.383394 
L 77.993477 71.26385 
L 78.400905 70.83588 
L 78.520737 70.81647 
L 78.592636 70.670626 
L 78.808334 70.1469 
L 79.000065 69.787498 
L 79.024031 69.827287 
L 79.215762 69.925557 
L 79.479392 70.097835 
L 79.62319 70.232747 
L 81.588432 73.429938 
L 81.899995 73.811283 
L 82.211557 74.336655 
L 83.649539 76.968413 
L 83.793337 77.071177 
L 83.84127 77.000752 
L 84.080934 76.810354 
L 84.536295 76.467624 
L 84.991655 76.872346 
L 85.015622 76.833994 
L 85.15942 76.848647 
L 85.470983 77.062705 
L 85.662714 77.141358 
L 85.998243 76.957357 
L 86.166007 76.843213 
L 86.884998 76.318077 
L 87.148628 76.082205 
L 87.603989 75.954373 
L 88.251081 75.483904 
L 88.826274 74.925408 
L 88.970072 74.767915 
L 89.425433 74.403818 
L 89.856827 74.258781 
L 90.216323 74.219507 
L 90.384087 74.226453 
L 90.575818 74.292289 
L 90.935314 74.386703 
L 92.924522 76.987778 
L 93.236085 77.443777 
L 95.17736 81.123367 
L 95.512889 81.696282 
L 96.303779 82.652243 
L 96.447577 82.70623 
L 96.543443 82.73401 
L 96.567409 82.714883 
L 97.094669 82.2714 
L 97.502097 81.838173 
L 97.981425 81.329983 
L 98.436785 80.948957 
L 98.748348 80.720405 
L 99.203709 80.39944 
L 99.323541 80.342705 
L 100.18633 79.585662 
L 100.473926 79.15541 
L 101.097052 78.14024 
L 101.528446 77.266933 
L 101.840009 76.716338 
L 102.535034 75.201164 
L 102.559 75.230163 
L 102.702798 75.257792 
L 104.092847 74.479827 
L 104.308545 74.324266 
L 104.452343 74.279258 
L 104.955636 73.811986 
L 105.219266 73.487328 
L 105.554795 73.291335 
L 105.698594 73.408629 
L 105.866358 73.461114 
L 106.034123 73.391612 
L 106.369652 73.497727 
L 106.609315 73.618687 
L 106.944845 74.064425 
L 107.591936 74.614199 
L 108.598524 76.940305 
L 109.101817 77.795793 
L 109.293548 77.769282 
L 109.700976 77.840716 
L 110.20427 78.081681 
L 110.683597 78.296087 
L 111.330689 79.956454 
L 111.402588 80.077434 
L 111.618285 80.425184 
L 111.833983 80.492247 
L 112.57694 81.403452 
L 112.936435 81.554911 
L 113.247998 82.067613 
L 113.559561 82.459066 
L 114.014922 82.543345 
L 114.470283 82.942525 
L 114.805812 83.082058 
L 115.141341 83.533695 
L 115.836365 85.076487 
L 116.603289 86.562802 
L 120.318075 86.416835 
L 120.581705 86.389537 
L 121.612259 86.37885 
L 133.259912 86.278534 
L 133.691306 84.928545 
L 138.652344 69.165091 
L 138.844075 68.638915 
L 139.275469 67.414613 
L 139.395301 67.487596 
L 139.634965 67.602527 
L 140.018426 67.753791 
L 140.449821 67.763341 
L 140.665518 67.743171 
L 140.78535 67.693384 
L 140.929148 67.727418 
L 141.264677 67.839297 
L 141.384509 67.808883 
L 141.528307 67.803204 
L 141.983668 68.187249 
L 142.1035 68.258865 
L 142.295231 68.337718 
L 142.510928 68.43116 
L 142.966289 68.659065 
L 143.277852 68.673162 
L 143.661314 68.82994 
L 144.044775 68.46066 
L 145.626555 67.625434 
L 145.746387 67.542467 
L 145.79432 67.584794 
L 145.986051 67.63887 
L 146.105883 67.714002 
L 146.32158 67.908519 
L 146.465378 67.945589 
L 146.800907 68.051983 
L 147.088504 68.043036 
L 147.3761 68.129696 
L 147.807495 67.979831 
L 148.143024 67.761758 
L 148.69425 67.595048 
L 148.814082 67.601066 
L 149.125645 67.573432 
L 149.341342 67.710672 
L 149.652905 68.541696 
L 150.252064 70.746613 
L 152.073507 76.742578 
L 152.361104 77.092037 
L 152.576801 77.502944 
L 153.223893 78.824219 
L 154.637908 83.00927 
L 155.332933 84.895028 
L 155.668462 85.007164 
L 156.507285 84.999264 
L 156.675049 84.972559 
L 157.945266 84.885075 
L 158.18493 84.776218 
L 158.44856 85.015523 
L 158.927887 85.100008 
L 159.215484 85.121211 
L 159.335315 85.140255 
L 159.551013 85.2878 
L 160.605533 85.130194 
L 161.08486 85.073809 
L 161.372456 85.049419 
L 162.786472 84.953832 
L 164.104622 85.0207 
L 164.296353 85.101347 
L 164.488084 85.203856 
L 164.895512 85.49562 
L 165.159142 85.66028 
L 165.374839 85.756197 
L 165.614503 85.870115 
L 165.997965 86.086498 
L 166.381426 86.04204 
L 166.812821 85.990513 
L 172.253185 86.33154 
L 172.444916 86.436918 
L 172.708546 86.512375 
L 177.262155 86.21572 
L 178.292709 85.571813 
L 179.395162 85.431687 
L 179.658792 85.128598 
L 181.935596 82.786873 
L 182.079395 82.65308 
L 182.918217 81.8789 
L 183.373578 81.553881 
L 184.068603 81.398785 
L 184.332233 81.227348 
L 185.290887 80.331803 
L 185.554517 80.354551 
L 186.776802 80.475784 
L 187.471826 80.456209 
L 188.070985 80.513294 
L 188.454447 80.618228 
L 188.718077 80.775497 
L 189.964328 80.898747 
L 190.227958 81.026211 
L 190.515555 81.037045 
L 190.851084 81.003591 
L 191.330411 81.313105 
L 192.121301 82.054186 
L 192.504763 82.078842 
L 192.840292 82.22252 
L 193.727047 82.316085 
L 194.733635 82.194868 
L 194.901399 82.196375 
L 195.212962 82.159933 
L 195.860054 82.156842 
L 196.507145 82.094839 
L 196.842675 82.138601 
L 198.208757 82.361558 
L 198.927748 82.911286 
L 199.598806 83.505951 
L 200.006235 83.74982 
L 200.197965 83.785429 
L 200.389696 83.832999 
L 200.797125 84.099615 
L 201.012822 84.187649 
L 201.15662 84.216681 
L 203.049963 85.626068 
L 203.505324 85.583655 
L 203.721021 85.499324 
L 205.63833 85.471842 
L 206.189556 85.670476 
L 206.501119 85.862834 
L 207.74737 86.172121 
L 209.736578 86.302637 
L 209.904343 86.324236 
L 210.623334 86.31062 
L 211.510089 86.327609 
L 217.525646 86.264137 
L 218.364469 86.244293 
L 218.843796 86.227377 
L 221.791659 86.071804 
L 222.918078 86.069572 
L 223.085843 86.048732 
L 223.8288 85.937728 
L 224.020531 85.923531 
L 225.602311 85.93567 
L 225.889907 85.944947 
L 226.105605 85.853807 
L 226.632865 85.834659 
L 227.495654 85.774989 
L 228.885703 85.614701 
L 229.197265 85.748097 
L 231.426137 85.973944 
L 231.713734 85.960644 
L 233.007917 86.078593 
L 233.870706 86.241463 
L 234.134336 86.287903 
L 234.949193 86.260514 
L 235.212823 86.224029 
L 236.171477 86.205824 
L 236.866502 86.187182 
L 237.321863 86.196195 
L 239.814365 86.237819 
L 240.581288 86.076843 
L 240.796985 85.99567 
L 241.156481 85.912203 
L 242.330833 85.656572 
L 242.786194 85.63197 
L 243.265521 85.605277 
L 244.39194 85.597688 
L 245.542325 85.607168 
L 245.997686 85.614172 
L 246.477014 85.675766 
L 246.668745 85.811127 
L 247.938962 86.168305 
L 258.148633 86.062365 
L 258.340364 86.046322 
L 262.174982 85.803786 
L 262.558444 85.816979 
L 265.506306 85.737517 
L 265.698037 85.764892 
L 265.985634 85.790851 
L 266.225297 85.729115 
L 266.848423 85.55275 
L 267.112053 85.285803 
L 267.998808 85.06984 
L 268.262438 85.037848 
L 268.717799 84.889346 
L 268.90953 84.859456 
L 269.532655 84.666524 
L 271.953258 83.877633 
L 272.288787 83.847686 
L 272.816047 83.793109 
L 272.959845 83.9036 
L 273.343307 83.98583 
L 274.086265 83.771559 
L 274.757323 83.940331 
L 275.068885 83.946261 
L 275.404415 83.981548 
L 276.914295 84.171022 
L 277.225858 84.28701 
L 277.489488 84.331285 
L 277.992782 84.524355 
L 278.328311 84.607024 
L 278.92747 84.780109 
L 279.143167 84.816264 
L 280.173721 85.089679 
L 280.605115 85.0712 
L 280.940645 85.117618 
L 281.707568 85.101441 
L 282.138963 85.231417 
L 282.786055 85.376963 
L 283.552978 85.446662 
L 284.104205 85.507744 
L 284.104205 85.507744 
" clip-path="url(#p8049dec2f2)" style="fill: none; stroke-dasharray: 5.55,2.4; stroke-dashoffset: 0; stroke: #ffa500; stroke-width: 1.5"/>
   </g>
   <g id="line2d_25">
    <path d="M 47.436364 94.693333 
L 47.436364 57.426667 
" clip-path="url(#p8049dec2f2)" style="fill: none; stroke-dasharray: 5.55,2.4; stroke-dashoffset: 0; stroke: #000000; stroke-width: 1.5"/>
   </g>
   <g id="line2d_26">
    <path d="M 167.268182 94.693333 
L 167.268182 57.426667 
" clip-path="url(#p8049dec2f2)" style="fill: none; stroke-dasharray: 5.55,2.4; stroke-dashoffset: 0; stroke: #000000; stroke-width: 1.5"/>
   </g>
   <g id="patch_8">
    <path d="M 23.47 94.693333 
L 23.47 57.426667 
" style="fill: none; stroke: #000000; stroke-width: 0.8; stroke-linejoin: miter; stroke-linecap: square"/>
   </g>
   <g id="patch_9">
    <path d="M 287.1 94.693333 
L 287.1 57.426667 
" style="fill: none; stroke: #000000; stroke-width: 0.8; stroke-linejoin: miter; stroke-linecap: square"/>
   </g>
   <g id="patch_10">
    <path d="M 23.47 94.693333 
L 287.1 94.693333 
" style="fill: none; stroke: #000000; stroke-width: 0.8; stroke-linejoin: miter; stroke-linecap: square"/>
   </g>
   <g id="patch_11">
    <path d="M 23.47 57.426667 
L 287.1 57.426667 
" style="fill: none; stroke: #000000; stroke-width: 0.8; stroke-linejoin: miter; stroke-linecap: square"/>
   </g>
  </g>
  <g id="axes_3">
   <g id="patch_12">
    <path d="M 23.47 144.02 
L 287.1 144.02 
L 287.1 106.753333 
L 23.47 106.753333 
z
" style="fill: #ffffff"/>
   </g>
   <g id="matplotlib.axis_5">
    <g id="xtick_13">
     <g id="line2d_27">
      <g>
       <use xlink:href="#m89309ca5a9" x="23.47" y="144.02" style="stroke: #000000; stroke-width: 0.8"/>
      </g>
     </g>
     <g id="text_7">
      <text style="font: 500 7.5px 'Arial'; text-anchor: middle" x="23.47" y="156.388359" transform="rotate(-0 23.47 156.388359)">0</text>
     </g>
    </g>
    <g id="xtick_14">
     <g id="line2d_28">
      <g>
       <use xlink:href="#m89309ca5a9" x="71.402727" y="144.02" style="stroke: #000000; stroke-width: 0.8"/>
      </g>
     </g>
     <g id="text_8">
      <text style="font: 500 7.5px 'Arial'; text-anchor: middle" x="71.402727" y="156.388359" transform="rotate(-0 71.402727 156.388359)">200</text>
     </g>
    </g>
    <g id="xtick_15">
     <g id="line2d_29">
      <g>
       <use xlink:href="#m89309ca5a9" x="119.335455" y="144.02" style="stroke: #000000; stroke-width: 0.8"/>
      </g>
     </g>
     <g id="text_9">
      <text style="font: 500 7.5px 'Arial'; text-anchor: middle" x="119.335455" y="156.388359" transform="rotate(-0 119.335455 156.388359)">400</text>
     </g>
    </g>
    <g id="xtick_16">
     <g id="line2d_30">
      <g>
       <use xlink:href="#m89309ca5a9" x="167.268182" y="144.02" style="stroke: #000000; stroke-width: 0.8"/>
      </g>
     </g>
     <g id="text_10">
      <text style="font: 500 7.5px 'Arial'; text-anchor: middle" x="167.268182" y="156.388359" transform="rotate(-0 167.268182 156.388359)">600</text>
     </g>
    </g>
    <g id="xtick_17">
     <g id="line2d_31">
      <g>
       <use xlink:href="#m89309ca5a9" x="215.200909" y="144.02" style="stroke: #000000; stroke-width: 0.8"/>
      </g>
     </g>
     <g id="text_11">
      <text style="font: 500 7.5px 'Arial'; text-anchor: middle" x="215.200909" y="156.388359" transform="rotate(-0 215.200909 156.388359)">800</text>
     </g>
    </g>
    <g id="xtick_18">
     <g id="line2d_32">
      <g>
       <use xlink:href="#m89309ca5a9" x="263.133636" y="144.02" style="stroke: #000000; stroke-width: 0.8"/>
      </g>
     </g>
     <g id="text_12">
      <text style="font: 500 7.5px 'Arial'; text-anchor: middle" x="263.133636" y="156.388359" transform="rotate(-0 263.133636 156.388359)">1000</text>
     </g>
    </g>
   </g>
   <g id="matplotlib.axis_6">
    <g id="ytick_7">
     <g id="line2d_33">
      <g>
       <use xlink:href="#m95d495c6ec" x="23.47" y="144.02" style="stroke: #000000; stroke-width: 0.8"/>
      </g>
     </g>
     <g id="text_13">
      <text style="font: 500 7.5px 'Arial'; text-anchor: end" x="16.47" y="146.70418" transform="rotate(-0 16.47 146.70418)">0</text>
     </g>
    </g>
    <g id="ytick_8">
     <g id="line2d_34">
      <g>
       <use xlink:href="#m95d495c6ec" x="23.47" y="129.686667" style="stroke: #000000; stroke-width: 0.8"/>
      </g>
     </g>
     <g id="text_14">
      <text style="font: 500 7.5px 'Arial'; text-anchor: end" x="16.47" y="132.370846" transform="rotate(-0 16.47 132.370846)">5</text>
     </g>
    </g>
    <g id="ytick_9">
     <g id="line2d_35">
      <g>
       <use xlink:href="#m95d495c6ec" x="23.47" y="115.353333" style="stroke: #000000; stroke-width: 0.8"/>
      </g>
     </g>
     <g id="text_15">
      <text style="font: 500 7.5px 'Arial'; text-anchor: end" x="16.47" y="118.037513" transform="rotate(-0 16.47 118.037513)">10</text>
     </g>
    </g>
   </g>
   <g id="line2d_36">
    <path d="M 26.465795 127.643824 
L 27.088921 128.658991 
L 30.731808 134.299958 
L 30.827674 134.375961 
L 31.307001 134.681547 
L 31.954093 134.75723 
L 32.577218 134.804409 
L 33.919335 134.890577 
L 34.901955 134.887931 
L 35.716812 134.911699 
L 36.12424 134.944712 
L 37.586188 134.885347 
L 38.616742 134.793931 
L 39.096069 134.823542 
L 40.246455 134.865574 
L 40.366286 134.884405 
L 40.653883 134.874125 
L 42.595158 134.810654 
L 42.882755 134.796928 
L 43.961241 134.879518 
L 44.152972 134.829723 
L 44.5604 134.85601 
L 44.967828 134.845232 
L 45.231458 134.778145 
L 45.399223 134.74247 
L 45.830617 134.711369 
L 48.418985 134.73895 
L 48.610715 134.683671 
L 48.77848 134.676397 
L 48.946245 134.703611 
L 50.839587 134.82952 
L 51.366847 134.95235 
L 51.558578 134.939175 
L 51.750309 134.937869 
L 51.966006 134.932306 
L 52.445334 135.01347 
L 54.242811 134.890973 
L 54.410575 134.929331 
L 54.57834 134.963556 
L 55.680793 134.886078 
L 55.89649 134.817892 
L 56.591515 134.755127 
L 56.831178 134.709851 
L 57.574135 134.586859 
L 58.868319 134.381863 
L 60.042671 134.528692 
L 60.474065 134.590563 
L 60.833561 134.660201 
L 62.055845 134.914277 
L 62.247576 134.967989 
L 63.445895 133.519125 
L 63.54176 133.619138 
L 63.901255 133.739541 
L 64.116953 133.755681 
L 64.356616 133.880354 
L 65.38717 133.772554 
L 65.938396 132.740917 
L 66.17806 132.463596 
L 66.489623 132.338498 
L 66.96895 131.903301 
L 67.544143 131.785997 
L 68.239167 130.390466 
L 68.2871 130.449603 
L 68.478831 130.618861 
L 68.502797 130.559721 
L 68.646595 130.459413 
L 69.054024 130.426708 
L 69.820947 129.499873 
L 69.844914 129.52716 
L 69.940779 129.485952 
L 70.39614 128.927964 
L 70.971333 128.013364 
L 71.091165 127.941047 
L 71.330828 127.630024 
L 71.378761 127.584161 
L 71.426694 127.616492 
L 71.594458 127.720527 
L 71.810155 127.822512 
L 72.169651 128.28307 
L 72.457247 128.404355 
L 72.648978 128.555741 
L 72.840709 128.383664 
L 73.008474 128.290134 
L 73.344003 127.902873 
L 73.535734 127.738079 
L 73.5597 127.760705 
L 73.799364 128.060649 
L 73.967128 128.249134 
L 74.206792 128.399088 
L 74.61422 128.145291 
L 74.973715 128.379234 
L 75.189413 128.650565 
L 75.357177 128.885096 
L 75.66874 129.257462 
L 75.692706 129.235519 
L 76.363765 128.652334 
L 76.45963 128.720601 
L 76.483596 128.669754 
L 76.651361 128.574308 
L 77.202587 127.992661 
L 77.25052 127.907955 
L 77.538116 127.461677 
L 77.681915 127.455972 
L 77.705881 127.495917 
L 77.729847 127.413215 
L 78.04141 126.756071 
L 79.000065 124.613225 
L 79.431459 124.034217 
L 79.88682 123.359617 
L 79.958719 123.281919 
L 80.342181 122.419702 
L 80.485979 122.357646 
L 80.869441 121.787895 
L 81.252903 120.923049 
L 81.588432 120.23662 
L 81.876028 119.683383 
L 82.163625 119.551641 
L 82.307423 119.591125 
L 83.026414 119.981535 
L 83.31401 120.269375 
L 83.721438 120.581304 
L 84.272665 121.969964 
L 84.36853 122.189838 
L 85.902377 126.209169 
L 87.316393 128.958263 
L 87.771754 129.818451 
L 88.083316 130.467372 
L 88.370913 130.82906 
L 88.562644 131.123502 
L 89.713029 132.8156 
L 89.736995 132.788767 
L 91.510506 131.076861 
L 91.893968 131.113875 
L 92.517094 131.088962 
L 92.828656 131.300452 
L 93.020387 131.475526 
L 93.307984 131.797325 
L 93.691445 132.164324 
L 93.931109 132.236531 
L 94.242672 132.275421 
L 94.554235 132.190559 
L 94.721999 132.14466 
L 94.841831 132.085347 
L 94.985629 131.994897 
L 95.297192 131.935247 
L 95.896351 132.19334 
L 96.064115 132.226541 
L 96.159981 132.299971 
L 97.238467 133.420001 
L 97.526064 133.330887 
L 98.197122 132.662762 
L 98.580584 132.841393 
L 98.892146 132.953676 
L 99.635104 132.819382 
L 100.114431 132.15081 
L 100.138397 132.172692 
L 100.258229 132.086979 
L 101.696211 130.480163 
L 101.76811 130.418493 
L 102.007774 130.190439 
L 102.127605 130.113347 
L 103.014361 129.028577 
L 103.373856 128.98115 
L 103.517655 129.075514 
L 104.092847 129.927849 
L 104.308545 130.051702 
L 104.835805 130.031352 
L 105.003569 130.035221 
L 105.291165 130.152444 
L 105.45893 130.23943 
L 105.650661 130.328605 
L 105.938257 130.76684 
L 106.273786 131.16043 
L 106.657248 131.853459 
L 107.088643 132.506155 
L 108.694389 134.781645 
L 108.958019 135.142858 
L 110.20427 135.300029 
L 111.474487 135.299629 
L 111.594319 135.228415 
L 111.929848 134.961135 
L 112.265377 134.945285 
L 115.956197 134.953965 
L 117.561944 134.893581 
L 117.873506 135.228126 
L 122.618846 135.382843 
L 123.026275 135.515126 
L 123.457669 135.473046 
L 124.536155 135.391195 
L 126.741061 135.271206 
L 127.819547 134.861214 
L 128.418706 134.805755 
L 128.850101 134.713894 
L 129.161664 134.673088 
L 129.832722 134.635816 
L 130.168251 134.458074 
L 130.791376 134.40066 
L 131.270704 134.371286 
L 132.421089 134.380913 
L 133.020248 134.493842 
L 133.595441 134.632761 
L 133.739239 134.661814 
L 134.482196 134.696619 
L 134.961524 134.812399 
L 135.896212 135.062607 
L 136.04001 135.144094 
L 136.806934 135.208596 
L 137.35816 135.256522 
L 137.88542 135.103069 
L 138.125084 135.072363 
L 138.556478 135.064512 
L 138.868041 135.035111 
L 139.227536 135.008908 
L 139.850662 135.069169 
L 142.1035 134.975367 
L 142.534895 135.027652 
L 142.918356 135.045176 
L 143.757179 135.161153 
L 143.996843 135.250382 
L 144.763766 135.381394 
L 145.099295 135.441298 
L 146.273647 135.531213 
L 146.776941 135.597393 
L 148.095091 135.504195 
L 149.245476 135.325117 
L 150.923122 135.080248 
L 151.33055 135.009673 
L 153.942884 134.939428 
L 154.829639 134.926627 
L 155.189135 134.977553 
L 155.668462 135.042942 
L 156.387453 135.076194 
L 156.962645 135.113085 
L 158.544425 135.1394 
L 158.927887 135.099008 
L 159.143585 134.976901 
L 159.455147 134.978294 
L 159.718777 134.964479 
L 160.701398 134.881481 
L 160.893129 134.813723 
L 162.954236 134.793327 
L 163.289765 134.653258 
L 164.991377 134.733303 
L 165.231041 134.67908 
L 165.494671 134.597082 
L 166.381426 134.484816 
L 166.908686 134.419478 
L 167.124384 134.287802 
L 167.555778 133.974268 
L 167.915274 133.889136 
L 168.969794 133.992584 
L 169.281356 134.134731 
L 170.982968 134.337241 
L 171.438329 134.495529 
L 171.821791 134.528291 
L 173.331672 135.123229 
L 173.619268 135.27003 
L 178.891868 135.409892 
L 179.970355 135.471862 
L 182.510789 135.580045 
L 183.565309 135.587278 
L 184.54793 135.594307 
L 185.626416 135.578673 
L 186.465239 135.548137 
L 190.108126 135.571423 
L 190.539521 135.504253 
L 192.45683 135.430374 
L 195.524525 135.397027 
L 197.657531 135.54466 
L 199.407075 135.576998 
L 200.797125 135.62374 
L 201.228519 135.597799 
L 202.139241 135.61802 
L 202.978064 135.645723 
L 203.649122 135.655629 
L 204.104483 135.673059 
L 204.727608 135.636323 
L 205.278835 135.635921 
L 207.100278 135.62755 
L 208.514294 135.64302 
L 214.098456 135.578948 
L 214.697615 135.565155 
L 217.022353 135.513044 
L 217.357882 135.470176 
L 218.699998 135.404886 
L 221.743726 135.337316 
L 228.478275 135.484822 
L 230.467483 135.468524 
L 230.874911 135.494104 
L 232.121162 135.523643 
L 232.384792 135.495658 
L 235.596285 135.541809 
L 242.234967 135.48157 
L 242.834126 135.521804 
L 249.376944 135.433488 
L 250.98269 135.47302 
L 251.941345 135.465314 
L 252.420672 135.481316 
L 259.802312 135.362313 
L 260.832865 135.412289 
L 261.432025 135.437489 
L 262.151015 135.499139 
L 262.702242 135.522837 
L 263.63693 135.50792 
L 264.715416 135.434123 
L 265.026979 135.411792 
L 266.105465 135.31219 
L 266.992221 135.264484 
L 268.358304 135.201135 
L 269.484723 135.10891 
L 269.628521 135.112231 
L 271.330133 135.148761 
L 278.783672 135.37123 
L 280.796846 135.239362 
L 281.204275 135.206149 
L 282.067064 135.207659 
L 283.67281 135.113409 
L 284.104205 135.083496 
L 284.104205 135.083496 
" clip-path="url(#p183d7c49d8)" style="fill: none; stroke: #008000; stroke-width: 1.5; stroke-linecap: square"/>
   </g>
   <g id="line2d_37">
    <path d="M 26.465795 124.436499 
L 26.753392 124.422767 
L 28.143441 124.354948 
L 29.53349 124.306483 
L 30.971472 124.359535 
L 32.049958 124.379887 
L 32.457386 124.390541 
L 33.056545 124.458497 
L 33.655705 124.531409 
L 34.54246 124.599112 
L 35.093686 124.66122 
L 35.980442 124.669509 
L 37.298592 124.652907 
L 37.586188 124.702605 
L 40.414219 124.599724 
L 40.749748 124.596402 
L 41.972033 124.615393 
L 42.403427 124.632042 
L 42.954654 124.632558 
L 43.721577 124.890481 
L 44.5604 126.003129 
L 45.063694 126.095573 
L 46.573575 128.931148 
L 49.713168 134.230792 
L 50.671823 134.64167 
L 50.959419 134.975698 
L 50.983385 134.95022 
L 51.606511 134.476195 
L 52.99656 133.006438 
L 53.26019 132.918634 
L 53.451921 132.760554 
L 54.602306 131.597598 
L 54.84197 131.357425 
L 56.567548 129.768327 
L 56.783245 129.710351 
L 56.95101 129.686688 
L 57.21464 129.693717 
L 57.47827 129.690079 
L 57.813799 129.758932 
L 58.173295 129.795024 
L 58.79642 129.879666 
L 58.988151 129.917042 
L 59.85094 129.827591 
L 60.042671 129.815209 
L 60.545965 129.88639 
L 60.761662 129.856356 
L 60.929426 129.833844 
L 62.583105 129.861836 
L 62.798803 129.901872 
L 63.350029 129.823921 
L 63.757457 129.722922 
L 64.284717 129.736335 
L 64.572314 129.786291 
L 64.811977 129.72918 
L 65.171473 129.729723 
L 65.459069 129.721905 
L 65.746665 129.714925 
L 66.633421 129.529444 
L 67.352412 129.720548 
L 67.831739 129.736481 
L 68.55073 129.669453 
L 69.101956 129.592237 
L 69.365586 129.596111 
L 69.557317 129.483811 
L 69.796981 129.48305 
L 70.156476 129.151452 
L 70.947366 129.071775 
L 72.001886 129.240668 
L 72.193617 129.081185 
L 72.409315 128.893373 
L 72.50518 128.780217 
L 72.696911 128.65858 
L 73.008474 128.509219 
L 73.176238 128.446295 
L 73.344003 128.412224 
L 73.5597 128.301514 
L 73.799364 128.262422 
L 74.35059 128.259763 
L 74.949749 128.175299 
L 75.069581 128.189945 
L 75.309245 128.145123 
L 75.548908 128.245524 
L 75.788572 128.181307 
L 76.172034 128.447622 
L 76.72326 128.426495 
L 77.130688 128.266233 
L 77.538116 128.111061 
L 77.993477 128.02252 
L 78.760401 128.574888 
L 78.976098 128.646847 
L 79.551291 128.8906 
L 79.862854 129.046554 
L 80.078551 129.116252 
L 80.893407 129.19044 
L 81.492566 129.291087 
L 84.248698 129.431547 
L 84.512328 129.525181 
L 85.470983 129.662649 
L 85.878411 129.477704 
L 86.118075 129.273537 
L 86.717234 128.612607 
L 87.915552 126.494394 
L 88.394879 125.999522 
L 88.754375 125.802361 
L 89.569231 125.082817 
L 90.312188 124.301587 
L 90.791515 123.275811 
L 91.007213 122.905558 
L 92.301396 120.984484 
L 93.092286 120.407722 
L 93.691445 120.757073 
L 94.170773 121.454067 
L 94.458369 121.610725 
L 95.345125 122.132371 
L 95.560822 121.978808 
L 96.375678 121.106615 
L 96.663275 121.070016 
L 96.878972 121.286453 
L 97.334333 121.777499 
L 97.597963 122.10683 
L 97.933492 122.664378 
L 98.173155 123.085823 
L 98.412819 123.428241 
L 99.419406 124.443476 
L 99.635104 124.501361 
L 100.138397 124.258209 
L 100.282195 124.145007 
L 100.497893 123.90886 
L 100.809455 123.549356 
L 101.216884 123.23497 
L 101.959841 124.165334 
L 102.247437 124.648084 
L 102.415202 124.857741 
L 102.678832 125.30588 
L 103.038327 125.214049 
L 103.34989 124.866903 
L 104.020948 124.783281 
L 104.188713 124.721299 
L 104.811838 124.7031 
L 105.267199 124.848904 
L 106.321719 125.392029 
L 107.136575 126.434105 
L 107.472105 126.518446 
L 107.855566 126.805436 
L 108.167129 127.092981 
L 108.550591 127.468417 
L 109.629077 127.322821 
L 110.180304 126.77272 
L 110.419967 126.640506 
L 110.851362 126.948616 
L 111.019126 127.024515 
L 111.186891 127.048859 
L 111.354655 127.067929 
L 111.546386 127.098493 
L 112.193478 127.194807 
L 112.505041 127.48658 
L 112.624873 127.516491 
L 113.056267 127.899823 
L 113.559561 128.636546 
L 113.943023 128.974804 
L 114.110787 128.992171 
L 114.446316 129.219318 
L 114.68598 129.544462 
L 116.723121 133.376622 
L 118.256968 135.096492 
L 118.712329 135.189 
L 118.928026 135.255826 
L 119.623051 135.25218 
L 120.677571 135.251837 
L 121.899855 135.202903 
L 122.355216 135.416255 
L 122.642813 135.333885 
L 128.274908 134.963144 
L 128.945966 135.120829 
L 130.024453 135.199844 
L 131.82193 135.248291 
L 132.397123 135.350277 
L 132.924383 135.200086 
L 133.283878 135.070923 
L 133.427676 135.026962 
L 133.883037 134.950777 
L 134.146667 134.908668 
L 134.865658 134.729222 
L 135.057389 134.585479 
L 135.728447 134.129617 
L 136.04001 133.948339 
L 138.987873 132.742859 
L 140.809316 133.092504 
L 141.432442 133.416979 
L 141.648139 133.400365 
L 142.007635 133.288512 
L 142.415063 133.548394 
L 142.606794 133.616908 
L 143.493549 133.871706 
L 143.805112 133.938655 
L 144.21254 134.100463 
L 144.452204 134.291876 
L 145.219127 134.445641 
L 145.746387 134.398092 
L 146.225715 133.763096 
L 146.633143 133.759074 
L 146.800907 133.735332 
L 147.232302 133.64689 
L 147.567831 133.727245 
L 147.927326 134.125741 
L 148.766149 134.059001 
L 149.029779 134.032221 
L 149.341342 133.958334 
L 149.604972 133.861925 
L 150.443795 133.893797 
L 151.33055 133.966915 
L 151.498315 133.989974 
L 151.737978 134.073429 
L 152.241272 134.735858 
L 153.727186 135.027676 
L 154.350312 135.110014 
L 155.500697 135.439107 
L 155.644495 135.466448 
L 155.908125 135.437834 
L 157.705603 135.510782 
L 158.065098 135.485957 
L 158.304762 135.296803 
L 159.670845 135.334824 
L 160.653465 135.340394 
L 162.474909 135.448484 
L 162.810438 135.460723 
L 163.72116 135.469229 
L 164.080655 135.545095 
L 164.392218 135.679345 
L 167.292148 135.663471 
L 170.168112 135.69232 
L 170.911069 135.724738 
L 174.769654 135.828764 
L 175.632443 135.838887 
L 176.519198 135.834331 
L 179.467061 135.593707 
L 179.946388 135.113709 
L 180.473648 134.696606 
L 181.935596 134.54408 
L 182.70252 134.537879 
L 185.482618 134.705532 
L 185.770215 134.946323 
L 186.369374 135.534236 
L 188.094952 135.557307 
L 192.384931 135.432555 
L 194.398105 135.519839 
L 194.805534 135.556358 
L 206.573018 135.660947 
L 206.908547 135.647002 
L 207.819269 135.656928 
L 211.486123 135.690614 
L 212.420811 135.716257 
L 216.44716 135.709355 
L 217.214084 135.714018 
L 217.717377 135.704834 
L 225.194883 135.728078 
L 226.393201 135.694196 
L 227.687385 135.716421 
L 266.776524 135.704883 
L 267.255851 135.684613 
L 270.826839 135.654453 
L 271.354099 135.643089 
L 275.116818 135.714992 
L 276.29117 135.723645 
L 277.465522 135.695291 
L 281.252207 135.639976 
L 281.923265 135.64062 
L 282.714155 135.620769 
L 284.104205 135.58434 
L 284.104205 135.58434 
" clip-path="url(#p183d7c49d8)" style="fill: none; stroke-dasharray: 5.55,2.4; stroke-dashoffset: 0; stroke: #008000; stroke-width: 1.5"/>
   </g>
   <g id="line2d_38">
    <path d="M 47.436364 144.02 
L 47.436364 106.753333 
" clip-path="url(#p183d7c49d8)" style="fill: none; stroke-dasharray: 5.55,2.4; stroke-dashoffset: 0; stroke: #000000; stroke-width: 1.5"/>
   </g>
   <g id="line2d_39">
    <path d="M 167.268182 144.02 
L 167.268182 106.753333 
" clip-path="url(#p183d7c49d8)" style="fill: none; stroke-dasharray: 5.55,2.4; stroke-dashoffset: 0; stroke: #000000; stroke-width: 1.5"/>
   </g>
   <g id="patch_13">
    <path d="M 23.47 144.02 
L 23.47 106.753333 
" style="fill: none; stroke: #000000; stroke-width: 0.8; stroke-linejoin: miter; stroke-linecap: square"/>
   </g>
   <g id="patch_14">
    <path d="M 287.1 144.02 
L 287.1 106.753333 
" style="fill: none; stroke: #000000; stroke-width: 0.8; stroke-linejoin: miter; stroke-linecap: square"/>
   </g>
   <g id="patch_15">
    <path d="M 23.47 144.02 
L 287.1 144.02 
" style="fill: none; stroke: #000000; stroke-width: 0.8; stroke-linejoin: miter; stroke-linecap: square"/>
   </g>
   <g id="patch_16">
    <path d="M 23.47 106.753333 
L 287.1 106.753333 
" style="fill: none; stroke: #000000; stroke-width: 0.8; stroke-linejoin: miter; stroke-linecap: square"/>
   </g>
  </g>
 </g>
 <defs>
  <clipPath id="p09ddec8167">
   <rect x="23.47" y="8.1" width="263.63" height="37.266667"/>
  </clipPath>
  <clipPath id="p8049dec2f2">
   <rect x="23.47" y="57.426667" width="263.63" height="37.266667"/>
  </clipPath>
  <clipPath id="p183d7c49d8">
   <rect x="23.47" y="106.753333" width="263.63" height="37.266667"/>
  </clipPath>
 </defs>
</svg>
