<?xml version="1.0" encoding="utf-8" standalone="no"?>
<!DOCTYPE svg PUBLIC "-//W3C//DTD SVG 1.1//EN"
  "http://www.w3.org/Graphics/SVG/1.1/DTD/svg11.dtd">
<svg xmlns:xlink="http://www.w3.org/1999/xlink" width="157.7525pt" height="105.679415pt" viewBox="0 0 157.7525 105.679415" xmlns="http://www.w3.org/2000/svg" version="1.1">
 <metadata>
  <rdf:RDF xmlns:dc="http://purl.org/dc/elements/1.1/" xmlns:cc="http://creativecommons.org/ns#" xmlns:rdf="http://www.w3.org/1999/02/22-rdf-syntax-ns#">
   <cc:Work>
    <dc:type rdf:resource="http://purl.org/dc/dcmitype/StillImage"/>
    <dc:date>2024-03-09T15:10:13.100495</dc:date>
    <dc:format>image/svg+xml</dc:format>
    <dc:creator>
     <cc:Agent>
      <dc:title>Matplotlib v3.8.0, https://matplotlib.org/</dc:title>
     </cc:Agent>
    </dc:creator>
   </cc:Work>
  </rdf:RDF>
 </metadata>
 <defs>
  <style type="text/css">*{stroke-linejoin: round; stroke-linecap: butt}</style>
 </defs>
 <g id="figure_1">
  <g id="patch_1">
   <path d="M 0 105.679415 
L 157.7525 105.679415 
L 157.7525 0 
L 0 0 
z
" style="fill: #ffffff"/>
  </g>
  <g id="axes_1">
   <g id="patch_2">
    <path d="M 31.4525 71.516728 
L 150.5525 71.516728 
L 150.5525 7.2 
L 31.4525 7.2 
z
" style="fill: #ffffff"/>
   </g>
   <g id="matplotlib.axis_1">
    <g id="xtick_1">
     <g id="line2d_1">
      <defs>
       <path id="m046c1c3e46" d="M 0 0 
L 0 2.5 
" style="stroke: #262626; stroke-width: 0.5"/>
      </defs>
      <g>
       <use xlink:href="#m046c1c3e46" x="41.3775" y="71.516728" style="fill: #262626; stroke: #262626; stroke-width: 0.5"/>
      </g>
     </g>
     <g id="text_1">
      <!-- $\text{PerM}^\text{n1}$ -->
      <g style="fill: #262626" transform="translate(31.835978 89.658258) rotate(-45) scale(0.05 -0.05)">
       <defs>
        <path id="DejaVuSans-50" d="M 1259 4147 
L 1259 2394 
L 2053 2394 
Q 2494 2394 2734 2622 
Q 2975 2850 2975 3272 
Q 2975 3691 2734 3919 
Q 2494 4147 2053 4147 
L 1259 4147 
z
M 628 4666 
L 2053 4666 
Q 2838 4666 3239 4311 
Q 3641 3956 3641 3272 
Q 3641 2581 3239 2228 
Q 2838 1875 2053 1875 
L 1259 1875 
L 1259 0 
L 628 0 
L 628 4666 
z
" transform="scale(0.015625)"/>
        <path id="DejaVuSans-65" d="M 3597 1894 
L 3597 1613 
L 953 1613 
Q 991 1019 1311 708 
Q 1631 397 2203 397 
Q 2534 397 2845 478 
Q 3156 559 3463 722 
L 3463 178 
Q 3153 47 2828 -22 
Q 2503 -91 2169 -91 
Q 1331 -91 842 396 
Q 353 884 353 1716 
Q 353 2575 817 3079 
Q 1281 3584 2069 3584 
Q 2775 3584 3186 3129 
Q 3597 2675 3597 1894 
z
M 3022 2063 
Q 3016 2534 2758 2815 
Q 2500 3097 2075 3097 
Q 1594 3097 1305 2825 
Q 1016 2553 972 2059 
L 3022 2063 
z
" transform="scale(0.015625)"/>
        <path id="DejaVuSans-72" d="M 2631 2963 
Q 2534 3019 2420 3045 
Q 2306 3072 2169 3072 
Q 1681 3072 1420 2755 
Q 1159 2438 1159 1844 
L 1159 0 
L 581 0 
L 581 3500 
L 1159 3500 
L 1159 2956 
Q 1341 3275 1631 3429 
Q 1922 3584 2338 3584 
Q 2397 3584 2469 3576 
Q 2541 3569 2628 3553 
L 2631 2963 
z
" transform="scale(0.015625)"/>
        <path id="DejaVuSans-4d" d="M 628 4666 
L 1569 4666 
L 2759 1491 
L 3956 4666 
L 4897 4666 
L 4897 0 
L 4281 0 
L 4281 4097 
L 3078 897 
L 2444 897 
L 1241 4097 
L 1241 0 
L 628 0 
L 628 4666 
z
" transform="scale(0.015625)"/>
        <path id="DejaVuSans-6e" d="M 3513 2113 
L 3513 0 
L 2938 0 
L 2938 2094 
Q 2938 2591 2744 2837 
Q 2550 3084 2163 3084 
Q 1697 3084 1428 2787 
Q 1159 2491 1159 1978 
L 1159 0 
L 581 0 
L 581 3500 
L 1159 3500 
L 1159 2956 
Q 1366 3272 1645 3428 
Q 1925 3584 2291 3584 
Q 2894 3584 3203 3211 
Q 3513 2838 3513 2113 
z
" transform="scale(0.015625)"/>
        <path id="DejaVuSans-31" d="M 794 531 
L 1825 531 
L 1825 4091 
L 703 3866 
L 703 4441 
L 1819 4666 
L 2450 4666 
L 2450 531 
L 3481 531 
L 3481 0 
L 794 0 
L 794 531 
z
" transform="scale(0.015625)"/>
       </defs>
       <use xlink:href="#DejaVuSans-50" transform="translate(0 0.684375)"/>
       <use xlink:href="#DejaVuSans-65" transform="translate(60.302734 0.684375)"/>
       <use xlink:href="#DejaVuSans-72" transform="translate(121.826172 0.684375)"/>
       <use xlink:href="#DejaVuSans-4d" transform="translate(162.939453 0.684375)"/>
       <use xlink:href="#DejaVuSans-6e" transform="translate(250.175781 38.965625) scale(0.7)"/>
       <use xlink:href="#DejaVuSans-31" transform="translate(294.541016 38.965625) scale(0.7)"/>
      </g>
      <!-- $\text{FtsB}^\text{ΔLQ}$ -->
      <g style="fill: #262626" transform="translate(34.863279 94.241194) rotate(-45) scale(0.05 -0.05)">
       <defs>
        <path id="DejaVuSans-46" d="M 628 4666 
L 3309 4666 
L 3309 4134 
L 1259 4134 
L 1259 2759 
L 3109 2759 
L 3109 2228 
L 1259 2228 
L 1259 0 
L 628 0 
L 628 4666 
z
" transform="scale(0.015625)"/>
        <path id="DejaVuSans-74" d="M 1172 4494 
L 1172 3500 
L 2356 3500 
L 2356 3053 
L 1172 3053 
L 1172 1153 
Q 1172 725 1289 603 
Q 1406 481 1766 481 
L 2356 481 
L 2356 0 
L 1766 0 
Q 1100 0 847 248 
Q 594 497 594 1153 
L 594 3053 
L 172 3053 
L 172 3500 
L 594 3500 
L 594 4494 
L 1172 4494 
z
" transform="scale(0.015625)"/>
        <path id="DejaVuSans-73" d="M 2834 3397 
L 2834 2853 
Q 2591 2978 2328 3040 
Q 2066 3103 1784 3103 
Q 1356 3103 1142 2972 
Q 928 2841 928 2578 
Q 928 2378 1081 2264 
Q 1234 2150 1697 2047 
L 1894 2003 
Q 2506 1872 2764 1633 
Q 3022 1394 3022 966 
Q 3022 478 2636 193 
Q 2250 -91 1575 -91 
Q 1294 -91 989 -36 
Q 684 19 347 128 
L 347 722 
Q 666 556 975 473 
Q 1284 391 1588 391 
Q 1994 391 2212 530 
Q 2431 669 2431 922 
Q 2431 1156 2273 1281 
Q 2116 1406 1581 1522 
L 1381 1569 
Q 847 1681 609 1914 
Q 372 2147 372 2553 
Q 372 3047 722 3315 
Q 1072 3584 1716 3584 
Q 2034 3584 2315 3537 
Q 2597 3491 2834 3397 
z
" transform="scale(0.015625)"/>
        <path id="DejaVuSans-42" d="M 1259 2228 
L 1259 519 
L 2272 519 
Q 2781 519 3026 730 
Q 3272 941 3272 1375 
Q 3272 1813 3026 2020 
Q 2781 2228 2272 2228 
L 1259 2228 
z
M 1259 4147 
L 1259 2741 
L 2194 2741 
Q 2656 2741 2882 2914 
Q 3109 3088 3109 3444 
Q 3109 3797 2882 3972 
Q 2656 4147 2194 4147 
L 1259 4147 
z
M 628 4666 
L 2241 4666 
Q 2963 4666 3353 4366 
Q 3744 4066 3744 3513 
Q 3744 3084 3544 2831 
Q 3344 2578 2956 2516 
Q 3422 2416 3680 2098 
Q 3938 1781 3938 1306 
Q 3938 681 3513 340 
Q 3088 0 2303 0 
L 628 0 
L 628 4666 
z
" transform="scale(0.015625)"/>
        <path id="DejaVuSans-394" d="M 2188 4044 
L 906 525 
L 3472 525 
L 2188 4044 
z
M 50 0 
L 1831 4666 
L 2547 4666 
L 4325 0 
L 50 0 
z
" transform="scale(0.015625)"/>
        <path id="DejaVuSans-4c" d="M 628 4666 
L 1259 4666 
L 1259 531 
L 3531 531 
L 3531 0 
L 628 0 
L 628 4666 
z
" transform="scale(0.015625)"/>
        <path id="DejaVuSans-51" d="M 2522 4238 
Q 1834 4238 1429 3725 
Q 1025 3213 1025 2328 
Q 1025 1447 1429 934 
Q 1834 422 2522 422 
Q 3209 422 3611 934 
Q 4013 1447 4013 2328 
Q 4013 3213 3611 3725 
Q 3209 4238 2522 4238 
z
M 3406 84 
L 4238 -825 
L 3475 -825 
L 2784 -78 
Q 2681 -84 2626 -87 
Q 2572 -91 2522 -91 
Q 1538 -91 948 567 
Q 359 1225 359 2328 
Q 359 3434 948 4092 
Q 1538 4750 2522 4750 
Q 3503 4750 4090 4092 
Q 4678 3434 4678 2328 
Q 4678 1516 4351 937 
Q 4025 359 3406 84 
z
" transform="scale(0.015625)"/>
       </defs>
       <use xlink:href="#DejaVuSans-46" transform="translate(0 0.765625)"/>
       <use xlink:href="#DejaVuSans-74" transform="translate(57.519531 0.765625)"/>
       <use xlink:href="#DejaVuSans-73" transform="translate(96.728516 0.765625)"/>
       <use xlink:href="#DejaVuSans-42" transform="translate(148.828125 0.765625)"/>
       <use xlink:href="#DejaVuSans-394" transform="translate(218.388672 39.046875) scale(0.7)"/>
       <use xlink:href="#DejaVuSans-4c" transform="translate(266.274414 39.046875) scale(0.7)"/>
       <use xlink:href="#DejaVuSans-51" transform="translate(305.273438 39.046875) scale(0.7)"/>
      </g>
     </g>
    </g>
    <g id="xtick_2">
     <g id="line2d_2">
      <g>
       <use xlink:href="#m046c1c3e46" x="61.2275" y="71.516728" style="fill: #262626; stroke: #262626; stroke-width: 0.5"/>
      </g>
     </g>
     <g id="text_2">
      <!-- $\text{Pf3}$ -->
      <g style="fill: #262626" transform="translate(58.101315 83.204252) rotate(-45) scale(0.05 -0.05)">
       <defs>
        <path id="DejaVuSans-66" d="M 2375 4863 
L 2375 4384 
L 1825 4384 
Q 1516 4384 1395 4259 
Q 1275 4134 1275 3809 
L 1275 3500 
L 2222 3500 
L 2222 3053 
L 1275 3053 
L 1275 0 
L 697 0 
L 697 3053 
L 147 3053 
L 147 3500 
L 697 3500 
L 697 3744 
Q 697 4328 969 4595 
Q 1241 4863 1831 4863 
L 2375 4863 
z
" transform="scale(0.015625)"/>
        <path id="DejaVuSans-33" d="M 2597 2516 
Q 3050 2419 3304 2112 
Q 3559 1806 3559 1356 
Q 3559 666 3084 287 
Q 2609 -91 1734 -91 
Q 1441 -91 1130 -33 
Q 819 25 488 141 
L 488 750 
Q 750 597 1062 519 
Q 1375 441 1716 441 
Q 2309 441 2620 675 
Q 2931 909 2931 1356 
Q 2931 1769 2642 2001 
Q 2353 2234 1838 2234 
L 1294 2234 
L 1294 2753 
L 1863 2753 
Q 2328 2753 2575 2939 
Q 2822 3125 2822 3475 
Q 2822 3834 2567 4026 
Q 2313 4219 1838 4219 
Q 1578 4219 1281 4162 
Q 984 4106 628 3988 
L 628 4550 
Q 988 4650 1302 4700 
Q 1616 4750 1894 4750 
Q 2613 4750 3031 4423 
Q 3450 4097 3450 3541 
Q 3450 3153 3228 2886 
Q 3006 2619 2597 2516 
z
" transform="scale(0.015625)"/>
       </defs>
       <use xlink:href="#DejaVuSans-50" transform="translate(0 0.015625)"/>
       <use xlink:href="#DejaVuSans-66" transform="translate(60.302734 0.015625)"/>
       <use xlink:href="#DejaVuSans-33" transform="translate(95.507812 0.015625)"/>
      </g>
      <!-- $\text{FtsB}^\text{ΔLQ}$ -->
      <g style="fill: #262626" transform="translate(54.693944 94.221859) rotate(-45) scale(0.05 -0.05)">
       <use xlink:href="#DejaVuSans-46" transform="translate(0 0.765625)"/>
       <use xlink:href="#DejaVuSans-74" transform="translate(57.519531 0.765625)"/>
       <use xlink:href="#DejaVuSans-73" transform="translate(96.728516 0.765625)"/>
       <use xlink:href="#DejaVuSans-42" transform="translate(148.828125 0.765625)"/>
       <use xlink:href="#DejaVuSans-394" transform="translate(218.388672 39.046875) scale(0.7)"/>
       <use xlink:href="#DejaVuSans-4c" transform="translate(266.274414 39.046875) scale(0.7)"/>
       <use xlink:href="#DejaVuSans-51" transform="translate(305.273438 39.046875) scale(0.7)"/>
      </g>
     </g>
    </g>
    <g id="xtick_3">
     <g id="line2d_3">
      <g>
       <use xlink:href="#m046c1c3e46" x="81.0775" y="71.516728" style="fill: #262626; stroke: #262626; stroke-width: 0.5"/>
      </g>
     </g>
     <g id="text_3">
      <!-- $\text{PerM}^\text{n1}$ -->
      <g style="fill: #262626" transform="translate(71.535978 89.658258) rotate(-45) scale(0.05 -0.05)">
       <use xlink:href="#DejaVuSans-50" transform="translate(0 0.684375)"/>
       <use xlink:href="#DejaVuSans-65" transform="translate(60.302734 0.684375)"/>
       <use xlink:href="#DejaVuSans-72" transform="translate(121.826172 0.684375)"/>
       <use xlink:href="#DejaVuSans-4d" transform="translate(162.939453 0.684375)"/>
       <use xlink:href="#DejaVuSans-6e" transform="translate(250.175781 38.965625) scale(0.7)"/>
       <use xlink:href="#DejaVuSans-31" transform="translate(294.541016 38.965625) scale(0.7)"/>
      </g>
      <!-- $\text{FtsB}$ -->
      <g style="fill: #262626" transform="translate(79.65953 89.013686) rotate(-45) scale(0.05 -0.05)">
       <use xlink:href="#DejaVuSans-46" transform="translate(0 0.09375)"/>
       <use xlink:href="#DejaVuSans-74" transform="translate(57.519531 0.09375)"/>
       <use xlink:href="#DejaVuSans-73" transform="translate(96.728516 0.09375)"/>
       <use xlink:href="#DejaVuSans-42" transform="translate(148.828125 0.09375)"/>
      </g>
     </g>
    </g>
    <g id="xtick_4">
     <g id="line2d_4">
      <g>
       <use xlink:href="#m046c1c3e46" x="100.9275" y="71.516728" style="fill: #262626; stroke: #262626; stroke-width: 0.5"/>
      </g>
     </g>
     <g id="text_4">
      <!-- $\text{PerM}^\text{n1}$ -->
      <g style="fill: #262626" transform="translate(91.385978 89.658258) rotate(-45) scale(0.05 -0.05)">
       <use xlink:href="#DejaVuSans-50" transform="translate(0 0.684375)"/>
       <use xlink:href="#DejaVuSans-65" transform="translate(60.302734 0.684375)"/>
       <use xlink:href="#DejaVuSans-72" transform="translate(121.826172 0.684375)"/>
       <use xlink:href="#DejaVuSans-4d" transform="translate(162.939453 0.684375)"/>
       <use xlink:href="#DejaVuSans-6e" transform="translate(250.175781 38.965625) scale(0.7)"/>
       <use xlink:href="#DejaVuSans-31" transform="translate(294.541016 38.965625) scale(0.7)"/>
      </g>
      <!-- $\mathbf{↓}\text{FtsB}^\text{ΔLQ}$ -->
      <g style="fill: #262626" transform="translate(91.478786 97.175687) rotate(-45) scale(0.05 -0.05)">
       <defs>
        <path id="DejaVuSans-Bold-2193" d="M 2903 -22 
L 2466 -22 
L 1238 1206 
L 1691 1659 
L 2309 1041 
L 2309 4666 
L 3059 4666 
L 3059 1041 
L 3678 1659 
L 4131 1206 
L 2903 -22 
z
" transform="scale(0.015625)"/>
       </defs>
       <use xlink:href="#DejaVuSans-Bold-2193" transform="translate(0 0.765625)"/>
       <use xlink:href="#DejaVuSans-46" transform="translate(83.789062 0.765625)"/>
       <use xlink:href="#DejaVuSans-74" transform="translate(141.308594 0.765625)"/>
       <use xlink:href="#DejaVuSans-73" transform="translate(180.517578 0.765625)"/>
       <use xlink:href="#DejaVuSans-42" transform="translate(232.617188 0.765625)"/>
       <use xlink:href="#DejaVuSans-394" transform="translate(302.177734 39.046875) scale(0.7)"/>
       <use xlink:href="#DejaVuSans-4c" transform="translate(350.063477 39.046875) scale(0.7)"/>
       <use xlink:href="#DejaVuSans-51" transform="translate(389.0625 39.046875) scale(0.7)"/>
      </g>
     </g>
    </g>
    <g id="xtick_5">
     <g id="line2d_5">
      <g>
       <use xlink:href="#m046c1c3e46" x="120.7775" y="71.516728" style="fill: #262626; stroke: #262626; stroke-width: 0.5"/>
      </g>
     </g>
     <g id="text_5">
      <!-- $\text{PerM}^\text{n1}$ -->
      <g style="fill: #262626" transform="translate(111.235978 89.658258) rotate(-45) scale(0.05 -0.05)">
       <use xlink:href="#DejaVuSans-50" transform="translate(0 0.684375)"/>
       <use xlink:href="#DejaVuSans-65" transform="translate(60.302734 0.684375)"/>
       <use xlink:href="#DejaVuSans-72" transform="translate(121.826172 0.684375)"/>
       <use xlink:href="#DejaVuSans-4d" transform="translate(162.939453 0.684375)"/>
       <use xlink:href="#DejaVuSans-6e" transform="translate(250.175781 38.965625) scale(0.7)"/>
       <use xlink:href="#DejaVuSans-31" transform="translate(294.541016 38.965625) scale(0.7)"/>
      </g>
      <!-- $\text{FtsB}^\text{ΔLQΔH}$ -->
      <g style="fill: #262626" transform="translate(110.727745 97.776728) rotate(-45) scale(0.05 -0.05)">
       <defs>
        <path id="DejaVuSans-48" d="M 628 4666 
L 1259 4666 
L 1259 2753 
L 3553 2753 
L 3553 4666 
L 4184 4666 
L 4184 0 
L 3553 0 
L 3553 2222 
L 1259 2222 
L 1259 0 
L 628 0 
L 628 4666 
z
" transform="scale(0.015625)"/>
       </defs>
       <use xlink:href="#DejaVuSans-46" transform="translate(0 0.765625)"/>
       <use xlink:href="#DejaVuSans-74" transform="translate(57.519531 0.765625)"/>
       <use xlink:href="#DejaVuSans-73" transform="translate(96.728516 0.765625)"/>
       <use xlink:href="#DejaVuSans-42" transform="translate(148.828125 0.765625)"/>
       <use xlink:href="#DejaVuSans-394" transform="translate(218.388672 39.046875) scale(0.7)"/>
       <use xlink:href="#DejaVuSans-4c" transform="translate(266.274414 39.046875) scale(0.7)"/>
       <use xlink:href="#DejaVuSans-51" transform="translate(305.273438 39.046875) scale(0.7)"/>
       <use xlink:href="#DejaVuSans-394" transform="translate(360.371094 39.046875) scale(0.7)"/>
       <use xlink:href="#DejaVuSans-48" transform="translate(408.256836 39.046875) scale(0.7)"/>
      </g>
     </g>
    </g>
    <g id="xtick_6">
     <g id="line2d_6">
      <g>
       <use xlink:href="#m046c1c3e46" x="140.6275" y="71.516728" style="fill: #262626; stroke: #262626; stroke-width: 0.5"/>
      </g>
     </g>
     <g id="text_6">
      <!-- $\text{mNG}$ -->
      <g style="fill: #262626" transform="translate(134.319334 86.386232) rotate(-45) scale(0.05 -0.05)">
       <defs>
        <path id="DejaVuSans-6d" d="M 3328 2828 
Q 3544 3216 3844 3400 
Q 4144 3584 4550 3584 
Q 5097 3584 5394 3201 
Q 5691 2819 5691 2113 
L 5691 0 
L 5113 0 
L 5113 2094 
Q 5113 2597 4934 2840 
Q 4756 3084 4391 3084 
Q 3944 3084 3684 2787 
Q 3425 2491 3425 1978 
L 3425 0 
L 2847 0 
L 2847 2094 
Q 2847 2600 2669 2842 
Q 2491 3084 2119 3084 
Q 1678 3084 1418 2786 
Q 1159 2488 1159 1978 
L 1159 0 
L 581 0 
L 581 3500 
L 1159 3500 
L 1159 2956 
Q 1356 3278 1631 3431 
Q 1906 3584 2284 3584 
Q 2666 3584 2933 3390 
Q 3200 3197 3328 2828 
z
" transform="scale(0.015625)"/>
        <path id="DejaVuSans-4e" d="M 628 4666 
L 1478 4666 
L 3547 763 
L 3547 4666 
L 4159 4666 
L 4159 0 
L 3309 0 
L 1241 3903 
L 1241 0 
L 628 0 
L 628 4666 
z
" transform="scale(0.015625)"/>
        <path id="DejaVuSans-47" d="M 3809 666 
L 3809 1919 
L 2778 1919 
L 2778 2438 
L 4434 2438 
L 4434 434 
Q 4069 175 3628 42 
Q 3188 -91 2688 -91 
Q 1594 -91 976 548 
Q 359 1188 359 2328 
Q 359 3472 976 4111 
Q 1594 4750 2688 4750 
Q 3144 4750 3555 4637 
Q 3966 4525 4313 4306 
L 4313 3634 
Q 3963 3931 3569 4081 
Q 3175 4231 2741 4231 
Q 1884 4231 1454 3753 
Q 1025 3275 1025 2328 
Q 1025 1384 1454 906 
Q 1884 428 2741 428 
Q 3075 428 3337 486 
Q 3600 544 3809 666 
z
" transform="scale(0.015625)"/>
       </defs>
       <use xlink:href="#DejaVuSans-6d" transform="translate(0 0.78125)"/>
       <use xlink:href="#DejaVuSans-4e" transform="translate(97.412109 0.78125)"/>
       <use xlink:href="#DejaVuSans-47" transform="translate(172.216797 0.78125)"/>
      </g>
      <!-- $\text{FtsB}^\text{ΔLQ}$ -->
      <g style="fill: #262626" transform="translate(134.093944 94.221859) rotate(-45) scale(0.05 -0.05)">
       <use xlink:href="#DejaVuSans-46" transform="translate(0 0.765625)"/>
       <use xlink:href="#DejaVuSans-74" transform="translate(57.519531 0.765625)"/>
       <use xlink:href="#DejaVuSans-73" transform="translate(96.728516 0.765625)"/>
       <use xlink:href="#DejaVuSans-42" transform="translate(148.828125 0.765625)"/>
       <use xlink:href="#DejaVuSans-394" transform="translate(218.388672 39.046875) scale(0.7)"/>
       <use xlink:href="#DejaVuSans-4c" transform="translate(266.274414 39.046875) scale(0.7)"/>
       <use xlink:href="#DejaVuSans-51" transform="translate(305.273438 39.046875) scale(0.7)"/>
      </g>
     </g>
    </g>
   </g>
   <g id="matplotlib.axis_2">
    <g id="ytick_1">
     <g id="line2d_7">
      <defs>
       <path id="m278a8c55f6" d="M 0 0 
L -2.5 0 
" style="stroke: #262626; stroke-width: 0.5"/>
      </defs>
      <g>
       <use xlink:href="#m278a8c55f6" x="31.4525" y="71.516728" style="fill: #262626; stroke: #262626; stroke-width: 0.5"/>
      </g>
     </g>
     <g id="text_7">
      <!-- 0 -->
      <g style="fill: #262626" transform="translate(25.172031 73.306181) scale(0.05 -0.05)">
       <defs>
        <path id="ArialMT-30" d="M 266 2259 
Q 266 3072 433 3567 
Q 600 4063 929 4331 
Q 1259 4600 1759 4600 
Q 2128 4600 2406 4451 
Q 2684 4303 2865 4023 
Q 3047 3744 3150 3342 
Q 3253 2941 3253 2259 
Q 3253 1453 3087 958 
Q 2922 463 2592 192 
Q 2263 -78 1759 -78 
Q 1097 -78 719 397 
Q 266 969 266 2259 
z
M 844 2259 
Q 844 1131 1108 757 
Q 1372 384 1759 384 
Q 2147 384 2411 759 
Q 2675 1134 2675 2259 
Q 2675 3391 2411 3762 
Q 2147 4134 1753 4134 
Q 1366 4134 1134 3806 
Q 844 3388 844 2259 
z
" transform="scale(0.015625)"/>
       </defs>
       <use xlink:href="#ArialMT-30"/>
      </g>
     </g>
    </g>
    <g id="ytick_2">
     <g id="line2d_8">
      <g>
       <use xlink:href="#m278a8c55f6" x="31.4525" y="57.224122" style="fill: #262626; stroke: #262626; stroke-width: 0.5"/>
      </g>
     </g>
     <g id="text_8">
      <!-- 1000 -->
      <g style="fill: #262626" transform="translate(16.830625 59.013575) scale(0.05 -0.05)">
       <defs>
        <path id="ArialMT-31" d="M 2384 0 
L 1822 0 
L 1822 3584 
Q 1619 3391 1289 3197 
Q 959 3003 697 2906 
L 697 3450 
Q 1169 3672 1522 3987 
Q 1875 4303 2022 4600 
L 2384 4600 
L 2384 0 
z
" transform="scale(0.015625)"/>
       </defs>
       <use xlink:href="#ArialMT-31"/>
       <use xlink:href="#ArialMT-30" x="55.615234"/>
       <use xlink:href="#ArialMT-30" x="111.230469"/>
       <use xlink:href="#ArialMT-30" x="166.845703"/>
      </g>
     </g>
    </g>
    <g id="ytick_3">
     <g id="line2d_9">
      <g>
       <use xlink:href="#m278a8c55f6" x="31.4525" y="42.931516" style="fill: #262626; stroke: #262626; stroke-width: 0.5"/>
      </g>
     </g>
     <g id="text_9">
      <!-- 2000 -->
      <g style="fill: #262626" transform="translate(16.830625 44.720969) scale(0.05 -0.05)">
       <defs>
        <path id="ArialMT-32" d="M 3222 541 
L 3222 0 
L 194 0 
Q 188 203 259 391 
Q 375 700 629 1000 
Q 884 1300 1366 1694 
Q 2113 2306 2375 2664 
Q 2638 3022 2638 3341 
Q 2638 3675 2398 3904 
Q 2159 4134 1775 4134 
Q 1369 4134 1125 3890 
Q 881 3647 878 3216 
L 300 3275 
Q 359 3922 746 4261 
Q 1134 4600 1788 4600 
Q 2447 4600 2831 4234 
Q 3216 3869 3216 3328 
Q 3216 3053 3103 2787 
Q 2991 2522 2730 2228 
Q 2469 1934 1863 1422 
Q 1356 997 1212 845 
Q 1069 694 975 541 
L 3222 541 
z
" transform="scale(0.015625)"/>
       </defs>
       <use xlink:href="#ArialMT-32"/>
       <use xlink:href="#ArialMT-30" x="55.615234"/>
       <use xlink:href="#ArialMT-30" x="111.230469"/>
       <use xlink:href="#ArialMT-30" x="166.845703"/>
      </g>
     </g>
    </g>
    <g id="ytick_4">
     <g id="line2d_10">
      <g>
       <use xlink:href="#m278a8c55f6" x="31.4525" y="28.638909" style="fill: #262626; stroke: #262626; stroke-width: 0.5"/>
      </g>
     </g>
     <g id="text_10">
      <!-- 3000 -->
      <g style="fill: #262626" transform="translate(16.830625 30.428363) scale(0.05 -0.05)">
       <defs>
        <path id="ArialMT-33" d="M 269 1209 
L 831 1284 
Q 928 806 1161 595 
Q 1394 384 1728 384 
Q 2125 384 2398 659 
Q 2672 934 2672 1341 
Q 2672 1728 2419 1979 
Q 2166 2231 1775 2231 
Q 1616 2231 1378 2169 
L 1441 2663 
Q 1497 2656 1531 2656 
Q 1891 2656 2178 2843 
Q 2466 3031 2466 3422 
Q 2466 3731 2256 3934 
Q 2047 4138 1716 4138 
Q 1388 4138 1169 3931 
Q 950 3725 888 3313 
L 325 3413 
Q 428 3978 793 4289 
Q 1159 4600 1703 4600 
Q 2078 4600 2393 4439 
Q 2709 4278 2876 4000 
Q 3044 3722 3044 3409 
Q 3044 3113 2884 2869 
Q 2725 2625 2413 2481 
Q 2819 2388 3044 2092 
Q 3269 1797 3269 1353 
Q 3269 753 2831 336 
Q 2394 -81 1725 -81 
Q 1122 -81 723 278 
Q 325 638 269 1209 
z
" transform="scale(0.015625)"/>
       </defs>
       <use xlink:href="#ArialMT-33"/>
       <use xlink:href="#ArialMT-30" x="55.615234"/>
       <use xlink:href="#ArialMT-30" x="111.230469"/>
       <use xlink:href="#ArialMT-30" x="166.845703"/>
      </g>
     </g>
    </g>
    <g id="ytick_5">
     <g id="line2d_11">
      <g>
       <use xlink:href="#m278a8c55f6" x="31.4525" y="14.346303" style="fill: #262626; stroke: #262626; stroke-width: 0.5"/>
      </g>
     </g>
     <g id="text_11">
      <!-- 4000 -->
      <g style="fill: #262626" transform="translate(16.830625 16.135756) scale(0.05 -0.05)">
       <defs>
        <path id="ArialMT-34" d="M 2069 0 
L 2069 1097 
L 81 1097 
L 81 1613 
L 2172 4581 
L 2631 4581 
L 2631 1613 
L 3250 1613 
L 3250 1097 
L 2631 1097 
L 2631 0 
L 2069 0 
z
M 2069 1613 
L 2069 3678 
L 634 1613 
L 2069 1613 
z
" transform="scale(0.015625)"/>
       </defs>
       <use xlink:href="#ArialMT-34"/>
       <use xlink:href="#ArialMT-30" x="55.615234"/>
       <use xlink:href="#ArialMT-30" x="111.230469"/>
       <use xlink:href="#ArialMT-30" x="166.845703"/>
      </g>
     </g>
    </g>
    <g id="text_12">
     <!-- [mNeonGreen] (AU) -->
     <g style="fill: #262626" transform="translate(11.567813 66.031645) rotate(-90) scale(0.06 -0.06)">
      <defs>
       <path id="ArialMT-5b" d="M 434 -1272 
L 434 4581 
L 1675 4581 
L 1675 4116 
L 997 4116 
L 997 -806 
L 1675 -806 
L 1675 -1272 
L 434 -1272 
z
" transform="scale(0.015625)"/>
       <path id="ArialMT-6d" d="M 422 0 
L 422 3319 
L 925 3319 
L 925 2853 
Q 1081 3097 1340 3245 
Q 1600 3394 1931 3394 
Q 2300 3394 2536 3241 
Q 2772 3088 2869 2813 
Q 3263 3394 3894 3394 
Q 4388 3394 4653 3120 
Q 4919 2847 4919 2278 
L 4919 0 
L 4359 0 
L 4359 2091 
Q 4359 2428 4304 2576 
Q 4250 2725 4106 2815 
Q 3963 2906 3769 2906 
Q 3419 2906 3187 2673 
Q 2956 2441 2956 1928 
L 2956 0 
L 2394 0 
L 2394 2156 
Q 2394 2531 2256 2718 
Q 2119 2906 1806 2906 
Q 1569 2906 1367 2781 
Q 1166 2656 1075 2415 
Q 984 2175 984 1722 
L 984 0 
L 422 0 
z
" transform="scale(0.015625)"/>
       <path id="ArialMT-4e" d="M 488 0 
L 488 4581 
L 1109 4581 
L 3516 984 
L 3516 4581 
L 4097 4581 
L 4097 0 
L 3475 0 
L 1069 3600 
L 1069 0 
L 488 0 
z
" transform="scale(0.015625)"/>
       <path id="ArialMT-65" d="M 2694 1069 
L 3275 997 
Q 3138 488 2766 206 
Q 2394 -75 1816 -75 
Q 1088 -75 661 373 
Q 234 822 234 1631 
Q 234 2469 665 2931 
Q 1097 3394 1784 3394 
Q 2450 3394 2872 2941 
Q 3294 2488 3294 1666 
Q 3294 1616 3291 1516 
L 816 1516 
Q 847 969 1125 678 
Q 1403 388 1819 388 
Q 2128 388 2347 550 
Q 2566 713 2694 1069 
z
M 847 1978 
L 2700 1978 
Q 2663 2397 2488 2606 
Q 2219 2931 1791 2931 
Q 1403 2931 1139 2672 
Q 875 2413 847 1978 
z
" transform="scale(0.015625)"/>
       <path id="ArialMT-6f" d="M 213 1659 
Q 213 2581 725 3025 
Q 1153 3394 1769 3394 
Q 2453 3394 2887 2945 
Q 3322 2497 3322 1706 
Q 3322 1066 3130 698 
Q 2938 331 2570 128 
Q 2203 -75 1769 -75 
Q 1072 -75 642 372 
Q 213 819 213 1659 
z
M 791 1659 
Q 791 1022 1069 705 
Q 1347 388 1769 388 
Q 2188 388 2466 706 
Q 2744 1025 2744 1678 
Q 2744 2294 2464 2611 
Q 2184 2928 1769 2928 
Q 1347 2928 1069 2612 
Q 791 2297 791 1659 
z
" transform="scale(0.015625)"/>
       <path id="ArialMT-6e" d="M 422 0 
L 422 3319 
L 928 3319 
L 928 2847 
Q 1294 3394 1984 3394 
Q 2284 3394 2536 3286 
Q 2788 3178 2913 3003 
Q 3038 2828 3088 2588 
Q 3119 2431 3119 2041 
L 3119 0 
L 2556 0 
L 2556 2019 
Q 2556 2363 2490 2533 
Q 2425 2703 2258 2804 
Q 2091 2906 1866 2906 
Q 1506 2906 1245 2678 
Q 984 2450 984 1813 
L 984 0 
L 422 0 
z
" transform="scale(0.015625)"/>
       <path id="ArialMT-47" d="M 2638 1797 
L 2638 2334 
L 4578 2338 
L 4578 638 
Q 4131 281 3656 101 
Q 3181 -78 2681 -78 
Q 2006 -78 1454 211 
Q 903 500 622 1047 
Q 341 1594 341 2269 
Q 341 2938 620 3517 
Q 900 4097 1425 4378 
Q 1950 4659 2634 4659 
Q 3131 4659 3532 4498 
Q 3934 4338 4162 4050 
Q 4391 3763 4509 3300 
L 3963 3150 
Q 3859 3500 3706 3700 
Q 3553 3900 3268 4020 
Q 2984 4141 2638 4141 
Q 2222 4141 1919 4014 
Q 1616 3888 1430 3681 
Q 1244 3475 1141 3228 
Q 966 2803 966 2306 
Q 966 1694 1177 1281 
Q 1388 869 1791 669 
Q 2194 469 2647 469 
Q 3041 469 3416 620 
Q 3791 772 3984 944 
L 3984 1797 
L 2638 1797 
z
" transform="scale(0.015625)"/>
       <path id="ArialMT-72" d="M 416 0 
L 416 3319 
L 922 3319 
L 922 2816 
Q 1116 3169 1280 3281 
Q 1444 3394 1641 3394 
Q 1925 3394 2219 3213 
L 2025 2691 
Q 1819 2813 1613 2813 
Q 1428 2813 1281 2702 
Q 1134 2591 1072 2394 
Q 978 2094 978 1738 
L 978 0 
L 416 0 
z
" transform="scale(0.015625)"/>
       <path id="ArialMT-5d" d="M 1363 -1272 
L 122 -1272 
L 122 -806 
L 800 -806 
L 800 4116 
L 122 4116 
L 122 4581 
L 1363 4581 
L 1363 -1272 
z
" transform="scale(0.015625)"/>
       <path id="ArialMT-20" transform="scale(0.015625)"/>
       <path id="ArialMT-28" d="M 1497 -1347 
Q 1031 -759 709 28 
Q 388 816 388 1659 
Q 388 2403 628 3084 
Q 909 3875 1497 4659 
L 1900 4659 
Q 1522 4009 1400 3731 
Q 1209 3300 1100 2831 
Q 966 2247 966 1656 
Q 966 153 1900 -1347 
L 1497 -1347 
z
" transform="scale(0.015625)"/>
       <path id="ArialMT-41" d="M -9 0 
L 1750 4581 
L 2403 4581 
L 4278 0 
L 3588 0 
L 3053 1388 
L 1138 1388 
L 634 0 
L -9 0 
z
M 1313 1881 
L 2866 1881 
L 2388 3150 
Q 2169 3728 2063 4100 
Q 1975 3659 1816 3225 
L 1313 1881 
z
" transform="scale(0.015625)"/>
       <path id="ArialMT-55" d="M 3500 4581 
L 4106 4581 
L 4106 1934 
Q 4106 1244 3950 837 
Q 3794 431 3386 176 
Q 2978 -78 2316 -78 
Q 1672 -78 1262 144 
Q 853 366 678 786 
Q 503 1206 503 1934 
L 503 4581 
L 1109 4581 
L 1109 1938 
Q 1109 1341 1220 1058 
Q 1331 775 1601 622 
Q 1872 469 2263 469 
Q 2931 469 3215 772 
Q 3500 1075 3500 1938 
L 3500 4581 
z
" transform="scale(0.015625)"/>
       <path id="ArialMT-29" d="M 791 -1347 
L 388 -1347 
Q 1322 153 1322 1656 
Q 1322 2244 1188 2822 
Q 1081 3291 891 3722 
Q 769 4003 388 4659 
L 791 4659 
Q 1378 3875 1659 3084 
Q 1900 2403 1900 1659 
Q 1900 816 1576 28 
Q 1253 -759 791 -1347 
z
" transform="scale(0.015625)"/>
      </defs>
      <use xlink:href="#ArialMT-5b"/>
      <use xlink:href="#ArialMT-6d" x="27.783203"/>
      <use xlink:href="#ArialMT-4e" x="111.083984"/>
      <use xlink:href="#ArialMT-65" x="183.300781"/>
      <use xlink:href="#ArialMT-6f" x="238.916016"/>
      <use xlink:href="#ArialMT-6e" x="294.53125"/>
      <use xlink:href="#ArialMT-47" x="350.146484"/>
      <use xlink:href="#ArialMT-72" x="427.929688"/>
      <use xlink:href="#ArialMT-65" x="461.230469"/>
      <use xlink:href="#ArialMT-65" x="516.845703"/>
      <use xlink:href="#ArialMT-6e" x="572.460938"/>
      <use xlink:href="#ArialMT-5d" x="628.076172"/>
      <use xlink:href="#ArialMT-20" x="655.859375"/>
      <use xlink:href="#ArialMT-28" x="683.642578"/>
      <use xlink:href="#ArialMT-41" x="716.943359"/>
      <use xlink:href="#ArialMT-55" x="783.642578"/>
      <use xlink:href="#ArialMT-29" x="855.859375"/>
     </g>
    </g>
   </g>
   <g id="line2d_12">
    <path d="M 31.4525 32.737144 
L 150.5525 32.737144 
" clip-path="url(#p3942b65a2a)" style="fill: none; stroke-dasharray: 1.85,0.8; stroke-dashoffset: 0; stroke: #ff0000; stroke-width: 0.5"/>
   </g>
   <g id="line2d_13">
    <path d="M 35.4225 45.130831 
L 37.4075 45.130831 
M 36.415 45.130831 
L 36.415 32.965772 
M 35.4225 32.965772 
L 37.4075 32.965772 
" clip-path="url(#p3942b65a2a)" style="fill: none; stroke: #000000; stroke-width: 0.5; stroke-linecap: round"/>
   </g>
   <g id="line2d_14">
    <path d="M 55.2725 40.619062 
L 57.2575 40.619062 
M 56.265 40.619062 
L 56.265 28.251529 
M 55.2725 28.251529 
L 57.2575 28.251529 
" clip-path="url(#p3942b65a2a)" style="fill: none; stroke: #000000; stroke-width: 0.5; stroke-linecap: round"/>
   </g>
   <g id="line2d_15">
    <path d="M 75.1225 32.438852 
L 77.1075 32.438852 
M 76.115 32.438852 
L 76.115 8.131894 
M 75.1225 8.131894 
L 77.1075 8.131894 
" clip-path="url(#p3942b65a2a)" style="fill: none; stroke: #000000; stroke-width: 0.5; stroke-linecap: round"/>
   </g>
   <g id="line2d_16">
    <path d="M 94.9725 45.814328 
L 96.9575 45.814328 
M 95.965 45.814328 
L 95.965 33.051629 
M 94.9725 33.051629 
L 96.9575 33.051629 
" clip-path="url(#p3942b65a2a)" style="fill: none; stroke: #000000; stroke-width: 0.5; stroke-linecap: round"/>
   </g>
   <g id="line2d_17">
    <path d="M 114.8225 49.797054 
L 116.8075 49.797054 
M 115.815 49.797054 
L 115.815 38.500942 
M 114.8225 38.500942 
L 116.8075 38.500942 
" clip-path="url(#p3942b65a2a)" style="fill: none; stroke: #000000; stroke-width: 0.5; stroke-linecap: round"/>
   </g>
   <g id="line2d_18">
    <path d="M 134.6725 39.919832 
L 136.6575 39.919832 
M 135.665 39.919832 
L 135.665 23.648504 
M 134.6725 23.648504 
L 136.6575 23.648504 
" clip-path="url(#p3942b65a2a)" style="fill: none; stroke: #000000; stroke-width: 0.5; stroke-linecap: round"/>
   </g>
   <g id="line2d_19">
    <path d="M 40.385 40.45118 
L 42.37 40.45118 
M 41.3775 40.45118 
L 41.3775 22.327056 
M 40.385 22.327056 
L 42.37 22.327056 
" clip-path="url(#p3942b65a2a)" style="fill: none; stroke: #000000; stroke-width: 0.5; stroke-linecap: round"/>
   </g>
   <g id="line2d_20">
    <path d="M 60.235 44.437402 
L 62.22 44.437402 
M 61.2275 44.437402 
L 61.2275 36.158135 
M 60.235 36.158135 
L 62.22 36.158135 
" clip-path="url(#p3942b65a2a)" style="fill: none; stroke: #000000; stroke-width: 0.5; stroke-linecap: round"/>
   </g>
   <g id="line2d_21">
    <path d="M 80.085 38.165345 
L 82.07 38.165345 
M 81.0775 38.165345 
L 81.0775 20.358801 
M 80.085 20.358801 
L 82.07 20.358801 
" clip-path="url(#p3942b65a2a)" style="fill: none; stroke: #000000; stroke-width: 0.5; stroke-linecap: round"/>
   </g>
   <g id="line2d_22">
    <path d="M 99.935 44.517947 
L 101.92 44.517947 
M 100.9275 44.517947 
L 100.9275 32.903044 
M 99.935 32.903044 
L 101.92 32.903044 
" clip-path="url(#p3942b65a2a)" style="fill: none; stroke: #000000; stroke-width: 0.5; stroke-linecap: round"/>
   </g>
   <g id="line2d_23">
    <path d="M 119.785 48.447637 
L 121.77 48.447637 
M 120.7775 48.447637 
L 120.7775 37.276335 
M 119.785 37.276335 
L 121.77 37.276335 
" clip-path="url(#p3942b65a2a)" style="fill: none; stroke: #000000; stroke-width: 0.5; stroke-linecap: round"/>
   </g>
   <g id="line2d_24">
    <path d="M 139.635 42.286735 
L 141.62 42.286735 
M 140.6275 42.286735 
L 140.6275 24.635572 
M 139.635 24.635572 
L 141.62 24.635572 
" clip-path="url(#p3942b65a2a)" style="fill: none; stroke: #000000; stroke-width: 0.5; stroke-linecap: round"/>
   </g>
   <g id="line2d_25">
    <path d="M 45.3475 35.068101 
L 47.3325 35.068101 
M 46.34 35.068101 
L 46.34 20.461368 
M 45.3475 20.461368 
L 47.3325 20.461368 
" clip-path="url(#p3942b65a2a)" style="fill: none; stroke: #000000; stroke-width: 0.5; stroke-linecap: round"/>
   </g>
   <g id="line2d_26">
    <path d="M 65.1975 39.262107 
L 67.1825 39.262107 
M 66.19 39.262107 
L 66.19 29.033673 
M 65.1975 29.033673 
L 67.1825 29.033673 
" clip-path="url(#p3942b65a2a)" style="fill: none; stroke: #000000; stroke-width: 0.5; stroke-linecap: round"/>
   </g>
   <g id="line2d_27">
    <path d="M 85.0475 33.532394 
L 87.0325 33.532394 
M 86.04 33.532394 
L 86.04 15.13185 
M 85.0475 15.13185 
L 87.0325 15.13185 
" clip-path="url(#p3942b65a2a)" style="fill: none; stroke: #000000; stroke-width: 0.5; stroke-linecap: round"/>
   </g>
   <g id="line2d_28">
    <path d="M 104.8975 42.406148 
L 106.8825 42.406148 
M 105.89 42.406148 
L 105.89 28.553394 
M 104.8975 28.553394 
L 106.8825 28.553394 
" clip-path="url(#p3942b65a2a)" style="fill: none; stroke: #000000; stroke-width: 0.5; stroke-linecap: round"/>
   </g>
   <g id="line2d_29">
    <path d="M 124.7475 44.659565 
L 126.7325 44.659565 
M 125.74 44.659565 
L 125.74 32.411467 
M 124.7475 32.411467 
L 126.7325 32.411467 
" clip-path="url(#p3942b65a2a)" style="fill: none; stroke: #000000; stroke-width: 0.5; stroke-linecap: round"/>
   </g>
   <g id="line2d_30">
    <path d="M 144.5975 46.650488 
L 146.5825 46.650488 
M 145.59 46.650488 
L 145.59 34.340113 
M 144.5975 34.340113 
L 146.5825 34.340113 
" clip-path="url(#p3942b65a2a)" style="fill: none; stroke: #000000; stroke-width: 0.5; stroke-linecap: round"/>
   </g>
   <g id="patch_3">
    <path d="M 31.4525 71.516728 
L 31.4525 7.2 
" style="fill: none; stroke: #262626; stroke-width: 0.5; stroke-linejoin: miter; stroke-linecap: square"/>
   </g>
   <g id="patch_4">
    <path d="M 31.4525 71.516728 
L 150.5525 71.516728 
" style="fill: none; stroke: #262626; stroke-width: 0.5; stroke-linejoin: miter; stroke-linecap: square"/>
   </g>
   <g id="line2d_31">
    <defs>
     <path id="m7291393f9d" d="M 0 1.5 
C 0.397805 1.5 0.77937 1.341951 1.06066 1.06066 
C 1.341951 0.77937 1.5 0.397805 1.5 0 
C 1.5 -0.397805 1.341951 -0.77937 1.06066 -1.06066 
C 0.77937 -1.341951 0.397805 -1.5 0 -1.5 
C -0.397805 -1.5 -0.77937 -1.341951 -1.06066 -1.06066 
C -1.341951 -0.77937 -1.5 -0.397805 -1.5 0 
C -1.5 0.397805 -1.341951 0.77937 -1.06066 1.06066 
C -0.77937 1.341951 -0.397805 1.5 0 1.5 
z
" style="stroke: #000000; stroke-width: 0.375"/>
    </defs>
    <g clip-path="url(#p3942b65a2a)">
     <use xlink:href="#m7291393f9d" x="36.415" y="39.048302" style="fill: #1b9e77; stroke: #000000; stroke-width: 0.375"/>
     <use xlink:href="#m7291393f9d" x="56.265" y="34.435296" style="fill: #1b9e77; stroke: #000000; stroke-width: 0.375"/>
     <use xlink:href="#m7291393f9d" x="76.115" y="20.285373" style="fill: #1b9e77; stroke: #000000; stroke-width: 0.375"/>
     <use xlink:href="#m7291393f9d" x="95.965" y="39.432979" style="fill: #1b9e77; stroke: #000000; stroke-width: 0.375"/>
     <use xlink:href="#m7291393f9d" x="115.815" y="44.148998" style="fill: #1b9e77; stroke: #000000; stroke-width: 0.375"/>
     <use xlink:href="#m7291393f9d" x="135.665" y="31.784168" style="fill: #1b9e77; stroke: #000000; stroke-width: 0.375"/>
    </g>
   </g>
   <g id="line2d_32">
    <defs>
     <path id="m490f4f26e3" d="M 0 1.5 
C 0.397805 1.5 0.77937 1.341951 1.06066 1.06066 
C 1.341951 0.77937 1.5 0.397805 1.5 0 
C 1.5 -0.397805 1.341951 -0.77937 1.06066 -1.06066 
C 0.77937 -1.341951 0.397805 -1.5 0 -1.5 
C -0.397805 -1.5 -0.77937 -1.341951 -1.06066 -1.06066 
C -1.341951 -0.77937 -1.5 -0.397805 -1.5 0 
C -1.5 0.397805 -1.341951 0.77937 -1.06066 1.06066 
C -0.77937 1.341951 -0.397805 1.5 0 1.5 
z
" style="stroke: #000000; stroke-width: 0.375"/>
    </defs>
    <g clip-path="url(#p3942b65a2a)">
     <use xlink:href="#m490f4f26e3" x="41.3775" y="31.389118" style="fill: #d95f02; stroke: #000000; stroke-width: 0.375"/>
     <use xlink:href="#m490f4f26e3" x="61.2275" y="40.297769" style="fill: #d95f02; stroke: #000000; stroke-width: 0.375"/>
     <use xlink:href="#m490f4f26e3" x="81.0775" y="29.262073" style="fill: #d95f02; stroke: #000000; stroke-width: 0.375"/>
     <use xlink:href="#m490f4f26e3" x="100.9275" y="38.710496" style="fill: #d95f02; stroke: #000000; stroke-width: 0.375"/>
     <use xlink:href="#m490f4f26e3" x="120.7775" y="42.861986" style="fill: #d95f02; stroke: #000000; stroke-width: 0.375"/>
     <use xlink:href="#m490f4f26e3" x="140.6275" y="33.461153" style="fill: #d95f02; stroke: #000000; stroke-width: 0.375"/>
    </g>
   </g>
   <g id="line2d_33">
    <defs>
     <path id="m8ac7d631aa" d="M 0 1.5 
C 0.397805 1.5 0.77937 1.341951 1.06066 1.06066 
C 1.341951 0.77937 1.5 0.397805 1.5 0 
C 1.5 -0.397805 1.341951 -0.77937 1.06066 -1.06066 
C 0.77937 -1.341951 0.397805 -1.5 0 -1.5 
C -0.397805 -1.5 -0.77937 -1.341951 -1.06066 -1.06066 
C -1.341951 -0.77937 -1.5 -0.397805 -1.5 0 
C -1.5 0.397805 -1.341951 0.77937 -1.06066 1.06066 
C -0.77937 1.341951 -0.397805 1.5 0 1.5 
z
" style="stroke: #000000; stroke-width: 0.375"/>
    </defs>
    <g clip-path="url(#p3942b65a2a)">
     <use xlink:href="#m8ac7d631aa" x="46.34" y="27.764735" style="fill: #7570b3; stroke: #000000; stroke-width: 0.375"/>
     <use xlink:href="#m8ac7d631aa" x="66.19" y="34.14789" style="fill: #7570b3; stroke: #000000; stroke-width: 0.375"/>
     <use xlink:href="#m8ac7d631aa" x="86.04" y="24.332122" style="fill: #7570b3; stroke: #000000; stroke-width: 0.375"/>
     <use xlink:href="#m8ac7d631aa" x="105.89" y="35.479771" style="fill: #7570b3; stroke: #000000; stroke-width: 0.375"/>
     <use xlink:href="#m8ac7d631aa" x="125.74" y="38.535516" style="fill: #7570b3; stroke: #000000; stroke-width: 0.375"/>
     <use xlink:href="#m8ac7d631aa" x="145.59" y="40.4953" style="fill: #7570b3; stroke: #000000; stroke-width: 0.375"/>
    </g>
   </g>
   <g id="line2d_34"/>
   <g id="line2d_35"/>
   <g id="line2d_36"/>
   <g id="legend_1">
    <g id="line2d_37">
     <g>
      <use xlink:href="#m7291393f9d" x="40.9525" y="50.097978" style="fill: #1b9e77; stroke: #000000; stroke-width: 0.375"/>
     </g>
    </g>
    <g id="text_13">
     <!-- Replicate 1 -->
     <g style="fill: #262626" transform="translate(45.2025 51.847978) scale(0.05 -0.05)">
      <defs>
       <path id="ArialMT-52" d="M 503 0 
L 503 4581 
L 2534 4581 
Q 3147 4581 3465 4457 
Q 3784 4334 3975 4021 
Q 4166 3709 4166 3331 
Q 4166 2844 3850 2509 
Q 3534 2175 2875 2084 
Q 3116 1969 3241 1856 
Q 3506 1613 3744 1247 
L 4541 0 
L 3778 0 
L 3172 953 
Q 2906 1366 2734 1584 
Q 2563 1803 2427 1890 
Q 2291 1978 2150 2013 
Q 2047 2034 1813 2034 
L 1109 2034 
L 1109 0 
L 503 0 
z
M 1109 2559 
L 2413 2559 
Q 2828 2559 3062 2645 
Q 3297 2731 3419 2920 
Q 3541 3109 3541 3331 
Q 3541 3656 3305 3865 
Q 3069 4075 2559 4075 
L 1109 4075 
L 1109 2559 
z
" transform="scale(0.015625)"/>
       <path id="ArialMT-70" d="M 422 -1272 
L 422 3319 
L 934 3319 
L 934 2888 
Q 1116 3141 1344 3267 
Q 1572 3394 1897 3394 
Q 2322 3394 2647 3175 
Q 2972 2956 3137 2557 
Q 3303 2159 3303 1684 
Q 3303 1175 3120 767 
Q 2938 359 2589 142 
Q 2241 -75 1856 -75 
Q 1575 -75 1351 44 
Q 1128 163 984 344 
L 984 -1272 
L 422 -1272 
z
M 931 1641 
Q 931 1000 1190 694 
Q 1450 388 1819 388 
Q 2194 388 2461 705 
Q 2728 1022 2728 1688 
Q 2728 2322 2467 2637 
Q 2206 2953 1844 2953 
Q 1484 2953 1207 2617 
Q 931 2281 931 1641 
z
" transform="scale(0.015625)"/>
       <path id="ArialMT-6c" d="M 409 0 
L 409 4581 
L 972 4581 
L 972 0 
L 409 0 
z
" transform="scale(0.015625)"/>
       <path id="ArialMT-69" d="M 425 3934 
L 425 4581 
L 988 4581 
L 988 3934 
L 425 3934 
z
M 425 0 
L 425 3319 
L 988 3319 
L 988 0 
L 425 0 
z
" transform="scale(0.015625)"/>
       <path id="ArialMT-63" d="M 2588 1216 
L 3141 1144 
Q 3050 572 2676 248 
Q 2303 -75 1759 -75 
Q 1078 -75 664 370 
Q 250 816 250 1647 
Q 250 2184 428 2587 
Q 606 2991 970 3192 
Q 1334 3394 1763 3394 
Q 2303 3394 2647 3120 
Q 2991 2847 3088 2344 
L 2541 2259 
Q 2463 2594 2264 2762 
Q 2066 2931 1784 2931 
Q 1359 2931 1093 2626 
Q 828 2322 828 1663 
Q 828 994 1084 691 
Q 1341 388 1753 388 
Q 2084 388 2306 591 
Q 2528 794 2588 1216 
z
" transform="scale(0.015625)"/>
       <path id="ArialMT-61" d="M 2588 409 
Q 2275 144 1986 34 
Q 1697 -75 1366 -75 
Q 819 -75 525 192 
Q 231 459 231 875 
Q 231 1119 342 1320 
Q 453 1522 633 1644 
Q 813 1766 1038 1828 
Q 1203 1872 1538 1913 
Q 2219 1994 2541 2106 
Q 2544 2222 2544 2253 
Q 2544 2597 2384 2738 
Q 2169 2928 1744 2928 
Q 1347 2928 1158 2789 
Q 969 2650 878 2297 
L 328 2372 
Q 403 2725 575 2942 
Q 747 3159 1072 3276 
Q 1397 3394 1825 3394 
Q 2250 3394 2515 3294 
Q 2781 3194 2906 3042 
Q 3031 2891 3081 2659 
Q 3109 2516 3109 2141 
L 3109 1391 
Q 3109 606 3145 398 
Q 3181 191 3288 0 
L 2700 0 
Q 2613 175 2588 409 
z
M 2541 1666 
Q 2234 1541 1622 1453 
Q 1275 1403 1131 1340 
Q 988 1278 909 1158 
Q 831 1038 831 891 
Q 831 666 1001 516 
Q 1172 366 1500 366 
Q 1825 366 2078 508 
Q 2331 650 2450 897 
Q 2541 1088 2541 1459 
L 2541 1666 
z
" transform="scale(0.015625)"/>
       <path id="ArialMT-74" d="M 1650 503 
L 1731 6 
Q 1494 -44 1306 -44 
Q 1000 -44 831 53 
Q 663 150 594 308 
Q 525 466 525 972 
L 525 2881 
L 113 2881 
L 113 3319 
L 525 3319 
L 525 4141 
L 1084 4478 
L 1084 3319 
L 1650 3319 
L 1650 2881 
L 1084 2881 
L 1084 941 
Q 1084 700 1114 631 
Q 1144 563 1211 522 
Q 1278 481 1403 481 
Q 1497 481 1650 503 
z
" transform="scale(0.015625)"/>
      </defs>
      <use xlink:href="#ArialMT-52"/>
      <use xlink:href="#ArialMT-65" x="72.216797"/>
      <use xlink:href="#ArialMT-70" x="127.832031"/>
      <use xlink:href="#ArialMT-6c" x="183.447266"/>
      <use xlink:href="#ArialMT-69" x="205.664062"/>
      <use xlink:href="#ArialMT-63" x="227.880859"/>
      <use xlink:href="#ArialMT-61" x="277.880859"/>
      <use xlink:href="#ArialMT-74" x="333.496094"/>
      <use xlink:href="#ArialMT-65" x="361.279297"/>
      <use xlink:href="#ArialMT-20" x="416.894531"/>
      <use xlink:href="#ArialMT-31" x="444.677734"/>
     </g>
    </g>
    <g id="line2d_38">
     <g>
      <use xlink:href="#m490f4f26e3" x="40.9525" y="57.185478" style="fill: #d95f02; stroke: #000000; stroke-width: 0.375"/>
     </g>
    </g>
    <g id="text_14">
     <!-- Replicate 2 -->
     <g style="fill: #262626" transform="translate(45.2025 58.935478) scale(0.05 -0.05)">
      <use xlink:href="#ArialMT-52"/>
      <use xlink:href="#ArialMT-65" x="72.216797"/>
      <use xlink:href="#ArialMT-70" x="127.832031"/>
      <use xlink:href="#ArialMT-6c" x="183.447266"/>
      <use xlink:href="#ArialMT-69" x="205.664062"/>
      <use xlink:href="#ArialMT-63" x="227.880859"/>
      <use xlink:href="#ArialMT-61" x="277.880859"/>
      <use xlink:href="#ArialMT-74" x="333.496094"/>
      <use xlink:href="#ArialMT-65" x="361.279297"/>
      <use xlink:href="#ArialMT-20" x="416.894531"/>
      <use xlink:href="#ArialMT-32" x="444.677734"/>
     </g>
    </g>
    <g id="line2d_39">
     <g>
      <use xlink:href="#m8ac7d631aa" x="40.9525" y="64.272978" style="fill: #7570b3; stroke: #000000; stroke-width: 0.375"/>
     </g>
    </g>
    <g id="text_15">
     <!-- Replicate 3 -->
     <g style="fill: #262626" transform="translate(45.2025 66.022978) scale(0.05 -0.05)">
      <use xlink:href="#ArialMT-52"/>
      <use xlink:href="#ArialMT-65" x="72.216797"/>
      <use xlink:href="#ArialMT-70" x="127.832031"/>
      <use xlink:href="#ArialMT-6c" x="183.447266"/>
      <use xlink:href="#ArialMT-69" x="205.664062"/>
      <use xlink:href="#ArialMT-63" x="227.880859"/>
      <use xlink:href="#ArialMT-61" x="277.880859"/>
      <use xlink:href="#ArialMT-74" x="333.496094"/>
      <use xlink:href="#ArialMT-65" x="361.279297"/>
      <use xlink:href="#ArialMT-20" x="416.894531"/>
      <use xlink:href="#ArialMT-33" x="444.677734"/>
     </g>
    </g>
   </g>
  </g>
 </g>
 <defs>
  <clipPath id="p3942b65a2a">
   <rect x="31.4525" y="7.2" width="119.1" height="64.316728"/>
  </clipPath>
 </defs>
</svg>
